<?xml version="1.0" encoding="utf-8"?>
<!-- Generator: Adobe Illustrator 25.4.1, SVG Export Plug-In . SVG Version: 6.00 Build 0)  -->
<svg version="1.1" id="Layer_1" xmlns="http://www.w3.org/2000/svg" xmlns:xlink="http://www.w3.org/1999/xlink" x="0px" y="0px"
	 viewBox="0 0 1920 1080" style="enable-background:new 0 0 1920 1080;" xml:space="preserve">
<style type="text/css">
	.st0{fill:url(#SVGID_1_);}
	.st1{fill:#3C3C3B;}
	.st2{fill:#504235;}
	.st3{fill:url(#SVGID_00000057140283089974882090000017645791803640515459_);}
	.st4{fill:#FFFFFF;}
	.st5{fill:#404040;}
	.st6{fill:#6E7B8E;}
	.st7{fill:#1D1D1B;}
	.st8{fill:url(#SVGID_00000090296034343162510830000011510305635866868096_);}
	.st9{fill:#454542;}
	.st10{fill:#151B2E;}
	.st11{fill:#3D4C6A;}
	.st12{fill:#636362;}
	.st13{fill:#5D6061;}
	.st14{fill:url(#SVGID_00000152265551250378393990000004356305697299907745_);}
	.st15{fill:url(#SVGID_00000005265917330450571450000007825418942200932497_);}
	.st16{fill:url(#SVGID_00000065071408872906581600000006209899037538046625_);}
	.st17{fill:#A3473A;}
	.st18{fill:url(#SVGID_00000035502298271723554340000008877260225597417866_);}
	.st19{fill:#9E5235;}
	.st20{fill:url(#SVGID_00000103253540023540707010000004556126491291331976_);}
	.st21{fill:url(#SVGID_00000047772777554188489440000009392265595534332310_);}
	.st22{fill:#B4341A;}
	.st23{fill:url(#SVGID_00000117671785624107340670000000588807122422521477_);}
	.st24{fill:url(#SVGID_00000044894691901692743210000000574579096073407671_);}
	.st25{fill:#574C45;}
	.st26{opacity:0.42;fill:#D7E6F7;enable-background:new    ;}
	.st27{fill:#BFBFBF;}
	.st28{fill:#4B5C4A;}
	.st29{fill:#7B8087;}
	.st30{fill:#979149;}
	.st31{fill:#9C9B9B;}
	.st32{fill:#4B5B72;}
	.st33{fill:#3C3731;}
	.st34{fill:#7C3840;}
	.st35{fill:#A4ABB4;}
	.st36{fill:#386C7C;}
	.st37{fill:#666666;}
	.st38{fill:#808080;}
	.st39{fill:#F8E92B;}
	.st40{fill:url(#SVGID_00000093150726974598486780000000933006738228851135_);}
	.st41{fill:url(#SVGID_00000047778667952224939600000007696313906747702919_);}
	.st42{fill:url(#SVGID_00000091002938295756058240000009799271825218832299_);}
	.st43{fill:url(#SVGID_00000106148921967113446930000013427067612068598918_);}
	.st44{fill:url(#SVGID_00000170274997199905376370000003196292301606401453_);}
	.st45{fill:#8BC027;}
	.st46{fill:url(#SVGID_00000036939720716749481070000013802081889302462617_);}
	.st47{fill:#242C32;}
	.st48{fill:#755B42;}
	.st49{fill:#406544;}
	.st50{fill:#235329;}
	.st51{fill:#61462D;}
	.st52{fill:#2E2D1D;}
	.st53{fill:#584432;}
	.st54{fill:#5B5B3A;}
</style>
<linearGradient id="SVGID_1_" gradientUnits="userSpaceOnUse" x1="960" y1="742.87" x2="960" y2="1080.02" gradientTransform="matrix(1 0 0 -1 0 1080)">
	<stop  offset="0" style="stop-color:#FFFFFF"/>
	<stop  offset="0.1" style="stop-color:#DBE9F0"/>
	<stop  offset="0.27" style="stop-color:#A5C9DB"/>
	<stop  offset="0.44" style="stop-color:#78AEC8"/>
	<stop  offset="0.6" style="stop-color:#5599BA"/>
	<stop  offset="0.75" style="stop-color:#3C8AB0"/>
	<stop  offset="0.89" style="stop-color:#2D81AA"/>
	<stop  offset="1" style="stop-color:#287EA8"/>
</linearGradient>
<rect y="0" class="st0" width="1920" height="337.1"/>
<path class="st1" d="M409.9,261.7c11.5-6.9,25.9-6.6,39.1-4.4s26.2,6.4,39.6,6.6c19.7,0.3,38.5-7.9,57.9-11.4
	c15.2-2.8,30.7-2.7,46.1-1.8c44.6,2.8,88.4,13,131.7,24c80.8,20.5,93.9,23.9,107,28.9C856,312.9,880,324.1,903,337l-281.3,0.9
	l-211.8-0.6L409.9,261.7z"/>
<path class="st2" d="M0.6,235.2c26.1-7.4,53.7-6.4,80.8-5.4c8.2,0.3,16.7,0.7,24.4,3.5c9.7,3.6,17.6,10.8,26.9,15.5
	c18.3,9.3,39.9,8.1,60.3,6.6l102.7-7.3c36.4-2.6,74.9-4.8,107.3,12c33.6,17.4,69.8,22.8,105.6,35.2c38.3,13.3,81.6,16.9,113,42.5
	L0,337L0.6,235.2z"/>
<linearGradient id="SVGID_00000096039960824089249410000016808278470357434289_" gradientUnits="userSpaceOnUse" x1="960" y1="1" x2="960" y2="743" gradientTransform="matrix(1 0 0 -1 0 1080)">
	<stop  offset="0" style="stop-color:#989898"/>
	<stop  offset="0.21" style="stop-color:#949494"/>
	<stop  offset="0.41" style="stop-color:#898989"/>
	<stop  offset="0.6" style="stop-color:#767676"/>
	<stop  offset="0.78" style="stop-color:#5C5C5C"/>
	<stop  offset="0.97" style="stop-color:#3A3A3A"/>
	<stop  offset="1" style="stop-color:#333333"/>
</linearGradient>
<rect y="337" style="fill:url(#SVGID_00000096039960824089249410000016808278470357434289_);" width="1920" height="742"/>
<rect x="59.2" y="403.3" class="st4" width="567" height="2.4"/>
<rect x="1166.8" y="669.8" class="st4" width="719.2" height="4"/>
<rect x="1166.8" y="816.8" class="st4" width="719.2" height="4"/>
<rect x="1166.8" y="965.8" class="st4" width="719.2" height="4"/>
<rect x="1173.8" y="537.8" class="st4" width="719.2" height="4"/>
<rect x="53.7" y="507.4" class="st4" width="567" height="2.4"/>
<rect x="53.7" y="645.4" class="st4" width="567" height="2.4"/>
<rect x="59.7" y="766.4" class="st4" width="567" height="2.4"/>
<path id="vej" class="st5" d="M727,1080c-4.2-94,1.8-188.3,18-281c24-136.8,42-231.6,121-298c40.7-34.2,78.5-49.7,141-64
	c113.7-26.1,201.6-25.6,335-24c126.9,1.5,253,3.3,319,4c110.1,1.1,200,0.6,259,0v64c-130.8-0.9-235-2.7-302-4
	c-99.2-2-194.4-4.6-320,9c-122.9,13.3-184.6,24-219,68c-25.7,32.9-31.8,74.3-7,270c13.4,105.7,27.8,193.4,39,256H727z"/>
<g id="navy">
	<path class="st6" d="M207.9,475.2c11.3-22.2,9.4-46.4-3.9-60.2c-12.9-13.3-31.8-12.3-40.7-11.8c-18.9,1-51.7,10.5-58.5,37.4
		c-4.7,18.4,5.5,34.9,8.9,40L207.9,475.2z"/>
	<path class="st7" d="M157.2,434.5c14.1,0,25.5,11.4,25.5,25.5c0,14.1-11.4,25.5-25.5,25.5c-14.1,0-25.5-11.4-25.5-25.5c0,0,0,0,0,0
		C131.7,445.9,143.1,434.5,157.2,434.5 M157.2,414.1c-25.4,0-45.9,20.6-45.9,45.9c0,25.4,20.6,45.9,45.9,45.9s45.9-20.6,45.9-45.9
		l0,0C203.1,434.6,182.5,414.1,157.2,414.1z"/>
	
		<radialGradient id="SVGID_00000024695038042921628260000005525447258882011577_" cx="1503.55" cy="620.42" r="26.87" gradientTransform="matrix(-1 0 0 -1 1660.73 1080)" gradientUnits="userSpaceOnUse">
		<stop  offset="0.11" style="stop-color:#FFFFFF"/>
		<stop  offset="0.19" style="stop-color:#F0F0F0"/>
		<stop  offset="0.34" style="stop-color:#C8C8C8"/>
		<stop  offset="0.54" style="stop-color:#898989"/>
		<stop  offset="0.55" style="stop-color:#868686"/>
		<stop  offset="0.72" style="stop-color:#656564"/>
		<stop  offset="0.9" style="stop-color:#474746"/>
		<stop  offset="1" style="stop-color:#3C3C3B"/>
	</radialGradient>
	<circle style="fill:url(#SVGID_00000024695038042921628260000005525447258882011577_);" cx="157.2" cy="459.6" r="26.9"/>
	<path class="st9" d="M143.6,440.7c5.9,0.4,10.5,11.1,7.3,15.3s-14.5,2.9-16.6-2.7C132.4,448.2,138.3,440.4,143.6,440.7z"/>
	<path class="st7" d="M142.1,458.7c-3.2-0.5-7-2.1-8.2-5.3c-0.9-2.5-0.1-5.8,2-8.7s5.1-4.6,7.7-4.4l0,0c3.4,0.2,6,3.5,7.4,6.4
		c1.7,3.7,1.8,7.4,0.2,9.5c-1.2,1.7-3.8,2.6-6.8,2.6C143.5,458.9,142.8,458.8,142.1,458.7z M136.5,445.2c-2,2.7-2.7,5.7-1.9,7.9
		c1.1,2.9,4.6,4.4,7.6,4.8c3.6,0.5,7-0.3,8.4-2.1s1.3-5.3-0.3-8.7c-1.3-2.8-3.7-5.8-6.7-6h-0.3C141,441.1,138.4,442.6,136.5,445.2
		L136.5,445.2z"/>
	<path class="st9" d="M137.1,473.2c0.4-6.3,12-11.2,16.5-7.7c4.3,3.4,3.1,15.3-3,17.6C145.1,485.1,136.7,478.7,137.1,473.2z"/>
	<path class="st7" d="M141.4,481.2c-3.1-2.3-4.9-5.4-4.8-8.1l0,0c0.2-3.6,3.7-6.4,6.9-7.8c4-1.8,8-1.9,10.2-0.2s3.2,5.5,2.6,9.6
		c-0.5,3.3-2.2,7.3-5.6,8.6c-0.8,0.3-1.6,0.4-2.4,0.4C145.8,483.7,143.4,482.8,141.4,481.2z M143.9,466c-4.6,2.1-6.3,5.1-6.5,7.2
		l0,0c-0.1,2.4,1.6,5.3,4.4,7.4s6.2,2.9,8.6,2c3.1-1.2,4.6-4.9,5.1-8c0.6-3.9-0.3-7.4-2.2-8.9c-1.1-0.7-2.4-1.1-3.8-1
		C147.6,464.7,145.7,465.2,143.9,466z"/>
	<path class="st9" d="M179.8,465c-2.6-5.6-12.2-6.5-15.4-3.1c-3.9,4.3,1.2,16.6,6.6,17C175.7,479.3,182.6,471.1,179.8,465z"/>
	<path class="st7" d="M171.1,479.3c-3.2-0.2-5.9-4-7.1-7.2s-2-7.9,0.3-10.4c1.6-1.8,4.8-2.5,8.3-2c3.6,0.6,6.6,2.5,7.8,5.1l0,0
		c1.3,2.8,0.7,6.4-1.6,9.6c-2,3-4.9,4.9-7.3,4.9L171.1,479.3z M164.7,462.2c-1.7,1.8-1.7,5.6-0.1,9.6s4.2,6.6,6.5,6.8
		c2.1,0.1,5-1.7,6.9-4.5c2.1-3,2.6-6.3,1.5-8.8l0,0c-1.1-2.4-3.8-4.2-7.2-4.7c-0.7-0.1-1.3-0.2-2-0.2
		C168,460.4,165.9,461,164.7,462.2z"/>
	<path class="st9" d="M175.5,445.9c0.1,6.4-12,12.2-16.5,9c-4.2-3.1-3.6-15.1,2.7-17.7C167.2,434.9,175.4,440.7,175.5,445.9z"/>
	<path class="st7" d="M158.8,455.2c-2.1-1.5-3.2-5.4-2.8-9.5c0.5-4.3,2.6-7.7,5.5-8.9c2.7-1.1,6.2-0.5,9.4,1.6s5,4.9,5,7.5
		c0.1,3.6-3.4,6.7-6.7,8.4c-2.1,1.1-4.4,1.8-6.7,1.8C161.1,456.3,159.8,455.9,158.8,455.2z M161.8,437.5c-2.7,1.1-4.5,4.2-5,8.2
		c-0.4,3.8,0.6,7.4,2.4,8.8s5.8,1.1,9.6-0.9s6.3-5,6.3-7.7l0,0c0-2.3-1.9-5-4.7-6.9c-1.8-1.2-3.9-1.9-6.1-2
		C163.5,437.1,162.6,437.2,161.8,437.5L161.8,437.5z"/>
	<path class="st6" d="M523.6,473.6c10.6-18.6,9.7-39.3-1.2-51.1c-10.5-11.4-26.7-10.5-34.6-10.1c-17.5,0.9-43.9,10.1-49.8,31.8
		c-2.9,10.6,0.3,20.3,2.4,25.3L523.6,473.6z"/>
	<path class="st10" d="M525.3,472.1l68.8-2c6.3-60.1-7.2-82-20.2-91c-23.1-16-49.3,5-82.5-12c-28.6-14.6-22.4-37-49-62.8
		c-41.1-39.8-120.7-49.4-165.9-18.2c-30.5,21-19.6,42.8-50.3,62.6c-46.2,29.9-90.7-5.6-131.8,18.3c-19.9,11.6-42.1,39-46.8,110.6
		l64.5,1.4c-8.3-19.3-4.3-41.4,9.9-55.5c16.7-16.6,42.7-17.3,61.3-5.9c19.1,11.8,28.5,34.5,23.3,56.3l235.7-5.7
		c-2.9-15.9,2-31.9,13.4-41.4c16.8-14,42.8-9.9,57.4,4.6C529,447.1,525.7,469.7,525.3,472.1z"/>
	<path class="st11" d="M46.1,479l0.1-1.5C50,419.4,66,381.8,93.7,365.7c19.9-11.5,40-9.5,61.4-7.4c22.8,2.3,46.4,4.6,70.4-10.8
		c15.1-9.8,19.8-19.9,24.8-30.5s10-21.4,25.4-32.1c45.4-31.3,125.4-22.6,167.6,18.3c12.1,11.7,17.6,22.8,22.4,32.5
		c5.9,11.9,10.9,22.1,26.3,30c16.6,8.5,31.2,7.3,45.2,6.1c13.2-1.1,25.7-2.1,37.4,6c18.9,13.1,25.9,44.2,20.8,92.3l-0.1,1.2
		l-71.7,2.1l0.3-1.7c0.4-2.5,3.5-24.4-11.7-39.6c-13.4-13.3-38.9-18.3-55.5-4.5c-10.9,9-15.8,24.4-12.9,40l0.3,1.6l-239.1,5.8
		l0.4-1.8c5.2-21.2-4-43.4-22.6-54.7c-19.3-11.8-44.4-9.4-59.6,5.7c-13.8,13.7-17.6,35.4-9.6,54l0.9,2L46.1,479z M184.1,416.3
		c19.1,11.7,28.8,34.1,24.3,56l232.2-5.6c-2.4-16.1,2.9-31.7,14.2-41.1c14.3-11.9,41-13.5,59.3,4.7c14.4,14.3,13.5,34.2,12.7,40.4
		l65.9-1.9c4.7-46.4-1.9-76.1-19.8-88.5c-10.9-7.5-22.3-6.6-35.6-5.5c-13.8,1.1-29.4,2.4-46.7-6.5c-16.2-8.3-21.5-19-27.5-31.3
		c-4.7-9.6-10.1-20.4-21.8-31.8c-41.4-40.1-119.7-48.7-164.1-18.1c-14.8,10.2-19.7,20.7-24.5,30.9c-4.9,10.6-10,21.5-25.9,31.7
		c-24.8,16-48.9,13.6-72.2,11.3c-20.9-2.1-40.6-4-59.7,7C68.5,383.6,53,420,49.1,476.2l60.9,1.3c-7.4-19.2-3.1-41.1,11-55.1
		c9.4-9.1,22-14.1,35.1-14C166,408.5,175.7,411.2,184.1,416.3L184.1,416.3z"/>
	
		<rect x="314.1" y="411.4" transform="matrix(4.886881e-03 -1 1 4.886881e-03 -60.8551 763.8471)" class="st12" width="78.5" height="2.1"/>
	<path class="st13" d="M326.5,373.2c0-2.9,5.7-3.1,7.4-3.1s7.4,0.2,7.4,3.1s-5.7,3.1-7.4,3.1S326.5,376.2,326.5,373.2z M333.9,372.9
		c-1.1,0-2.2,0.1-3.4,0.3c2.2,0.4,4.5,0.4,6.7,0C336.2,373,335.1,372.9,333.9,372.9z"/>
	<path class="st13" d="M428.4,371.5c0-2.9,5.7-3.1,7.4-3.1s7.4,0.2,7.4,3.1s-5.7,3.1-7.4,3.1S428.4,374.4,428.4,371.5z M432.5,371.5
		c2.2,0.4,4.5,0.4,6.7,0C437,371.2,434.7,371.2,432.5,371.5z"/>
	
		<radialGradient id="SVGID_00000108273019997843698360000010392512513163802534_" cx="1571.62" cy="695.47" r="13.01" gradientTransform="matrix(-1.0041 0 0 -1.0041 1660.7267 1084.4208)" gradientUnits="userSpaceOnUse">
		<stop  offset="0.21" style="stop-color:#F5F5F5"/>
		<stop  offset="0.24" style="stop-color:#F5F0E6"/>
		<stop  offset="0.31" style="stop-color:#F6E2BE"/>
		<stop  offset="0.39" style="stop-color:#F7CB7E"/>
		<stop  offset="0.49" style="stop-color:#F8B133"/>
		<stop  offset="0.51" style="stop-color:#F8BA4D;stop-opacity:0.99"/>
		<stop  offset="0.57" style="stop-color:#F7CF88;stop-opacity:0.98"/>
		<stop  offset="0.63" style="stop-color:#F6DFB7;stop-opacity:0.97"/>
		<stop  offset="0.68" style="stop-color:#F5EBD9;stop-opacity:0.96"/>
		<stop  offset="0.72" style="stop-color:#F5F2EE;stop-opacity:0.95"/>
		<stop  offset="0.75" style="stop-color:#F5F5F5;stop-opacity:0.95"/>
		<stop  offset="0.75" style="stop-color:#F5F5EA;stop-opacity:0.95"/>
		<stop  offset="0.79" style="stop-color:#F8F2AC;stop-opacity:0.95"/>
		<stop  offset="0.83" style="stop-color:#FAF078;stop-opacity:0.95"/>
		<stop  offset="0.87" style="stop-color:#FCEF4D;stop-opacity:0.95"/>
		<stop  offset="0.9" style="stop-color:#FDEE2B;stop-opacity:0.95"/>
		<stop  offset="0.94" style="stop-color:#FEED13;stop-opacity:0.95"/>
		<stop  offset="0.97" style="stop-color:#FFEC05;stop-opacity:0.95"/>
		<stop  offset="1" style="stop-color:#FFEC00;stop-opacity:0.95"/>
	</radialGradient>
	<path style="fill:url(#SVGID_00000108273019997843698360000010392512513163802534_);" d="M80.9,376.3c5.6-5.6,13.8-6.4,18.3-1.9
		c4.5,4.5,3.7,12.7-1.9,18.3c-5.6,5.6-13.8,6.4-18.3,1.9C74.5,390.1,75.3,381.9,80.9,376.3z"/>
	<path class="st7" d="M342.2,286.1l-0.8,65.7l-80.8-0.6c6.8-19.2,19.3-35.9,35.8-47.8C310.1,294,325.8,288,342.2,286.1 M345.1,283
		l-3.2,0.4c-16.9,1.9-33.1,8-47,17.9c-17,12.2-29.9,29.4-36.9,49.1l-1.3,3.7h3.9l70.2,0.5l10.5,0.1h2.8v-2.8l0.4-32.8l0.4-32.9
		L345.1,283L345.1,283z"/>
	<path class="st7" d="M362.1,286.6c34.8,6.1,63.2,31.4,73.3,65.2l-72.5-0.3C362.6,329.9,362.3,308.3,362.1,286.6 M359.2,283.2v3.4
		l0.4,32.5l0.4,32.5v2.8h2.8l31.2,0.1l41.3,0.1h3.8l-1-3.6c-10.5-34.9-39.7-60.9-75.5-67.2L359.2,283.2L359.2,283.2z"/>
	
		<linearGradient id="SVGID_00000103234943630076405950000001920769007309659326_" gradientUnits="userSpaceOnUse" x1="1318.52" y1="760.775" x2="1400.02" y2="760.775" gradientTransform="matrix(-1 0 0 -1 1660.73 1080)">
		<stop  offset="0" style="stop-color:#FFFFFF"/>
		<stop  offset="1" style="stop-color:#73B9E7"/>
	</linearGradient>
	<path style="fill:url(#SVGID_00000103234943630076405950000001920769007309659326_);" d="M342.2,286.4
		c-16.4,1.8-32.2,7.8-45.7,17.4c-16.6,11.9-29.1,28.5-35.8,47.8l80.8,0.6L342.2,286.4z"/>
	
		<linearGradient id="SVGID_00000050662926881014107070000000587685869500915351_" gradientUnits="userSpaceOnUse" x1="1225.34" y1="760.775" x2="1298.6599" y2="760.775" gradientTransform="matrix(-1 0 0 -1 1660.73 1080)">
		<stop  offset="0" style="stop-color:#FFFFFF"/>
		<stop  offset="0.13" style="stop-color:#F8FBFE"/>
		<stop  offset="0.33" style="stop-color:#E4F2FA"/>
		<stop  offset="0.56" style="stop-color:#C4E1F5"/>
		<stop  offset="0.81" style="stop-color:#97CBED"/>
		<stop  offset="1" style="stop-color:#73B9E7"/>
	</linearGradient>
	<path style="fill:url(#SVGID_00000050662926881014107070000000587685869500915351_);" d="M362.1,286.6
		c34.8,6.1,63.2,31.4,73.3,65.2l-72.5-0.3C362.6,329.9,362.3,308.3,362.1,286.6z"/>
	<ellipse transform="matrix(0.866 -0.5 0.5 0.866 -121.9728 344.3778)" class="st17" cx="581.6" cy="399.8" rx="8.4" ry="16.3"/>
	<path class="st7" d="M482.8,439.8c11.2,0,20.3,9.1,20.3,20.4c0,11.2-9.1,20.3-20.4,20.3s-20.3-9.1-20.3-20.4c0,0,0,0,0,0
		C462.5,448.9,471.6,439.8,482.8,439.8 M482.8,423.5c-20.2,0-36.6,16.4-36.6,36.6s16.4,36.6,36.6,36.6s36.6-16.4,36.6-36.6l0,0
		C519.4,439.9,503,423.5,482.8,423.5z"/>
	
		<radialGradient id="SVGID_00000178891573434909503910000000491702848791574972_" cx="1177.9304" cy="620.2306" r="21.4176" gradientTransform="matrix(-1 0 0 -1 1660.73 1080)" gradientUnits="userSpaceOnUse">
		<stop  offset="0.11" style="stop-color:#FFFFFF"/>
		<stop  offset="0.19" style="stop-color:#F0F0F0"/>
		<stop  offset="0.34" style="stop-color:#C8C8C8"/>
		<stop  offset="0.54" style="stop-color:#898989"/>
		<stop  offset="0.55" style="stop-color:#868686"/>
		<stop  offset="0.72" style="stop-color:#656564"/>
		<stop  offset="0.9" style="stop-color:#474746"/>
		<stop  offset="1" style="stop-color:#3C3C3B"/>
	</radialGradient>
	<circle style="fill:url(#SVGID_00000178891573434909503910000000491702848791574972_);" cx="482.8" cy="459.8" r="21.4"/>
	<path class="st9" d="M471.9,444.7c4.7,0.3,8.4,8.8,5.8,12.2s-11.6,2.3-13.2-2.2C463,450.7,467.7,444.5,471.9,444.7z"/>
	<path class="st7" d="M470.7,459.1c-2.5-0.4-5.6-1.7-6.5-4.2c-0.7-2-0.1-4.6,1.6-6.9c1.7-2.3,4.1-3.7,6.1-3.5l0,0
		c2.7,0.2,4.8,2.7,5.9,5.1c1.3,2.9,1.4,5.9,0.2,7.6c-1,1.3-3,2.1-5.5,2.1C471.9,459.2,471.3,459.1,470.7,459.1z M466.3,448.3
		c-1.6,2.1-2.2,4.6-1.5,6.3c0.8,2.3,3.7,3.5,6,3.8c2.9,0.4,5.6-0.3,6.7-1.7c1.1-1.5,1-4.2-0.2-7c-1-2.2-2.9-4.6-5.4-4.8h-0.2
		C469.9,445,467.9,446.3,466.3,448.3L466.3,448.3z"/>
	<path class="st9" d="M466.8,470.6c0.3-5,9.6-8.9,13.2-6.2c3.5,2.7,2.5,12.2-2.4,14C473.2,480.1,466.5,475,466.8,470.6z"/>
	<path class="st7" d="M470.3,477c-2.5-1.8-3.9-4.3-3.8-6.5l0,0c0.2-2.8,3-5.1,5.5-6.2c3.2-1.5,6.4-1.5,8.1-0.2
		c1.8,1.4,2.5,4.4,2,7.7c-0.4,2.6-1.8,5.8-4.5,6.8c-0.6,0.2-1.3,0.3-1.9,0.3C473.7,479,471.8,478.3,470.3,477z M472.2,464.9
		c-3.6,1.6-5,4-5.1,5.7l0,0c-0.1,1.9,1.3,4.3,3.5,5.9c2.3,1.7,4.9,2.3,6.8,1.6c2.4-0.9,3.7-3.9,4.1-6.4c0.5-3.1-0.3-5.9-1.8-7.1
		c-0.9-0.6-1.9-0.9-3-0.8C475.2,463.9,473.6,464.2,472.2,464.9z"/>
	<path class="st9" d="M500.9,464.1c-2-4.5-9.8-5.2-12.3-2.4c-3.1,3.4,0.9,13.2,5.3,13.6C497.6,475.5,503.1,468.9,500.9,464.1z"/>
	<path class="st7" d="M493.9,475.5c-2.6-0.2-4.7-3.2-5.7-5.8s-1.6-6.3,0.2-8.3c1.3-1.4,3.9-2,6.6-1.6c2.9,0.5,5.2,2,6.2,4.1l0,0
		c1,2.2,0.5,5.1-1.2,7.6c-1.6,2.4-3.9,3.9-5.8,3.9L493.9,475.5z M488.8,461.9c-1.3,1.5-1.4,4.4-0.1,7.6c1.3,3.2,3.3,5.3,5.2,5.4
		c1.7,0.1,4-1.4,5.5-3.6c1.7-2.4,2.1-5,1.2-7l0,0c-0.9-1.9-3-3.3-5.7-3.7c-0.5-0.1-1.1-0.1-1.6-0.1
		C491.4,460.4,489.7,460.9,488.8,461.9z"/>
	<path class="st9" d="M497.4,448.9c0.1,5.1-9.6,9.8-13.2,7.1c-3.4-2.4-2.9-12.1,2.1-14.1C490.8,440.1,497.4,444.7,497.4,448.9z"/>
	<path class="st7" d="M484.1,456.3c-1.7-1.2-2.6-4.3-2.2-7.6c0.4-3.5,2-6.1,4.4-7.1c2.1-0.9,4.9-0.4,7.5,1.3s4,3.9,4,6
		c0,2.9-2.7,5.4-5.4,6.7c-1.6,0.9-3.5,1.4-5.3,1.5C485.9,457.1,484.9,456.8,484.1,456.3z M486.5,442.2c-2.1,0.9-3.6,3.3-4,6.6
		c-0.4,3,0.4,5.9,1.9,7c1.5,1.1,4.7,0.9,7.7-0.7c3-1.6,5.1-4,5-6.2l0,0c0-1.8-1.5-4-3.7-5.5c-1.4-1-3.1-1.5-4.8-1.6
		C487.8,441.8,487.1,441.9,486.5,442.2L486.5,442.2z"/>
</g>
<g id="racer">
	<path class="st19" d="M130.6,584.5c-0.6-2.5-7-33.2,13.4-53.6c15.7-15.6,36.7-14.6,48.4-14.1c27.5,1.3,62.8,16.7,69.5,44.4
		c1.5,6.5,1.5,13.2,0,19.6L130.6,584.5z"/>
	<path class="st19" d="M397.4,584.4c-6.9-19-4.3-38.9,7.4-51.7c13.6-14.9,33.6-13.8,45.5-13.2c27,1.4,61.9,16.9,65.3,41.7
		c1.1,8.1-1.4,15.2-3.9,20.1L397.4,584.4z"/>
	
		<radialGradient id="SVGID_00000084489669873154580150000010344933955040060601_" cx="345.14" cy="357.58" r="31.9" gradientTransform="matrix(0.95 0 0 -0.79 -133.14 855.6801)" gradientUnits="userSpaceOnUse">
		<stop  offset="0.11" style="stop-color:#FFFFFF"/>
		<stop  offset="0.18" style="stop-color:#F0F0F0"/>
		<stop  offset="0.34" style="stop-color:#C8C8C8"/>
		<stop  offset="0.54" style="stop-color:#898989"/>
		<stop  offset="0.55" style="stop-color:#868686"/>
		<stop  offset="0.57" style="stop-color:#818181"/>
		<stop  offset="0.69" style="stop-color:#636362;stop-opacity:0.98"/>
		<stop  offset="0.8" style="stop-color:#4D4D4D;stop-opacity:0.96"/>
		<stop  offset="0.91" style="stop-color:#40403F;stop-opacity:0.95"/>
		<stop  offset="1" style="stop-color:#3C3C3B;stop-opacity:0.95"/>
	</radialGradient>
	
		<ellipse style="fill:url(#SVGID_00000084489669873154580150000010344933955040060601_);" cx="194.2" cy="571.5" rx="30.3" ry="25.1"/>
	<path class="st9" d="M209.5,553.4c-6.7,0.4-11.8,10.4-8.2,14.3s16.4,2.7,18.7-2.6C222.1,560.4,215.5,553.1,209.5,553.4z"/>
	<path class="st7" d="M208.7,570.4c-3.4,0-6.3-0.9-7.7-2.4c-1.8-1.9-1.7-5.4,0.2-8.9c1.5-2.8,4.5-5.8,8.3-6l0,0
		c2.9-0.2,6.2,1.4,8.6,4.1s3.3,5.8,2.3,8.1c-1.3,3-5.6,4.5-9.2,4.9C210.4,570.3,209.5,570.4,208.7,570.4z M209.9,553.8h-0.3
		c-3.4,0.2-6.2,3-7.6,5.6c-1.8,3.2-1.9,6.5-0.3,8.2s5.4,2.5,9.5,2c3.3-0.4,7.3-1.8,8.5-4.5c0.9-2.1,0.1-4.9-2.2-7.4
		C215.6,555.4,212.8,554,209.9,553.8z"/>
	<path class="st9" d="M216.8,583.8c-0.4-5.8-13.5-10.5-18.6-7.2c-4.9,3.1-3.5,14.3,3.3,16.4C207.8,594.9,217.2,588.9,216.8,583.8z"
		/>
	<path class="st7" d="M204.2,593.7c-0.9,0-1.9-0.1-2.8-0.4c-3.8-1.2-5.8-4.9-6.3-8c-0.7-3.9,0.4-7.5,2.9-9s7-1.5,11.5,0.2
		c3.6,1.3,7.5,4,7.8,7.3l0,0c0.2,2.5-1.9,5.5-5.3,7.6C209.6,592.8,206.9,593.6,204.2,593.7z M202.8,575.8c-1.5-0.1-2.9,0.3-4.2,1
		c-2.2,1.4-3.2,4.7-2.5,8.3c0.5,2.9,2.3,6.4,5.8,7.5c2.7,0.8,6.4,0.1,9.7-1.9s5.2-4.7,5-7l0,0c-0.1-2-2.1-4.8-7.3-6.7
		C207.1,576.3,204.9,575.9,202.8,575.8z"/>
	<path class="st9" d="M168.7,576.2c2.9-5.3,13.8-6.1,17.3-2.9c4.4,4-1.3,15.5-7.5,15.9C173.3,589.5,165.6,581.8,168.7,576.2z"/>
	<path class="st7" d="M178.2,589.6c-2.7,0-5.9-1.8-8.2-4.6c-2.5-3-3.2-6.4-1.8-9l0,0c1.4-2.5,4.6-4.3,8.7-4.8
		c3.9-0.5,7.5,0.2,9.3,1.9c2.6,2.3,1.8,6.7,0.3,9.7s-4.4,6.6-8.1,6.8L178.2,589.6z M179.4,571.8c-0.7,0-1.5,0.1-2.2,0.2
		c-3.8,0.5-6.9,2.1-8.1,4.4l0,0c-1.3,2.3-0.7,5.4,1.7,8.2c2.2,2.6,5.4,4.4,7.8,4.2c2.6-0.2,5.6-2.7,7.3-6.3s1.7-7.2-0.1-8.9
		C184.4,572.4,182.1,571.8,179.4,571.8z"/>
	<path class="st9" d="M173.6,558.3c-0.1,6,13.5,11.4,18.6,8.4c4.8-2.8,4.1-14.2-3-16.6C182.9,548,173.6,553.4,173.6,558.3z"/>
	<path class="st7" d="M188.2,567.9c-2.6-0.1-5.2-0.7-7.6-1.7c-3.7-1.6-7.6-4.5-7.6-7.9c0-2.4,2.2-5.1,5.7-7s7.5-2.5,10.5-1.5
		c3.3,1.1,5.6,4.2,6.2,8.3c0.6,3.9-0.7,7.5-3.1,8.9C191.1,567.7,189.7,568,188.2,567.9z M186.1,550c-2.4,0.1-4.7,0.7-6.8,1.9
		c-3.2,1.7-5.2,4.3-5.3,6.4l0,0c0,2.5,2.8,5.4,7.1,7.2s8.6,2.2,10.8,0.8s3.2-4.7,2.7-8.2c-0.5-3.8-2.6-6.7-5.6-7.7
		C188.1,550.1,187.1,550,186.1,550z"/>
	<path class="st7" d="M194.2,547.6c15.9,0,28.8,10.7,28.8,23.9s-12.9,23.9-28.8,23.9s-28.8-10.7-28.8-23.9S178.3,547.6,194.2,547.6
		 M194.2,528.5c-28.5,0-51.7,19.3-51.7,43s23.2,43,51.7,43s51.7-19.3,51.7-43S222.7,528.5,194.2,528.5z"/>
	<path class="st7" d="M453.7,551.2c15.9,0,28.8,10.7,28.8,23.9s-12.9,23.9-28.8,23.9S425,588.2,425,575S437.9,551.1,453.7,551.2
		 M453.8,532c-28.5,0-51.7,19.3-51.7,43s23.2,43,51.7,43s51.7-19.3,51.7-43S482.3,532,453.8,532z"/>
	
		<radialGradient id="SVGID_00000123420058352263609820000005300947892713808290_" cx="618.79" cy="353.59" r="31.9" gradientTransform="matrix(1 0 0 -1 0 1080)" gradientUnits="userSpaceOnUse">
		<stop  offset="0.11" style="stop-color:#FFFFFF"/>
		<stop  offset="0.18" style="stop-color:#F0F0F0"/>
		<stop  offset="0.34" style="stop-color:#C8C8C8"/>
		<stop  offset="0.54" style="stop-color:#898989"/>
		<stop  offset="0.55" style="stop-color:#868686"/>
		<stop  offset="0.57" style="stop-color:#818181"/>
		<stop  offset="0.69" style="stop-color:#636362;stop-opacity:0.98"/>
		<stop  offset="0.8" style="stop-color:#4D4D4D;stop-opacity:0.96"/>
		<stop  offset="0.91" style="stop-color:#40403F;stop-opacity:0.95"/>
		<stop  offset="1" style="stop-color:#3C3C3B;stop-opacity:0.95"/>
	</radialGradient>
	
		<ellipse style="fill:url(#SVGID_00000123420058352263609820000005300947892713808290_);" cx="453.7" cy="574.6" rx="30.3" ry="25.1"/>
	<path class="st9" d="M469.1,557c-6.7,0.4-11.8,10.4-8.2,14.3s16.4,2.7,18.7-2.6C481.6,564,475,556.7,469.1,557z"/>
	<path class="st7" d="M468.2,574c-3.4,0-6.3-0.9-7.7-2.4c-1.8-1.9-1.7-5.4,0.2-8.9c1.5-2.8,4.5-5.8,8.3-6l0,0
		c2.9-0.2,6.2,1.4,8.6,4.1s3.3,5.8,2.3,8.1c-1.3,3-5.6,4.5-9.2,4.9C469.9,573.9,469.1,574,468.2,574z M469.4,557.4h-0.3
		c-3.4,0.2-6.2,3-7.6,5.6c-1.8,3.2-1.9,6.5-0.3,8.2s5.4,2.5,9.5,2c3.3-0.4,7.3-1.8,8.5-4.5c0.9-2.1,0.1-4.9-2.2-7.4
		C475.1,559,472.4,557.5,469.4,557.4L469.4,557.4z"/>
	<path class="st9" d="M476.4,587.3c-0.4-5.8-13.5-10.5-18.6-7.2c-4.9,3.1-3.5,14.3,3.3,16.4C467.3,598.5,476.8,592.5,476.4,587.3z"
		/>
	<path class="st7" d="M463.7,597.2c-0.9,0-1.9-0.1-2.8-0.4c-3.8-1.2-5.8-4.9-6.3-8c-0.7-3.9,0.4-7.5,2.9-9s7-1.5,11.5,0.2
		c3.6,1.3,7.5,4,7.8,7.3l0,0c0.2,2.5-1.9,5.5-5.4,7.6C469.1,596.4,466.5,597.2,463.7,597.2z M462.3,579.4c-1.5-0.1-2.9,0.3-4.2,1
		c-2.2,1.4-3.2,4.7-2.5,8.3c0.5,2.9,2.3,6.4,5.8,7.5c2.7,0.8,6.4,0.1,9.7-1.9s5.2-4.7,5-7l0,0c-0.1-2-2.1-4.8-7.3-6.7
		C466.6,579.9,464.5,579.4,462.3,579.4z"/>
	<path class="st9" d="M428.2,579.8c2.9-5.3,13.8-6.1,17.3-2.9c4.4,4-1.3,15.5-7.5,15.9C432.9,593,425.1,585.4,428.2,579.8z"/>
	<path class="st7" d="M437.8,593.1c-2.7,0-5.9-1.8-8.2-4.6c-2.5-3-3.2-6.4-1.8-9l0,0c1.4-2.5,4.6-4.3,8.8-4.8
		c3.9-0.5,7.5,0.2,9.3,1.9c2.5,2.3,1.8,6.7,0.3,9.7s-4.4,6.6-8,6.8L437.8,593.1z M438.9,575.3c-0.7,0-1.5,0.1-2.2,0.2
		c-3.8,0.5-6.8,2.1-8.1,4.4l0,0c-1.3,2.3-0.7,5.4,1.7,8.2c2.2,2.6,5.4,4.4,7.8,4.2c2.6-0.2,5.5-2.7,7.3-6.3s1.7-7.2-0.1-8.9
		C444,576,441.6,575.3,438.9,575.3z"/>
	<path class="st9" d="M433.1,561.9c-0.1,6,13.5,11.4,18.6,8.4c4.8-2.8,4.1-14.2-3-16.6C442.5,551.5,433.2,557,433.1,561.9z"/>
	<path class="st7" d="M447.8,571.5c-2.6-0.1-5.2-0.7-7.5-1.7c-3.7-1.6-7.6-4.5-7.6-7.9c0-2.4,2.2-5.1,5.7-7s7.5-2.5,10.5-1.5
		c3.3,1.1,5.6,4.2,6.2,8.3c0.6,3.9-0.7,7.5-3.1,8.9C450.7,571.2,449.2,571.5,447.8,571.5z M445.6,553.6c-2.4,0.1-4.7,0.7-6.8,1.9
		c-3.2,1.7-5.2,4.3-5.3,6.4l0,0c0,2.5,2.8,5.4,7.1,7.2s8.6,2.2,10.8,0.8s3.2-4.7,2.7-8.2c-0.5-3.8-2.6-6.7-5.6-7.7
		C447.6,553.7,446.6,553.5,445.6,553.6z"/>
	<path class="st22" d="M50.1,566.9l-2.3-83c20.7-9.4,43-14.5,65.7-15c32.9-0.6,46.2,9.5,69.2,6.8c19.3-2.3,45.8-13.7,74.8-55.8
		l114.8,5.4l61.7,57.1c61.7,2.1,122.5,15,179.8,38.1l-25.1,61.7l-76.9-0.8c-0.8-6.1-3.7-22.7-17.5-35.8c-17.4-16.5-46.6-22-69.3-8.4
		c-25.1,15.1-27.3,44.5-27.4,47.2l-143.9-3.1c-0.6-5.9-3.6-27.3-21.4-41.8c-22.6-18.4-59.8-18.3-80.3,3
		c-15.5,16.1-15.1,37.8-14.9,43.5L50.1,566.9z"/>
	<path d="M137.5,586.5l-87.9-19.3l-2.3-83.8l0.3-0.1c20.7-9.4,43.1-14.5,65.9-15.1c16.4-0.3,28,2.1,38.3,4.2s19.4,4,30.8,2.6
		c26.1-3.1,51.2-21.8,74.5-55.6l0.2-0.2h0.3l115,5.4l0.1,0.1l61.6,57c61.7,2.1,122.5,15,179.8,38.1l0.5,0.2L589,582.6h-0.3
		l-77.4-0.8l0-0.4c-1-8.1-4.6-23.5-17.4-35.5c-18.6-17.6-47.5-21.1-68.7-8.3c-24.6,14.8-27,43.6-27.2,46.8v0.5h-0.5l-144.4-3.2v-0.4
		c-0.8-8-4.6-27.9-21.2-41.5c-10.9-8.8-25.8-13.7-40.7-13.3c-15.5,0.4-29.4,6.2-39.1,16.2c-14.4,15-15.1,35.1-14.7,43.1L137.5,586.5
		z M50.6,566.5l85.8,18.8c-0.3-8.5,0.7-28.3,15-43.2c9.9-10.3,24-16.2,39.8-16.6c15.2-0.4,30.3,4.5,41.3,13.5
		c16.6,13.5,20.6,33.3,21.5,41.7l143,3.1c0.4-5,3.5-32.6,27.6-47.1c21.6-13,51-9.5,69.9,8.4c12.7,12.1,16.5,27.3,17.6,35.7l76.2,0.8
		l24.8-60.9c-57-22.9-117.6-35.8-179.1-37.9h-0.2l-0.1-0.1l-61.6-57l-114.3-5.4c-23.4,33.9-48.6,52.7-75,55.8
		c-11.6,1.4-20.7-0.5-31.2-2.6c-10.2-2.1-21.7-4.4-38.1-4.2c-22.5,0.5-44.7,5.6-65.2,14.8L50.6,566.5z"/>
	
		<linearGradient id="SVGID_00000036211943276549289030000017743387652104948634_" gradientUnits="userSpaceOnUse" x1="216.06" y1="627.7" x2="419.27" y2="627.7" gradientTransform="matrix(1 0 0 -1 0 1080)">
		<stop  offset="0" style="stop-color:#FFFFFF"/>
		<stop  offset="0.13" style="stop-color:#F8FBFE"/>
		<stop  offset="0.33" style="stop-color:#E4F2FA"/>
		<stop  offset="0.56" style="stop-color:#C4E1F5"/>
		<stop  offset="0.81" style="stop-color:#97CBED"/>
		<stop  offset="1" style="stop-color:#73B9E7"/>
	</linearGradient>
	<path style="fill:url(#SVGID_00000036211943276549289030000017743387652104948634_);" d="M419.3,479.1l-49.5-47.8l-108.2-5.8
		l-45.5,46.6L419.3,479.1z"/>
	
		<radialGradient id="SVGID_00000170982978509610368710000016610720408677142177_" cx="601.2012" cy="528.5043" r="9.2449" gradientUnits="userSpaceOnUse">
		<stop  offset="0.21" style="stop-color:#F5F5F5"/>
		<stop  offset="0.24" style="stop-color:#F5F0E6"/>
		<stop  offset="0.31" style="stop-color:#F6E2BE"/>
		<stop  offset="0.39" style="stop-color:#F7CB7E"/>
		<stop  offset="0.49" style="stop-color:#F8B133"/>
		<stop  offset="0.51" style="stop-color:#F8BA4D;stop-opacity:0.99"/>
		<stop  offset="0.57" style="stop-color:#F7CF88;stop-opacity:0.98"/>
		<stop  offset="0.63" style="stop-color:#F6DFB7;stop-opacity:0.97"/>
		<stop  offset="0.68" style="stop-color:#F5EBD9;stop-opacity:0.96"/>
		<stop  offset="0.72" style="stop-color:#F5F2EE;stop-opacity:0.95"/>
		<stop  offset="0.75" style="stop-color:#F5F5F5;stop-opacity:0.95"/>
		<stop  offset="0.75" style="stop-color:#F5F5EA;stop-opacity:0.95"/>
		<stop  offset="0.79" style="stop-color:#F8F2AC;stop-opacity:0.95"/>
		<stop  offset="0.83" style="stop-color:#FAF078;stop-opacity:0.95"/>
		<stop  offset="0.87" style="stop-color:#FCEF4D;stop-opacity:0.95"/>
		<stop  offset="0.9" style="stop-color:#FDEE2B;stop-opacity:0.95"/>
		<stop  offset="0.94" style="stop-color:#FEED13;stop-opacity:0.95"/>
		<stop  offset="0.97" style="stop-color:#FFEC05;stop-opacity:0.95"/>
		<stop  offset="1" style="stop-color:#FFEC00;stop-opacity:0.95"/>
	</radialGradient>
	<path style="fill:url(#SVGID_00000170982978509610368710000016610720408677142177_);" d="M600.3,518c4.2-0.3,8,4.1,8.5,9.9
		c0.5,5.8-2.6,10.8-6.8,11.2s-8-4.1-8.5-9.9S596.1,518.3,600.3,518z"/>
	<ellipse class="st17" cx="52.2" cy="502.8" rx="9.3" ry="18.1"/>
	
		<rect x="322" y="494.2" transform="matrix(1 -8.901061e-03 8.901061e-03 1 -4.7234 2.9008)" class="st25" width="3" height="75.8"/>
	<path class="st25" d="M339.8,497.2c-3.1,0-8.2-0.4-8.2-3.1s5.2-3.1,8.2-3.1s8.2,0.4,8.2,3.1S342.8,497.2,339.8,497.2z M337.7,494.1
		c1.4,0.1,2.7,0.1,4.1,0C340.4,494,339.1,494,337.7,494.1z"/>
	<path class="st25" d="M229.6,492.8c-5.4,0-8.2-1-8.2-2.9s2.8-2.9,8.2-2.9s8.2,1,8.2,2.9S235.1,492.8,229.6,492.8z"/>
</g>
<path class="st4" d="M1094.3,464.9l-0.4-0.9c9.4-4.7,19.5-7.9,29.9-9.5l0.2,1C1113.7,457.1,1103.7,460.3,1094.3,464.9z"/>
<rect x="1520.2" y="430.4" transform="matrix(5.268448e-02 -0.9986 0.9986 5.268448e-02 1000.8659 1935.7682)" class="st4" width="1" height="19.9"/>
<path class="st4" d="M981,520.2l-1.9-0.7c5.3-13.1,15-23.9,27.5-30.5l0.9,1.8C995.5,497.1,986.1,507.6,981,520.2z"/>
<path class="st4" d="M929,655.9c-1.5-1.1-1.5-3-1.4-4.7c1.4-17.5,3.7-34.9,7-52.2l2,0.4c-3.3,17.2-5.6,34.6-7,52
	c-0.1,1.2-0.1,2.5,0.6,3L929,655.9z"/>
<path class="st4" d="M920.6,826.1l-2-0.1c1.3-21.3,2-42.8,1.8-64.2h2C922.6,783.2,921.9,804.8,920.6,826.1z"/>
<path class="st4" d="M915.5,1020.3c-2.3-22.9-2.5-46-0.7-69l2,0.2c-1.8,22.8-1.6,45.8,0.7,68.6L915.5,1020.3z"/>
<rect x="1637.6" y="438.7" class="st4" width="33.3" height="1"/>
<path class="st26" d="M218.6,61c-4.2,0-8.5,0.9-12.3,2.6c-1.9-9.3-12.6-16.5-25.5-16.5c-9.9,0-18.5,4.2-22.8,10.3
	c-6-2.8-12.5-4.2-19.1-4.1c-17,0-30.9,8.6-31.3,19.3c-1.4-0.1-2.8-0.2-4.2-0.2C86,72.4,72,80.3,72,90.1c0,9,11.9,16.4,27.2,17.5
	c3.3,4.3,10.3,7.3,18.5,7.3c9.7,0,17.9-4.3,19.9-10c2.5,0.3,4.9,0.4,7.4,0.4c3.9,0,7.7-0.4,11.5-1.1c3.9,6.2,14.8,10.7,27.7,10.7
	c15.5,0,28.2-6.5,29.2-14.8c1.7,0.3,3.5,0.4,5.2,0.4c13.8,0,25.1-8.9,25.1-19.8S232.5,61,218.6,61z"/>
<path class="st26" d="M378.5,95.5c-4.6,0-9.1,0.7-13.5,2.1c-2-7.6-13.6-13.6-27.7-13.6c-10.8,0-20.1,3.4-24.8,8.5
	c-6.7-2.3-13.7-3.5-20.7-3.4c-18.5,0-33.6,7.1-34.1,15.9c-1.5-0.1-3-0.1-4.6-0.1c-18.8,0-34.1,6.5-34.1,14.6
	c0,7.4,12.9,13.5,29.6,14.4c3.6,3.6,11.2,6,20.1,6c10.6,0,19.4-3.5,21.7-8.2c2.6,0.2,5.3,0.4,8,0.4c4.2,0,8.4-0.3,12.5-0.9
	c4.3,5.1,16.1,8.8,30.1,8.8c16.9,0,30.7-5.4,31.7-12.2c1.9,0.2,3.8,0.4,5.7,0.4c15,0,27.2-7.3,27.2-16.3S393.5,95.5,378.5,95.5z"/>
<rect x="899.3" y="348.1" transform="matrix(0.9939 0.1106 -0.1106 0.9939 45.4451 -97.3243)" class="st27" width="1.8" height="25.9"/>
<rect x="985.6" y="348.1" transform="matrix(0.9939 0.1106 -0.1106 0.9939 46.0315 -106.8825)" class="st27" width="2" height="26.9"/>
<rect x="814.2" y="348.1" transform="matrix(0.9939 0.1106 -0.1106 0.9939 44.9148 -87.911)" class="st27" width="1.7" height="25.8"/>
<rect x="727.8" y="348.1" transform="matrix(0.9939 0.1106 -0.1106 0.9939 44.3958 -78.3592)" class="st27" width="1.8" height="26"/>
<g>
	<g>
		<path class="st28" d="M990.3,353.7c-3.3-3.9-4.8-9.5-3.3-14.5c1.6-5.3,5.4-5.7,9.2-11.5c5.8-9.2-0.1-13.7,4.7-20
			c6.3-8.1,22.2-8.5,28.4-8.7c3.8-0.1,25.1-0.7,31.5,8.6c4,5.8-1.8,9.7,2.7,18.3c3.5,6.6,8.2,6.8,10,12.5c1.8,5.8-1,12.2-4.9,16.1
			c-8.3,8.6-23.7,8.3-40.1,8.1C1012.7,362.4,997.4,362.2,990.3,353.7z"/>
		<path class="st29" d="M1010.3,321.5c-3-2.7-2-9.4,1.5-13.1c3-3.2,9-3.3,20.9-3.4c12-0.1,14.2,1.3,15.3,2.1
			c4.8,3.6,6.6,11.2,3.6,14.1c-2.8,2.8-7.7-0.9-19.3-1C1019.2,320.1,1013.7,324.6,1010.3,321.5z"/>
		<circle class="st19" cx="1058.2" cy="348.4" r="3.6"/>
		<circle class="st19" cx="1001.5" cy="347.8" r="3.6"/>
		<rect x="1011.1" y="344.8" class="st30" width="39.2" height="6.1"/>
		<path class="st7" d="M1009.4,357h-2.6c-2.1,0-3.9,1.7-3.9,3.9v4.2c0,2.1,1.7,3.9,3.9,3.9h2.6c2.1,0,3.9-1.7,3.9-3.9v-4.2
			C1013.3,358.7,1011.5,357,1009.4,357z"/>
		<path class="st7" d="M1054.2,357h-2.6c-2.1,0-3.9,1.7-3.9,3.9v4.2c0,2.1,1.7,3.9,3.9,3.9h2.6c2.1,0,3.9-1.7,3.9-3.9v-4.2
			C1058.1,358.7,1056.4,357,1054.2,357z"/>
		<path class="st31" d="M989.6,357.1c2.4-1.6,7.9-0.8,15.1-0.1c0,0,12.6,1.2,26,1.2c12,0,21.3-0.9,21.3-0.9
			c9.2-0.9,15.5-2.3,18.6-0.4c1.1,0.7,1.8,1.7,1.3,2.6c-1,1.9-7,2.2-17.8,2.8c-14.5,0.8-21.7,1.1-25.5,1.2c-8.4,0.1-2.6-0.3-27-1
			c-5.7-0.2-11.2-0.3-12.8-2.2C988.1,359.3,988.4,357.9,989.6,357.1z"/>
	</g>
	<g>
		<path class="st32" d="M817.3,353.7c-3.3-3.9-4.8-9.5-3.3-14.5c1.6-5.3,5.4-5.7,9.2-11.5c5.8-9.2-0.1-13.7,4.7-20
			c6.3-8.1,22.2-8.5,28.4-8.7c3.8-0.1,25.1-0.7,31.5,8.6c4,5.8-1.8,9.7,2.7,18.3c3.5,6.6,8.2,6.8,10,12.5c1.8,5.8-1,12.2-4.9,16.1
			c-8.3,8.6-23.7,8.3-40.1,8.1C839.7,362.4,824.4,362.2,817.3,353.7z"/>
		<path class="st29" d="M837.3,321.5c-3-2.7-2-9.4,1.5-13.1c3-3.2,9-3.3,20.9-3.4c12-0.1,14.2,1.3,15.3,2.1
			c4.8,3.6,6.6,11.2,3.6,14.1c-2.8,2.8-7.7-0.9-19.3-1C846.2,320.1,840.7,324.6,837.3,321.5z"/>
		<circle class="st19" cx="885.2" cy="348.4" r="3.6"/>
		<circle class="st19" cx="828.5" cy="347.8" r="3.6"/>
		<rect x="838.1" y="344.8" class="st30" width="39.2" height="6.1"/>
		<path class="st7" d="M836.4,357h-2.6c-2.1,0-3.9,1.7-3.9,3.9v4.2c0,2.1,1.7,3.9,3.9,3.9h2.6c2.1,0,3.9-1.7,3.9-3.9v-4.2
			C840.3,358.7,838.5,357,836.4,357z"/>
		<path class="st7" d="M881.2,357h-2.6c-2.1,0-3.9,1.7-3.9,3.9v4.2c0,2.1,1.7,3.9,3.9,3.9h2.6c2.1,0,3.9-1.7,3.9-3.9v-4.2
			C885.1,358.7,883.4,357,881.2,357z"/>
		<path class="st31" d="M816.6,357.1c2.4-1.6,7.9-0.8,15.1-0.1c0,0,12.6,1.2,26,1.2c12,0,21.3-0.9,21.3-0.9
			c9.2-0.9,15.5-2.3,18.6-0.4c1.1,0.7,1.8,1.7,1.3,2.6c-1,1.9-7,2.2-17.8,2.8c-14.5,0.8-21.7,1.1-25.5,1.2c-8.4,0.1-2.6-0.3-27-1
			c-5.7-0.2-11.2-0.3-12.8-2.2C815.1,359.3,815.4,357.9,816.6,357.1z"/>
	</g>
	<g>
		<path class="st33" d="M902.2,358c-0.8-6.4-1.6-12.8-2.4-19.1c3.1-3.8,6.1-7.7,9.2-11.5c1.6-8.3,3.2-16.6,4.8-24.9
			c20.1-0.2,40.3-0.3,60.4-0.5c0.7,7.9,1.5,15.7,2.2,23.6c3.3,4.2,6.7,8.3,10,12.5c-0.6,6.6-1.1,13.2-1.7,19.8
			c-11.4,2.5-26.1,4.6-43.3,4.5C926.1,362.2,912.8,360.3,902.2,358z"/>
		<path class="st29" d="M921.8,323.8c0.9-5.2,1.8-10.4,2.8-15.6c13.3,0,26.7-0.1,40-0.1c0.7,5.2,1.4,10.3,2.1,15.5
			C951.8,323.6,936.8,323.7,921.8,323.8z"/>
		<circle class="st19" cx="971.1" cy="348.1" r="3.6"/>
		<circle class="st19" cx="914.3" cy="347.6" r="3.6"/>
		<rect x="923.9" y="344.5" class="st30" width="39.2" height="6.1"/>
		<path class="st7" d="M922.2,356.7h-2.6c-2.1,0-3.9,1.7-3.9,3.9v4.2c0,2.1,1.7,3.9,3.9,3.9h2.6c2.1,0,3.9-1.7,3.9-3.9v-4.2
			C926.1,358.5,924.4,356.7,922.2,356.7z"/>
		<path class="st7" d="M967.1,356.7h-2.6c-2.1,0-3.9,1.7-3.9,3.9v4.2c0,2.1,1.7,3.9,3.9,3.9h2.6c2.1,0,3.9-1.7,3.9-3.9v-4.2
			C970.9,358.5,969.2,356.7,967.1,356.7z"/>
		<path class="st31" d="M902.4,356.8c2.4-1.6,7.9-0.8,15.1-0.1c0,0,12.6,1.2,26,1.2c12,0,21.3-0.9,21.3-0.9
			c9.2-0.9,15.5-2.3,18.6-0.4c1.1,0.7,1.8,1.7,1.3,2.6c-1,1.9-7,2.2-17.8,2.8c-14.5,0.8-21.7,1.1-25.5,1.2c-8.4,0.1-2.6-0.3-27-1
			c-5.7-0.2-11.2-0.3-12.8-2.2C900.9,359,901.2,357.7,902.4,356.8z"/>
	</g>
	<g>
		<path class="st34" d="M730.7,358c-0.8-6.4-1.6-12.8-2.4-19.1c3.1-3.8,6.1-7.7,9.2-11.5c1.6-8.3,3.2-16.6,4.8-24.9
			c20.1-0.2,40.3-0.3,60.4-0.5c0.7,7.9,1.5,15.7,2.2,23.6c3.3,4.2,6.7,8.3,10,12.5c-0.6,6.6-1.1,13.2-1.7,19.8
			c-11.4,2.5-26.1,4.6-43.3,4.5C754.6,362.2,741.3,360.3,730.7,358z"/>
		<path class="st29" d="M750.4,323.8c0.9-5.2,1.8-10.4,2.8-15.6c13.3,0,26.7-0.1,40-0.1c0.7,5.2,1.4,10.3,2.1,15.5
			C780.3,323.6,765.3,323.7,750.4,323.8z"/>
		<circle class="st19" cx="799.6" cy="348.1" r="3.6"/>
		<circle class="st19" cx="742.8" cy="347.6" r="3.6"/>
		<rect x="752.4" y="344.5" class="st30" width="39.2" height="6.1"/>
		<path class="st7" d="M750.7,356.7h-2.6c-2.1,0-3.9,1.7-3.9,3.9v4.2c0,2.1,1.7,3.9,3.9,3.9h2.6c2.1,0,3.9-1.7,3.9-3.9v-4.2
			C754.6,358.5,752.9,356.7,750.7,356.7z"/>
		<path class="st7" d="M795.6,356.7H793c-2.1,0-3.9,1.7-3.9,3.9v4.2c0,2.1,1.7,3.9,3.9,3.9h2.6c2.1,0,3.9-1.7,3.9-3.9v-4.2
			C799.4,358.5,797.7,356.7,795.6,356.7z"/>
		<path class="st31" d="M730.9,356.8c2.4-1.6,7.9-0.8,15.1-0.1c0,0,12.6,1.2,26,1.2c12,0,21.3-0.9,21.3-0.9
			c9.2-0.9,15.5-2.3,18.6-0.4c1.1,0.7,1.8,1.7,1.3,2.6c-1,1.9-7,2.2-17.8,2.8c-14.5,0.8-21.7,1.1-25.5,1.2c-8.4,0.1-2.6-0.3-27-1
			c-5.7-0.2-11.2-0.3-12.8-2.2C729.4,359,729.7,357.7,730.9,356.8z"/>
	</g>
</g>
<g id="Center">
	<rect x="1631.1" y="96" class="st35" width="269.7" height="299"/>
	<rect x="1327.8" y="171.8" class="st36" width="303.3" height="223.2"/>
	<rect x="1060.7" y="127.8" class="st35" width="267.2" height="267.1"/>
	<polygon class="st37" points="1900.9,395 1923.2,345 1923.2,66 1900.9,96 	"/>
	<polyline class="st38" points="1631.2,96 1649.6,66 1923.2,66 1900.9,96 	"/>
	<polygon class="st38" points="1327.9,171.8 1360.2,135.2 1631.2,135.2 1631.2,171.8 	"/>
	<polygon class="st37" points="1327.9,127.8 1327.9,171.8 1360.2,135.2 1360.2,96 	"/>
	<path class="st38" d="M1060.7,127.8h267.2l32.3-31.8l-251.6-0.4L1060.7,127.8z"/>
	<rect x="1372" y="198" class="st39" width="228" height="54"/>
	<path class="st36" d="M1065.5,260h257c5.2,0,9.5,4.3,9.5,9.5l0,0c0,5.2-4.3,9.5-9.5,9.5h-257c-5.2,0-9.5-4.3-9.5-9.5l0,0
		C1056,264.3,1060.3,260,1065.5,260z"/>
	<path class="st36" d="M1065,123h255c5,0,9,4,9,9l0,0c0,5-4,9-9,9h-255c-5,0-9-4-9-9l0,0C1056,127,1060,123,1065,123z"/>
	<path class="st11" d="M1150,212c-6.4,3.5-6.6,21.3,0,25c11.1,6.3,32.1-32.4,60-28c10.3,1.6,21.1,9,21,16c-0.1,7.3-11.9,14.8-23,16
		C1179.9,244.1,1160.7,206.2,1150,212z"/>
	
		<linearGradient id="SVGID_00000015356086052299692620000002218316706691987382_" gradientUnits="userSpaceOnUse" x1="1139" y1="684.5" x2="1139" y2="772.5" gradientTransform="matrix(1 0 0 -1 0 1080)">
		<stop  offset="0" style="stop-color:#FFFFFF"/>
		<stop  offset="0.13" style="stop-color:#F8FBFE"/>
		<stop  offset="0.33" style="stop-color:#E4F2FA"/>
		<stop  offset="0.56" style="stop-color:#C4E1F5"/>
		<stop  offset="0.81" style="stop-color:#97CBED"/>
		<stop  offset="1" style="stop-color:#73B9E7"/>
	</linearGradient>
	
		<rect x="1123.5" y="307.5" style="fill:url(#SVGID_00000015356086052299692620000002218316706691987382_);" width="31" height="88"/>
	
		<linearGradient id="SVGID_00000183928801920296815360000012656047635024277383_" gradientUnits="userSpaceOnUse" x1="1232" y1="684.5" x2="1232" y2="772.5" gradientTransform="matrix(1 0 0 -1 0 1080)">
		<stop  offset="0" style="stop-color:#FFFFFF"/>
		<stop  offset="0.13" style="stop-color:#F8FBFE"/>
		<stop  offset="0.33" style="stop-color:#E4F2FA"/>
		<stop  offset="0.56" style="stop-color:#C4E1F5"/>
		<stop  offset="0.81" style="stop-color:#97CBED"/>
		<stop  offset="1" style="stop-color:#73B9E7"/>
	</linearGradient>
	
		<rect x="1216.5" y="307.5" style="fill:url(#SVGID_00000183928801920296815360000012656047635024277383_);" width="31" height="88"/>
	
		<linearGradient id="SVGID_00000005949657963787007350000013395106914552964254_" gradientUnits="userSpaceOnUse" x1="1201" y1="684.5" x2="1201" y2="772.5" gradientTransform="matrix(1 0 0 -1 0 1080)">
		<stop  offset="0" style="stop-color:#FFFFFF"/>
		<stop  offset="0.13" style="stop-color:#F8FBFE"/>
		<stop  offset="0.33" style="stop-color:#E4F2FA"/>
		<stop  offset="0.56" style="stop-color:#C4E1F5"/>
		<stop  offset="0.81" style="stop-color:#97CBED"/>
		<stop  offset="1" style="stop-color:#73B9E7"/>
	</linearGradient>
	
		<rect x="1185.5" y="307.5" style="fill:url(#SVGID_00000005949657963787007350000013395106914552964254_);" width="31" height="88"/>
	
		<linearGradient id="SVGID_00000123441084823949980200000000258061627783170964_" gradientUnits="userSpaceOnUse" x1="1170" y1="684.5" x2="1170" y2="772.5" gradientTransform="matrix(1 0 0 -1 0 1080)">
		<stop  offset="0" style="stop-color:#FFFFFF"/>
		<stop  offset="0.13" style="stop-color:#F8FBFE"/>
		<stop  offset="0.33" style="stop-color:#E4F2FA"/>
		<stop  offset="0.56" style="stop-color:#C4E1F5"/>
		<stop  offset="0.81" style="stop-color:#97CBED"/>
		<stop  offset="1" style="stop-color:#73B9E7"/>
	</linearGradient>
	
		<rect x="1154.5" y="307.5" style="fill:url(#SVGID_00000123441084823949980200000000258061627783170964_);" width="31" height="88"/>
	<path class="st2" d="M1154.9,395.9h-31.8v-88.8h31.8V395.9z M1123.9,395.1h30.2v-87.2h-30.2V395.1z"/>
	<path class="st2" d="M1247.9,395.9h-31.8v-88.8h31.8V395.9z M1216.9,395.1h30.2v-87.2h-30.2V395.1z"/>
	<path class="st2" d="M1216.9,395.9h-31.8v-88.8h31.8V395.9z M1185.9,395.1h30.2v-87.2h-30.2V395.1z"/>
	<path class="st2" d="M1185.9,395.9h-31.8v-88.8h31.8V395.9z M1154.9,395.1h30.2v-87.2h-30.2V395.1z"/>
	
		<linearGradient id="SVGID_00000137822559786554263950000007361093155695361953_" gradientUnits="userSpaceOnUse" x1="1486" y1="684" x2="1486" y2="786" gradientTransform="matrix(1 0 0 -1 0 1080)">
		<stop  offset="0" style="stop-color:#FFFFFF"/>
		<stop  offset="0.13" style="stop-color:#F8FBFE"/>
		<stop  offset="0.33" style="stop-color:#E4F2FA"/>
		<stop  offset="0.56" style="stop-color:#C4E1F5"/>
		<stop  offset="0.81" style="stop-color:#97CBED"/>
		<stop  offset="1" style="stop-color:#73B9E7"/>
	</linearGradient>
	<rect x="1372" y="294" style="fill:url(#SVGID_00000137822559786554263950000007361093155695361953_);" width="228" height="102"/>
	<path class="st2" d="M1600,294v102h-228V294H1600 M1601,293h-230v104h230V293z"/>
	<path class="st36" d="M1634,91h259c6.6,0,12,5.4,12,12v31c0,6.6-5.4,12-12,12h-259c-6.6,0-12-5.4-12-12v-31
		C1622,96.4,1627.4,91,1634,91z"/>
	<circle class="st4" cx="1761" cy="241" r="23"/>
	<rect x="1753.8" y="222.5" class="st45" width="13.8" height="37"/>
	<rect x="1742.5" y="235" class="st45" width="37" height="12.7"/>
	
		<linearGradient id="SVGID_00000010291962712226615040000013610223512900021905_" gradientUnits="userSpaceOnUse" x1="1766" y1="684" x2="1766" y2="786" gradientTransform="matrix(1 0 0 -1 0 1080)">
		<stop  offset="0" style="stop-color:#FFFFFF"/>
		<stop  offset="0.13" style="stop-color:#F8FBFE"/>
		<stop  offset="0.33" style="stop-color:#E4F2FA"/>
		<stop  offset="0.56" style="stop-color:#C4E1F5"/>
		<stop  offset="0.81" style="stop-color:#97CBED"/>
		<stop  offset="1" style="stop-color:#73B9E7"/>
	</linearGradient>
	<rect x="1652" y="294" style="fill:url(#SVGID_00000010291962712226615040000013610223512900021905_);" width="228" height="102"/>
	<path class="st2" d="M1880,294v102h-228V294H1880 M1881,293h-230v104h230V293z"/>
	<path class="st47" d="M1472.1,219c1.8-1.2,2.2-2.3,3.5-2.3c0.8,0,1.5,0.4,2,1c0.4,0.7,0.6,1.5,0.7,2.3c0.6,3.5,0.9,7.1,1,10.6
		c0.1,2.4-0.2,5.3-2.3,6.6c-0.7,0.3-1.3,0.6-1.9,1c-0.6,0.4-0.8,1.2-0.4,1.9c7.6,2.3,15.7,2.7,23.5,1.1c1.3-0.3,2.8-0.9,2.9-2.2
		c0-0.5-0.2-1-0.4-1.5c-3.5-7-8.2-13.2-12.7-19.6c-5.2-7.4-8.6-15.6-9.5-15.2c-0.3,0.1,0,1.2-0.8,2.7c-0.3,0.6-0.9,1.4-1.2,1.3
		s-0.1-0.6-0.4-1.4c-0.4-1-1.3-1.8-1.6-1.6s0.5,1.6,0,3c-0.3,0.7-0.7,0.9-4,3c-2.2,1.4-2.1,1.4-3.3,2.2c-1.1,0.7-1.8,1.2-2.7,1.8
		c-1.8,1.3-2,1.7-2,2s0,0.8,2,3c0.6,0.8,1.2,1.4,2,2C1468.6,221.4,1471.5,219.4,1472.1,219z"/>
	<path class="st47" d="M1488.6,242.6c-4.7,0-9.5-0.7-14-2.1h-0.1l-0.1-0.1c-0.3-0.3-0.4-0.7-0.3-1.1c0.1-0.6,0.4-1.1,0.8-1.5
		c0.4-0.3,0.8-0.5,1.2-0.7c0.3-0.1,0.5-0.2,0.7-0.4c1.5-0.9,2.2-2.8,2.1-6.1c-0.1-3.5-0.4-7.1-0.9-10.6c-0.1-0.7-0.3-1.4-0.6-2.1
		c-0.4-0.5-1-0.8-1.6-0.7c-0.6,0-1,0.3-1.7,0.9c-0.5,0.5-1,0.9-1.6,1.3c-3.1,2.1-5,2-6.1,1.6c-0.4-0.2-0.9-0.8-2.2-2.1
		c-2.1-2.3-2.2-2.9-2.1-3.4s0.4-1,2.2-2.3c0.8-0.6,1.6-1.1,2.7-1.8l1.2-0.8l2.1-1.4l1.5-1c1.9-1.2,2.1-1.4,2.3-1.8
		c0.2-0.6,0.2-1.3,0-1.9c-0.1-0.5-0.2-1.1,0.3-1.4c0.2-0.1,0.5-0.1,0.7,0c0.7,0.4,1.3,1.1,1.6,1.9c0.1,0.2,0.2,0.5,0.2,0.8
		c0.2-0.2,0.3-0.5,0.4-0.7c0.3-0.6,0.5-1.3,0.6-2c0.1-0.4,0.1-0.8,0.5-1c0.8-0.4,1.4,0.6,3.6,4.7c2,3.7,4.1,7.3,6.5,10.7l2,2.9
		c4,5.3,7.6,10.9,10.7,16.8c0.3,0.5,0.5,1.1,0.5,1.8c-0.1,1.3-1.2,2.2-3.3,2.7C1495.2,242.2,1491.9,242.5,1488.6,242.6z M1475,239.6
		c7.5,2.3,15.4,2.6,23.1,1c0.7-0.1,2.4-0.6,2.5-1.8c0-0.4-0.2-0.9-0.4-1.3c-3.1-5.8-6.7-11.4-10.7-16.7l-2-2.9
		c-2.4-3.5-4.6-7.1-6.5-10.8c-0.8-1.5-1.7-3.1-2.2-3.8c-0.1,0.7-0.3,1.4-0.7,2.1c-0.6,1.2-1.2,1.7-1.8,1.6s-0.5-0.6-0.5-0.9
		c0-0.3-0.1-0.5-0.2-0.8c-0.2-0.4-0.4-0.7-0.7-1c0.2,0.8,0.2,1.6,0,2.4c-0.3,0.8-0.6,1-2.7,2.3l-1.5,1l-2.1,1.4
		c-0.4,0.2-0.7,0.4-1.2,0.8c-1.1,0.7-1.8,1.2-2.6,1.8c-1.6,1.1-1.8,1.5-1.8,1.7s0.1,0.6,1.9,2.6c0.5,0.7,1.2,1.3,1.8,1.9
		c1.2,0.5,3,0,5.1-1.4l0,0c0.5-0.4,1-0.8,1.5-1.2c0.6-0.7,1.4-1.1,2.3-1.2c1,0,1.9,0.4,2.4,1.2c0.4,0.8,0.7,1.6,0.8,2.5
		c0.6,3.5,0.9,7.1,1,10.7c0.1,2.3-0.1,5.6-2.6,7c-0.3,0.1-0.6,0.3-0.8,0.4c-0.4,0.1-0.7,0.3-1,0.5c-0.2,0.2-0.4,0.5-0.4,0.8
		C1475.1,239.4,1475,239.4,1475,239.6L1475,239.6z"/>
	<path class="st47" d="M1472.5,232.5h-7c-1.1,0-2-0.9-2-2v-7c0-1.1,0.9-2,2-2h7c1.1,0,2,0.9,2,2v7
		C1474.5,231.6,1473.6,232.5,1472.5,232.5z M1465.5,222.5c-0.6,0-1,0.4-1,1v7c0,0.6,0.4,1,1,1h7c0.6,0,1-0.4,1-1v-7c0-0.6-0.4-1-1-1
		H1465.5z"/>
	<rect x="1468" y="217" class="st47" width="2" height="5"/>
	<path class="st47" d="M1470.5,222.5h-3v-6h3V222.5z M1468.5,221.5h1v-4h-1V221.5z"/>
	<rect x="1464" y="223.5" class="st47" width="10" height="1"/>
</g>
<g>
	<path class="st48" d="M91.3,312.3L91.3,312.3c-6.6,0-11.9,5.4-11.9,11.9v24.6c0,6.6,5.4,11.9,11.9,11.9h0c6.6,0,11.9-5.4,11.9-11.9
		v-24.6C103.2,317.6,97.9,312.3,91.3,312.3z"/>
	<path class="st49" d="M56.9,313.4c-12.5-13-8.1-33,0-69.5c5.2-23.6,17.7-79.9,35.5-79.9c18,0.1,30.3,57.7,34,75.4
		c7.5,35.1,12,56.2-1.5,71C108.7,328.2,72.7,329.9,56.9,313.4z"/>
</g>
<g>
	<path class="st48" d="M49.1,336.5L49.1,336.5c-6.6,0-11.9,5.4-11.9,11.9v24.6c0,6.6,5.4,11.9,11.9,11.9h0c6.6,0,11.9-5.4,11.9-11.9
		v-24.6C61,341.9,55.6,336.5,49.1,336.5z"/>
	<path class="st50" d="M14.7,337.6c-12.5-13-8.1-33,0-69.5c5.2-23.6,17.7-79.9,35.5-79.9c18,0.1,30.3,57.7,34,75.4
		c7.5,35.1,12,56.2-1.5,71C66.5,352.5,30.5,354.1,14.7,337.6z"/>
</g>
<g>
	<path class="st51" d="M718.9,324.2L718.9,324.2c-2.8,0-5.1,2.3-5.1,5.1v10.5c0,2.8,2.3,5.1,5.1,5.1l0,0c2.8,0,5.1-2.3,5.1-5.1
		v-10.5C724,326.5,721.7,324.2,718.9,324.2z"/>
	<path class="st52" d="M704.2,324.6c-5.3-5.6-3.5-14.1,0-29.7c2.2-10.1,7.6-34.2,15.2-34.1c7.7,0,12.9,24.7,14.5,32.2
		c3.2,15,5.1,24-0.6,30.3C726.3,331,710.9,331.7,704.2,324.6z"/>
</g>
<g>
	<path class="st53" d="M700.8,334.5L700.8,334.5c-2.8,0-5.1,2.3-5.1,5.1v10.5c0,2.8,2.3,5.1,5.1,5.1l0,0c2.8,0,5.1-2.3,5.1-5.1
		v-10.5C705.9,336.8,703.6,334.5,700.8,334.5z"/>
	<path class="st54" d="M686.1,335c-5.3-5.6-3.5-14.1,0-29.7c2.2-10.1,7.6-34.2,15.2-34.1c7.7,0,12.9,24.7,14.5,32.2
		c3.2,15,5.1,24-0.6,30.3C708.3,341.3,692.9,342,686.1,335z"/>
</g>
</svg>
