<svg xmlns="http://www.w3.org/2000/svg" viewBox="0 0 125.94 266.93"><defs><style>.cls-1{fill:#fbcea4;}.cls-2{fill:#a3897a;}.cls-3{fill:#6b5777;}.cls-4{fill:#b1b1b1;}.cls-5{fill:#1d1d1b;}.cls-6{fill:#fff;}.cls-7{opacity:0.2;}.cls-8{fill:#009ee2;}.cls-9{fill:#868686;}.cls-10{fill:#bd1622;}.cls-11{fill:#d4b184;}.cls-12{fill:#29235c;}.cls-13{fill:#362c3c;}</style></defs><g id="Layer_2" data-name="Layer 2"><g id="Layer_1-2" data-name="Layer 1"><rect class="cls-1" x="38.16" y="237.41" width="19.06" height="26.18" rx="9.53"/><path class="cls-2" d="M47.69,263.72A9.67,9.67,0,0,1,38,254.06v-7.12a9.66,9.66,0,0,1,19.32,0v7.12A9.67,9.67,0,0,1,47.69,263.72Zm0-26.19a9.42,9.42,0,0,0-9.41,9.41v7.12a9.41,9.41,0,0,0,18.82,0v-7.12A9.42,9.42,0,0,0,47.69,237.53Z"/><rect class="cls-1" x="69.43" y="236.6" width="19.06" height="26.18" rx="9.53"/><path class="cls-2" d="M79,262.91h0a9.67,9.67,0,0,1-9.66-9.65v-7.12a9.66,9.66,0,0,1,19.32,0v7.12A9.66,9.66,0,0,1,79,262.91Zm0-26.18a9.42,9.42,0,0,0-9.41,9.41v7.12a9.42,9.42,0,0,0,9.41,9.4h0a9.42,9.42,0,0,0,9.41-9.4v-7.12A9.42,9.42,0,0,0,79,236.73Z"/><path class="cls-3" d="M31.05,85.37c19-12.63,48.52-9,65.65,5.78,4.35,3.76,11.41,11.29,20.84,61.74,7.65,40.91,11.48,61.36,5.39,71.5-19.17,31.9-94.12,35.35-117,3.32-9.58-13.37-6.11-34.18.83-75.82C13,114.17,16.43,95.11,31.05,85.37Z"/><circle class="cls-4" cx="114.38" cy="64.88" r="5.25"/><circle class="cls-4" cx="110.1" cy="73.55" r="7.25"/><circle class="cls-4" cx="101.25" cy="90.25" r="7.27"/><circle class="cls-4" cx="106.69" cy="79.9" r="6.35"/><circle class="cls-4" cx="15.93" cy="72.21" r="6.23"/><circle class="cls-4" cx="20.39" cy="81.15" r="5.89"/><circle class="cls-4" cx="13.61" cy="59.87" r="8.55"/><path class="cls-1" d="M111.16,65.7c1.12-6.15-.38-11.63-3.36-12.24a3.22,3.22,0,0,0-2.33.48A44.4,44.4,0,0,0,22.06,40.29a46.07,46.07,0,0,0-2.62,6.19,3.69,3.69,0,0,0-2.64-1.41c-3,0-5.38,5-5.26,11.28s2.66,11.41,5.69,11.47a2.4,2.4,0,0,0,.46,0A44.41,44.41,0,0,0,101,81a43.71,43.71,0,0,0,2.33-5.38c.12,0,.24.09.36.12C106.71,76.32,110,71.84,111.16,65.7Z"/><path class="cls-2" d="M41.1,100.34A44.86,44.86,0,0,1,17.53,68l-.3,0c-1.55,0-3-1.27-4.12-3.51a19.48,19.48,0,0,1-1.77-8.16C11.22,50,13.67,44.82,16.8,44.87a3.78,3.78,0,0,1,2.55,1.24,45.87,45.87,0,0,1,2.53-5.91,44.61,44.61,0,0,1,83.75,13.43,3.24,3.24,0,0,1,2.2-.36c1.53.31,2.72,1.8,3.38,4.19a19.34,19.34,0,0,1,.15,8.28,18.63,18.63,0,0,1-3,7.61c-1.45,2-3.09,2.86-4.61,2.55l-.2-.06a45.89,45.89,0,0,1-2.28,5.22A44.69,44.69,0,0,1,41.1,100.34ZM17.86,67.55l0,.2a44.21,44.21,0,0,0,83,13.13,42.63,42.63,0,0,0,2.32-5.36l.07-.18.24.09a2.29,2.29,0,0,0,.28.09c1.36.28,2.86-.57,4.21-2.4a18.15,18.15,0,0,0,3-7.46,18.72,18.72,0,0,0-.14-8.11c-.61-2.23-1.7-3.62-3.06-3.9a3,3,0,0,0-2.18.46l-.26.15,0-.3a44.24,44.24,0,0,0-85.65-7.41l-.11.32-.23-.26a3.51,3.51,0,0,0-2.48-1.35c-2.91,0-5.19,4.93-5.07,11.09a19.18,19.18,0,0,0,1.73,8c1,2.09,2.37,3.26,3.75,3.28a2.63,2.63,0,0,0,.43,0Z"/><path class="cls-4" d="M125.2,41.48a7.62,7.62,0,0,0-7.32-7.61,5.8,5.8,0,0,0-3.51-10.94,14.15,14.15,0,0,0,.09-1.47,12,12,0,0,0-18.56-10,9.22,9.22,0,0,0,.12-1.4,9.06,9.06,0,0,0-16.9-4.56,9,9,0,0,0-11.35-1,5.51,5.51,0,0,0-10.92,1,4.89,4.89,0,0,0,0,.54,9,9,0,0,0-3.55-.72A8.41,8.41,0,0,0,46.18,9a8.75,8.75,0,0,0-15.87,4.43h0a8.12,8.12,0,0,0-8,6.94,6.26,6.26,0,0,0-1.07-.1c-3.78,0-6.84,3.39-6.84,7.57A8.13,8.13,0,0,0,15.44,32a7.16,7.16,0,0,0-1.29,12.17,5.74,5.74,0,1,0,5.22,1.41,7.15,7.15,0,0,0,6.29-7.1,7,7,0,0,0-.29-2,6.29,6.29,0,0,0,11.45-5.11,7.2,7.2,0,0,0,10.57-4.72,6.84,6.84,0,0,0,9.38-5.32A8.36,8.36,0,0,0,71,20.9a9.26,9.26,0,0,0,1.84.19,8.64,8.64,0,0,0,1.62-.16,6.65,6.65,0,0,0,9.1,4.3,6.77,6.77,0,0,0,.72,1.42c0,.16,0,.32,0,.49a6.29,6.29,0,0,0,9.91,5.14A8.12,8.12,0,0,0,94,33.85,8,8,0,0,0,95.15,38a7.56,7.56,0,0,0,6.4,11.6,7.4,7.4,0,0,0,1.83-.23,6.57,6.57,0,0,0,6.37,6.3,6.45,6.45,0,1,0,6.79-6.56v0s0-.05,0-.08a7.17,7.17,0,0,0,1,.08A7.62,7.62,0,0,0,125.2,41.48Zm-100.73-7,.21-.14a6.41,6.41,0,0,0,.16.76A5.63,5.63,0,0,0,24.47,34.51Z"/><circle class="cls-3" cx="16.46" cy="63.99" r="1.44"/><circle class="cls-3" cx="105.25" cy="72.11" r="1.44"/><rect class="cls-5" x="28.36" y="39.49" width="1" height="17.71" transform="translate(-25.82 61.79) rotate(-72.98)"/><rect class="cls-5" x="82.67" y="54.03" width="22.82" height="1" transform="translate(-2.74 5.03) rotate(-3.02)"/><path class="cls-5" d="M53.83,58.61a2.69,2.69,0,0,1-.4,0L39.31,56.77a3.13,3.13,0,0,1-2.7-3.5l.83-6.5a3.15,3.15,0,0,1,1.19-2.08,3.11,3.11,0,0,1,2.31-.62l14.12,1.81a3.13,3.13,0,0,1,2.7,3.5l-.83,6.5a3.12,3.12,0,0,1-3.1,2.73Zm-.28-1a2.12,2.12,0,0,0,1.57-.43,2.07,2.07,0,0,0,.81-1.41l.84-6.5a2.13,2.13,0,0,0-1.84-2.38L40.82,45.06a2.15,2.15,0,0,0-1.58.43,2.09,2.09,0,0,0-.8,1.41l-.84,6.5a2.13,2.13,0,0,0,1.84,2.38Z"/><path class="cls-5" d="M79.37,61.74l-.47,0-13-1.66a3.71,3.71,0,0,1-3.2-4.14l.69-5.36a3.7,3.7,0,0,1,1.41-2.46,3.62,3.62,0,0,1,2.73-.74l13,1.66a3.72,3.72,0,0,1,3.2,4.14L83,58.52A3.71,3.71,0,0,1,79.37,61.74ZM67.07,48.32a2.7,2.7,0,0,0-2.67,2.35L63.71,56a2.71,2.71,0,0,0,2.34,3l13,1.66a2.69,2.69,0,0,0,3-2.33L82.73,53a2.65,2.65,0,0,0-.54-2,2.68,2.68,0,0,0-1.79-1l-13-1.66A2,2,0,0,0,67.07,48.32Z"/><rect class="cls-5" x="59.41" y="49.88" width="1" height="6.17" transform="translate(-0.11 105.8) rotate(-82.84)"/><ellipse class="cls-6" cx="45.61" cy="51.32" rx="7.58" ry="5.59"/><path class="cls-5" d="M45.61,57.42c-4.45,0-8.08-2.74-8.08-6.1s3.63-6.09,8.08-6.09,8.08,2.74,8.08,6.09S50.06,57.42,45.61,57.42Zm0-11.19c-3.9,0-7.08,2.29-7.08,5.09s3.18,5.1,7.08,5.1,7.08-2.29,7.08-5.1S49.51,46.23,45.61,46.23Z"/><ellipse class="cls-6" cx="71.55" cy="54.53" rx="7.42" ry="5.72"/><path class="cls-5" d="M71.55,60.75c-4.37,0-7.92-2.79-7.92-6.22s3.55-6.22,7.92-6.22,7.91,2.79,7.91,6.22S75.91,60.75,71.55,60.75Zm0-11.44c-3.82,0-6.92,2.34-6.92,5.22s3.1,5.22,6.92,5.22,6.91-2.34,6.91-5.22S75.36,49.31,71.55,49.31Z"/><circle class="cls-5" cx="42.23" cy="51.32" r="3.38"/><circle class="cls-5" cx="68.18" cy="54.53" r="3.37"/><g class="cls-7"><rect class="cls-8" x="63.48" y="48.63" width="19.48" height="11.81" rx="3.2" transform="translate(7.54 -8.88) rotate(7.31)"/><path class="cls-5" d="M79.37,61.74l-.47,0-13-1.66a3.71,3.71,0,0,1-3.2-4.14l.69-5.36a3.68,3.68,0,0,1,1.41-2.46,3.62,3.62,0,0,1,2.73-.74l13,1.66a3.72,3.72,0,0,1,3.2,4.14L83,58.52A3.71,3.71,0,0,1,79.37,61.74ZM67.07,48.32a2.7,2.7,0,0,0-2.67,2.35L63.71,56a2.71,2.71,0,0,0,2.34,3l13,1.66a2.69,2.69,0,0,0,3-2.33L82.73,53a2.65,2.65,0,0,0-.54-2,2.68,2.68,0,0,0-1.79-1l-13-1.66A2,2,0,0,0,67.07,48.32Z"/></g><g class="cls-7"><rect class="cls-8" x="37.44" y="45.41" width="19.48" height="11.81" rx="2.63" transform="translate(6.92 -5.59) rotate(7.31)"/><path class="cls-5" d="M53.83,58.6l-.4,0L39.31,56.76a3.11,3.11,0,0,1-2.7-3.49l.83-6.51a3.13,3.13,0,0,1,1.19-2.07,3.16,3.16,0,0,1,2.31-.63l14.12,1.81a3.13,3.13,0,0,1,2.7,3.5l-.83,6.5a3.12,3.12,0,0,1-3.1,2.73Zm-.28-1a2.07,2.07,0,0,0,1.57-.42,2.11,2.11,0,0,0,.81-1.41l.84-6.51a2.12,2.12,0,0,0-.43-1.57,2.15,2.15,0,0,0-1.41-.81L40.82,45.05a2.12,2.12,0,0,0-2.38,1.84l-.84,6.5a2.13,2.13,0,0,0,1.84,2.38Z"/></g><path class="cls-9" d="M85.06,48.68,84,45.78l0,0-.1.06-2,1.18-.56-1.47-1.45,1.1-.83-1.77-1.9,1.68-1.26-2.06a5.59,5.59,0,0,0-.7.83l-.37.55-.43-.51a4.39,4.39,0,0,1-.54-.81L72.71,46l-1.47-2.3a6.71,6.71,0,0,1-.78,1l-.43.44-.34-.51a6,6,0,0,1-.38-.64,3.79,3.79,0,0,1-.61.66l-.5.41-1.33-2.9.91-.42.74,1.62a2.47,2.47,0,0,0,.32-.77l.41-2,.56,2a4.48,4.48,0,0,0,.37.94,5.36,5.36,0,0,0,.58-1l.38-.82,1.65,2.57,1.42-1.82.26,1a4.41,4.41,0,0,0,.32.78,6.79,6.79,0,0,1,.91-.87l.45-.35,1.23,2,2-1.78.86,1.86,1.53-1.15.61,1.6,1-.57a1.11,1.11,0,0,1,1.1-.13,1.07,1.07,0,0,1,.47.62l.36,1,.19-.29.85.53Z"/><path class="cls-9" d="M54.62,44.23l-.38-2q-.15.16-.3.3l-.49.44-.3-.58a2.78,2.78,0,0,0-.33-.51l-1.29,1.26-.72-1.45a2,2,0,0,1-.42.39,1.35,1.35,0,0,1-1.84-.23,1.14,1.14,0,0,1-.16-.36c-.16.13-.32.26-.48.37l-.43.3-.84-1.28-.59.39a1.06,1.06,0,0,1-.68.2,1,1,0,0,1-.7-.57l-.29-.5a8.7,8.7,0,0,1-.86.59l-.6.36-.14-.69a5,5,0,0,0-.2-.69l-.85.83-.35-.43-.15-.21-.6,1-.45-.52a1.87,1.87,0,0,1-.2-.29l-.42.48-.38-.42a2.07,2.07,0,0,1-.48-.93l.88-.2L41,37.68,40.8,39l.58-.94.35,1a2.55,2.55,0,0,0,.13.29l1-.95.32.56a5.85,5.85,0,0,1,.41.88,7.49,7.49,0,0,0,.61-.51l.47-.42.89,1.58v0l1.37-.94.82,1.23a5.71,5.71,0,0,0,.55-.55l.47-.54.35.62a2,2,0,0,1,.19.68.85.85,0,0,0,.08.34c0,.08.29.08.45,0a2,2,0,0,0,.57-.83l.44-.92,1,2,1-1,.35.33a4.44,4.44,0,0,1,.5.56,4.57,4.57,0,0,0,.41-.57l.68-1.07.15.79,0-.13.55.57a8.11,8.11,0,0,1,1.1,1.43l-.86.52a5.39,5.39,0,0,0-.43-.63Z"/><path class="cls-5" d="M58.33,62.72a11.76,11.76,0,0,0-5.5.36,5,5,0,0,0-3,3.17c-.47,1.76.49,3.39,1.57,4.7a4,4,0,0,0,2.06,1.46,11.36,11.36,0,0,0,2.85.36,5.46,5.46,0,0,0,4.92-2.42.63.63,0,0,0-1.08-.63c-.94,1.62-2.92,1.9-4.63,1.76a4.31,4.31,0,0,1-2.79-.9,7.36,7.36,0,0,1-1.53-2.21,3,3,0,0,1,1.62-3.88c1.67-.93,3.74-.69,5.56-.52.8.08.79-1.17,0-1.25Z"/><path class="cls-10" d="M52.84,79.79C47,78.56,44,76.52,43.17,77.58s1,3.7,2.49,5.25a12.8,12.8,0,0,0,12.56,3.31c3.16-.93,6.46-3.38,6.08-4.69S59.89,81.27,52.84,79.79Z"/><path class="cls-5" d="M54.8,86.75a12.9,12.9,0,0,1-9.23-3.84c-1.5-1.55-3.32-4.34-2.5-5.41.53-.67,1.68-.27,3.76.44a49.62,49.62,0,0,0,6,1.73,43.6,43.6,0,0,0,8.1.86c2.08.06,3.23.1,3.46.88.43,1.48-3.09,3.94-6.16,4.85A12.31,12.31,0,0,1,54.8,86.75ZM43.91,77.41a.73.73,0,0,0-.64.25c-.69.89,1,3.57,2.48,5.08A12.67,12.67,0,0,0,58.19,86c3.14-.93,6.33-3.35,6-4.54-.18-.61-1.33-.64-3.22-.7a43.44,43.44,0,0,1-8.15-.87h0a50.34,50.34,0,0,1-6.06-1.73A11,11,0,0,0,43.91,77.41Z"/><path class="cls-5" d="M57.61,83.64a21.31,21.31,0,0,1-3.52-.38,19.06,19.06,0,0,1-6.48-2.11,18.19,18.19,0,0,1-4.53-3.48l.18-.17a17.93,17.93,0,0,0,4.47,3.43A18.84,18.84,0,0,0,54.12,83a14.41,14.41,0,0,0,6,.11,12.33,12.33,0,0,0,4.16-1.78l.14.21a12.59,12.59,0,0,1-4.24,1.81A11.57,11.57,0,0,1,57.61,83.64Z"/><path class="cls-11" d="M69,83.86l-.9-.42a3.71,3.71,0,0,0-1.37-4.54l.52-.86A4.69,4.69,0,0,1,69,83.86Z"/><path class="cls-11" d="M37.81,78a4.37,4.37,0,0,1,1.12-3.29,4.31,4.31,0,0,1,3.18-1.39v1h0a3.29,3.29,0,0,0-3.28,3.59Z"/><path class="cls-11" d="M72.54,37.26c-1.07-1.68-3.58-1.69-4.61-1.62-.53,0-1.06.11-1.59.17a12.28,12.28,0,0,1-4.19,0,12,12,0,0,1-2.6-1c-.47-.22-.94-.45-1.43-.64-.69-.27-2.44-.8-3.62.1l-.6-.79a4.63,4.63,0,0,1,4.58-.24c.52.2,1,.44,1.51.68a10.8,10.8,0,0,0,2.38.94,11.1,11.1,0,0,0,3.85,0c.54-.07,1.09-.14,1.64-.17,2.55-.18,4.56.57,5.52,2.07Z"/><path class="cls-11" d="M75.37,32.9c-.91-1-2.54-1.48-4.83-1.3l-1,.1a10.63,10.63,0,0,1-4.79-.25,10.16,10.16,0,0,1-1.2-.55l-.73-.35a7.3,7.3,0,0,0-4.47-.46l-.22-1a8.27,8.27,0,0,1,5.1.51L64,30a8.8,8.8,0,0,0,1.09.5,9.86,9.86,0,0,0,4.35.19l1-.09c2.63-.21,4.53.34,5.66,1.63Z"/><polygon class="cls-12" points="49.43 158.99 70.86 158.99 75.39 174.32 43.47 174.32 49.43 158.99"/><path class="cls-12" d="M76.06,174.82H42.74l6.35-16.33H71.23Zm-31.86-1H74.72l-4.23-14.33H49.77Z"/><path class="cls-12" d="M59.18,162c-2.9,0-6.29-.91-7.3-3.47-.51-1.29-.26-2.63.15-4.85.38-2,.77-4.14,2.1-5.67a7.2,7.2,0,0,1,6.46-2.13,7.16,7.16,0,0,1,5.62,3.53,11,11,0,0,1,.79,3.73c.26,2.14.45,3.82,0,5.11-1,2.7-4.71,3.7-7.6,3.74Zm.24-14.2a4.92,4.92,0,0,0-3.78,1.51c-1,1.13-1.3,2.88-1.64,4.73s-.56,3-.26,3.76h0c.53,1.33,2.84,2.24,5.62,2.2s5.25-1.07,5.75-2.43a11.45,11.45,0,0,0-.09-4.19,10.14,10.14,0,0,0-.6-3.09,5.27,5.27,0,0,0-4.09-2.43A7.07,7.07,0,0,0,59.42,147.8Z"/><path class="cls-1" d="M76.79,144.93c-1.63-2.6-5.41-3.17-8.44-1.27a8.16,8.16,0,0,0-1.49,1.22,2.94,2.94,0,0,0-1.18-.39c-1.11-.11-2.06.36-2.13,1.06s.76,1.36,1.87,1.47h.08a5.43,5.43,0,0,0-.17.53,6.91,6.91,0,0,0-1.2,0c-1.48.14-2.63.68-2.58,1.21s1.29.84,2.76.69a5.91,5.91,0,0,0,.77-.12,2.26,2.26,0,0,1,0,.26l-.49.14c-1.45.5-2.51,1.28-2.35,1.75s1.47.46,2.93,0l.37-.14a2.12,2.12,0,0,0,.11.21l-.21.12c-1.3.82-2.12,1.85-1.84,2.31s1.57.16,2.88-.65l.41-.29.06,0-.08.05c-1.4.87-2.24,2-1.88,2.63s1.79.34,3.19-.54a6.42,6.42,0,0,0,1.32-1.08,7,7,0,0,0,4.75-1C77.28,151.17,78.42,147.53,76.79,144.93Z"/><path class="cls-2" d="M65.78,156.19a1,1,0,0,1-.89-.37c-.21-.33-.11-.81.28-1.35a4.64,4.64,0,0,1,.52-.6c-1,.45-1.9.62-2.19.15s.68-1.73,1.87-2.47l.11-.07h0l-.27.09a6.64,6.64,0,0,1-2,.39c-.63,0-1-.14-1.09-.43-.22-.63,1.09-1.45,2.42-1.9l.41-.13h0a5.27,5.27,0,0,1-.64.1,6.08,6.08,0,0,1-1.95-.1c-.58-.15-.91-.4-.94-.71-.07-.7,1.33-1.21,2.68-1.35a7.11,7.11,0,0,1,1.13,0,2.29,2.29,0,0,1,.08-.28c-1.13-.15-2-.85-1.9-1.6a1.2,1.2,0,0,1,.75-.93,2.71,2.71,0,0,1,1.52-.24,2.93,2.93,0,0,1,1.15.36,7.38,7.38,0,0,1,1.44-1.17c3.09-1.94,7-1.35,8.62,1.3s.5,6.39-2.58,8.32a7.1,7.1,0,0,1-4.77,1.08,6.28,6.28,0,0,1-1.3,1.05A5.07,5.07,0,0,1,65.78,156.19Zm1.12-3.32.27.21-.23.14a5.73,5.73,0,0,0-1.57,1.4c-.31.44-.41.83-.27,1.06.29.46,1.56.33,3-.58a6.55,6.55,0,0,0,1.29-1l0-.05h.07a6.94,6.94,0,0,0,4.66-1c3-1.86,4.1-5.44,2.51-8s-5.3-3.08-8.27-1.22A7.42,7.42,0,0,0,67,145l-.07.07-.08,0a2.69,2.69,0,0,0-1.14-.37,2.48,2.48,0,0,0-1.38.21,1,1,0,0,0-.61.73c-.06.63.72,1.23,1.76,1.34h.25l-.06.16a5.08,5.08,0,0,0-.17.51l0,.1h-.1a7.75,7.75,0,0,0-1.18,0c-1.5.15-2.5.69-2.46,1.08,0,.19.3.37.75.49a6.47,6.47,0,0,0,2.63,0l.14,0v.5l-.1,0-.49.14c-1.44.49-2.39,1.24-2.27,1.59.06.16.37.26.82.26h0a6.73,6.73,0,0,0,1.91-.37l.31-.12.16-.06.05.1a.54.54,0,0,0,.07.13l.1.19-.19.11-.12.07c-1.33.83-2,1.79-1.8,2.13s1.37.14,2.7-.69c.14-.09.28-.18.41-.28Z"/><path class="cls-3" d="M72.82,138.21c4.86-7,12.14-2.82,22.85-9.29,8.78-5.31,10.12-11.87,14.47-11,4.64.93,8.87,9.51,7.5,16.13-3.39,16.38-41.75,24.07-46.91,15C69,146,70.9,141,72.82,138.21Z"/><path class="cls-13" d="M82,153.39c-5.23,0-10-1.09-11.69-4.12-1.91-3.34.22-8.62,2.11-11.34h0c2.72-3.91,6.25-4.5,10.35-5.18a32.56,32.56,0,0,0,12.65-4.26,35.11,35.11,0,0,0,8.42-7.31c2.22-2.48,3.82-4.27,6.41-3.76,1.83.37,3.67,1.82,5.18,4.11a17.64,17.64,0,0,1,2.71,12.61c-2.07,10-16.46,16.69-29,18.66A46.47,46.47,0,0,1,82,153.39ZM73.24,138.5c-1.69,2.42-3.74,7.35-2.07,10.28C73,152,80,153.23,89,151.81c12.55-2,26.25-8.75,28.13-17.87a16.55,16.55,0,0,0-2.57-11.86c-1.36-2.06-3-3.36-4.53-3.68-2-.39-3.33,1-5.48,3.44a35.62,35.62,0,0,1-8.64,7.51,33.75,33.75,0,0,1-13,4.38c-4,.68-7.21,1.21-9.68,4.77Z"/><path class="cls-1" d="M57.31,151.69c.27-.59-.9-1.7-2.6-2.48h0s0-.09,0-.13c1.31.23,2.43,0,2.57-.61s-.89-1.4-2.31-1.72a4.8,4.8,0,0,0-1-.13c-.08-.15-.16-.29-.25-.43,1-.22,1.66-.9,1.52-1.53s-1.06-1-2.06-.78a2.6,2.6,0,0,0-1.07.51,7.68,7.68,0,0,0-1.36-.91c-3.3-1.74-7.14-.94-8.56,1.77s.09,6.33,3.4,8.06a7.93,7.93,0,0,0,3.39.91,7.5,7.5,0,0,0,1.51,1c1.64.86,3.24,1.06,3.56.44s-.39-1.37-1.5-2.14c1.67.7,3.23.74,3.55.05.21-.45-.17-1.1-.92-1.73C56.27,152.14,57.12,152.1,57.31,151.69Z"/><path class="cls-2" d="M53.16,156.17a6.25,6.25,0,0,1-2.71-.82,8.19,8.19,0,0,1-1.5-1,8,8,0,0,1-3.4-.92A7.61,7.61,0,0,1,42,149.7a5.19,5.19,0,0,1,.08-4.51c1.45-2.77,5.37-3.59,8.73-1.82a7.48,7.48,0,0,1,1.3.86,2.87,2.87,0,0,1,1-.47,2.69,2.69,0,0,1,1.42.07,1.13,1.13,0,0,1,.78.8c.15.66-.48,1.36-1.45,1.64a2.53,2.53,0,0,1,.13.22,5.68,5.68,0,0,1,.92.14,5,5,0,0,1,1.79.76c.47.36.69.75.61,1.11-.13.59-1.07.89-2.28.76,1.41.72,2.64,1.77,2.32,2.48-.18.4-.84.52-1.79.34.58.59.8,1.14.6,1.57-.29.64-1.5.73-2.95.28.79.69,1.14,1.37.9,1.81C54,156,53.67,156.17,53.16,156.17Zm-6-13.49a5.27,5.27,0,0,0-4.83,2.63,5,5,0,0,0-.07,4.29,7.36,7.36,0,0,0,3.42,3.6,7.79,7.79,0,0,0,3.33.9h0l0,0a7.9,7.9,0,0,0,1.49,1c1.71.9,3.13,1,3.39.5s-.4-1.25-1.47-2l-1-.68,1.1.46c1.6.66,3.12.72,3.4.11.17-.37-.17-1-.89-1.59l-.42-.35.53.14c1,.26,1.81.22,2-.11h0c.21-.44-.77-1.49-2.51-2.29h-.09v-.13a.13.13,0,0,0,0-.06v-.23l.15,0c1.25.23,2.31,0,2.43-.51,0-.25-.14-.56-.52-.85a4.74,4.74,0,0,0-1.7-.72,5.91,5.91,0,0,0-.94-.13h-.07l0-.07c-.08-.14-.16-.28-.25-.41l-.09-.15.17,0c.91-.21,1.55-.83,1.43-1.39a.9.9,0,0,0-.63-.61,2.28,2.28,0,0,0-1.28-.06,2.34,2.34,0,0,0-1,.47l-.08.07-.08-.07a7.82,7.82,0,0,0-4.9-1.8Z"/><path class="cls-3" d="M47.86,138.24c-4.68-7-11.71-2.85-22-9.37-8.48-5.35-9.77-12-14-11.09-4.47.93-8.56,9.58-7.24,16.25,3.27,16.51,40.29,24.25,45.27,15.1C51.54,146.08,49.72,141,47.86,138.24Z"/><path class="cls-13" d="M39,153.53a42.78,42.78,0,0,1-6.32-.51C20,151.08,6.07,144,4.12,134.13c-1.36-6.85,2.71-15.82,7.63-16.84,2.51-.52,4.06,1.29,6.21,3.79a34.42,34.42,0,0,0,8.12,7.37,30.43,30.43,0,0,0,12.2,4.28c4,.69,7.38,1.29,10,5.23h0c1.83,2.74,3.88,8,2,11.41C48.85,152.07,44.71,153.53,39,153.53ZM12.57,118.21a3.42,3.42,0,0,0-.62.06c-4.62,1-8,10-6.85,15.66C7,143.32,20.45,150.14,32.81,152c8.37,1.28,14.9,0,16.63-3.14,1.61-3-.37-7.93-2-10.38-2.39-3.58-5.45-4.11-9.34-4.79a31.77,31.77,0,0,1-12.56-4.43,35.39,35.39,0,0,1-8.35-7.56C15.37,119.59,14.18,118.21,12.57,118.21Z"/><ellipse class="cls-5" cx="43.5" cy="260.41" rx="13.72" ry="6.4"/><ellipse class="cls-5" cx="75.84" cy="260.41" rx="13.72" ry="6.4" transform="translate(-25.63 8.88) rotate(-5.73)"/></g></g></svg>