<?xml version="1.0" encoding="utf-8"?>
<!-- Generator: Adobe Illustrator 25.4.1, SVG Export Plug-In . SVG Version: 6.00 Build 0)  -->
<svg version="1.1" id="Layer_1" xmlns="http://www.w3.org/2000/svg" xmlns:xlink="http://www.w3.org/1999/xlink" x="0px" y="0px"
	 viewBox="0 0 388.4 127.4" style="enable-background:new 0 0 388.4 127.4;" xml:space="preserve">
<style type="text/css">
	.st0{fill:#FFFFFF;}
	.st1{fill:#1D1D1B;}
	.st2{enable-background:new    ;}
</style>
<g id="Layer_2_00000026164013854926600450000013388191673060022658_">
	<g id="Layer_1-2">
		<path class="st0" d="M387.2,63.5c0,19.9-12.2,34.4-15.7,38.5c-24.7,29.2-71.9,21.5-177.3,22.5c-105.2,0.9-147.9,9.5-174.5-19
			c-4.1-4.5-18.9-20.3-18.5-42C1.5,42,16.3,26.9,20.9,22.1C48.8-6.4,90.8,2.5,194.2,2.5s148.7-9.1,174.9,19.7
			C373.2,26.7,387.2,42.1,387.2,63.5z"/>
		<path class="st1" d="M96.6,127.4c-38.6,0-61.4-3.7-77.8-21.3C6.1,92.5-0.2,78.1,0,63.5c0.3-21.8,15.1-37,20-42
			C42.2-1.3,73.2-0.6,135,0.7c17.2,0.4,36.7,0.8,59.2,0.8c22.2,0,41.7-0.4,59-0.8C317-0.8,349.1-1.5,370,21.5
			c12.2,13.4,18.4,27.5,18.3,42c0,13.5-5.4,26.6-15.9,39.2c-20.1,23.8-54.1,23.5-121.8,23c-16.6-0.1-35.4-0.3-56.4-0.1
			s-39.8,0.7-56.3,1.1C122.4,127,108.7,127.4,96.6,127.4z M99.8,2.2c-38.6,0-61.1,3.3-78,20.6C17.1,27.7,2.7,42.5,2.3,63.5
			c-0.2,14.2,5.9,28,18.3,41.3c20.9,22.4,51.1,21.6,117.2,19.8c16.5-0.4,35.2-0.9,56.4-1.1c21-0.2,39.9,0,56.5,0.1
			c66.9,0.6,100.5,0.8,119.9-22.2C380.8,89.2,386,76.4,386,63.5l0,0c0-13.9-6-27.6-17.8-40.7C348,0.6,316.3,1.3,253.2,2.7
			c-17.2,0.4-36.8,0.8-59,0.8c-22.5,0-42-0.4-59.2-0.8C121.9,2.5,110.2,2.2,99.8,2.2z"/>
		<g class="st2">
			<path class="st1" d="M74.4,71.7h-8.3v9.7H53.3v-40h20.2c9.2,0,13.8,4.9,13.8,14.8c0,5.4-1.2,9.4-3.6,12c-0.9,1-2.1,1.8-3.7,2.5
				C78.3,71.3,76.5,71.7,74.4,71.7z M66.1,51.6v9.9H69c1.5,0,2.7-0.2,3.4-0.5c0.7-0.3,1.1-1.1,1.1-2.2v-4.5c0-1.2-0.4-1.9-1.1-2.2
				c-0.7-0.3-1.8-0.5-3.4-0.5H66.1z"/>
			<path class="st1" d="M125.9,81.3h-14.1l-5.2-11.9h-2.8v11.9H91v-40h20.2c9.2,0,13.8,4.7,13.8,14c0,6.4-2,10.6-6,12.7L125.9,81.3z
				 M103.8,51.6v8h2.9c1.5,0,2.7-0.2,3.4-0.5c0.7-0.3,1.1-1.1,1.1-2.2v-2.6c0-1.2-0.4-1.9-1.1-2.2c-0.7-0.3-1.8-0.5-3.4-0.5H103.8z"
				/>
			<path class="st1" d="M128.5,61.4c0-7.3,1.4-12.6,4.1-16c2.7-3.3,7.7-5,14.8-5c7.1,0,12.1,1.7,14.8,5c2.7,3.3,4.1,8.7,4.1,16
				c0,3.6-0.3,6.7-0.9,9.2c-0.6,2.5-1.6,4.6-3,6.5c-1.4,1.8-3.4,3.2-5.8,4c-2.5,0.9-5.5,1.3-9.2,1.3c-3.7,0-6.7-0.4-9.2-1.3
				c-2.5-0.9-4.4-2.2-5.8-4c-1.4-1.8-2.4-4-3-6.5C128.8,68,128.5,65,128.5,61.4z M156.9,50.2h-1l-12.4,21.6h1l-6,10.5
				c-0.2,0.4-0.4,0.7-0.6,0.9c-0.5,0.5-1.2,0.7-2.2,0.7h-4.5l6.9-12.1h0.9l12.4-21.6h-0.9l5.6-9.9c0.2-0.4,0.4-0.7,0.6-0.9
				c0.5-0.5,1.2-0.7,2.2-0.7h4.5L156.9,50.2z M142.2,54.7v16.6h5.3c1.7,0,3-0.2,3.8-0.6c0.8-0.4,1.2-1.3,1.2-2.8V51.3h-5.4
				c-1.7,0-3,0.2-3.7,0.6C142.6,52.3,142.2,53.3,142.2,54.7z"/>
			<path class="st1" d="M192.5,41.3H206l-9.9,40h-18.7l-9.9-40H181l5.4,25.4h0.6L192.5,41.3z"/>
			<path class="st1" d="M218.8,81.3v-40h12.8v40H218.8z"/>
			<path class="st1" d="M258.5,69.6v-1.7h-3.3V58h15.4v21.4c-5.1,1.9-10.3,2.9-15.7,2.9c-7.3,0-12.3-1.8-15-5.3
				c-1.4-1.8-2.4-4-2.9-6.5c-0.6-2.5-0.8-5.5-0.8-9.2s0.3-6.7,0.9-9.2c0.6-2.5,1.6-4.6,3.1-6.4c2.8-3.6,8.3-5.4,16.3-5.4
				c1.7,0,3.8,0.2,6.5,0.5c2.7,0.3,4.6,0.7,5.9,1.2l-1.9,9.8c-3.5-0.6-6.6-0.9-9.4-0.9c-2.8,0-4.8,0.2-5.9,0.6
				c-1.1,0.4-1.7,1.3-1.7,2.6v18.1h4.2c1.5,0,2.7-0.2,3.4-0.5C258.2,71.4,258.5,70.7,258.5,69.6z"/>
			<path class="st1" d="M302,66.2h-12.8v4.9h15.7v10.2h-28.5v-40h28.2L303,51.6h-13.8v5.4H302V66.2z"/>
			<path class="st1" d="M333.8,81.3L324,67.1c-0.3-0.5-0.6-1.5-0.6-3.1h-0.3v17.3h-12.8v-40h12l9.8,14.2c0.3,0.5,0.6,1.5,0.6,3.1
				h0.3V41.3h12.8v40H333.8z"/>
		</g>
	</g>
</g>
</svg>
