<svg xmlns="http://www.w3.org/2000/svg" viewBox="0 0 87.95 67.08"><defs><style>.cls-1{fill:#fff;}.cls-2{fill:#1d1d1b;}</style></defs><g id="Layer_2" data-name="Layer 2"><g id="Layer_1-2" data-name="Layer 1"><path class="cls-1" d="M87.68,33.41A59,59,0,0,1,84.13,53.7C78.54,69.1,67.85,65,44,65.53s-33.49,5-39.51-10a57.63,57.63,0,0,1-4.2-22.1A56.26,56.26,0,0,1,4.73,11.66C11-3.38,20.57,1.34,44,1.3S77.66-3.52,83.59,11.66A58.87,58.87,0,0,1,87.68,33.41Z"/><path class="cls-2" d="M21.88,67.08C13.15,67.08,8,65.14,4.26,55.86A58.94,58.94,0,0,1,0,33.41,57,57,0,0,1,4.53,11.3c5-12,12-11.63,26.05-11,3.89.19,8.31.4,13.4.4S53.42.51,57.33.31C71.8-.44,79.06-.81,83.8,11.32A60.81,60.81,0,0,1,84.34,54c-4.55,12.54-12.25,12.39-27.58,12.1-3.76-.08-8-.16-12.78-.06s-9,.36-12.76.59C27.71,66.89,24.62,67.08,21.88,67.08Zm.71-65.9C13.86,1.18,8.75,2.92,4.93,12a55.25,55.25,0,0,0-4.4,21.4A56.92,56.92,0,0,0,4.67,55.15C9.4,66.93,16.23,66.5,31.21,65.57c3.73-.23,8-.49,12.76-.59s9,0,12.79.06c15.16.29,22.76.44,27.16-11.67a58.37,58.37,0,0,0,3.5-20h0a58.58,58.58,0,0,0-4-21.4C78.81.3,71.64.67,57.34,1.41c-3.9.2-8.33.43-13.36.44s-9.51-.21-13.41-.4C27.61,1.31,25,1.18,22.59,1.18Z"/><path class="cls-2" d="M15.72,24.41l13-1,18-10q-.51,20.5-1,41l-15-10-15-2Z"/><rect x="58.72" y="19.05" width="4" height="27.73" transform="translate(-7.75 41.97) rotate(-36)"/><rect x="46.39" y="30.91" width="28.65" height="4" transform="translate(-1.34 63.23) rotate(-54.5)"/></g></g></svg>