<?xml version="1.0" encoding="utf-8"?>
<!-- Generator: Adobe Illustrator 25.4.1, SVG Export Plug-In . SVG Version: 6.00 Build 0)  -->
<svg version="1.1" id="Layer_1" xmlns="http://www.w3.org/2000/svg" xmlns:xlink="http://www.w3.org/1999/xlink" x="0px" y="0px"
	 viewBox="0 0 1920 1080" style="enable-background:new 0 0 1920 1080;" xml:space="preserve">
<style type="text/css">
	.st0{fill:#9D723D;}
	.st1{fill:#1D1D1B;}
	.st2{fill:url(#SVGID_1_);}
	.st3{fill:#454542;}
	.st4{fill:url(#SVGID_00000081618088729129869440000009531719113291847310_);}
	.st5{fill:#B46E19;}
	.st6{fill:url(#SVGID_00000070113003775684652890000000387866097374701476_);}
	.st7{fill:#A3473A;}
	.st8{fill:url(#SVGID_00000037676359341466245390000008833472704130238906_);}
	.st9{fill:url(#SVGID_00000158738269103559757850000016267926803876983724_);}
	.st10{fill:#7F6A4F;}
	.st11{fill:#7C3840;}
	.st12{fill:#141B2E;}
	.st13{fill:url(#SVGID_00000165942526144779752640000006469443746856817588_);}
	.st14{fill:#FFFFFF;}
	.st15{fill:url(#SVGID_00000072966586536850811150000013377816884727874945_);}
	.st16{fill:#636362;}
	.st17{fill:#5D6061;}
	.st18{fill:url(#SVGID_00000067944396079715482290000011494594133033792140_);}
	.st19{fill:url(#SVGID_00000181071850263113178010000010198349619097852343_);}
	.st20{fill:url(#SVGID_00000120555165046601894230000005950568834590077605_);}
</style>
<g id="rudolf">
	<path class="st0" d="M557.9,720.8c8.8-22,6.1-45.3-7.3-59.7c-14.7-15.8-36.3-14.7-48.3-14c-26.4,1.4-62.9,15.8-69.5,44.4
		c-2.4,10.5-0.1,20,2,26L557.9,720.8z"/>
	<path class="st1" d="M495,684.3c16.7,0,30.3,13.6,30.3,30.3c0,16.7-13.6,30.3-30.3,30.3c-16.7,0-30.3-13.6-30.3-30.3c0,0,0,0,0,0
		C464.7,697.8,478.3,684.3,495,684.3 M495,660.1c-30.1,0-54.5,24.4-54.5,54.5c0,30.1,24.4,54.5,54.5,54.5
		c30.1,0,54.5-24.4,54.5-54.5v0C549.5,684.5,525.1,660.1,495,660.1L495,660.1z"/>
	
		<radialGradient id="SVGID_1_" cx="89.67" cy="365.94" r="31.9" gradientTransform="matrix(-1 0 0 -1 584.71 1080)" gradientUnits="userSpaceOnUse">
		<stop  offset="0.11" style="stop-color:#FFFFFF"/>
		<stop  offset="0.19" style="stop-color:#F0F0F0"/>
		<stop  offset="0.34" style="stop-color:#C8C8C8"/>
		<stop  offset="0.54" style="stop-color:#898989"/>
		<stop  offset="0.55" style="stop-color:#868686"/>
		<stop  offset="0.72" style="stop-color:#656564"/>
		<stop  offset="0.9" style="stop-color:#474746"/>
		<stop  offset="1" style="stop-color:#3C3C3B"/>
	</radialGradient>
	<circle class="st2" cx="495" cy="714.1" r="31.9"/>
	<path class="st3" d="M478.9,691.7c7,0.5,12.5,13.2,8.7,18.2s-17.3,3.4-19.7-3.3C465.6,700.6,472.6,691.3,478.9,691.7z"/>
	<path class="st1" d="M477.1,713c-3.8-0.5-8.3-2.5-9.7-6.3c-1.1-2.9-0.1-6.8,2.4-10.3s6-5.4,9.1-5.2l0,0c4,0.3,7.2,4.1,8.8,7.6
		c2,4.4,2.1,8.8,0.2,11.3c-1.5,2-4.5,3.1-8.1,3.1C478.9,713.2,478,713.1,477.1,713z M470.5,697c-2.4,3.2-3.2,6.8-2.3,9.4
		c1.3,3.4,5.5,5.2,9,5.7c4.3,0.6,8.3-0.4,10-2.5s1.5-6.3-0.4-10.3c-1.5-3.3-4.4-6.8-8-7.1h-0.4C475.8,692.1,472.8,694,470.5,697
		L470.5,697z"/>
	<path class="st3" d="M471.2,730.2c0.5-7.4,14.2-13.3,19.6-9.2c5.1,4,3.7,18.1-3.5,20.8C480.7,744.3,470.8,736.7,471.2,730.2z"/>
	<path class="st1" d="M476.3,739.8c-3.7-2.7-5.8-6.4-5.6-9.6l0,0c0.3-4.2,4.4-7.6,8.2-9.3c4.8-2.2,9.5-2.2,12.1-0.2s3.8,6.5,3,11.5
		c-0.6,3.9-2.6,8.7-6.6,10.2c-0.9,0.3-1.9,0.5-2.9,0.5C481.5,742.7,478.7,741.6,476.3,739.8z M479.3,721.7c-5.4,2.5-7.5,6-7.7,8.5
		l0,0c-0.2,2.9,1.9,6.3,5.3,8.8s7.4,3.5,10.2,2.4c3.6-1.4,5.5-5.8,6.1-9.5c0.7-4.6-0.4-8.8-2.7-10.6c-1.3-0.9-2.9-1.3-4.5-1.3
		C483.7,720.2,481.4,720.7,479.3,721.7z"/>
	<path class="st3" d="M522,720.6c-3.1-6.7-14.5-7.7-18.3-3.6c-4.6,5.1,1.4,19.7,7.9,20.2C517.1,737.5,525.2,727.7,522,720.6z"/>
	<path class="st1" d="M511.5,737.5c-3.8-0.3-7-4.8-8.5-8.6s-2.4-9.4,0.3-12.3c1.9-2.1,5.7-3,9.8-2.3c4.3,0.7,7.8,3,9.2,6.1l0,0
		c1.5,3.3,0.8,7.5-1.8,11.4c-2.4,3.5-5.9,5.8-8.7,5.8L511.5,737.5z M504,717.2c-2,2.2-2,6.6-0.1,11.3s5,7.8,7.7,8
		c2.5,0.2,5.9-2,8.2-5.4c2.5-3.6,3.1-7.5,1.8-10.5l0,0c-1.3-2.9-4.5-5-8.5-5.6c-0.8-0.1-1.6-0.2-2.3-0.2
		C507.8,715,505.3,715.8,504,717.2L504,717.2z"/>
	<path class="st3" d="M516.8,697.9c0.1,7.5-14.2,14.5-19.6,10.6c-5-3.6-4.3-18,3.2-21C506.9,684.8,516.7,691.7,516.8,697.9z"/>
	<path class="st1" d="M496.9,708.8c-2.5-1.8-3.8-6.4-3.3-11.3c0.6-5.2,3-9.1,6.5-10.5c3.2-1.3,7.3-0.6,11.1,1.9s5.9,5.8,6,8.9
		c0.1,4.3-4.1,8-8,10c-2.5,1.4-5.2,2.1-8,2.2C499.7,710.1,498.2,709.7,496.9,708.8z M500.5,687.8c-3.2,1.3-5.4,5-6,9.8
		c-0.5,4.5,0.6,8.8,2.9,10.5s6.9,1.3,11.4-1c4.5-2.3,7.5-6,7.5-9.2l0,0c0-2.7-2.2-5.9-5.6-8.2c-2.1-1.5-4.6-2.3-7.2-2.4
		C502.5,687.3,501.5,687.5,500.5,687.8L500.5,687.8z"/>
	<path class="st0" d="M193.2,715.6c7.1-20.6,3.9-42.1-8.9-55.8c-14.8-15.9-36.4-14.7-48.3-14.1c-24.4,1.3-61.2,14.2-69.4,44.4
		c-3.7,13.3-0.6,25.6,2.2,33.1L193.2,715.6z"/>
	<path class="st1" d="M128.9,683c16.7,0,30.3,13.6,30.3,30.3c0,16.7-13.6,30.3-30.3,30.3s-30.3-13.6-30.3-30.3c0,0,0,0,0,0
		C98.6,696.6,112.2,683,128.9,683C128.9,683,128.9,683,128.9,683 M128.9,658.8c-30.1,0-54.5,24.4-54.5,54.5
		c0,30.1,24.4,54.5,54.5,54.5s54.5-24.4,54.5-54.5l0,0C183.4,683.2,159,658.8,128.9,658.8L128.9,658.8z"/>
	
		<radialGradient id="SVGID_00000052069223369433866150000010093567280274386856_" cx="455.81" cy="367.18" r="31.9" gradientTransform="matrix(-1 0 0 -1 584.71 1080)" gradientUnits="userSpaceOnUse">
		<stop  offset="0.11" style="stop-color:#FFFFFF"/>
		<stop  offset="0.19" style="stop-color:#F0F0F0"/>
		<stop  offset="0.34" style="stop-color:#C8C8C8"/>
		<stop  offset="0.54" style="stop-color:#898989"/>
		<stop  offset="0.55" style="stop-color:#868686"/>
		<stop  offset="0.72" style="stop-color:#656564"/>
		<stop  offset="0.9" style="stop-color:#474746"/>
		<stop  offset="1" style="stop-color:#3C3C3B"/>
	</radialGradient>
	<circle style="fill:url(#SVGID_00000052069223369433866150000010093567280274386856_);" cx="128.9" cy="712.8" r="31.9"/>
	<path class="st3" d="M112.7,690.4c7,0.5,12.4,13.2,8.7,18.2s-17.3,3.4-19.7-3.3C99.4,699.3,106.5,690,112.7,690.4z"/>
	<path class="st1" d="M110.9,711.8c-3.8-0.6-8.3-2.5-9.7-6.3c-1.1-2.9-0.2-6.8,2.4-10.3s6-5.4,9.1-5.2l0,0c4,0.3,7.2,4.1,8.8,7.6
		c2,4.4,2.1,8.8,0.2,11.3c-1.5,2-4.5,3.1-8.1,3.1C112.7,712,111.8,711.9,110.9,711.8z M104.4,695.8c-2.4,3.2-3.2,6.8-2.3,9.4
		c1.2,3.4,5.4,5.2,9,5.7c4.3,0.6,8.3-0.4,10-2.5s1.5-6.3-0.3-10.4c-1.5-3.3-4.4-6.8-8-7.1h-0.4C109.7,690.9,106.7,692.7,104.4,695.8
		L104.4,695.8z"/>
	<path class="st3" d="M105,729c0.5-7.4,14.2-13.3,19.6-9.2c5.2,4,3.7,18.1-3.5,20.9C114.6,743.1,104.6,735.5,105,729z"/>
	<path class="st1" d="M110.2,738.5c-3.7-2.7-5.8-6.4-5.6-9.6l0,0c0.3-4.2,4.4-7.6,8.2-9.3c4.8-2.2,9.5-2.2,12.1-0.2s3.8,6.5,3,11.4
		c-0.6,3.9-2.7,8.7-6.7,10.2c-0.9,0.3-1.9,0.5-2.9,0.5C115.4,741.4,112.5,740.4,110.2,738.5z M113.1,720.4c-5.4,2.5-7.5,6-7.7,8.5
		l0,0c-0.2,2.9,1.9,6.3,5.3,8.8s7.3,3.5,10.2,2.4c3.6-1.4,5.5-5.8,6.1-9.5c0.7-4.6-0.4-8.8-2.7-10.6c-1.3-0.9-2.9-1.3-4.5-1.3
		C117.5,718.9,115.2,719.5,113.1,720.4z"/>
	<path class="st3" d="M155.8,719.3c-3.1-6.7-14.6-7.7-18.3-3.6c-4.6,5.1,1.4,19.7,7.9,20.2C150.9,736.2,159.1,726.5,155.8,719.3z"/>
	<path class="st1" d="M145.4,736.3c-3.8-0.3-7-4.8-8.5-8.6s-2.4-9.4,0.3-12.3c1.9-2.1,5.8-3,9.8-2.3c4.3,0.7,7.8,3,9.2,6.1l0,0
		c1.5,3.3,0.8,7.5-1.9,11.4c-2.4,3.5-5.9,5.8-8.7,5.8L145.4,736.3z M137.9,716c-2,2.2-2,6.6-0.1,11.3s4.9,7.8,7.7,8
		c2.5,0.2,5.9-2,8.2-5.4c2.5-3.6,3.1-7.5,1.8-10.5l0,0c-1.3-2.9-4.5-5-8.5-5.6c-0.8-0.1-1.6-0.2-2.3-0.2
		C141.7,713.7,139.2,714.6,137.9,716z"/>
	<path class="st3" d="M150.6,696.6c0.1,7.6-14.2,14.5-19.6,10.6c-5-3.6-4.3-18,3.2-21C140.8,683.5,150.6,690.4,150.6,696.6z"/>
	<path class="st1" d="M130.8,707.6c-2.5-1.8-3.8-6.4-3.3-11.3c0.6-5.2,3-9.1,6.5-10.5c3.2-1.3,7.3-0.6,11.1,1.9s5.9,5.8,6,8.9
		c0,4.3-4.1,8-8,10c-2.5,1.3-5.2,2.1-8,2.2C133.6,708.9,132.1,708.4,130.8,707.6z M134.4,686.6c-3.2,1.3-5.4,5-6,9.8
		c-0.5,4.5,0.6,8.8,2.9,10.5s6.9,1.3,11.4-1s7.5-6,7.5-9.2l0,0c0-2.7-2.2-5.9-5.6-8.2c-2.1-1.5-4.6-2.3-7.2-2.4
		C136.4,686.1,135.3,686.3,134.4,686.6L134.4,686.6z"/>
	<path class="st5" d="M556.1,719.1h84.3c-3.8-63.1-23.1-88.4-41.5-99.3c-27.1-16-48.8,1.3-77-16.3c-35.1-21.8-20-59.1-52.2-91.6
		c-36.6-36.9-115.2-48.5-157.5-9.4c-25.6,23.6-29.3,57.8-30,71.9l-190,0.8c-32.4,27.4-45.1,56.2-50.5,71.9c-2,5.7-20.3,61.1,0,74.5
		c7.5,5,18.3,2.7,27.4-0.9c-2.3-23.4,7.4-46,25.7-58.2c25.2-16.8,58.3-8.4,77,9.4c16.2,15.4,19,35.2,19.7,41.9l243.9,1.7
		c-0.4-3.2-3-32.2,18-50.5c21.3-18.6,52.5-13.5,71.7-1.4C553.8,681.8,556,715.6,556.1,719.1z"/>
	<path d="M41.4,722.1c-8.7-5.7-11.6-19.4-8.6-40.6c1.8-11.7,4.6-23.2,8.4-34.5c9.2-26.9,26.7-51.8,50.6-72.1l0.1-0.1l189.7-0.8
		c0.9-17.5,6.1-49.6,30.1-71.8c19.5-18,49.2-26.8,81.3-23.9c30.1,2.7,58.9,15.1,76.9,33.3c15.2,15.4,19.9,31.6,24.3,47.2
		c4.8,16.9,9.4,32.9,27.8,44.3c14.3,8.9,27.2,8.8,39.5,8.6c11.9-0.1,24.1-0.3,37.5,7.6c24.6,14.5,38.6,48.1,41.8,99.7v0.5h-85.3
		v-0.5c-0.2-3.8-2.6-37.2-30.8-55c-27.8-17.5-56.3-11.5-71.1,1.4c-20.6,18-18.1,46.8-17.8,50.1l0.1,0.6l-244.5-1.7H191V714
		c-0.9-9.5-4.7-27.5-19.5-41.6c-18.1-17.2-51-26.3-76.4-9.4c-18,12-27.8,34.2-25.4,57.7v0.4l-0.3,0.1c-6.4,2.5-12,3.8-16.9,3.8
		C48.5,725.1,44.7,724.1,41.4,722.1z M94.5,662.2c25.8-17.2,59.3-8,77.7,9.5c14.8,14.1,18.8,32,19.8,41.8l242.9,1.7
		c-0.5-5.2-1.9-32.8,18.2-50.4c9.8-8.6,22.6-12.8,37-12.4c12.5,0.5,24.7,4.3,35.3,10.9c27.7,17.4,30.9,49.7,31.2,55.3H640
		c-3.2-50.9-17.1-84-41.3-98.3c-13.1-7.7-24.7-7.6-37-7.5c-12.5,0.1-25.5,0.3-40.1-8.8c-18.7-11.6-23.3-27.8-28.2-44.9
		c-4.4-15.5-9-31.6-24.1-46.8c-17.9-18-46.4-30.4-76.3-33c-31.8-2.8-61.2,5.8-80.5,23.6c-24,22.2-29,54.3-29.8,71.5v0.5l-190.3,0.8
		c-23.8,20.1-41.1,44.9-50.2,71.5c-2.1,6.2-20,60.8-0.2,73.9c6.1,4,15,3.7,26.6-0.8C66.3,696.7,76.2,674.4,94.5,662.2z"/>
	
		<radialGradient id="SVGID_00000039116091880981796760000001264540408547330736_" cx="1904.0601" cy="3799.6001" r="2.08" gradientTransform="matrix(-7.6831 4.2475 -0.1631 -8.7775 15324.2148 25860.1758)" gradientUnits="userSpaceOnUse">
		<stop  offset="0.21" style="stop-color:#F5F5F5"/>
		<stop  offset="0.24" style="stop-color:#F5F0E6"/>
		<stop  offset="0.31" style="stop-color:#F6E2BE"/>
		<stop  offset="0.39" style="stop-color:#F7CB7E"/>
		<stop  offset="0.49" style="stop-color:#F8B133"/>
		<stop  offset="0.51" style="stop-color:#F8BA4D;stop-opacity:0.99"/>
		<stop  offset="0.57" style="stop-color:#F7CF88;stop-opacity:0.98"/>
		<stop  offset="0.63" style="stop-color:#F6DFB7;stop-opacity:0.97"/>
		<stop  offset="0.68" style="stop-color:#F5EBD9;stop-opacity:0.96"/>
		<stop  offset="0.72" style="stop-color:#F5F2EE;stop-opacity:0.95"/>
		<stop  offset="0.75" style="stop-color:#F5F5F5;stop-opacity:0.95"/>
		<stop  offset="0.75" style="stop-color:#F5F5EA;stop-opacity:0.95"/>
		<stop  offset="0.79" style="stop-color:#F8F2AC;stop-opacity:0.95"/>
		<stop  offset="0.83" style="stop-color:#FAF078;stop-opacity:0.95"/>
		<stop  offset="0.87" style="stop-color:#FCEF4D;stop-opacity:0.95"/>
		<stop  offset="0.9" style="stop-color:#FDEE2B;stop-opacity:0.95"/>
		<stop  offset="0.94" style="stop-color:#FEED13;stop-opacity:0.95"/>
		<stop  offset="0.97" style="stop-color:#FFEC05;stop-opacity:0.95"/>
		<stop  offset="1" style="stop-color:#FFEC00;stop-opacity:0.95"/>
	</radialGradient>
	<path style="fill:url(#SVGID_00000039116091880981796760000001264540408547330736_);" d="M72.3,597.1c6.7-11.6,16.8-18.4,22.5-15.1
		s4.9,15.4-1.9,27s-16.8,18.4-22.5,15.1S65.6,608.8,72.3,597.1z"/>
	<ellipse class="st7" cx="619.9" cy="655" rx="9.3" ry="18.1"/>
	
		<linearGradient id="SVGID_00000036215565990704538420000004376888533427737244_" gradientUnits="userSpaceOnUse" x1="196.44" y1="544.2559" x2="282.56" y2="544.2559" gradientTransform="matrix(-1 0 0 -1 584.71 1080)">
		<stop  offset="0" style="stop-color:#FFFFFF"/>
		<stop  offset="0.13" style="stop-color:#F8FBFE"/>
		<stop  offset="0.33" style="stop-color:#E4F2FA"/>
		<stop  offset="0.56" style="stop-color:#C4E1F5"/>
		<stop  offset="0.81" style="stop-color:#97CBED"/>
		<stop  offset="1" style="stop-color:#73B9E7"/>
	</linearGradient>
	<path style="fill:url(#SVGID_00000036215565990704538420000004376888533427737244_);" d="M388.3,500.2l-0.1,71.8l-86-0.4
		c0.2-4.7,1.8-33.3,26-54.1C353.6,495.5,383.8,499.5,388.3,500.2z"/>
	
		<linearGradient id="SVGID_00000131332552096783955190000008425143942701282199_" gradientUnits="userSpaceOnUse" x1="112.6215" y1="541.55" x2="181.87" y2="541.55" gradientTransform="matrix(-1 0 0 -1 584.71 1080)">
		<stop  offset="0" style="stop-color:#FFFFFF"/>
		<stop  offset="0.13" style="stop-color:#F8FBFE"/>
		<stop  offset="0.33" style="stop-color:#E4F2FA"/>
		<stop  offset="0.56" style="stop-color:#C4E1F5"/>
		<stop  offset="0.81" style="stop-color:#97CBED"/>
		<stop  offset="1" style="stop-color:#73B9E7"/>
	</linearGradient>
	<path style="fill:url(#SVGID_00000131332552096783955190000008425143942701282199_);" d="M402.8,501.1c6.4,0.3,27.2,2.2,45.3,18.5
		c24,21.7,24,51.6,23.9,56.2l-68.4-2.5L402.8,501.1z"/>
	
		<rect x="357" y="633.7" transform="matrix(8.901099e-03 -1 1 8.901099e-03 -243.7845 1024.385)" class="st10" width="75.8" height="3"/>
	<path class="st10" d="M357.5,597.6c0-2.1,1.7-3.7,3.7-3.7h16.5c2.1-0.1,3.8,1.5,3.9,3.5c0.1,2.1-1.5,3.8-3.5,3.9
		c-0.1,0-0.3,0-0.4,0h-16.4C359.2,601.3,357.5,599.7,357.5,597.6z M361.2,596.9c-0.4,0-0.7,0.3-0.7,0.7c0,0.4,0.3,0.7,0.7,0.7h16.5
		c0.4,0,0.7-0.3,0.7-0.7c0-0.4-0.3-0.7-0.7-0.7H361.2z"/>
	<path class="st10" d="M453.6,597.6c0-2.1,1.7-3.7,3.7-3.7h13.6c2.1,0.1,3.6,1.9,3.5,3.9c-0.1,1.9-1.6,3.4-3.5,3.5h-13.6
		C455.3,601.3,453.6,599.7,453.6,597.6z M457.3,596.9c-0.4,0-0.7,0.3-0.7,0.7c0,0.4,0.3,0.7,0.7,0.7h13.6c0.4,0,0.7-0.3,0.7-0.7
		c0-0.4-0.3-0.7-0.7-0.7H457.3z"/>
</g>
<g id="rosa_00000095337617094013766020000016622445423013180567_">
	<path class="st11" d="M1202.1,924.7l-86.1-2.5c-7.9-75.2,9-102.7,25.3-114c28.9-20.1,61.8,6.2,103.3-15.1
		c35.8-18.3,28-46.3,61.4-78.7c51.5-49.8,151.1-61.8,207.7-22.8c38.2,26.3,24.6,53.7,63,78.5c57.9,37.4,113.6-7,165,22.9
		c25,14.5,52.7,48.8,58.6,138.6l-80.8,1.7c10.4-24.2,5.4-51.9-12.4-69.5c-20.9-20.8-53.5-21.6-76.8-7.4
		c-23.9,14.7-35.7,43.2-29.1,70.5l-295.2-7.1c3.6-19.9-2.5-39.9-16.8-51.8c-21-17.5-53.6-12.4-71.9,5.8
		C1197.4,893.3,1201.6,921.6,1202.1,924.7z"/>
	<path class="st12" d="M1716.8,935.1l1.1-2.5c10-23.3,5.2-50.5-12-67.6c-19-18.9-50.4-21.9-74.7-7.2c-23.4,14.3-34.8,42-28.3,68.6
		l0.5,2.2l-299.5-7.2l0.4-2c3.6-19.6-2.6-38.8-16.2-50.1c-20.8-17.3-52.7-11-69.5,5.6c-19.1,19-15.2,46.5-14.7,49.6l0.3,2.1
		l-89.8-2.7l-0.2-1.5c-6.3-60.3,2.4-99.2,26.1-115.6c14.6-10.2,30.3-8.9,46.8-7.5c17.6,1.5,35.8,3,56.6-7.7
		c19.3-9.9,25.6-22.7,33-37.6c6-12.2,12.9-26.1,28-40.7c53-51.3,153.1-62.2,210-23c19.3,13.3,25.7,27,31.8,40.2
		c6.2,13.4,12.1,26,31.1,38.3c30,19.3,59.5,16.4,88.1,13.6c26.7-2.7,52-5.2,76.8,9.3c34.7,20.2,54.7,67.3,59.5,140l0.1,1.8
		L1716.8,935.1z M1664.4,845c16.3,0,32.3,6,43.9,17.5c17.7,17.5,23,44.9,13.8,69l76.3-1.7c-4.9-70.4-24.3-116-57.6-135.3
		c-23.9-13.9-48.6-11.4-74.7-8.8c-29.2,2.9-59.4,5.9-90.4-14.1c-19.8-12.8-26.2-26.5-32.4-39.7c-6-12.8-12.1-26-30.6-38.7
		c-55.7-38.4-153.6-27.6-205.5,22.6c-14.7,14.2-21.4,27.8-27.3,39.8c-7.6,15.4-14.2,28.8-34.5,39.2c-21.7,11.1-41.3,9.5-58.5,8.1
		c-16.6-1.4-31-2.6-44.6,6.9c-22.3,15.5-30.7,52.8-24.8,110.8l82.5,2.4c-0.9-7.8-2.1-32.7,16-50.5c22.9-22.7,56.3-20.7,74.3-5.9
		c14.1,11.7,20.8,31.3,17.8,51.5l290.9,7c-5.7-27.5,6.5-55.6,30.4-70.2C1640,848.4,1652.1,845,1664.4,845z"/>
	<path class="st1" d="M1253.5,883.5c14.6,0,26.5,11.9,26.5,26.5c0,14.6-11.9,26.5-26.5,26.5c-14.6,0-26.5-11.9-26.5-26.5
		c0,0,0,0,0,0C1227,895.4,1238.8,883.5,1253.5,883.5 M1253.5,862.4c-26.3,0-47.6,21.3-47.6,47.6s21.3,47.6,47.6,47.6
		c26.3,0,47.6-21.3,47.6-47.6c0,0,0,0,0,0C1301,883.7,1279.7,862.4,1253.5,862.4z"/>
	<path class="st1" d="M1664.8,876.3c15.7,0,28.5,12.8,28.5,28.5s-12.8,28.5-28.5,28.5c-15.7,0-28.5-12.8-28.5-28.5c0,0,0,0,0,0
		C1636.3,889,1649,876.3,1664.8,876.3 M1664.8,851.6c-29.4,0-53.2,23.8-53.2,53.2c0,29.4,23.8,53.2,53.2,53.2
		c29.4,0,53.2-23.8,53.2-53.2C1717.9,875.4,1694.1,851.7,1664.8,851.6z"/>
	
		<radialGradient id="SVGID_00000052075285510895202410000012916316550783087550_" cx="1664.7864" cy="175.183" r="29.27" gradientTransform="matrix(1 0 0 -1 0 1080)" gradientUnits="userSpaceOnUse">
		<stop  offset="0.11" style="stop-color:#161412;stop-opacity:0"/>
		<stop  offset="0.25" style="stop-color:#272624;stop-opacity:0.17"/>
		<stop  offset="0.54" style="stop-color:#555553;stop-opacity:0.63"/>
		<stop  offset="0.55" style="stop-color:#575756;stop-opacity:0.65"/>
		<stop  offset="1" style="stop-color:#3C3C3B;stop-opacity:0.95"/>
	</radialGradient>
	<circle style="fill:url(#SVGID_00000052075285510895202410000012916316550783087550_);" cx="1664.8" cy="904.8" r="29.3"/>
	<circle class="st14" cx="1253.5" cy="910" r="25.9"/>
	<path class="st3" d="M1678.9,884.8c-6.2,0.4-10.9,11.5-7.6,15.9s15.1,3,17.2-2.8C1690.5,892.5,1684.3,884.4,1678.9,884.8z"/>
	<path class="st1" d="M1678.1,903.6c-3.1,0-5.8-1-7.1-2.7c-1.6-2.2-1.6-6,0.2-9.9c1.4-3.1,4.2-6.4,7.7-6.6l0,0
		c2.7-0.2,5.7,1.6,7.9,4.6s3,6.4,2.1,9c-1.2,3.3-5.2,5-8.5,5.5C1679.7,903.5,1678.9,903.6,1678.1,903.6z M1679.2,885.1h-0.3
		c-3.2,0.2-5.7,3.3-7,6.2c-1.6,3.5-1.7,7.2-0.3,9s4.9,2.8,8.7,2.2c3.1-0.5,6.7-2,7.8-5c0.8-2.3,0.1-5.4-2-8.2
		S1681.5,885.1,1679.2,885.1L1679.2,885.1z"/>
	<path class="st3" d="M1685.6,918.4c-0.4-6.5-12.4-11.6-17.1-8c-4.5,3.5-3.2,15.8,3.1,18.2C1677.3,930.7,1686,924.1,1685.6,918.4z"
		/>
	<path class="st1" d="M1674,929.4c-0.9,0-1.7-0.1-2.5-0.4c-3.5-1.3-5.3-5.5-5.8-8.9c-0.6-4.3,0.4-8.3,2.6-10s6.4-1.7,10.6,0.2
		c3.3,1.5,6.9,4.4,7.2,8.1l0,0c0.2,2.8-1.7,6-4.9,8.4C1679,928.4,1676.5,929.3,1674,929.4z M1672.6,909.6c-1.4-0.1-2.8,0.3-3.9,1.1
		c-2,1.5-2.9,5.2-2.3,9.2c0.5,3.2,2.1,7.1,5.3,8.3c2.5,0.9,5.9,0.2,8.9-2.1s4.8-5.2,4.6-7.7l0,0c-0.1-2.2-2-5.3-6.7-7.5
		C1676.7,910.1,1674.7,909.6,1672.6,909.6z"/>
	<path class="st3" d="M1641.2,910c2.7-5.8,12.7-6.7,16-3.2c4.1,4.4-1.2,17.2-6.9,17.6C1645.5,924.7,1638.4,916.2,1641.2,910z"/>
	<path class="st1" d="M1650.1,924.8c-2.4,0-5.4-2-7.6-5c-2.3-3.4-2.9-7.1-1.6-9.9l0,0c1.2-2.8,4.3-4.7,8-5.3
		c3.5-0.6,6.9,0.2,8.6,2.1c2.3,2.6,1.6,7.4,0.3,10.8s-4.1,7.3-7.4,7.5L1650.1,924.8z M1651.1,905.1c-0.7,0-1.4,0.1-2.1,0.2
		c-3.5,0.6-6.3,2.4-7.4,4.9l0,0c-1.2,2.6-0.6,6,1.5,9.2c2,2.9,5,4.8,7.2,4.7c2.4-0.2,5.1-3,6.7-7s1.6-8-0.1-9.9
		C1655.8,905.8,1653.6,905.1,1651.1,905.1L1651.1,905.1z"/>
	<path class="st3" d="M1645.8,890.2c-0.1,6.6,12.4,12.7,17.1,9.3c4.4-3.2,3.7-15.7-2.8-18.4C1654.4,878.7,1645.8,884.7,1645.8,890.2
		z"/>
	<path class="st1" d="M1659.3,900.8c-2.5-0.1-4.8-0.7-7-1.9c-3.4-1.8-7-5-7-8.8c0-2.7,2-5.7,5.2-7.8s6.9-2.8,9.7-1.7
		c3,1.2,5.2,4.7,5.7,9.2c0.5,4.3-0.6,8.3-2.8,9.9C1661.9,900.5,1660.6,900.9,1659.3,900.8z M1657.3,881c-2.3,0.1-4.4,0.8-6.3,2.1
		c-2.9,1.9-4.8,4.7-4.9,7.1l0,0c0,2.8,2.5,6,6.5,8s7.9,2.4,10,0.9s3-5.2,2.5-9.1c-0.5-4.2-2.4-7.4-5.2-8.5
		C1659.1,881.1,1658.2,881,1657.3,881L1657.3,881z"/>
	
		<radialGradient id="SVGID_00000084518055120704536460000004468168200624823992_" cx="1253.4563" cy="170.443" r="27.86" gradientTransform="matrix(1 0 0 -1 0 1080)" gradientUnits="userSpaceOnUse">
		<stop  offset="0.11" style="stop-color:#161412;stop-opacity:0"/>
		<stop  offset="0.25" style="stop-color:#272624;stop-opacity:0.17"/>
		<stop  offset="0.54" style="stop-color:#555553;stop-opacity:0.63"/>
		<stop  offset="0.55" style="stop-color:#575756;stop-opacity:0.65"/>
		<stop  offset="1" style="stop-color:#3C3C3B;stop-opacity:0.95"/>
	</radialGradient>
	<circle style="fill:url(#SVGID_00000084518055120704536460000004468168200624823992_);" cx="1253.5" cy="909.6" r="27.9"/>
	<path class="st3" d="M1267.6,890c-6.2,0.4-10.9,11.5-7.6,15.9s15.1,3,17.2-2.8C1279.2,897.8,1273,889.6,1267.6,890z"/>
	<path class="st1" d="M1266.8,908.8c-3.1,0-5.8-1-7.1-2.7c-1.6-2.2-1.5-6,0.2-9.9c1.4-3.1,4.2-6.4,7.7-6.7l0,0
		c2.7-0.2,5.7,1.6,8,4.6s3,6.4,2.1,9c-1.2,3.3-5.2,5-8.5,5.5C1268.4,908.8,1267.6,908.8,1266.8,908.8z M1267.9,890.4h-0.3
		c-3.2,0.2-5.7,3.3-7,6.2c-1.6,3.5-1.7,7.2-0.3,9s4.9,2.8,8.7,2.2c3.1-0.5,6.7-2,7.8-5c0.8-2.3,0.1-5.4-2-8.2
		S1270.2,890.4,1267.9,890.4L1267.9,890.4z"/>
	<path class="st3" d="M1274.3,923.6c-0.4-6.5-12.4-11.6-17.1-8c-4.5,3.5-3.2,15.8,3.1,18.2C1266,936,1274.7,929.4,1274.3,923.6z"/>
	<path class="st1" d="M1262.7,934.6c-0.9,0-1.7-0.1-2.5-0.4c-3.5-1.3-5.3-5.5-5.8-8.9c-0.6-4.3,0.4-8.3,2.6-10s6.4-1.7,10.6,0.2
		c3.3,1.5,6.9,4.4,7.2,8.1l0,0c0.2,2.8-1.7,6-4.9,8.4C1267.7,933.6,1265.2,934.5,1262.7,934.6z M1261.3,914.8
		c-1.4-0.1-2.8,0.3-3.9,1.1c-2,1.5-2.9,5.2-2.3,9.2c0.5,3.2,2.1,7.1,5.3,8.3c2.5,0.9,5.9,0.1,8.9-2.1s4.8-5.2,4.6-7.7l0,0
		c-0.1-2.2-2-5.3-6.7-7.5C1265.4,915.4,1263.4,914.9,1261.3,914.8z"/>
	<path class="st3" d="M1230,915.2c2.7-5.8,12.7-6.7,16-3.2c4.1,4.4-1.2,17.2-6.9,17.6C1234.2,930,1227.1,921.5,1230,915.2z"/>
	<path class="st1" d="M1238.8,930.1c-2.4,0-5.4-2-7.6-5.1c-2.3-3.3-2.9-7.1-1.6-9.9l0,0c1.2-2.7,4.3-4.7,8.1-5.3
		c3.6-0.6,6.9,0.2,8.6,2c2.4,2.6,1.6,7.4,0.3,10.8s-4.1,7.3-7.4,7.5L1238.8,930.1z M1239.8,910.4c-0.7,0-1.3,0.1-2,0.2
		c-3.5,0.5-6.3,2.4-7.4,4.9l0,0c-1.2,2.6-0.6,6,1.5,9.2c2,2.9,5,4.8,7.2,4.7c2.4-0.2,5.1-3,6.7-7s1.6-8-0.1-9.9
		C1244.5,911.1,1242.3,910.4,1239.8,910.4L1239.8,910.4z"/>
	<path class="st3" d="M1234.5,895.4c-0.1,6.6,12.4,12.7,17.1,9.3c4.4-3.2,3.7-15.7-2.8-18.4C1243.1,884,1234.5,890,1234.5,895.4z"/>
	<path class="st1" d="M1248,906.1c-2.5-0.1-4.9-0.7-7-1.9c-3.4-1.8-7-5-7-8.8c0-2.7,2-5.7,5.2-7.8s6.9-2.8,9.7-1.7
		c3,1.2,5.2,4.7,5.7,9.2c0.5,4.3-0.6,8.3-2.8,9.9C1250.6,905.7,1249.3,906.1,1248,906.1z M1246,886.2c-2.3,0.1-4.4,0.8-6.3,2.1
		c-2.9,1.9-4.8,4.7-4.9,7.1l0,0c0,2.8,2.5,6,6.5,8s7.9,2.4,9.9,0.9s3-5.2,2.5-9.1c-0.5-4.2-2.4-7.4-5.2-8.5
		C1247.8,886.3,1246.9,886.2,1246,886.2L1246,886.2z"/>
	
		<rect x="1416" y="800.9" transform="matrix(1 -4.886902e-03 4.886902e-03 1 -4.1375 6.9365)" class="st16" width="2.6" height="98.4"/>
	<path class="st17" d="M1441.7,804.8c-2.2,0-9.3-0.3-9.3-3.9s7.1-3.9,9.3-3.9s9.3,0.3,9.3,3.9S1443.9,804.8,1441.7,804.8z
		 M1437.5,800.8c2.8,0.5,5.6,0.5,8.4,0C1443.2,800.3,1440.3,800.3,1437.5,800.8z"/>
	<path class="st17" d="M1314.1,802.6c-2.2,0-9.3-0.3-9.3-3.9s7.1-3.9,9.3-3.9s9.3,0.3,9.3,3.9S1316.3,802.6,1314.1,802.6z
		 M1309.9,798.7c2.8,0.5,5.6,0.5,8.4,0C1315.5,798.2,1312.7,798.2,1309.9,798.7L1309.9,798.7z"/>
	
		<radialGradient id="SVGID_00000164485589353572514120000010469831968794777008_" cx="1748.3575" cy="265.0375" r="16.2974" gradientTransform="matrix(1 0 0 -1 1.040424e-03 1080.0085)" gradientUnits="userSpaceOnUse">
		<stop  offset="0.21" style="stop-color:#F5F5F5"/>
		<stop  offset="0.24" style="stop-color:#F5F0E6"/>
		<stop  offset="0.31" style="stop-color:#F6E2BE"/>
		<stop  offset="0.39" style="stop-color:#F7CB7E"/>
		<stop  offset="0.49" style="stop-color:#F8B133"/>
		<stop  offset="0.51" style="stop-color:#F8BA4D;stop-opacity:0.99"/>
		<stop  offset="0.57" style="stop-color:#F7CF88;stop-opacity:0.98"/>
		<stop  offset="0.63" style="stop-color:#F6DFB7;stop-opacity:0.97"/>
		<stop  offset="0.68" style="stop-color:#F5EBD9;stop-opacity:0.96"/>
		<stop  offset="0.72" style="stop-color:#F5F2EE;stop-opacity:0.95"/>
		<stop  offset="0.75" style="stop-color:#F5F5F5;stop-opacity:0.95"/>
		<stop  offset="0.75" style="stop-color:#F5F5EA;stop-opacity:0.95"/>
		<stop  offset="0.79" style="stop-color:#F8F2AC;stop-opacity:0.95"/>
		<stop  offset="0.83" style="stop-color:#FAF078;stop-opacity:0.95"/>
		<stop  offset="0.87" style="stop-color:#FCEF4D;stop-opacity:0.95"/>
		<stop  offset="0.9" style="stop-color:#FDEE2B;stop-opacity:0.95"/>
		<stop  offset="0.94" style="stop-color:#FEED13;stop-opacity:0.95"/>
		<stop  offset="0.97" style="stop-color:#FFEC05;stop-opacity:0.95"/>
		<stop  offset="1" style="stop-color:#FFEC00;stop-opacity:0.95"/>
	</radialGradient>
	<path style="fill:url(#SVGID_00000164485589353572514120000010469831968794777008_);" d="M1735.7,802.3c5.7-5.7,15.9-4.6,22.9,2.4
		c7,7,8.1,17.3,2.4,22.9s-15.9,4.6-22.9-2.4C1731.1,818.3,1730,808,1735.7,802.3z"/>
	
		<linearGradient id="SVGID_00000067215050603156998140000006454696028253436080_" gradientUnits="userSpaceOnUse" x1="1431.3763" y1="346.868" x2="1533.4463" y2="346.868" gradientTransform="matrix(1 0 0 -1 0 1080)">
		<stop  offset="0" style="stop-color:#FFFFFF"/>
		<stop  offset="1" style="stop-color:#73B9E7"/>
	</linearGradient>
	<path style="fill:url(#SVGID_00000067215050603156998140000006454696028253436080_);" d="M1431.4,692c20.6,2.3,40.3,9.8,57.2,21.7
		c29.6,21,41.1,49.2,44.9,59.8l-101.1,0.7L1431.4,692z"/>
	
		<linearGradient id="SVGID_00000077311126088979217000000018061135514389774001_" gradientUnits="userSpaceOnUse" x1="1314.6763" y1="346.833" x2="1406.4963" y2="346.833" gradientTransform="matrix(1 0 0 -1 0 1080)">
		<stop  offset="0" style="stop-color:#FFFFFF"/>
		<stop  offset="0.13" style="stop-color:#F8FBFE"/>
		<stop  offset="0.33" style="stop-color:#E4F2FA"/>
		<stop  offset="0.56" style="stop-color:#C4E1F5"/>
		<stop  offset="0.81" style="stop-color:#97CBED"/>
		<stop  offset="1" style="stop-color:#73B9E7"/>
	</linearGradient>
	<path style="fill:url(#SVGID_00000077311126088979217000000018061135514389774001_);" d="M1406.5,692.3
		c-43.6,7.7-79.1,39.3-91.8,81.7l90.8-0.3C1405.8,746.6,1406.2,719.4,1406.5,692.3z"/>
	
		<ellipse transform="matrix(0.4983 -0.867 0.867 0.4983 -149.7543 1400.1221)" class="st7" cx="1134.9" cy="829.5" rx="20.4" ry="10.5"/>
</g>
</svg>
