<svg xmlns="http://www.w3.org/2000/svg" xmlns:xlink="http://www.w3.org/1999/xlink" viewBox="0 0 105.58 105.14"><defs><style>.cls-1{fill:url(#radial-gradient);}.cls-2{fill:url(#radial-gradient-2);}</style><radialGradient id="radial-gradient" cx="52.79" cy="52.57" r="52.55" gradientUnits="userSpaceOnUse"><stop offset="0" stop-color="#e6e6e6"/><stop offset="0.03" stop-color="#dfdfdf"/><stop offset="0.22" stop-color="#bdbdbd"/><stop offset="0.4" stop-color="#a2a2a2"/><stop offset="0.6" stop-color="#8f8f8f"/><stop offset="0.79" stop-color="#848484"/><stop offset="1" stop-color="gray"/></radialGradient><radialGradient id="radial-gradient-2" cx="52.79" cy="52.57" r="52.68" xlink:href="#radial-gradient"/></defs><g id="Layer_2" data-name="Layer 2"><g id="Layer_1-2" data-name="Layer 1"><path class="cls-1" d="M105.46,63.16V42.52L91.79,39a41.05,41.05,0,0,0-2-4.83L97,21.62l-15.21-14L70.24,15.14c-1.25-.58-2.53-1.1-3.85-1.56L63.4.12H42.76L39.27,13.57a41.71,41.71,0,0,0-4,1.61L23.13,7.58,8.66,22.3l7.16,11.93a41.26,41.26,0,0,0-2,4.7L.12,42V62.62l13.77,3.57a42.93,42.93,0,0,0,1.87,4.49L8.5,83.43,23.8,97.29l11.32-7.44a40.78,40.78,0,0,0,4.11,1.69l3,13.47H62.86l3.49-13.44a43.41,43.41,0,0,0,4.1-1.67l11.79,7.68L97,83.15l-7.12-12.4a42.34,42.34,0,0,0,1.9-4.55ZM72.07,52.57A19.26,19.26,0,1,1,52.81,33.31,19.28,19.28,0,0,1,72.07,52.57Z"/><path class="cls-2" d="M63,105.14H42.13l0-.1-3-13.41a39.35,39.35,0,0,1-4-1.64L23.78,97.44l-.07-.06L8.35,83.45l7.27-12.78a41.92,41.92,0,0,1-1.83-4.38L0,62.72V41.88l.1,0,13.65-3a41.49,41.49,0,0,1,1.93-4.59l-7.18-12,.07-.07L23.11,7.42l.08.06L35.31,15a41.16,41.16,0,0,1,3.86-1.57L42.66,0H63.5l0,.1,3,13.39c1.22.42,2.47.93,3.73,1.51L81.8,7.51,97.15,21.59l-.05.09L89.9,34.14a40.29,40.29,0,0,1,2,4.73l13.7,3.55V63.26l-.1,0-13.61,3A40.3,40.3,0,0,1,90,70.74l7.13,12.43-.07.07L82.26,97.74l-.08-.06L70.45,90a42,42,0,0,1-4,1.63Zm-20.63-.25H62.77l3.48-13.42.06,0a41.36,41.36,0,0,0,4.09-1.67l.06,0,.06,0,11.71,7.63,14.61-14.3-7.1-12.37,0-.06a42.12,42.12,0,0,0,1.89-4.54l0-.06.07,0,13.58-3V42.61L91.69,39.08l0-.06a39.63,39.63,0,0,0-2-4.83l0-.06,0-.06,7.18-12.43L81.77,7.82,70.25,15.28l-.07,0a40.55,40.55,0,0,0-3.83-1.56l-.07,0v-.07L63.3.25H42.86L39.38,13.67l-.06,0a42.07,42.07,0,0,0-4,1.6l-.07,0,0,0L23.15,7.74,8.82,22.32,16,34.23l0,.06A41.19,41.19,0,0,0,14,39l0,.07h-.06l-13.63,3V62.52L14,66.08l0,.07a40.39,40.39,0,0,0,1.87,4.47l0,.06,0,.06L8.66,83.4,23.81,97.13l11.31-7.42.06,0a41.34,41.34,0,0,0,4.09,1.68l.07,0v.07ZM52.81,72A19.39,19.39,0,1,1,72.2,52.57,19.41,19.41,0,0,1,52.81,72Zm0-38.53A19.14,19.14,0,1,0,72,52.57,19.16,19.16,0,0,0,52.81,33.43Z"/></g></g></svg>