<svg xmlns="http://www.w3.org/2000/svg" xmlns:xlink="http://www.w3.org/1999/xlink" viewBox="0 0 185 822.83"><defs><style>.cls-1{fill:url(#linear-gradient);}.cls-2{fill:#004f86;}.cls-3{fill:#fff;}</style><linearGradient id="linear-gradient" x1="77.19" y1="464.57" x2="101.58" y2="464.57" gradientUnits="userSpaceOnUse"><stop offset="0" stop-color="#b1b1b1"/><stop offset="1" stop-color="#575756"/></linearGradient></defs><g id="Layer_2" data-name="Layer 2"><g id="Layer_1-2" data-name="Layer 1"><rect class="cls-1" x="77.19" y="106.31" width="24.39" height="716.51" rx="12"/><rect class="cls-2" x="1.75" y="1.5" width="180.7" height="187.77" rx="12"/><path class="cls-3" d="M170.45,190.77H13.75a13.51,13.51,0,0,1-13.5-13.5V13.5A13.51,13.51,0,0,1,13.75,0h156.7A13.52,13.52,0,0,1,184,13.5V177.27A13.52,13.52,0,0,1,170.45,190.77ZM13.75,3A10.51,10.51,0,0,0,3.25,13.5V177.27a10.51,10.51,0,0,0,10.5,10.5h156.7a10.51,10.51,0,0,0,10.5-10.5V13.5A10.51,10.51,0,0,0,170.45,3Z"/><path class="cls-3" d="M139.18,75.12a40.6,40.6,0,0,1-2.51,14,31.28,31.28,0,0,1-7.18,11.52,43.85,43.85,0,0,1-14.25,9.54q-7.86,3.24-19.56,3.23H78.53v34.82H51V41.38H96.33a71.8,71.8,0,0,1,17.19,1.76,40.49,40.49,0,0,1,12.38,5.27,28.4,28.4,0,0,1,9.87,10.84A34.27,34.27,0,0,1,139.18,75.12Zm-28.49.61A12.63,12.63,0,0,0,108.25,68a13.31,13.31,0,0,0-5.67-4.55,25.92,25.92,0,0,0-8.4-1.9c-2.73-.11-6.37-.18-10.91-.18H78.53v32h7.89A64.76,64.76,0,0,0,98,92.42,16.52,16.52,0,0,0,105.66,89a13.29,13.29,0,0,0,3.84-5.48A22.35,22.35,0,0,0,110.69,75.73Z"/><rect class="cls-2" x="1.5" y="196.79" width="180.7" height="61.81" rx="12"/><path class="cls-3" d="M170.2,260.11H13.5A13.52,13.52,0,0,1,0,246.61V208.79a13.52,13.52,0,0,1,13.5-13.5H170.2a13.52,13.52,0,0,1,13.5,13.5v37.82A13.52,13.52,0,0,1,170.2,260.11ZM13.5,198.29A10.52,10.52,0,0,0,3,208.79v37.82a10.51,10.51,0,0,0,10.5,10.5H170.2a10.51,10.51,0,0,0,10.5-10.5V208.79a10.52,10.52,0,0,0-10.5-10.5Z"/><rect class="cls-2" x="2.8" y="266.12" width="180.7" height="61.81" rx="12"/><path class="cls-3" d="M171.5,329.44H14.8a13.51,13.51,0,0,1-13.5-13.5V278.12a13.51,13.51,0,0,1,13.5-13.5H171.5a13.52,13.52,0,0,1,13.5,13.5v37.82A13.52,13.52,0,0,1,171.5,329.44ZM14.8,267.62a10.51,10.51,0,0,0-10.5,10.5v37.82a10.52,10.52,0,0,0,10.5,10.5H171.5a10.52,10.52,0,0,0,10.5-10.5V278.12a10.51,10.51,0,0,0-10.5-10.5Z"/><path class="cls-3" d="M28.87,224.41a5.06,5.06,0,0,1-.3,1.72,3.89,3.89,0,0,1-.88,1.41,5.27,5.27,0,0,1-1.75,1.17,6.19,6.19,0,0,1-2.39.4h-2.1v4.26H18.07V220.28h5.56a8.9,8.9,0,0,1,2.1.22,4.85,4.85,0,0,1,1.52.65,3.48,3.48,0,0,1,1.21,1.32A4.31,4.31,0,0,1,28.87,224.41Zm-3.49.08a1.52,1.52,0,0,0-.3-1,1.59,1.59,0,0,0-.69-.56,3,3,0,0,0-1-.23c-.33,0-.78,0-1.33,0h-.58v3.91h1a7.79,7.79,0,0,0,1.42-.11,2,2,0,0,0,.94-.42,1.64,1.64,0,0,0,.47-.67A2.93,2.93,0,0,0,25.38,224.49Z"/><path class="cls-3" d="M41.18,228.44a5.19,5.19,0,0,1-1.42,3.84,5.46,5.46,0,0,1-4,1.4,5.42,5.42,0,0,1-4-1.4,5.92,5.92,0,0,1,0-7.69,5.47,5.47,0,0,1,4-1.4,5.41,5.41,0,0,1,4,1.41A5.19,5.19,0,0,1,41.18,228.44Zm-3.9,2.4a2.62,2.62,0,0,0,.47-.91,5.66,5.66,0,0,0,.15-1.47,5.51,5.51,0,0,0-.16-1.46,2.42,2.42,0,0,0-.44-.94,1.53,1.53,0,0,0-.68-.51,2.34,2.34,0,0,0-.85-.15,2.55,2.55,0,0,0-.81.12,1.67,1.67,0,0,0-.68.49,2.43,2.43,0,0,0-.46.94,5.37,5.37,0,0,0-.17,1.51,6.37,6.37,0,0,0,.14,1.4,2.54,2.54,0,0,0,.44.95,1.65,1.65,0,0,0,.68.5,2.24,2.24,0,0,0,.89.16,2.48,2.48,0,0,0,.82-.14A1.51,1.51,0,0,0,37.28,230.84Z"/><path class="cls-3" d="M46.71,222.09H43.36v-2.4h3.35Zm-.09,11.28H43.45V223.5h3.17Z"/><path class="cls-3" d="M59.51,233.37H56.34v-4.89q0-.6-.06-1.2a2.5,2.5,0,0,0-.21-.87,1,1,0,0,0-.52-.47,2.36,2.36,0,0,0-.94-.15,2.74,2.74,0,0,0-.88.14,5,5,0,0,0-1,.44v7H49.6V223.5h3.17v1.09a7.74,7.74,0,0,1,1.62-1,4.21,4.21,0,0,1,1.73-.35,3.3,3.3,0,0,1,2.49.93,3.87,3.87,0,0,1,.9,2.79Z"/><path class="cls-3" d="M68.73,233.28a8.61,8.61,0,0,1-1.08.21,11.13,11.13,0,0,1-1.4.07,4.27,4.27,0,0,1-2.74-.74,3.17,3.17,0,0,1-.9-2.56v-4.61H61.3V223.5h1.31v-2.82h3.17v2.82h3v2.15h-3v3.5c0,.34,0,.65,0,.91a1.74,1.74,0,0,0,.14.69.93.93,0,0,0,.43.49,1.85,1.85,0,0,0,.91.18,4,4,0,0,0,1.2-.3h.26Z"/><path class="cls-3" d="M74.39,227H71.1V223.5h3.29Zm0,6.42H71.1v-3.45h3.29Z"/><path class="cls-3" d="M30.48,303.25H21V290.16h3.38v10.56h6.06Z"/><path class="cls-3" d="M35.6,292H32.25v-2.4H35.6Zm-.09,11.27H32.34v-9.87h3.17Z"/><path class="cls-3" d="M48.43,293.38l-3.81,9.87H41l-3.78-9.87H40.6l2.29,6.79,2.26-6.79Z"/><path class="cls-3" d="M54,296.84H50.67v-3.46H54Zm0,6.41H50.67V299.8H54Z"/></g></g></svg>