<?xml version="1.0" encoding="utf-8"?>
<!-- Generator: Adobe Illustrator 25.4.1, SVG Export Plug-In . SVG Version: 6.00 Build 0)  -->
<svg version="1.1" id="Layer_1" xmlns="http://www.w3.org/2000/svg" xmlns:xlink="http://www.w3.org/1999/xlink" x="0px" y="0px"
	 viewBox="0 0 331.5 121.9" style="enable-background:new 0 0 331.5 121.9;" xml:space="preserve">
<style type="text/css">
	.st0{fill:#FFFFFF;}
	.st1{fill:#1D1D1B;}
	.st2{enable-background:new    ;}
</style>
<g id="Layer_2_00000181792977859032169530000001208999595803842205_">
	<g id="Layer_1-2">
		<g id="start">
			<path class="st0" d="M330.5,60.7c0,19.1-10.4,32.9-13.4,36.9c-21.1,28-61.4,20.6-151.3,21.5c-89.8,0.9-126.2,9-148.9-18.2
				C13.3,96.6,0.7,81.5,1,60.7c0.3-20.5,12.9-35,16.9-39.5C41.6-6.2,77.6,2.4,165.8,2.4s127-8.8,149.3,18.8
				C318.6,25.5,330.5,40.2,330.5,60.7z"/>
			<path class="st1" d="M82.5,121.9c-32.9,0-52.4-3.5-66.4-20.4C5.2,88.5-0.2,74.7,0,60.7c0.3-20.8,12.9-35.4,17.1-40.2
				C36-1.2,62.5-0.6,115.3,0.6c14.7,0.4,31.3,0.7,50.5,0.7c18.9,0,35.6-0.4,50.3-0.8c54.5-1.4,81.9-2,99.8,20
				c10.4,12.8,15.7,26.3,15.7,40.2c0,12.9-4.6,25.5-13.6,37.5c-17.2,22.8-46.2,22.5-104,22c-14.2-0.1-30.2-0.3-48.2-0.1
				s-34,0.7-48.1,1.1C104.5,121.6,92.8,121.9,82.5,121.9z M85.2,2.2C52.2,2.2,33,5.3,18.6,21.9C14.6,26.5,2.3,40.6,2,60.7
				c-0.2,13.5,5.1,26.8,15.6,39.5c17.8,21.4,43.6,20.6,100,18.9c14.1-0.4,30-0.9,48.1-1.1s34,0,48.2,0.1
				c57.1,0.5,85.8,0.8,102.3-21.2c8.8-11.6,13.2-23.8,13.2-36.3l0,0c0-13.3-5.1-26.4-15.2-38.9C297.1,0.6,270,1.2,216.1,2.6
				c-14.7,0.4-31.4,0.8-50.4,0.8c-19.2,0-35.9-0.4-50.6-0.7C104.1,2.4,94.1,2.2,85.2,2.2z"/>
			<g class="st2">
				<path class="st1" d="M68.8,79.9l2-11.9c4.4,1.1,8.4,1.7,11.9,1.7s6.4-0.1,8.5-0.4v-3.6l-6.5-0.6c-5.9-0.5-9.9-1.9-12.1-4.2
					c-2.2-2.3-3.3-5.7-3.3-10.1c0-6.1,1.3-10.4,4-12.7s7.2-3.5,13.6-3.5c6.4,0,12.1,0.6,17.3,1.8l-1.8,11.5c-4.5-0.7-8-1.1-10.7-1.1
					c-2.7,0-5,0.1-6.8,0.4v3.5l5.2,0.5c6.3,0.6,10.6,2.1,13,4.5c2.4,2.4,3.6,5.7,3.6,9.9c0,3-0.4,5.6-1.2,7.7
					c-0.8,2.1-1.8,3.7-2.9,4.8c-1.1,1.1-2.7,1.9-4.8,2.5c-2.1,0.6-3.9,0.9-5.4,1c-1.6,0.1-3.6,0.2-6.2,0.2
					C80,81.8,74.2,81.1,68.8,79.9z"/>
			</g>
			<g class="st2">
				<path class="st1" d="M144.2,47.2h-10.4v33.5h-14.4V47.2h-10.4V35.7h35.3V47.2z"/>
			</g>
			<g class="st2">
				<path class="st1" d="M156.4,80.7h-15.2l11.7-45h22.2l11.7,45h-15.2l-1.7-7.1H158L156.4,80.7z M163.6,49.5l-3,12.6h6.6l-2.9-12.6
					H163.6z"/>
				<path class="st1" d="M228.7,80.7h-15.8L207,67.3h-3.1v13.4h-14.4v-45h22.7c10.3,0,15.5,5.3,15.5,15.8c0,7.2-2.2,12-6.7,14.3
					L228.7,80.7z M203.9,47.2v9h3.3c1.7,0,3-0.2,3.8-0.5c0.8-0.4,1.2-1.2,1.2-2.5v-3c0-1.3-0.4-2.1-1.2-2.5
					c-0.8-0.4-2.1-0.5-3.8-0.5H203.9z"/>
				<path class="st1" d="M265.8,47.2h-10.4v33.5H241V47.2h-10.4V35.7h35.3V47.2z"/>
			</g>
		</g>
	</g>
</g>
</svg>
