<svg xmlns="http://www.w3.org/2000/svg" viewBox="0 0 152.4 152.4"><defs><style>.cls-1{fill:#fff;stroke:#1d1d1b;stroke-miterlimit:10;}.cls-2{fill:#1d1d1b;}</style></defs><g id="Layer_2" data-name="Layer 2"><g id="Layer_1-2" data-name="Layer 1"><circle class="cls-1" cx="76.2" cy="76.2" r="75.2"/><path class="cls-1" d="M76.2,151.9a75.7,75.7,0,1,1,75.7-75.7A75.77,75.77,0,0,1,76.2,151.9Zm0-150.4a74.7,74.7,0,1,0,74.7,74.7A74.77,74.77,0,0,0,76.2,1.5Z"/><rect class="cls-2" x="135.2" y="74.8" width="16.2" height="2.9"/><rect class="cls-2" x="74.8" y="135.7" width="2.9" height="16.2"/><rect class="cls-2" x="74.8" y="135.7" width="2.9" height="16.2"/><rect class="cls-2" x="74.8" y="1.6" width="2.9" height="16.2"/><rect class="cls-2" x="1.6" y="74.8" width="16.2" height="2.9"/><rect class="cls-2" x="93.74" y="9.79" width="10.9" height="1" transform="translate(63.21 103.29) rotate(-74.77)"/><rect class="cls-2" x="113.98" y="20.98" width="10.9" height="1" transform="translate(24.08 96.53) rotate(-48.4)"/><rect class="cls-2" x="128.57" y="36.8" width="10.9" height="1" transform="translate(0.76 77.22) rotate(-32.23)"/><rect class="cls-2" x="137.81" y="56.3" width="10.9" height="1" transform="matrix(0.96, -0.29, 0.29, 0.96, -10.28, 43.52)"/><rect class="cls-2" x="141.51" y="93.5" width="1" height="10.9" transform="translate(9.28 210.04) rotate(-74.8)"/><rect class="cls-2" x="130.37" y="113.72" width="1" height="10.9" transform="translate(-45.13 137.94) rotate(-48.41)"/><rect class="cls-2" x="114.71" y="128.42" width="1" height="10.9" transform="translate(-53.64 82.05) rotate(-32.22)"/><rect class="cls-2" x="95.04" y="137.61" width="1" height="10.9" transform="translate(-37.09 33.51) rotate(-16.71)"/><rect class="cls-2" x="47.89" y="141.45" width="10.9" height="1" transform="translate(-97.64 156.12) rotate(-74.77)"/><rect class="cls-2" x="27.58" y="130.64" width="10.9" height="1" transform="translate(-86.97 68.78) rotate(-48.4)"/><rect class="cls-2" x="12.87" y="114.9" width="10.9" height="1" transform="translate(-58.72 27.55) rotate(-32.23)"/><rect class="cls-2" x="3.78" y="95" width="10.9" height="1" transform="matrix(0.96, -0.29, 0.29, 0.96, -27.03, 6.67)"/><rect class="cls-2" x="9.69" y="48.47" width="1" height="10.9" transform="translate(-44.52 49.61) rotate(-74.8)"/><rect class="cls-2" x="20.86" y="28.08" width="1" height="10.9" transform="translate(-17.9 27.25) rotate(-48.42)"/><rect class="cls-2" x="36.48" y="13.53" width="1" height="10.9" transform="translate(-4.42 22.65) rotate(-32.23)"/><rect class="cls-2" x="56.34" y="4.41" width="1" height="10.9" transform="translate(-0.43 16.76) rotate(-16.71)"/><path class="cls-2" d="M85.6,26.8a9.52,9.52,0,0,1-.3,2.5,4.28,4.28,0,0,1-.8,1.8,3,3,0,0,1-1.4,1.1,6.54,6.54,0,0,1-2.1.4,4.64,4.64,0,0,1-2.1-.4,3.14,3.14,0,0,1-1.4-1.1,4.94,4.94,0,0,1-.8-1.8,9.75,9.75,0,0,1-.2-2.5,9,9,0,0,1,.3-2.5,4.94,4.94,0,0,1,.8-1.8A3.6,3.6,0,0,1,79,21.4a6.54,6.54,0,0,1,2.1-.4,4.81,4.81,0,0,1,2.2.4,3.14,3.14,0,0,1,1.4,1.1,4.94,4.94,0,0,1,.8,1.8C85.5,25.1,85.6,25.9,85.6,26.8Zm-2.9,0a6.85,6.85,0,0,0-.4-2.9A1.38,1.38,0,0,0,81,23a1.29,1.29,0,0,0-1.3.9,6.85,6.85,0,0,0-.4,2.9,7.15,7.15,0,0,0,.4,2.9,1.39,1.39,0,0,0,2.6,0A6.85,6.85,0,0,0,82.7,26.8Z"/><path d="M74.3,32.5H65.4V30.6c.7-.5,1.4-1,2.1-1.6s1.2-1,1.6-1.4A5.69,5.69,0,0,0,70.4,26a2.2,2.2,0,0,0,.4-1.3,1.66,1.66,0,0,0-.5-1.2,2,2,0,0,0-1.4-.4,4,4,0,0,0-1.5.3,6.11,6.11,0,0,0-1.4.7h-.2V21.6a10.31,10.31,0,0,1,1.6-.5,7.49,7.49,0,0,1,2.1-.2,5.39,5.39,0,0,1,3.3.9,3.1,3.1,0,0,1,1.1,2.5,4.55,4.55,0,0,1-.5,2,12.68,12.68,0,0,1-1.6,2c-.5.4-.9.8-1.4,1.2s-.8.6-1,.8h5.1v2.2Z"/><path class="cls-2" d="M74.7,132.7H66.9v-2h2.5v-6.1H66.9v-1.9a4.1,4.1,0,0,0,1.1-.1,2.92,2.92,0,0,0,.9-.2,1,1,0,0,0,.6-.5,1.88,1.88,0,0,0,.2-.8h2.6v9.6h2.4v2Z"/><path class="cls-2" d="M29.7,80.7H21.9v-2h2.4V72.6H21.9V70.7a4.1,4.1,0,0,0,1.1-.1,2.92,2.92,0,0,0,.9-.2,1,1,0,0,0,.6-.5,1.88,1.88,0,0,0,.2-.8h2.6v9.6h2.4v2Z"/><path class="cls-2" d="M133.5,76.8a4.67,4.67,0,0,1-.3,1.7,3.25,3.25,0,0,1-1,1.3,4.61,4.61,0,0,1-1.7.9,7.11,7.11,0,0,1-2.1.3,16.59,16.59,0,0,1-2.4-.2,5,5,0,0,1-1.6-.5V77.7h.3a10.09,10.09,0,0,0,1.5.7,5,5,0,0,0,2.7.2,1.88,1.88,0,0,0,.9-.4,1.76,1.76,0,0,0,.4-.5,1.72,1.72,0,0,0,.1-.8,1.45,1.45,0,0,0-.2-.7,1.21,1.21,0,0,0-.5-.5,1.69,1.69,0,0,0-1-.3c-.4,0-.8-.1-1.1-.1a5.28,5.28,0,0,0-1.3.1,5.16,5.16,0,0,1-1.1.2h-.3V69h8.3v2.2h-5.5v1.9h1.3a8.81,8.81,0,0,1,1.7.2,5,5,0,0,1,1.3.5,3.84,3.84,0,0,1,1.1,1.1A3.2,3.2,0,0,1,133.5,76.8Z"/><path class="cls-2" d="M85.9,126.8a9.52,9.52,0,0,1-.3,2.5,4.94,4.94,0,0,1-.8,1.8,3.81,3.81,0,0,1-1.4,1.1,5.71,5.71,0,0,1-4.2,0,2.59,2.59,0,0,1-1.4-1.1,4.94,4.94,0,0,1-.8-1.8,9.75,9.75,0,0,1-.2-2.5,9,9,0,0,1,.3-2.5,4.94,4.94,0,0,1,.8-1.8,3,3,0,0,1,1.4-1.1,6.54,6.54,0,0,1,2.1-.4,4.38,4.38,0,0,1,2.1.4,3.81,3.81,0,0,1,1.4,1.1,4.94,4.94,0,0,1,.8,1.8A18.09,18.09,0,0,1,85.9,126.8Zm-2.9,0a7.15,7.15,0,0,0-.4-2.9,1.39,1.39,0,0,0-2.6,0,6.85,6.85,0,0,0-.4,2.9,6.33,6.33,0,0,0,.4,2.8,1.39,1.39,0,0,0,2.6,0A6.33,6.33,0,0,0,83,126.8Z"/><path class="cls-2" d="M38.9,76.8a4.67,4.67,0,0,1-.3,1.7,3,3,0,0,1-.9,1.3,5.07,5.07,0,0,1-1.6.9,6.45,6.45,0,0,1-2,.3,12.73,12.73,0,0,1-2.2-.2,5.27,5.27,0,0,1-1.5-.5V77.7h.3a6.11,6.11,0,0,0,1.4.7,4,4,0,0,0,1.5.3,3.75,3.75,0,0,0,1-.1,2.47,2.47,0,0,0,.9-.4,1.76,1.76,0,0,0,.4-.5,1.72,1.72,0,0,0,.1-.8,1.45,1.45,0,0,0-.2-.7,2.18,2.18,0,0,0-.4-.5,1.69,1.69,0,0,0-1-.3,3.75,3.75,0,0,0-1-.1,5.7,5.7,0,0,0-1.3.1,5.16,5.16,0,0,1-1.1.2h-.3V69h7.8v2.2H33.4v1.9h1.2a7.77,7.77,0,0,1,1.6.2,3.34,3.34,0,0,1,1.2.5,3.46,3.46,0,0,1,1,1.1A3.2,3.2,0,0,1,38.9,76.8Z"/><circle class="cls-2" cx="77.73" cy="74.4" r="4.35"/><path class="cls-2" d="M89.6,74A9.28,9.28,0,0,1,89,77.21c-1.72,4.88-7,9.67-12.87,9.24a12,12,0,0,1-9.07-5.77h0c-2.41-4-1.73-8.38,1.7-20.35,2.08-7.28,4.39-14.66,6.85-21.93l.45-1.31.49,1.29C79.1,45,81.67,51.5,84.24,57.8l.94,2.33C88.11,67.3,89.6,71,89.6,74ZM67.94,80.16h0a11,11,0,0,0,8.29,5.3c5.39.39,10.26-4.06,11.86-8.59,1.32-3.72,0-6.91-3.83-16.36l-1-2.33c-2.4-5.9-4.8-12-7.16-18.14-2.3,6.83-4.45,13.74-6.4,20.57C66.41,72.26,65.73,76.47,67.94,80.16Z"/></g></g></svg>