<svg xmlns="http://www.w3.org/2000/svg" xmlns:xlink="http://www.w3.org/1999/xlink" viewBox="0 0 336.71 493.73"><defs><style>.cls-1,.cls-14{fill:#1d1d1b;}.cls-2{fill:#121b2e;}.cls-3{fill:#caba9f;}.cls-4{fill:#a3897a;}.cls-5{fill:#fcea10;}.cls-6{fill:#7f763d;}.cls-7{fill:#d8e7f7;}.cls-8{fill:#131b2e;}.cls-9{fill:#5483a8;}.cls-10{fill:#7a6a58;}.cls-11,.cls-12,.cls-14{stroke:#1d1d1b;stroke-width:0.25px;}.cls-11,.cls-12,.cls-14,.cls-15{stroke-miterlimit:10;}.cls-11,.cls-12{opacity:0.27;}.cls-11{fill:url(#radial-gradient);}.cls-12{fill:url(#radial-gradient-2);}.cls-13,.cls-15{fill:#fff;}.cls-15{stroke:#630e05;stroke-width:0.75px;}</style><radialGradient id="radial-gradient" cx="383.54" cy="-116.13" r="6.11" gradientTransform="translate(-295.52 282.25) scale(1.27 1.36)" gradientUnits="userSpaceOnUse"><stop offset="0" stop-color="#fff"/><stop offset="0.64" stop-color="#7d7d7d"/><stop offset="1"/></radialGradient><radialGradient id="radial-gradient-2" cx="477.16" cy="229.28" r="6.11" gradientTransform="matrix(0, 1.97, -1.49, 0, 507.08, -811.02)" xlink:href="#radial-gradient"/></defs><g id="Layer_2" data-name="Layer 2"><g id="Layer_1-2" data-name="Layer 1"><path class="cls-1" d="M94.45,488.91c-2.37,3.82-7.2,3.89-27.55,4.38-28.63.68-32.24.86-33.39-1.67-2.45-5.38,9-17.05,20.66-22.54,2.23-1.05,22.63-10.61,34.44,0C94.18,474.08,97.8,483.52,94.45,488.91Z"/><path class="cls-1" d="M220,488.55c3.21,4.77,13.49,4.49,33.87,3,11.88-.87,29.58-2.68,32.31-9.46a2.64,2.64,0,0,0,.13-.4c1.43-5.81-14.69-17.16-30.47-19.89-3-.51-24.93-4.31-33.83,8.79C218.75,475.33,216.48,483.39,220,488.55Z"/><path class="cls-2" d="M265.48,390.46c-4.46-79.39-46.77-147-78.76-104.64a58.94,58.94,0,0,0-7.41,13.3c-4.45-1.21-9.89-1.2-16.41.29-39.46,9-79.76,73-91.78,118.37-7.93,29.94-3.8,52.49,8.34,59.14,13.78,7.55,41-4,68.41-38.49A257.53,257.53,0,0,0,177,392.22a202.22,202.22,0,0,0,11.72,37.29c13.2,30.28,32.23,46.76,47.35,43.58C253.48,469.42,268.19,438.8,265.48,390.46Z"/><rect class="cls-3" x="8.62" y="308.42" width="10.44" height="34.32" rx="3.3" transform="translate(203.21 60.38) rotate(37.96)"/><path class="cls-4" d="M6.81,341.49a3.77,3.77,0,0,1-2.32-.8l-3-2.37A3.81,3.81,0,0,1,.8,333l17.06-21.86a3.81,3.81,0,0,1,5.33-.66l3,2.37a3.82,3.82,0,0,1,1.43,2.53,3.76,3.76,0,0,1-.78,2.8L9.82,340a3.82,3.82,0,0,1-2.53,1.43A3.87,3.87,0,0,1,6.81,341.49Zm14.05-30.82-.35,0a2.81,2.81,0,0,0-1.87,1.06l-17,21.86a2.8,2.8,0,0,0,.48,3.92l3,2.37A2.8,2.8,0,0,0,9,339.41l17.06-21.86a2.82,2.82,0,0,0-.49-3.93l-3-2.36A2.79,2.79,0,0,0,20.86,310.67Z"/><rect class="cls-3" x="15.64" y="315.69" width="14.69" height="37.91" rx="4.76" transform="translate(131.7 17.32) rotate(22.84)"/><path class="cls-4" d="M19.84,354a5.19,5.19,0,0,1-2-.41l-4.75-2a5.26,5.26,0,0,1-2.81-6.89l11-26.16a5.27,5.27,0,0,1,6.9-2.8l4.75,2a5.28,5.28,0,0,1,2.81,6.89l-11,26.15A5.26,5.26,0,0,1,19.84,354Zm6.28-37.68a4.27,4.27,0,0,0-3.94,2.61l-11,26.15a4.28,4.28,0,0,0,2.27,5.59l4.75,2a4.27,4.27,0,0,0,5.59-2.27l11-26.16a4.27,4.27,0,0,0-2.28-5.58l-4.75-2A4.2,4.2,0,0,0,26.12,316.3Z"/><rect class="cls-3" x="35.1" y="319.54" width="13.14" height="32.87" rx="4.39" transform="translate(-64.96 14.66) rotate(-11.29)"/><path class="cls-4" d="M41.88,353.1a4.9,4.9,0,0,1-4.79-3.93l-4.71-23.62a4.88,4.88,0,0,1,3.83-5.75l4.29-.86a4.88,4.88,0,0,1,5.74,3.84L51,346.4a4.89,4.89,0,0,1-3.84,5.75l-4.28.86A5.2,5.2,0,0,1,41.88,353.1Zm-1.19-33.18-4.28.86a3.89,3.89,0,0,0-3,4.57L38.08,349a3.9,3.9,0,0,0,4.57,3l4.28-.86a3.9,3.9,0,0,0,3-4.57L45.26,323A3.89,3.89,0,0,0,40.69,319.92Z"/><rect class="cls-3" x="39.51" y="305.67" width="17.15" height="31.38" rx="6.97" transform="translate(-185.05 95.01) rotate(-37.34)"/><path class="cls-4" d="M52.12,336.73a8.74,8.74,0,0,1-1-.07,7.44,7.44,0,0,1-5-2.87L35.58,319.93A7.47,7.47,0,0,1,37,309.46l2.54-1.95A7.52,7.52,0,0,1,50,308.92l10.57,13.87a7.47,7.47,0,0,1-1.41,10.47l-2.55,1.94A7.35,7.35,0,0,1,52.12,336.73ZM44,307a6.35,6.35,0,0,0-3.9,1.32l-2.55,1.94a6.49,6.49,0,0,0-1.22,9.07L47,333.19A6.49,6.49,0,0,0,56,334.41l2.55-2a6.49,6.49,0,0,0,1.22-9.07L49.21,309.53a6.39,6.39,0,0,0-4.28-2.48A6.65,6.65,0,0,0,44,307Z"/><rect class="cls-3" x="26.4" y="322.3" width="9.73" height="31.49" rx="2.98"/><path class="cls-4" d="M33.15,354.3H29.38a3.48,3.48,0,0,1-3.48-3.48V325.28a3.48,3.48,0,0,1,3.48-3.48h3.77a3.48,3.48,0,0,1,3.48,3.48v25.54A3.48,3.48,0,0,1,33.15,354.3Zm-3.77-31.5a2.49,2.49,0,0,0-2.48,2.48v25.54a2.48,2.48,0,0,0,2.48,2.48h3.77a2.48,2.48,0,0,0,2.48-2.48V325.28a2.49,2.49,0,0,0-2.48-2.48Z"/><polygon class="cls-3" points="41.67 331.23 18.25 311.44 11.65 227.16 88.67 245.98 41.67 331.23"/><path class="cls-4" d="M41.81,332l-24-20.31,0-.21-6.65-85,78.32,19.14ZM18.73,311.19l22.8,19.26,46.39-84.14L12.2,227.81Z"/><path class="cls-3" d="M326.64,96.78c-.06-.08-.11-.17-.18-.25l-31.08-40.9a7.75,7.75,0,0,0-10.86-1.48L264.35,69.49a7.74,7.74,0,0,0-1.48,10.85l27.39,36-.86.78c-8.24,7.53-8.85,8.37-9.39,9.23-12.11,19.26,3.88,57.36,17.6,57.91,5.69.23,12.91-11.45,27.35-34.82,9.42-15.23,10.9-19.95,11.19-25.11C336.73,114.24,332.73,102.43,326.64,96.78Z"/><path class="cls-4" d="M297.78,184.8h-.19c-5.1-.21-10.86-5.49-15.41-14.13-9.59-18.2-8.07-35.85-2.6-44.54.56-.88,1-1.58,9.49-9.34l.51-.47L262.47,80.65A8.26,8.26,0,0,1,264,69.09l20.18-15.34a8.26,8.26,0,0,1,11.56,1.58l31.08,40.9a.83.83,0,0,1,.13.18l0,0c6.08,5.68,10.21,17.67,9.63,28-.3,5.43-2,10.38-11.26,25.35C310.57,173.72,303.71,184.8,297.78,184.8ZM289.2,53.07a7.19,7.19,0,0,0-4.38,1.48L264.65,69.88A7.27,7.27,0,0,0,263.26,80l27.67,36.4-1.19,1.09c-8.39,7.66-8.84,8.38-9.31,9.13-5.32,8.46-6.77,25.7,2.63,43.55,4.38,8.32,9.83,13.4,14.57,13.59h.15c5.38,0,12.57-11.62,26.76-34.58,9.14-14.78,10.82-19.62,11.11-24.88.57-10-3.45-21.72-9.35-27.19l-.15-.2-.08-.12L295,55.93A7.25,7.25,0,0,0,289.2,53.07Z"/><circle class="cls-3" cx="269.24" cy="53.84" r="25.42"/><rect class="cls-3" x="220.78" y="34.8" width="28.7" height="15.63" rx="5.18" transform="translate(35.82 -89.21) rotate(23.21)"/><path class="cls-4" d="M242.51,54.33a5.5,5.5,0,0,1-2.23-.46l-16.86-7.22a5.69,5.69,0,0,1-3-7.46l2.08-4.84a5.69,5.69,0,0,1,7.46-3l16.85,7.23a5.69,5.69,0,0,1,3,7.46l-2.08,4.84A5.69,5.69,0,0,1,242.51,54.33ZM227.74,31.9a4.57,4.57,0,0,0-1.74.34,4.62,4.62,0,0,0-2.56,2.5l-2.08,4.84a4.7,4.7,0,0,0,2.46,6.15L240.67,53a4.7,4.7,0,0,0,6.15-2.46l2.08-4.84a4.7,4.7,0,0,0-2.46-6.15l-16.86-7.23A4.7,4.7,0,0,0,227.74,31.9Z"/><rect class="cls-3" x="282.4" y="37.89" width="24.53" height="11.46" rx="3.99" transform="translate(510.08 -162.11) rotate(127.9)"/><path class="cls-4" d="M290.94,55.7a4.47,4.47,0,0,1-2.75-.94l-2.74-2.14a4.5,4.5,0,0,1-.78-6.3l10.16-13a4.47,4.47,0,0,1,3-1.7,4.42,4.42,0,0,1,3.31.91l2.74,2.13a4.5,4.5,0,0,1,.79,6.31L294.5,54a4.47,4.47,0,0,1-3,1.7Zm-5.48-8.77h0a3.49,3.49,0,0,0,.61,4.9L288.81,54a3.49,3.49,0,0,0,4.9-.61L303.87,40.3a3.49,3.49,0,0,0-.61-4.9l-2.74-2.13a3.51,3.51,0,0,0-2.58-.71,3.47,3.47,0,0,0-2.32,1.32Z"/><rect class="cls-3" x="257.65" y="10.84" width="27.49" height="12.44" rx="5.1" transform="translate(213.74 282.81) rotate(-81.36)"/><path class="cls-4" d="M271.21,31.38a4.88,4.88,0,0,1-.85-.07L268.15,31a5.61,5.61,0,0,1-4.7-6.38l2.6-17.09a5.61,5.61,0,0,1,6.38-4.7l2.21.34a5.6,5.6,0,0,1,4.69,6.38l-2.6,17.09a5.56,5.56,0,0,1-2.21,3.67A5.63,5.63,0,0,1,271.21,31.38Zm.37-27.63a4.61,4.61,0,0,0-2.72.89,4.56,4.56,0,0,0-1.82,3l-2.6,17.09a4.55,4.55,0,0,0,.84,3.42,4.59,4.59,0,0,0,3,1.82l2.21.33a4.52,4.52,0,0,0,3.41-.84,4.61,4.61,0,0,0,1.83-3l2.59-17.09a4.6,4.6,0,0,0-3.85-5.24l-2.21-.34A5.62,5.62,0,0,0,271.58,3.75Z"/><rect class="cls-3" x="268.53" y="15.39" width="27.15" height="12.23" rx="3.74" transform="translate(173.13 282.6) rotate(-71.71)"/><path class="cls-4" d="M281.27,35.83a4.4,4.4,0,0,1-1.33-.21l-4.51-1.5A4.18,4.18,0,0,1,273,32a4.24,4.24,0,0,1-.24-3.24l6.18-18.68a4.24,4.24,0,0,1,5.35-2.69l4.51,1.49a4.24,4.24,0,0,1,2.7,5.35l-6.18,18.68A4.25,4.25,0,0,1,281.27,35.83Zm1.66-27.65a3.23,3.23,0,0,0-1.45.35,3.18,3.18,0,0,0-1.62,1.87l-6.18,18.69a3.23,3.23,0,0,0,2.06,4.09l4.51,1.49a3.24,3.24,0,0,0,4.09-2.06l6.18-18.68a3.24,3.24,0,0,0-2.06-4.09L284,8.35A3.3,3.3,0,0,0,282.93,8.18Z"/><rect class="cls-3" x="275.26" y="25.68" width="26.61" height="12.64" rx="3.23" transform="translate(86.06 240.05) rotate(-52.1)"/><path class="cls-4" d="M284.81,45.57a3.73,3.73,0,0,1-2.29-.78L277.65,41a3.74,3.74,0,0,1-.65-5.24l12.37-15.9a3.74,3.74,0,0,1,5.24-.65L299.48,23a3.69,3.69,0,0,1,1.41,2.49,3.73,3.73,0,0,1-.76,2.75L287.76,44.13a3.72,3.72,0,0,1-2.48,1.42A3.77,3.77,0,0,1,284.81,45.57Zm7.51-26.15-.34,0a2.7,2.7,0,0,0-1.82,1L277.79,36.37a2.73,2.73,0,0,0,.48,3.84L283.14,44a2.74,2.74,0,0,0,3.83-.48l12.37-15.89a2.73,2.73,0,0,0,.56-2,2.7,2.7,0,0,0-1-1.82L294,20A2.72,2.72,0,0,0,292.32,19.42Z"/><rect class="cls-5" x="238.42" y="6.68" width="45.28" height="65.58" transform="translate(8.02 114.84) rotate(-25.18)"/><path d="M254.47,78.94l-.05-.11-28-59.46L267.65,0l.06.11,28,59.46ZM226.79,19.49l27.8,59.12,40.74-19.16L267.53.33Z"/><path class="cls-6" d="M244.93,25.65l-.14-.48a47.55,47.55,0,0,0,10.8-4.65l.49-.29c.61-.36,1.24-.73,1.89-1.05A12.94,12.94,0,0,1,262.14,18l.06.49a12.46,12.46,0,0,0-4,1.19c-.64.31-1.26.68-1.86,1l-.49.3A48.76,48.76,0,0,1,244.93,25.65Z"/><path class="cls-6" d="M242.31,33l-.22-.45c5.12-2.53,10.37-5,15.46-7.38l6.48-3c1.29-.61,2.62-1.23,4-1.81l.2.46c-1.35.57-2.68,1.2-4,1.8l-6.48,3C252.68,28,247.43,30.5,242.31,33Z"/><path class="cls-6" d="M244.74,37.63l-.16-.47A35.69,35.69,0,0,0,250,35c.46-.24.9-.51,1.34-.78s1.17-.7,1.78-1c.8-.4,1.64-.73,2.45-1l.24-.09a153.53,153.53,0,0,0,14.48-6.6l.23.44a150.93,150.93,0,0,1-14.53,6.62l-.24.1c-.8.31-1.62.64-2.4,1-.6.3-1.18.65-1.75,1s-.9.54-1.36.79A37.19,37.19,0,0,1,244.74,37.63Z"/><path class="cls-6" d="M248.33,42.63l-.15-.48a99.55,99.55,0,0,0,11.58-4.72,15.28,15.28,0,0,0,2.36-1.26c.3-.2.59-.43.88-.66s.51-.41.77-.6a18.25,18.25,0,0,1,5.66-2.35,31.87,31.87,0,0,0,3.34-1.11l.19.47A33.61,33.61,0,0,1,269.57,33a17.8,17.8,0,0,0-5.51,2.28c-.25.18-.5.38-.75.58s-.59.47-.9.69A17.28,17.28,0,0,1,260,37.88,99.89,99.89,0,0,1,248.33,42.63Z"/><path class="cls-6" d="M250.9,48.21l-.15-.48L259,45.09c1.29-.41,2.62-.84,3.87-1.38s2.44-1.22,3.6-1.87a89.81,89.81,0,0,0,7.76-4.73l.29.41a89.71,89.71,0,0,1-7.8,4.75c-1.18.66-2.39,1.35-3.65,1.9s-2.62,1-3.91,1.39Z"/><path class="cls-6" d="M252.9,54.71l-.15-.48a115.34,115.34,0,0,0,23.72-10.09l.24.43A115.16,115.16,0,0,1,252.9,54.71Z"/><ellipse class="cls-3" cx="34.78" cy="315.04" rx="23.2" ry="16.82" transform="translate(-275.39 249.81) rotate(-71.83)"/><path class="cls-7" d="M279.45,130.47c-9.34-2.43-17.87,1.14-33.14,7.55-13,5.45-24.91,10.46-34.88,20.93a66.92,66.92,0,0,0-4.87,5.76l-.86,0-86.19,4.06-.42,0a27.63,27.63,0,0,0-3.42-5.07c-13.48-15.7-44.66-12.55-64.39-3.1C26.85,172.35.57,203,11.09,231.23c9,24,40.51,35.53,63.88,29.88a47.25,47.25,0,0,0,7.89-2.67L81,295.87c-1.37,27.34,17.74,50.1,42.66,48.35l120.13-8.45c24-1.69,36.5-26,28.79-52.09L255.22,225c25.9-9.72,50.38-27.86,52.72-49.2C309.9,157.91,296.57,134.92,279.45,130.47Z"/><path class="cls-8" d="M121,344.44A37.28,37.28,0,0,1,94.7,333.5c-9.52-9.32-14.56-23-13.83-37.64l1.86-37.23a48.13,48.13,0,0,1-7.73,2.6c-11.67,2.82-25.32,1.43-37.42-3.83-13-5.63-22.42-14.9-26.6-26.13a39,39,0,0,1-1.61-21.36A57.08,57.08,0,0,1,18,189.67a86.13,86.13,0,0,1,33.25-29.13,84.25,84.25,0,0,1,34.6-7.9h0c16.89,0,25.59,6,29.9,11a27.7,27.7,0,0,1,3.4,5h.11l.23,0,86.19-4.07h.8a69.21,69.21,0,0,1,4.85-5.71c10-10.5,22.1-15.58,34.92-21,15.38-6.45,23.85-10,33.22-7.56,8,2.09,15.88,8.54,21.48,17.68,5.47,8.94,8.06,19.07,7.1,27.8-1.09,9.92-7.16,20-17.56,29-9.12,7.95-21.59,15.13-35.12,20.23l17.32,58.55c4.22,14.27,2.56,28.33-4.55,38.59a31.73,31.73,0,0,1-24.35,13.66l-120.13,8.45C122.78,344.41,121.89,344.44,121,344.44Zm-38-86.2v.2l-1.87,37.43c-.72,14.53,4.29,28.18,13.75,37.45a37,37,0,0,0,28.78,10.78l120.13-8.46a31.45,31.45,0,0,0,24.16-13.55c7.07-10.2,8.72-24.18,4.52-38.37l-17.39-58.78.11,0c13.55-5.09,26-12.27,35.15-20.23,10.36-9,16.4-19,17.48-28.87.95-8.67-1.63-18.75-7.07-27.64-5.56-9.09-13.33-15.49-21.32-17.57h0c-9.29-2.42-17.74,1.12-33.05,7.55-12.81,5.37-24.89,10.44-34.85,20.9a66.37,66.37,0,0,0-4.86,5.74l0,.05h-.92l-86.19,4.07h-.22l-.19,0H119l0-.07a27.56,27.56,0,0,0-3.41-5c-4.28-5-12.91-10.94-29.71-10.94h0a84.08,84.08,0,0,0-34.49,7.88,85.7,85.7,0,0,0-33.15,29c-6.51,9.93-13,25.16-7,41.38,4.16,11.15,13.56,20.38,26.46,26,12.07,5.24,25.65,6.63,37.27,3.82a47.72,47.72,0,0,0,7.87-2.67Z"/><polygon class="cls-8" points="102.95 169.28 47.97 169.06 51.56 152.74 105.75 152.44 102.95 169.28"/><polygon class="cls-8" points="276.31 140.55 226.14 164.61 214.37 152.14 264.31 129.13 276.31 140.55"/><rect class="cls-8" x="168.88" y="179.85" width="24.05" height="3.53" transform="translate(-53.23 77.24) rotate(-21.09)"/><rect class="cls-8" x="145.38" y="181.45" width="24.05" height="3.19" transform="translate(37.24 -26.34) rotate(10.84)"/><polygon class="cls-9" points="124.87 166.72 137.51 166.54 156.91 181.09 144.59 182.66 124.87 166.72"/><polygon class="cls-9" points="200.24 163.89 208.04 162.43 194.04 181.3 184.21 177.73 200.24 163.89"/><polygon class="cls-8" points="164.7 185.68 161.25 283.2 193.16 276.86 176.29 185.49 164.7 185.68"/><polygon class="cls-1" points="161.25 181.62 177.72 180.95 176.26 188.4 164.29 189.12 161.25 181.62"/><path class="cls-5" d="M80.08,163.64a3.25,3.25,0,0,1-1.15-.21,2.49,2.49,0,0,1-.94-.58,3.75,3.75,0,0,1-.78-1.17,4.3,4.3,0,0,1-.26-1.59v-1.4H74.11v-2.25h8.72v3.7a6.17,6.17,0,0,1-.14,1.4,3.42,3.42,0,0,1-.43,1,2.38,2.38,0,0,1-.89.81A2.85,2.85,0,0,1,80.08,163.64Zm0-2.33a1.05,1.05,0,0,0,.63-.2,1.07,1.07,0,0,0,.37-.46,2,2,0,0,0,.16-.69c0-.22,0-.52,0-.89v-.38H78.59v.64a6.07,6.07,0,0,0,.07.95,1.32,1.32,0,0,0,.29.62,1,1,0,0,0,.44.31A1.76,1.76,0,0,0,80,161.31Z"/><polygon class="cls-8" points="229.69 231.09 209.09 236.59 205.44 206.77 225.59 201.62 229.69 231.09"/><path class="cls-3" d="M203.49,126a6.37,6.37,0,0,0,.64-4.42c-.4-2.59-1.72-4.54-2.95-4.35-.66.1-1.16.81-1.42,1.83a38.7,38.7,0,0,0-66,4.48c-.35-1.5-1-2.49-1.68-2.49-1.11,0-2,2.43-2,5.43a9.68,9.68,0,0,0,1,4.65,35.28,35.28,0,0,0-1,8.21c0,20.28,17,36.73,38,36.73s38-16.45,38-36.73A35.54,35.54,0,0,0,203.49,126Z"/><path class="cls-4" d="M168.05,176.6c-21.24,0-38.53-16.7-38.53-37.23a36.25,36.25,0,0,1,.94-8.14,10.53,10.53,0,0,1-.94-4.72c0-3,.86-5.93,2.51-5.93.71,0,1.34.6,1.79,1.68a39.23,39.23,0,0,1,65.8-4.24,2.09,2.09,0,0,1,1.48-1.26c1.57-.24,3.07,1.82,3.52,4.77a7.23,7.23,0,0,1-.57,4.56,36,36,0,0,1,2.53,13.28C206.58,159.9,189.3,176.6,168.05,176.6Zm-36-55c-.6,0-1.51,2-1.51,4.93a9.32,9.32,0,0,0,.9,4.39l.1.17,0,.2a34.82,34.82,0,0,0-1,8.1c0,20,16.84,36.23,37.53,36.23s37.53-16.26,37.53-36.23A35,35,0,0,0,203,126.22l-.1-.26.17-.22a6,6,0,0,0,.54-4.06c-.37-2.4-1.55-4.06-2.37-3.93-.42.07-.8.61-1,1.47l-.28,1.06-.62-.9a38.19,38.19,0,0,0-65.19,4.41l-.61,1.24-.32-1.35C132.86,122.14,132.31,121.58,132,121.58Z"/><path class="cls-8" d="M186.39,91.06a4.52,4.52,0,0,0-1.25-.78.44.44,0,0,0-.3-.11,3.06,3.06,0,0,0-1.12-.09l-31.07-2.62c-1.45-.12-4.28,1-6.2,2.45l-7.07,5.3c-1,.78-1.39,1.44-1.12,1.8h-.07a1.86,1.86,0,0,0-1.91,2.23l1.58,12.17a2.56,2.56,0,0,0,2.46,2.23l30.31-.61a1.42,1.42,0,0,0,.81-.29s0,.05,0,.08c3.39-1.31,6.22-2.49,8.35-3.42,2.3-1,3.48-1.58,5.84-2.72,2.74-1.32,4.11-2,4.45-2.42C192.68,101,190.08,94.06,186.39,91.06Z"/><path class="cls-10" d="M179.06,134.73c1.69,3.24,5.53,4,8.86,4.14.64,0,.64-1,0-1-3-.1-6.48-.73-8-3.64-.3-.57-1.16-.07-.87.5Z"/><path class="cls-10" d="M182.3,129.51a4.88,4.88,0,0,1,2,1.49,12,12,0,0,1,1.54,2.08,12.69,12.69,0,0,1,1.65,4.86c.08.63,1.08.64,1,0a13.64,13.64,0,0,0-1.87-5.49c-.94-1.57-2.29-3.34-4.11-3.91-.61-.19-.88.77-.26,1Z"/><path class="cls-1" d="M147.16,122.53l.88.74a.63.63,0,0,0,1-.27,16.12,16.12,0,0,0,.51-2.74l-1.06.44,2,1.71a.64.64,0,0,0,1-.28,15.05,15.05,0,0,1,.68-2.26l-1.05.28,1.67,1.8a.63.63,0,0,0,1-.13,4.8,4.8,0,0,0,.9-3.11l-1.23.16.82,1.95c.18.43.89.7,1.14.15a18.61,18.61,0,0,0,1.08-3h-1.2a17.35,17.35,0,0,0,1,3.36.63.63,0,0,0,1.2,0,8.62,8.62,0,0,0,.64-3.09l-1.16.32a12.07,12.07,0,0,1,.84,2.08.63.63,0,0,0,1.14.15,20.14,20.14,0,0,0,1.22-2.57l-1.14.15.85,1.92c.24.55,1,.28,1.14-.15a5.87,5.87,0,0,1,1.25-1.94l-1.05-.27.82,2.36a.63.63,0,0,0,1,.27l1.6-1.67h-.89a1.37,1.37,0,0,1,.35.82c.1.57.87.56,1.14.15a8.86,8.86,0,0,0,.79-1.53l-1.14.15a4.43,4.43,0,0,1,.61,1.11.63.63,0,0,0,1,.27l1.1-1.29h-.89a6,6,0,0,1,.81,1.15.64.64,0,0,0,1.08,0,4.77,4.77,0,0,1,.85-1l-1-.12a4.56,4.56,0,0,1,.56,1.6.63.63,0,0,0,1,.28,11.84,11.84,0,0,1,1.33-1.32l-1-.27a8.66,8.66,0,0,1,0,2.33.63.63,0,0,0,1.06.45l1.18-1.35-1-.12a2.81,2.81,0,0,1,.46,1.62c0,.49.72.88,1.07.44a4.8,4.8,0,0,1,1.25-1.17l-.86-.22a2.7,2.7,0,0,1,.24,1.79.63.63,0,0,0,1,.61l1.33-1.31-1-.13a1.37,1.37,0,0,1,0,1.26c-.22.6.63,1,1,.61l.8-.83-1.07-.44.09,1.72a.63.63,0,0,0,1.07.44l.67-.72-1.06-.44,0,.72a.63.63,0,0,0,.79.6v0a.63.63,0,0,0,.63-1.08,1.07,1.07,0,0,0-1-.15l.79.6,0-.72A.64.64,0,0,0,177,123l-.68.73,1.07.44-.09-1.72a.64.64,0,0,0-1.07-.45l-.79.83,1,.61a2.69,2.69,0,0,0-.11-2.22.63.63,0,0,0-1-.12l-1.34,1.31,1,.61a4.24,4.24,0,0,0-.37-2.76.62.62,0,0,0-.85-.23,5.94,5.94,0,0,0-1.51,1.36l1.07.45a3.8,3.8,0,0,0-.63-2.25.63.63,0,0,0-1-.13l-1.18,1.34,1.07.44a9.56,9.56,0,0,0-.06-2.67c-.08-.5-.73-.54-1-.27a10.29,10.29,0,0,0-1.33,1.31l1,.28a5.34,5.34,0,0,0-.68-1.9.63.63,0,0,0-1-.13,5.5,5.5,0,0,0-1.05,1.3h1.08a8.68,8.68,0,0,0-1-1.4.63.63,0,0,0-.89,0L165.76,119l1.05.27a6.33,6.33,0,0,0-.74-1.41.64.64,0,0,0-1.14.15,6.71,6.71,0,0,1-.67,1.24l1.15.15a2.85,2.85,0,0,0-.67-1.37.63.63,0,0,0-.89,0l-1.59,1.67,1,.28-.81-2.37a.64.64,0,0,0-1.05-.27,7.85,7.85,0,0,0-1.57,2.48l1.14-.15-.84-1.91c-.24-.55-1-.29-1.14.15a17,17,0,0,1-1.1,2.27l1.15.15a13.66,13.66,0,0,0-1-2.38.63.63,0,0,0-1.17.31,7.78,7.78,0,0,1-.59,2.75h1.2a17.85,17.85,0,0,1-1-3.36.63.63,0,0,0-1.2,0,16.87,16.87,0,0,1-1,2.69l1.14.15-.81-1.95c-.25-.59-1.27-.61-1.23.17a3.69,3.69,0,0,1-.73,2.48l1-.12-1.66-1.8a.63.63,0,0,0-1.05.27,15.91,15.91,0,0,0-.68,2.26l1-.28-2-1.71a.64.64,0,0,0-1.07.45,13.33,13.33,0,0,1-.47,2.41l1-.28-.88-.74c-.61-.52-1.49.36-.88.88Z"/><path class="cls-1" d="M180.45,121.41a2.25,2.25,0,0,0,2.07,1.28.65.65,0,0,0,.61-.46,9.5,9.5,0,0,0-.09-3.32l-1.14.48c.36.63,1.26,1.51,2.06,1.09s.25-2.12.1-2.89l-1.05.6a7.58,7.58,0,0,0,2.21,1.6.63.63,0,0,0,.91-.7l-.57-3.09-.92.71,1.21.88a.63.63,0,0,0,.92-.37l.4-1.86-.92.38,1.79,1.34a.63.63,0,0,0,.92-.38,13.74,13.74,0,0,0,.27-2.31l-.94.54c.84.63,2.08,1.14,3,.39a1.58,1.58,0,0,0,.26-2.32.63.63,0,0,0-1.07.44,1.24,1.24,0,0,1-.38.83l1,.28-.27-1.09c-.17-.66-1.28-.54-1.23.17a1.16,1.16,0,0,0,1.73.92,1.6,1.6,0,0,0,.73-1c.12-.44,0-1,.42-1.31l-1.06-.45a3.61,3.61,0,0,0,.36,1.94.63.63,0,0,0,1.08,0,2.41,2.41,0,0,0,.35-1.41l-1,.54,1,.74a.62.62,0,0,0,.63,0,1,1,0,0,0,.55-.74c.12-.79-1.09-1.13-1.2-.33H194l-1-.74a.63.63,0,0,0-.94.54,1.19,1.19,0,0,1-.18.78h1.08a2.34,2.34,0,0,1-.19-1.31c.05-.6-.69-.73-1.07-.44a1.78,1.78,0,0,0-.62,1.08c0,.21,0,.41-.09.62a2.25,2.25,0,0,1-.09.35c-.09.09-.07.18,0,.27l-1.23.17.27,1.08a.63.63,0,0,0,1.05.27,2.67,2.67,0,0,0,.74-1.71l-1.06.44c.22.25-.26.53-.44.55a2,2,0,0,1-1.32-.58c-.4-.31-.93.11-.94.54a11,11,0,0,1-.23,2l.92-.37-1.79-1.34a.62.62,0,0,0-.91.37l-.41,1.85.92-.37-1.21-.88c-.48-.36-1,.23-.91.7l.57,3.09.92-.71a6.59,6.59,0,0,1-1.95-1.4.63.63,0,0,0-1.05.61l.2,1a3.17,3.17,0,0,1,.13.71l.37-.29c-.19.07-.5-.43-.57-.55a.63.63,0,0,0-1.14.48,7.67,7.67,0,0,1,.08,2.66l.6-.46a1,1,0,0,1-1-.66c-.35-.72-1.43-.09-1.08.63Z"/><ellipse class="cls-11" cx="190.75" cy="123.8" rx="8.66" ry="7.23" transform="translate(-36.65 124.63) rotate(-33.19)"/><path class="cls-8" d="M204.1,113.44c-13.6,3.46-35.95,4.07-36.85-1.16-.59-3.44,8.25-8.55,16-9.86C196,100.26,209,108,208.48,111.16,208.31,112.15,206.84,112.74,204.1,113.44Z"/><ellipse class="cls-12" cx="165.23" cy="127.38" rx="7.9" ry="13.44" transform="translate(-5.24 247.66) rotate(-72.84)"/><path class="cls-5" d="M180.51,104.55l-2.43.67a2.06,2.06,0,0,1-2.85-1.93V99.75a3.65,3.65,0,0,1,3-3.38l2.51-.45a2.05,2.05,0,0,1,2.53,2.17l-.11,3.25A3.67,3.67,0,0,1,180.51,104.55Z"/><ellipse class="cls-13" cx="167.65" cy="128.57" rx="7.42" ry="4.91"/><path class="cls-1" d="M167.65,133.61c-4.16,0-7.54-2.26-7.54-5s3.38-5,7.54-5,7.54,2.26,7.54,5S171.81,133.61,167.65,133.61Zm0-9.83c-4,0-7.29,2.15-7.29,4.79s3.27,4.79,7.29,4.79,7.29-2.15,7.29-4.79S171.67,123.78,167.65,123.78Z"/><ellipse class="cls-13" cx="190.28" cy="123.8" rx="5.93" ry="4.89" transform="translate(-35.48 100.08) rotate(-27.05)"/><path class="cls-1" d="M189.4,129.05a6.41,6.41,0,0,1-1.31-.14,4.44,4.44,0,0,1-3.23-6.33,7,7,0,0,1,7.61-3.89,4.6,4.6,0,0,1,3.21,2.35h0a4.62,4.62,0,0,1,0,4,6.75,6.75,0,0,1-3.15,3.25A7.06,7.06,0,0,1,189.4,129.05Zm1.77-10.25a6.68,6.68,0,0,0-3,.76,6.37,6.37,0,0,0-3,3.12,4.18,4.18,0,0,0,3.06,6,6.74,6.74,0,0,0,7.33-3.74,4.38,4.38,0,0,0,0-3.76h0a4.39,4.39,0,0,0-3-2.23A5.83,5.83,0,0,0,191.17,118.8Z"/><circle class="cls-14" cx="171.52" cy="128.57" r="1.55"/><circle class="cls-14" cx="193.32" cy="122.12" r="1.54"/><path class="cls-10" d="M175.09,127.15c-.28.91-4.61.3-7.61-.12s-5.94-.82-6-1.59,3.44-2.24,6.86-1.89C172,123.92,175.36,126.29,175.09,127.15Z"/><path class="cls-10" d="M195.42,119.9c.27,1-3.19,2-5.59,2.72s-4.74,1.37-5.16.63,1.35-3.52,4-4.44C191.56,117.81,195.18,119,195.42,119.9Z"/><path class="cls-10" d="M205.67,151c-.52-14.49-25.51-14.2-43-6-10.89,5.1-17.41,12.73-17.82,18.67s5.47,11.53,16.59,12.33C179.82,177.33,206.23,166.27,205.67,151Z"/><path class="cls-15" d="M166.67,153.3c.46-1.11,10.82,5.8,21.05,1.71,8.64-3.46,11.42-12.47,12.61-11.85,1.4.74-.28,14.57-9.52,18.85C179.71,167.16,166.11,154.63,166.67,153.3Z"/><path class="cls-1" d="M166.67,153.75a25,25,0,0,0,19.86,5.49,11.77,11.77,0,0,0,8.56-5.23,49.48,49.48,0,0,0,5.33-11.21c.06-.15-.18-.22-.24-.07a53.18,53.18,0,0,1-4.87,10.49,12.78,12.78,0,0,1-3.6,4,13.1,13.1,0,0,1-5.25,1.78,24.77,24.77,0,0,1-19.61-5.43c-.12-.1-.3.08-.18.18Z"/><path class="cls-1" d="M187.57,155.59a5.1,5.1,0,0,1,1,3c0,.15.27.16.25,0a5.35,5.35,0,0,0-1.1-3.22.12.12,0,0,0-.17.18Z"/><path class="cls-1" d="M188.62,158.74a3,3,0,0,0,.45.77,3.18,3.18,0,0,1,.4.88,6.9,6.9,0,0,1,.27,1.92.13.13,0,0,0,.25,0,7.36,7.36,0,0,0-.26-1.93,3.71,3.71,0,0,0-.35-.85,4.41,4.41,0,0,1-.52-.85c-.05-.15-.29-.09-.24.06Z"/><path class="cls-1" d="M192,153.05a4.5,4.5,0,0,1,1.6,2.66c0,.16.27.09.24-.07a4.73,4.73,0,0,0-1.66-2.77c-.13-.1-.3.08-.18.18Z"/><path class="cls-1" d="M195.17,158.36l-.63-1.46c-.1-.24-.21-.47-.31-.71a1.42,1.42,0,0,0-.34-.55c-.12-.11-.3.06-.18.17a1.55,1.55,0,0,1,.33.55l.31.72.6,1.4c.07.15.28,0,.22-.12Z"/><path class="cls-1" d="M195.72,149.41a2.1,2.1,0,0,0,.45.62,1.31,1.31,0,0,1,.27.73c0,.16.26.16.25,0a1.57,1.57,0,0,0-.27-.81,2.51,2.51,0,0,0-.26-.31.73.73,0,0,1-.19-.3.13.13,0,0,0-.25.07Z"/><path class="cls-1" d="M196.78,151.15a5.3,5.3,0,0,1,1.22,2.78c0,.16.26.16.25,0A5.56,5.56,0,0,0,197,151c-.09-.13-.31,0-.22.13Z"/><path class="cls-1" d="M182,156.59c-.17.91.22,1.82.07,2.73,0,.15.22.22.24.06.15-.91-.24-1.82-.07-2.73,0-.15-.21-.22-.24-.06Z"/><path class="cls-1" d="M182,159.59a11,11,0,0,1,0,1.62,2.14,2.14,0,0,1-.41,1.3.12.12,0,0,0,.18.17,2.14,2.14,0,0,0,.46-1.29,9.85,9.85,0,0,0,0-1.8c0-.16-.26-.16-.25,0Z"/><path class="cls-1" d="M176.28,156.22a3.76,3.76,0,0,1-.34,2.14c-.07.14.14.27.21.12a4,4,0,0,0,.37-2.33c0-.16-.27-.09-.24.07Z"/><path class="cls-1" d="M175.92,158.49a2.92,2.92,0,0,1-.86,1.45c-.11.11.07.29.18.17a3.25,3.25,0,0,0,.92-1.55.13.13,0,0,0-.09-.15.12.12,0,0,0-.15.08Z"/><path class="cls-1" d="M164.8,155.11a4.59,4.59,0,0,1-.6-2.22,1.7,1.7,0,0,1,.94-1.48c.15,0,.09-.3-.06-.24a1.9,1.9,0,0,0-1.12,1.57,4.72,4.72,0,0,0,.62,2.5c.07.15.28,0,.22-.13Z"/><path class="cls-1" d="M161.34,150.81a4.3,4.3,0,0,1,2.74-.88.13.13,0,0,0,0-.25,4.49,4.49,0,0,0-2.91.95c-.13.1.05.28.17.18Z"/><path class="cls-1" d="M199.68,140.77a1.2,1.2,0,0,1,1.74.82.13.13,0,0,0,.16.09.12.12,0,0,0,.08-.15,1.44,1.44,0,0,0-2.1-1c-.14.08,0,.3.12.21Z"/><path class="cls-1" d="M201.5,138.88a3,3,0,0,1,2.2,2.52c0,.16.26.16.25,0a3.22,3.22,0,0,0-2.38-2.76.13.13,0,0,0-.07.24Z"/></g></g></svg>