<svg id="Layer_1" data-name="Layer 1" xmlns="http://www.w3.org/2000/svg" viewBox="0 0 152.48 152.48"><defs><style>.cls-1{fill:#1d1d1b;}</style></defs><circle class="cls-1" cx="77.95" cy="74.76" r="4.35"/><path class="cls-1" d="M89.83,74.39a9.23,9.23,0,0,1-.57,3.17c-1.72,4.89-7,9.68-12.88,9.25A12.05,12.05,0,0,1,67.31,81h0c-2.4-4-1.72-8.37,1.71-20.34C71.1,53.41,73.41,46,75.87,38.76l.45-1.31.49,1.29c2.52,6.58,5.09,13.11,7.66,19.42l.94,2.33C88.34,67.66,89.83,71.32,89.83,74.39ZM68.17,80.52h0a11,11,0,0,0,8.29,5.29c5.38.4,10.26-4,11.86-8.58,1.32-3.72,0-6.91-3.83-16.36l-.95-2.33c-2.4-5.9-4.81-12-7.17-18.14C74.08,47.22,71.93,54.14,70,61,66.64,72.61,66,76.83,68.17,80.52Z"/></svg>