<svg id="Layer_1" data-name="Layer 1" xmlns="http://www.w3.org/2000/svg" xmlns:xlink="http://www.w3.org/1999/xlink" viewBox="0 0 1920 1080"><defs><style>.cls-1{fill:url(#linear-gradient);}.cls-2{fill:#3c3c3b;}.cls-3{fill:#504235;}.cls-4{fill:url(#linear-gradient-2);}.cls-5{fill:#fff;}.cls-6{fill:#404040;}.cls-7{fill:#6e7b8e;}.cls-8{fill:#1d1d1b;}.cls-9{fill:url(#radial-gradient);}.cls-10{fill:#454542;}.cls-11{fill:url(#radial-gradient-2);}.cls-12{fill:#151b2e;}.cls-13{fill:#3d4c6a;}.cls-14{fill:#636362;}.cls-15{fill:#5d6061;}.cls-16{fill:url(#radial-gradient-3);}.cls-17{fill:url(#linear-gradient-3);}.cls-18{fill:url(#New_Gradient_Swatch_1);}.cls-19{fill:#a3473a;}.cls-20{fill:#9e5235;}.cls-21{fill:url(#radial-gradient-4);}.cls-22{fill:url(#radial-gradient-5);}.cls-23{fill:#b4341a;}.cls-24{fill:url(#New_Gradient_Swatch_1-2);}.cls-25{fill:url(#radial-gradient-6);}.cls-26{fill:#574c45;}.cls-27{fill:#a4abb4;}.cls-28{fill:#386c7c;}.cls-29{fill:#666;}.cls-30{fill:gray;}.cls-31{fill:#f8e92b;}.cls-32{fill:url(#New_Gradient_Swatch_1-3);}.cls-33{fill:url(#New_Gradient_Swatch_1-4);}.cls-34{fill:url(#New_Gradient_Swatch_1-5);}.cls-35{fill:url(#New_Gradient_Swatch_1-6);}.cls-36{fill:url(#New_Gradient_Swatch_1-7);}.cls-37{fill:#8bc027;}.cls-38{fill:url(#New_Gradient_Swatch_1-8);}.cls-39{fill:#242c32;}.cls-40{fill:#d7e6f7;opacity:0.42;}</style><linearGradient id="linear-gradient" x1="960" y1="337.13" x2="960" y2="-0.02" gradientUnits="userSpaceOnUse"><stop offset="0" stop-color="#fff"/><stop offset="0.1" stop-color="#dbe9f0"/><stop offset="0.27" stop-color="#a5c9db"/><stop offset="0.44" stop-color="#78aec8"/><stop offset="0.6" stop-color="#5599ba"/><stop offset="0.75" stop-color="#3c8ab0"/><stop offset="0.89" stop-color="#2d81aa"/><stop offset="1" stop-color="#287ea8"/></linearGradient><linearGradient id="linear-gradient-2" x1="960" y1="1079" x2="960" y2="337" gradientUnits="userSpaceOnUse"><stop offset="0" stop-color="#989898"/><stop offset="0.21" stop-color="#949494"/><stop offset="0.41" stop-color="#898989"/><stop offset="0.6" stop-color="#767676"/><stop offset="0.78" stop-color="#5c5c5c"/><stop offset="0.97" stop-color="#3a3a3a"/><stop offset="1" stop-color="#333"/></linearGradient><radialGradient id="radial-gradient" cx="1503.55" cy="459.58" r="26.87" gradientTransform="matrix(-1, 0, 0, 1, 1660.73, 0)" gradientUnits="userSpaceOnUse"><stop offset="0.11" stop-color="#fff"/><stop offset="0.19" stop-color="#f0f0f0"/><stop offset="0.34" stop-color="#c8c8c8"/><stop offset="0.54" stop-color="#898989"/><stop offset="0.55" stop-color="#868686"/><stop offset="0.72" stop-color="#656564"/><stop offset="0.9" stop-color="#474746"/><stop offset="1" stop-color="#3c3c3b"/></radialGradient><radialGradient id="radial-gradient-2" cx="1178.11" cy="460.48" r="22.86" xlink:href="#radial-gradient"/><radialGradient id="radial-gradient-3" cx="1571.62" cy="384.53" r="13.01" gradientTransform="matrix(-0.71, -0.71, -0.71, 0.71, 1472.32, 1223.93)" gradientUnits="userSpaceOnUse"><stop offset="0.21" stop-color="#f5f5f5"/><stop offset="0.24" stop-color="#f5f0e6"/><stop offset="0.31" stop-color="#f6e2be"/><stop offset="0.39" stop-color="#f7cb7e"/><stop offset="0.49" stop-color="#f8b133"/><stop offset="0.51" stop-color="#f8ba4d" stop-opacity="0.99"/><stop offset="0.57" stop-color="#f7cf88" stop-opacity="0.98"/><stop offset="0.63" stop-color="#f6dfb7" stop-opacity="0.97"/><stop offset="0.68" stop-color="#f5ebd9" stop-opacity="0.96"/><stop offset="0.72" stop-color="#f5f2ee" stop-opacity="0.95"/><stop offset="0.75" stop-color="#f5f5f5" stop-opacity="0.95"/><stop offset="0.75" stop-color="#f5f5ea" stop-opacity="0.95"/><stop offset="0.79" stop-color="#f8f2ac" stop-opacity="0.95"/><stop offset="0.83" stop-color="#faf078" stop-opacity="0.95"/><stop offset="0.87" stop-color="#fcef4d" stop-opacity="0.95"/><stop offset="0.9" stop-color="#fdee2b" stop-opacity="0.95"/><stop offset="0.94" stop-color="#feed13" stop-opacity="0.95"/><stop offset="0.97" stop-color="#ffec05" stop-opacity="0.95"/><stop offset="1" stop-color="#ffec00" stop-opacity="0.95"/></radialGradient><linearGradient id="linear-gradient-3" x1="1318.52" y1="319.22" x2="1400.02" y2="319.22" gradientTransform="matrix(-1, 0, 0, 1, 1660.73, 0)" gradientUnits="userSpaceOnUse"><stop offset="0" stop-color="#fff"/><stop offset="1" stop-color="#73b9e7"/></linearGradient><linearGradient id="New_Gradient_Swatch_1" x1="1225.34" y1="319.22" x2="1298.66" y2="319.22" gradientTransform="matrix(-1, 0, 0, 1, 1660.73, 0)" gradientUnits="userSpaceOnUse"><stop offset="0" stop-color="#fff"/><stop offset="0.13" stop-color="#f8fbfe"/><stop offset="0.33" stop-color="#e4f2fa"/><stop offset="0.56" stop-color="#c4e1f5"/><stop offset="0.81" stop-color="#97cbed"/><stop offset="1" stop-color="#73b9e7"/></linearGradient><radialGradient id="radial-gradient-4" cx="345.14" cy="722.42" r="31.9" gradientTransform="translate(-133.14 2.48) scale(0.95 0.79)" gradientUnits="userSpaceOnUse"><stop offset="0.11" stop-color="#fff"/><stop offset="0.18" stop-color="#f0f0f0"/><stop offset="0.34" stop-color="#c8c8c8"/><stop offset="0.54" stop-color="#898989"/><stop offset="0.55" stop-color="#868686"/><stop offset="0.57" stop-color="#818181"/><stop offset="0.69" stop-color="#636362" stop-opacity="0.98"/><stop offset="0.8" stop-color="#4d4d4d" stop-opacity="0.96"/><stop offset="0.91" stop-color="#40403f" stop-opacity="0.95"/><stop offset="1" stop-color="#3c3c3b" stop-opacity="0.95"/></radialGradient><radialGradient id="radial-gradient-5" cx="618.79" cy="726.41" r="31.9" xlink:href="#radial-gradient-4"/><linearGradient id="New_Gradient_Swatch_1-2" x1="216.06" y1="452.3" x2="419.27" y2="452.3" gradientTransform="matrix(1, 0, 0, 1, 0, 0)" xlink:href="#New_Gradient_Swatch_1"/><radialGradient id="radial-gradient-6" cx="1933.11" cy="-1944.25" r="2.08" gradientTransform="matrix(2.93, 3.27, -2.93, 3.27, -10740.8, 564.97)" xlink:href="#radial-gradient-3"/><linearGradient id="New_Gradient_Swatch_1-3" x1="1139" y1="395.5" x2="1139" y2="307.5" gradientTransform="matrix(1, 0, 0, 1, 0, 0)" xlink:href="#New_Gradient_Swatch_1"/><linearGradient id="New_Gradient_Swatch_1-4" x1="1232" y1="395.5" x2="1232" y2="307.5" gradientTransform="matrix(1, 0, 0, 1, 0, 0)" xlink:href="#New_Gradient_Swatch_1"/><linearGradient id="New_Gradient_Swatch_1-5" x1="1201" y1="395.5" x2="1201" y2="307.5" gradientTransform="matrix(1, 0, 0, 1, 0, 0)" xlink:href="#New_Gradient_Swatch_1"/><linearGradient id="New_Gradient_Swatch_1-6" x1="1170" y1="395.5" x2="1170" y2="307.5" gradientTransform="matrix(1, 0, 0, 1, 0, 0)" xlink:href="#New_Gradient_Swatch_1"/><linearGradient id="New_Gradient_Swatch_1-7" x1="1486" y1="396" x2="1486" y2="294" gradientTransform="matrix(1, 0, 0, 1, 0, 0)" xlink:href="#New_Gradient_Swatch_1"/><linearGradient id="New_Gradient_Swatch_1-8" x1="1766" y1="396" x2="1766" y2="294" gradientTransform="matrix(1, 0, 0, 1, 0, 0)" xlink:href="#New_Gradient_Swatch_1"/></defs><rect class="cls-1" y="-0.02" width="1920" height="337.15"/><path class="cls-2" d="M409.85,261.66c11.5-6.88,25.9-6.65,39.12-4.37s26.21,6.39,39.61,6.59c19.74.29,38.51-7.88,57.92-11.43,15.16-2.78,30.7-2.72,46.08-1.77,44.62,2.77,88.41,13,131.74,24,80.85,20.48,93.89,23.88,107,28.85A532.67,532.67,0,0,1,903,337l-281.35.85-211.8-.59Z"/><path class="cls-3" d="M.64,235.2c26.07-7.39,53.69-6.42,80.77-5.4,8.25.32,16.66.66,24.41,3.51,9.73,3.57,17.64,10.79,26.87,15.49,18.26,9.31,39.88,8.09,60.32,6.63l102.71-7.29c36.39-2.58,74.91-4.76,107.31,12,33.63,17.4,69.84,22.75,105.59,35.21,38.29,13.33,81.57,16.92,113,42.49L0,337Z"/><rect class="cls-4" y="337" width="1920" height="742"/><rect class="cls-5" x="59.19" y="403.34" width="567.01" height="2.37"/><rect class="cls-5" x="1166.85" y="669.84" width="719.15" height="4"/><rect class="cls-5" x="1166.85" y="816.84" width="719.15" height="4"/><rect class="cls-5" x="1166.85" y="965.84" width="719.15" height="4"/><rect class="cls-5" x="1173.85" y="537.84" width="719.15" height="4"/><rect class="cls-5" x="53.67" y="507.42" width="567.01" height="2.37"/><rect class="cls-5" x="53.67" y="645.42" width="567.01" height="2.37"/><rect class="cls-5" x="59.67" y="766.42" width="567.01" height="2.37"/><path id="vej" class="cls-6" d="M727,1080a1299.77,1299.77,0,0,1,18-281c24-136.78,42-231.6,121-298,40.68-34.19,78.53-49.68,141-64,113.74-26.07,201.59-25.58,335-24,126.89,1.51,253,3.32,319,4,110.07,1.13,200,.62,259,0v64c-130.75-.88-235-2.66-302-4-99.17-2-194.38-4.56-320,9-122.86,13.27-184.62,24-219,68-25.73,32.91-31.81,74.33-7,270,13.4,105.67,27.83,193.36,39,256Z"/><g id="navy"><path class="cls-7" d="M207.88,475.17c11.28-22.24,9.39-46.42-3.95-60.25-12.85-13.33-31.78-12.32-40.72-11.84-18.88,1-51.71,10.54-58.48,37.38-4.65,18.4,5.47,34.9,8.87,40Z"/><path class="cls-8" d="M157.19,434.49A25.53,25.53,0,1,1,131.65,460a25.54,25.54,0,0,1,25.54-25.53m0-20.4A45.93,45.93,0,1,0,203.12,460a46,46,0,0,0-45.93-45.93Z"/><circle class="cls-9" cx="157.18" cy="459.58" r="26.87"/><path class="cls-10" d="M143.56,440.71c5.93.38,10.49,11.09,7.3,15.3s-14.53,2.88-16.61-2.74C132.38,448.21,138.29,440.37,143.56,440.71Z"/><path class="cls-8" d="M142.05,458.69c-3.18-.47-7-2.11-8.16-5.29-.91-2.45-.13-5.77,2-8.66s5.09-4.58,7.67-4.41h0c3.37.21,6,3.45,7.38,6.41,1.69,3.7,1.77,7.43.2,9.51-1.25,1.66-3.82,2.61-6.84,2.61A16.34,16.34,0,0,1,142.05,458.69Zm-5.51-13.49c-2,2.69-2.74,5.73-1.93,7.93,1.06,2.87,4.6,4.35,7.55,4.79,3.65.54,7-.32,8.4-2.14s1.26-5.33-.29-8.72c-1.27-2.76-3.7-5.77-6.73-6h-.31C141,441.09,138.45,442.64,136.54,445.2Z"/><path class="cls-10" d="M137.07,473.16c.39-6.26,12-11.22,16.51-7.74,4.34,3.35,3.08,15.28-3,17.56C145.1,485.07,136.73,478.68,137.07,473.16Z"/><path class="cls-8" d="M141.44,481.25c-3.1-2.29-4.92-5.39-4.76-8.11h0c.23-3.57,3.72-6.39,6.92-7.84,4-1.82,8-1.89,10.21-.19s3.17,5.46,2.55,9.64c-.5,3.32-2.23,7.32-5.61,8.59a6.73,6.73,0,0,1-2.44.43A11.92,11.92,0,0,1,141.44,481.25ZM143.92,466c-4.57,2.07-6.33,5.07-6.46,7.19h0c-.15,2.42,1.59,5.34,4.43,7.44s6.19,2.9,8.59,2c3.07-1.16,4.65-4.88,5.11-8,.58-3.85-.33-7.43-2.25-8.92a6.2,6.2,0,0,0-3.76-1.05A13.92,13.92,0,0,0,143.92,466Z"/><path class="cls-10" d="M179.84,465.05c-2.57-5.62-12.25-6.49-15.38-3.06-3.92,4.28,1.16,16.59,6.62,17C175.73,479.27,182.6,471.07,179.84,465.05Z"/><path class="cls-8" d="M171.05,479.34c-3.22-.22-5.87-4-7.15-7.25s-2-7.88.27-10.36c1.6-1.75,4.84-2.52,8.26-2,3.65.57,6.56,2.49,7.77,5.14h0c1.26,2.77.68,6.35-1.56,9.59-2,2.95-4.94,4.87-7.3,4.87Zm-6.31-17.09c-1.67,1.83-1.72,5.58-.12,9.56s4.16,6.6,6.48,6.76c2.12.15,5-1.72,6.9-4.53,2.09-3,2.64-6.31,1.49-8.83h0c-1.1-2.41-3.78-4.17-7.18-4.7a12.16,12.16,0,0,0-2-.16C168,460.35,165.85,461,164.74,462.25Z"/><path class="cls-10" d="M175.51,445.93c.08,6.37-12,12.24-16.52,8.95-4.23-3.06-3.61-15.13,2.66-17.71C167.19,434.9,175.44,440.7,175.51,445.93Z"/><path class="cls-8" d="M158.76,455.19c-2.13-1.54-3.24-5.37-2.75-9.52.52-4.34,2.57-7.66,5.5-8.86,2.66-1.09,6.16-.49,9.35,1.61s5,4.91,5,7.51c.05,3.62-3.44,6.73-6.72,8.44a15,15,0,0,1-6.71,1.84A6.24,6.24,0,0,1,158.76,455.19Zm3-17.66c-2.66,1.09-4.54,4.17-5,8.23-.45,3.82.55,7.44,2.43,8.8s5.84,1.08,9.6-.88,6.34-5.05,6.31-7.74h0c0-2.31-1.87-5-4.69-6.87a11.22,11.22,0,0,0-6.06-2A6.64,6.64,0,0,0,161.8,437.53Z"/><path class="cls-7" d="M523.59,473.59c10.56-18.65,9.7-39.32-1.2-51.11-10.5-11.36-26.67-10.5-34.64-10.08-17.53.93-43.93,10.11-49.77,31.81-2.86,10.63.28,20.31,2.38,25.33Z"/><path class="cls-8" d="M482.62,439.13a21.73,21.73,0,1,1-21.73,21.72,21.73,21.73,0,0,1,21.73-21.72m0-17.36a39.09,39.09,0,1,0,39.08,39.08,39.13,39.13,0,0,0-39.08-39.08Z"/><circle class="cls-11" cx="482.62" cy="460.48" r="22.86"/><path class="cls-10" d="M471,444.42c5.05.33,8.93,9.44,6.22,13s-12.37,2.45-14.14-2.33C461.51,450.81,466.54,444.14,471,444.42Z"/><path class="cls-8" d="M469.74,459.72c-2.7-.4-5.94-1.79-6.95-4.5-.77-2.08-.1-4.91,1.73-7.37s4.34-3.89,6.53-3.75h0c2.87.18,5.12,2.93,6.28,5.45,1.44,3.15,1.51,6.32.17,8.09-1.07,1.42-3.25,2.22-5.83,2.22A14.38,14.38,0,0,1,469.74,459.72Zm-4.69-11.47c-1.71,2.28-2.33,4.87-1.64,6.74.9,2.44,3.91,3.71,6.42,4.08,3.11.45,6-.28,7.15-1.82s1.07-4.54-.25-7.43c-1.08-2.34-3.14-4.9-5.73-5.07h-.26C468.83,444.74,466.67,446.06,465.05,448.25Z"/><path class="cls-10" d="M465.5,472c.33-5.33,10.21-9.55,14.05-6.59,3.69,2.85,2.62,13-2.52,14.94C472.33,482.17,465.21,476.73,465.5,472Z"/><path class="cls-8" d="M469.22,478.91c-2.64-1.94-4.19-4.58-4.05-6.89h0c.19-3,3.16-5.44,5.88-6.68,3.41-1.54,6.82-1.6,8.7-.15s2.69,4.64,2.16,8.2c-.42,2.82-1.89,6.22-4.76,7.31a6,6,0,0,1-2.09.36A10.11,10.11,0,0,1,469.22,478.91Zm2.11-13c-3.89,1.76-5.39,4.32-5.5,6.12h0c-.13,2.06,1.36,4.54,3.78,6.33s5.26,2.46,7.3,1.69c2.61-1,4-4.15,4.35-6.79.49-3.27-.28-6.32-1.91-7.58a5.2,5.2,0,0,0-3.21-.9A12,12,0,0,0,471.33,465.94Z"/><path class="cls-10" d="M501.9,465.13c-2.19-4.78-10.43-5.52-13.1-2.6-3.33,3.64,1,14.12,5.64,14.43C498.39,477.24,504.24,470.25,501.9,465.13Z"/><path class="cls-8" d="M494.42,477.29c-2.75-.18-5-3.44-6.09-6.16s-1.7-6.71.23-8.82c1.36-1.49,4.12-2.15,7-1.69,3.11.49,5.58,2.12,6.61,4.38h0c1.07,2.35.58,5.4-1.33,8.16-1.74,2.51-4.2,4.14-6.21,4.14Zm-5.37-14.54c-1.42,1.55-1.47,4.75-.11,8.13s3.54,5.62,5.52,5.76c1.8.12,4.21-1.47,5.87-3.86,1.77-2.56,2.25-5.37,1.27-7.51h0c-.94-2-3.23-3.55-6.11-4a10.75,10.75,0,0,0-1.68-.13A6.55,6.55,0,0,0,489.05,462.75Z"/><path class="cls-10" d="M498.2,448.86c.07,5.42-10.17,10.42-14.05,7.62-3.6-2.6-3.07-12.88,2.27-15.07C491.13,439.47,498.15,444.42,498.2,448.86Z"/><path class="cls-8" d="M484,456.74c-1.82-1.31-2.76-4.56-2.34-8.1s2.18-6.51,4.67-7.53c2.27-.94,5.25-.42,8,1.37s4.25,4.17,4.28,6.38c0,3.09-2.93,5.73-5.72,7.18a12.73,12.73,0,0,1-5.7,1.57A5.28,5.28,0,0,1,484,456.74Zm2.58-15c-2.26.93-3.86,3.55-4.27,7-.38,3.25.47,6.33,2.07,7.49s5,.91,8.17-.75,5.4-4.3,5.37-6.59h0c0-2-1.6-4.26-4-5.84a9.55,9.55,0,0,0-5.16-1.73A5.84,5.84,0,0,0,486.54,441.71Z"/><path class="cls-12" d="M525.26,472.13l68.78-2c6.33-60.08-7.19-82-20.23-91-23.09-16-49.3,4.95-82.47-12.05-28.58-14.64-22.35-37-49-62.8-41.1-39.76-120.68-49.37-165.88-18.2-30.49,21-19.61,42.84-50.28,62.64-46.25,29.85-90.69-5.59-131.78,18.27-19.94,11.58-42.12,39-46.81,110.65L112.14,479c-8.33-19.31-4.3-41.44,9.9-55.53,16.72-16.59,42.73-17.26,61.35-5.93a51.87,51.87,0,0,1,23.27,56.27l235.67-5.7c-2.92-15.86,2-31.85,13.42-41.37,16.8-14,42.82-9.89,57.4,4.6C529,447.1,525.67,469.67,525.26,472.13Z"/><path class="cls-13" d="M46.08,479l.1-1.47C50,419.43,66,381.83,93.68,365.73c19.86-11.54,40-9.54,61.36-7.42,22.84,2.27,46.45,4.61,70.37-10.83,15.13-9.76,19.84-19.86,24.83-30.55s10-21.43,25.41-32.06C321.09,253.54,401,262.29,443.3,303.22c12.09,11.7,17.56,22.77,22.37,32.54,5.86,11.88,10.92,22.14,26.31,30,16.62,8.51,31.16,7.31,45.22,6.15,13.23-1.09,25.73-2.13,37.42,6,18.89,13.12,25.9,44.19,20.82,92.33l-.13,1.22-71.72,2.11.28-1.69c.41-2.45,3.55-24.42-11.71-39.59-13.4-13.31-38.9-18.3-55.51-4.5-10.86,9-15.82,24.35-12.94,40l.3,1.63-239.14,5.78.42-1.78a50.2,50.2,0,0,0-22.63-54.74c-19.34-11.77-44.42-9.36-59.63,5.73-13.77,13.66-17.63,35.35-9.6,54l.87,2Zm138.05-62.66a53,53,0,0,1,24.29,56l232.25-5.62c-2.44-16.1,2.92-31.72,14.18-41.08,14.3-11.87,41-13.46,59.29,4.68,14.39,14.29,13.45,34.16,12.74,40.36l65.89-1.94c4.71-46.35-1.93-76.12-19.76-88.5-10.86-7.55-22.31-6.6-35.58-5.5-13.78,1.14-29.4,2.43-46.73-6.45-16.22-8.31-21.47-19-27.55-31.29-4.72-9.56-10.06-20.39-21.8-31.75-41.44-40.1-119.66-48.71-164.1-18.06-14.79,10.2-19.71,20.73-24.46,30.93-4.94,10.58-10,21.52-25.85,31.73-24.75,16-48.86,13.58-72.18,11.26-20.87-2.07-40.59-4-59.67,7.05C68.46,383.63,53,420,49.09,476.22L110,477.53c-7.37-19.21-3.06-41.1,11-55.08a49.64,49.64,0,0,1,35.08-14A54,54,0,0,1,184.13,416.31Z"/><rect class="cls-14" x="314.11" y="411.47" width="78.54" height="2.11" transform="translate(-60.88 763.86) rotate(-89.72)"/><path class="cls-15" d="M326.5,373.25c0-2.91,5.69-3.13,7.44-3.13s7.43.22,7.43,3.13-5.69,3.13-7.43,3.13S326.5,376.16,326.5,373.25Zm7.44-.32a16,16,0,0,0-3.35.32,17.64,17.64,0,0,0,6.69,0A15.87,15.87,0,0,0,333.94,372.93Z"/><path class="cls-15" d="M428.4,371.52c0-2.91,5.69-3.13,7.43-3.13s7.44.22,7.44,3.13-5.69,3.14-7.44,3.14S428.4,374.43,428.4,371.52Zm4.09,0a17.64,17.64,0,0,0,6.69,0A21.44,21.44,0,0,0,432.49,371.52Z"/><ellipse class="cls-16" cx="89.11" cy="384.53" rx="14.28" ry="11.6" transform="translate(-245.81 175.64) rotate(-45)"/><path class="cls-8" d="M342.21,286.13l-.75,65.69-80.75-.57a99.37,99.37,0,0,1,35.83-47.76,98.27,98.27,0,0,1,45.67-17.36m2.85-3.16-3.17.36a101.23,101.23,0,0,0-47,17.86,102.42,102.42,0,0,0-36.85,49.13L256.75,354l3.94,0,70.24.49,10.51.08h2.8l0-2.8.37-32.84.37-32.85,0-3.19Z"/><path class="cls-8" d="M362.07,286.62a93.46,93.46,0,0,1,73.32,65.21l-72.53-.26q-.39-32.47-.79-64.95m-2.85-3.37,0,3.4.39,32.48L360,351.6l0,2.78h2.77l31.21.11,41.32.15h3.8L438.09,351a96.29,96.29,0,0,0-75.53-67.18l-3.34-.59Z"/><path class="cls-17" d="M342.21,286.38a98.27,98.27,0,0,0-45.67,17.36,99.37,99.37,0,0,0-35.83,47.76l80.75.57Z"/><path class="cls-18" d="M362.07,286.62a93.46,93.46,0,0,1,73.32,65.21l-72.53-.26Q362.47,319.1,362.07,286.62Z"/><ellipse class="cls-19" cx="581.63" cy="399.79" rx="8.39" ry="16.26" transform="translate(-121.97 344.38) rotate(-30)"/></g><g id="racer"><path class="cls-20" d="M130.65,584.54c-.57-2.53-7-33.24,13.43-53.6,15.71-15.64,36.71-14.62,48.35-14.06,27.49,1.32,62.78,16.7,69.45,44.39a43.72,43.72,0,0,1,0,19.63Z"/><path class="cls-20" d="M397.44,584.39c-6.91-19-4.28-38.9,7.36-51.69,13.56-14.91,33.65-13.84,45.45-13.22,27,1.43,61.94,16.92,65.3,41.74,1.09,8.08-1.44,15.23-3.86,20.12Z"/><ellipse class="cls-21" cx="194.19" cy="571.48" rx="30.26" ry="25.13"/><path class="cls-10" d="M209.53,553.42c-6.68.36-11.81,10.38-8.22,14.32s16.36,2.69,18.71-2.57C222.12,560.44,215.47,553.11,209.53,553.42Z"/><path class="cls-8" d="M208.67,570.39c-3.41,0-6.29-.88-7.71-2.44-1.77-1.94-1.68-5.43.23-8.89,1.53-2.77,4.51-5.79,8.31-6h0c2.9-.15,6.22,1.43,8.64,4.13s3.3,5.81,2.28,8.1c-1.32,3-5.61,4.51-9.19,4.94A20.46,20.46,0,0,1,208.67,570.39Zm1.23-16.61h-.34c-3.42.19-6.16,3-7.58,5.58-1.75,3.17-1.88,6.45-.33,8.16s5.35,2.5,9.46,2c3.33-.41,7.31-1.8,8.5-4.48.92-2.06.09-4.9-2.17-7.42A10.76,10.76,0,0,0,209.9,553.78Z"/><path class="cls-10" d="M216.84,583.77c-.43-5.85-13.51-10.49-18.59-7.24-4.88,3.13-3.47,14.29,3.33,16.43C207.8,594.91,217.22,588.93,216.84,583.77Z"/><path class="cls-8" d="M204.18,593.69a9.1,9.1,0,0,1-2.75-.4c-3.8-1.19-5.75-4.93-6.31-8-.7-3.91.42-7.45,2.87-9s7-1.52,11.5.18c3.6,1.35,7.54,4,7.78,7.33h0c.19,2.54-1.86,5.45-5.34,7.58A15.21,15.21,0,0,1,204.18,593.69Zm-1.42-17.86a7.9,7.9,0,0,0-4.24,1c-2.16,1.38-3.18,4.73-2.54,8.33.52,2.9,2.31,6.38,5.76,7.47,2.7.85,6.4.13,9.67-1.87s5.16-4.69,5-7h0c-.15-2-2.14-4.79-7.28-6.73A18.69,18.69,0,0,0,202.76,575.83Z"/><path class="cls-10" d="M168.67,576.19c2.9-5.26,13.8-6.07,17.33-2.87,4.41,4-1.31,15.52-7.46,15.87C173.31,589.49,165.57,581.81,168.67,576.19Z"/><path class="cls-8" d="M178.25,589.56c-2.66,0-5.92-1.79-8.22-4.56-2.52-3-3.18-6.38-1.75-9h0c1.36-2.48,4.63-4.28,8.74-4.82,3.85-.5,7.5.23,9.3,1.86,2.56,2.32,1.76,6.67.31,9.69s-4.42,6.58-8.06,6.78Zm1.13-17.77a16.78,16.78,0,0,0-2.22.15c-3.83.5-6.85,2.14-8.09,4.4h0c-1.3,2.35-.67,5.44,1.68,8.25,2.19,2.63,5.38,4.38,7.76,4.24,2.62-.15,5.56-2.69,7.31-6.33s1.74-7.23-.14-8.93C184.44,572.44,182.05,571.79,179.38,571.79Z"/><path class="cls-10" d="M173.56,558.31c-.09,6,13.46,11.44,18.6,8.36,4.76-2.85,4.06-14.15-3-16.56C182.93,548,173.63,553.42,173.56,558.31Z"/><path class="cls-8" d="M188.25,567.92a19.51,19.51,0,0,1-7.56-1.73c-3.69-1.59-7.62-4.5-7.57-7.89,0-2.43,2.21-5.12,5.67-7s7.53-2.53,10.53-1.5c3.3,1.12,5.61,4.22,6.19,8.28.55,3.89-.69,7.46-3.1,8.91A8.13,8.13,0,0,1,188.25,567.92ZM186.1,550a14.43,14.43,0,0,0-6.83,1.89c-3.17,1.74-5.24,4.26-5.28,6.42h0c0,2.52,2.75,5.37,7.11,7.24s8.58,2.16,10.8.83,3.25-4.66,2.74-8.23c-.54-3.8-2.65-6.68-5.65-7.7A8.71,8.71,0,0,0,186.1,550Z"/><path class="cls-8" d="M194.19,547.61c15.88,0,28.75,10.69,28.75,23.87s-12.87,23.88-28.75,23.88-28.75-10.69-28.75-23.88,12.87-23.87,28.75-23.87m0-19.09c-28.52,0-51.73,19.27-51.73,43s23.21,43,51.73,43,51.73-19.27,51.73-43-23.21-43-51.73-43Z"/><path class="cls-8" d="M453.73,551.17c15.87,0,28.75,10.69,28.75,23.87s-12.88,23.88-28.75,23.88S425,588.23,425,575s12.87-23.87,28.75-23.87m0-19.09c-28.53,0-51.73,19.27-51.73,43s23.2,43,51.73,43,51.72-19.27,51.72-43-23.2-43-51.72-43Z"/><ellipse class="cls-22" cx="453.73" cy="574.63" rx="30.26" ry="25.13"/><path class="cls-10" d="M469.07,557c-6.68.36-11.81,10.38-8.23,14.32s16.37,2.69,18.71-2.57C481.65,564,475,556.67,469.07,557Z"/><path class="cls-8" d="M468.21,574c-3.41,0-6.3-.88-7.71-2.44-1.77-1.94-1.68-5.43.23-8.89,1.52-2.77,4.51-5.79,8.31-6h0c2.9-.15,6.21,1.43,8.64,4.13s3.3,5.81,2.28,8.1c-1.32,3-5.62,4.5-9.19,4.94A20.57,20.57,0,0,1,468.21,574Zm1.23-16.61h-.34c-3.42.19-6.16,3-7.58,5.58-1.75,3.17-1.88,6.45-.33,8.16s5.35,2.5,9.45,2c3.33-.41,7.31-1.8,8.5-4.48.92-2.06.09-4.91-2.16-7.42A10.76,10.76,0,0,0,469.44,557.34Z"/><path class="cls-10" d="M476.38,587.33c-.44-5.85-13.52-10.49-18.59-7.24-4.89,3.13-3.47,14.29,3.33,16.43C467.34,598.47,476.76,592.49,476.38,587.33Z"/><path class="cls-8" d="M463.72,597.25a9,9,0,0,1-2.75-.4c-3.81-1.19-5.76-4.93-6.31-8-.7-3.91.42-7.45,2.86-9s7-1.52,11.51.18c3.6,1.35,7.53,4,7.78,7.33h0c.19,2.54-1.86,5.45-5.35,7.58A15.18,15.18,0,0,1,463.72,597.25Zm-1.43-17.86a7.92,7.92,0,0,0-4.24,1c-2.16,1.38-3.18,4.73-2.53,8.33.52,2.9,2.3,6.38,5.75,7.47,2.7.85,6.41.13,9.68-1.87s5.16-4.69,5-6.95h0c-.14-2-2.13-4.79-7.27-6.73A18.74,18.74,0,0,0,462.29,579.39Z"/><path class="cls-10" d="M428.21,579.75c2.9-5.27,13.8-6.07,17.33-2.87,4.4,4-1.31,15.52-7.46,15.87C432.85,593.05,425.11,585.37,428.21,579.75Z"/><path class="cls-8" d="M437.79,593.12c-2.66,0-5.92-1.79-8.22-4.56-2.53-3-3.18-6.38-1.76-9h0c1.37-2.48,4.64-4.28,8.75-4.82,3.85-.5,7.5.23,9.3,1.86,2.55,2.32,1.76,6.67.3,9.69s-4.42,6.58-8.05,6.78Zm1.12-17.77a16.9,16.9,0,0,0-2.22.15c-3.82.5-6.84,2.14-8.09,4.4h0c-1.29,2.35-.66,5.44,1.68,8.25,2.19,2.63,5.39,4.38,7.77,4.24,2.62-.15,5.55-2.69,7.31-6.33s1.74-7.23-.15-8.93C444,576,441.59,575.35,438.91,575.35Z"/><path class="cls-10" d="M433.09,561.87c-.09,6,13.47,11.44,18.61,8.36,4.76-2.85,4.06-14.15-3-16.56C442.46,551.54,433.17,557,433.09,561.87Z"/><path class="cls-8" d="M447.78,571.48a19.5,19.5,0,0,1-7.55-1.73c-3.69-1.59-7.62-4.5-7.57-7.89,0-2.43,2.21-5.12,5.67-7s7.53-2.53,10.53-1.5c3.29,1.12,5.61,4.22,6.18,8.28.56,3.88-.69,7.46-3.09,8.91A8.17,8.17,0,0,1,447.78,571.48Zm-2.15-17.92a14.4,14.4,0,0,0-6.82,1.89c-3.17,1.74-5.25,4.26-5.28,6.42h0c0,2.52,2.75,5.37,7.1,7.24s8.59,2.16,10.81.83,3.25-4.66,2.74-8.23c-.54-3.8-2.65-6.68-5.65-7.7A8.81,8.81,0,0,0,445.63,553.56Z"/><path class="cls-23" d="M50.1,566.87l-2.28-83a168.57,168.57,0,0,1,65.67-15c32.89-.57,46.21,9.51,69.18,6.79,19.3-2.29,45.82-13.69,74.84-55.84L372.3,425.2,434,482.32a529.13,529.13,0,0,1,179.76,38.09l-25.14,61.7-76.93-.77c-.77-6.07-3.71-22.71-17.52-35.8-17.42-16.5-46.58-22-69.31-8.37-25.08,15.08-27.26,44.48-27.42,47.22l-143.93-3.14c-.62-5.87-3.58-27.28-21.36-41.8-22.55-18.41-59.85-18.33-80.35,3-15.5,16.12-15.13,37.85-14.86,43.46Z"/><path d="M137.47,586.54,49.61,567.28l-2.3-83.75.3-.14a168.49,168.49,0,0,1,65.87-15.06c16.44-.28,28,2.09,38.29,4.18s19.38,4,30.84,2.61c26.15-3.1,51.22-21.82,74.48-55.63l.16-.23.28,0,115,5.42.13.13,61.56,57A529.19,529.19,0,0,1,614,519.94l.46.19L589,582.61h-.34l-77.37-.77-.05-.43c-1-8.09-4.64-23.45-17.37-35.5-18.58-17.6-47.47-21.09-68.71-8.32-24.65,14.83-27,43.6-27.18,46.83l0,.48h-.48l-144.37-3.15,0-.44c-.84-7.95-4.58-27.9-21.19-41.46C221,531,206.18,526.16,191.22,526.55c-15.51.4-29.38,6.18-39.06,16.25-14.42,15-15.1,35.13-14.72,43.09ZM50.59,566.47l85.82,18.82c-.31-8.5.72-28.3,15-43.18,9.87-10.27,24-16.15,39.76-16.56,15.23-.4,30.27,4.53,41.28,13.51,16.59,13.55,20.55,33.35,21.49,41.7l143,3.12c.37-5,3.49-32.62,27.63-47.14,21.62-13,51-9.46,69.92,8.44,12.73,12.06,16.5,27.35,17.61,35.67l76.16.75,24.82-60.92A528.53,528.53,0,0,0,434,482.82h-.18l-.14-.13-61.56-57-114.34-5.4c-23.39,33.91-48.64,52.69-75,55.82-11.62,1.38-20.68-.47-31.17-2.62-10.19-2.08-21.74-4.44-38.06-4.16a167.37,167.37,0,0,0-65.17,14.84Z"/><path class="cls-24" d="M419.27,479.07l-49.5-47.78-108.23-5.76-45.48,46.63Z"/><ellipse class="cls-25" cx="601.19" cy="528.52" rx="7.68" ry="10.58" transform="translate(-41.19 50.91) rotate(-4.69)"/><ellipse class="cls-19" cx="52.24" cy="502.84" rx="9.34" ry="18.11"/><rect class="cls-26" x="322.04" y="494.18" width="3" height="75.81" transform="translate(-4.74 2.91) rotate(-0.51)"/><path class="cls-26" d="M339.75,497.22c-3.07,0-8.23-.4-8.23-3.08s5.16-3.07,8.23-3.07,8.22.4,8.22,3.07S342.82,497.22,339.75,497.22Zm-2.05-3.08a27.92,27.92,0,0,0,4.09,0A31,31,0,0,0,337.7,494.14Z"/><path class="cls-26" d="M229.65,492.79c-5.45,0-8.21-1-8.21-2.86s2.76-2.86,8.21-2.86,8.22,1,8.22,2.86S235.1,492.79,229.65,492.79Z"/></g><g id="Center"><rect class="cls-27" x="1631.09" y="96.04" width="269.74" height="299.04"/><rect class="cls-28" x="1327.85" y="171.84" width="303.35" height="223.16"/><rect class="cls-27" x="1060.7" y="127.85" width="267.15" height="267.15"/><polygon class="cls-29" points="1900.94 395 1923.23 345.02 1923.23 66 1900.94 95.96 1900.94 395"/><polyline class="cls-30" points="1631.2 95.96 1649.63 66 1923.23 66 1900.94 95.96"/><polygon class="cls-30" points="1327.86 171.84 1360.17 135.17 1631.2 135.17 1631.2 171.84 1327.86 171.84"/><polygon class="cls-29" points="1327.86 127.85 1327.86 171.84 1360.17 135.17 1360.17 95.96 1327.86 127.85"/><path class="cls-30" d="M1060.7,127.85h267.15L1360.17,96l-251.64-.43Z"/><rect class="cls-31" x="1372" y="198" width="228" height="54"/><rect class="cls-28" x="1056" y="260" width="276" height="19" rx="9.5"/><rect class="cls-28" x="1056" y="123" width="273" height="18" rx="9"/><path class="cls-13" d="M1150,212c-6.44,3.51-6.57,21.27,0,25,11.07,6.28,32.12-32.38,60-28,10.28,1.62,21.06,9,21,16-.06,7.28-11.93,14.79-23,16C1179.93,244.06,1160.65,206.2,1150,212Z"/><rect class="cls-32" x="1123.5" y="307.5" width="31" height="88"/><rect class="cls-33" x="1216.5" y="307.5" width="31" height="88"/><rect class="cls-34" x="1185.5" y="307.5" width="31" height="88"/><rect class="cls-35" x="1154.5" y="307.5" width="31" height="88"/><path class="cls-3" d="M1154.88,395.88h-31.76V307.12h31.76Zm-31-.76h30.24V307.88h-30.24Z"/><path class="cls-3" d="M1247.88,395.88h-31.76V307.12h31.76Zm-31-.76h30.24V307.88h-30.24Z"/><path class="cls-3" d="M1216.88,395.88h-31.76V307.12h31.76Zm-31-.76h30.24V307.88h-30.24Z"/><path class="cls-3" d="M1185.88,395.88h-31.76V307.12h31.76Zm-31-.76h30.24V307.88h-30.24Z"/><rect class="cls-36" x="1372" y="294" width="228" height="102"/><path class="cls-3" d="M1600,294V396H1372V294h228m1-1H1371V397h230V293Z"/><rect class="cls-28" x="1622" y="91" width="283" height="55" rx="12"/><circle class="cls-5" cx="1761" cy="241" r="23"/><rect class="cls-37" x="1753.75" y="222.49" width="13.84" height="37.02"/><rect class="cls-37" x="1754.64" y="222.86" width="12.72" height="37.02" transform="translate(2002.37 -1519.63) rotate(90)"/><rect class="cls-38" x="1652" y="294" width="228" height="102"/><path class="cls-3" d="M1880,294V396H1652V294h228m1-1H1651V397h230V293Z"/><path class="cls-39" d="M1472.12,219c1.8-1.23,2.22-2.32,3.54-2.31a2.55,2.55,0,0,1,2,1,5.62,5.62,0,0,1,.7,2.28,86,86,0,0,1,1,10.63c.07,2.44-.21,5.33-2.32,6.57a15.41,15.41,0,0,0-1.9,1,1.39,1.39,0,0,0-.43,1.87,47.39,47.39,0,0,0,23.53,1.09c1.29-.27,2.84-.9,2.91-2.22a3,3,0,0,0-.45-1.5c-3.51-7-8.24-13.25-12.74-19.62-5.24-7.43-8.62-15.6-9.46-15.22-.29.13,0,1.16-.83,2.7-.33.61-.87,1.4-1.17,1.3s-.09-.65-.37-1.4c-.37-1-1.29-1.76-1.63-1.6s.52,1.56,0,3c-.26.71-.66.85-4,3-2.16,1.39-2.08,1.38-3.34,2.18-1.07.68-1.81,1.19-2.66,1.82-1.78,1.32-2,1.68-2,2s0,.75,2,3a10.08,10.08,0,0,0,2,2C1468.61,221.4,1471.46,219.45,1472.12,219Z"/><path class="cls-39" d="M1488.61,242.56a47.57,47.57,0,0,1-14-2.12l-.14,0-.09-.11a1.45,1.45,0,0,1-.33-1.11,2.27,2.27,0,0,1,.83-1.47,5.2,5.2,0,0,1,1.22-.66,7.21,7.21,0,0,0,.74-.36c1.5-.88,2.16-2.82,2.07-6.12a87.19,87.19,0,0,0-.95-10.57,5.25,5.25,0,0,0-.63-2.07,2.07,2.07,0,0,0-1.63-.74c-.61,0-1,.28-1.65.92a12.57,12.57,0,0,1-1.6,1.3c-3.09,2.11-5,2-6.1,1.55-.44-.19-.94-.75-2.17-2.12-2.08-2.33-2.19-2.92-2.13-3.41s.42-1,2.2-2.33c.85-.63,1.6-1.14,2.69-1.84l1.24-.81,2.1-1.37,1.52-1c1.92-1.22,2.13-1.37,2.28-1.78a3.31,3.31,0,0,0,0-1.93c-.11-.49-.25-1.1.29-1.35a.81.81,0,0,1,.69,0,3.46,3.46,0,0,1,1.61,1.86,4,4,0,0,1,.2.75,8.13,8.13,0,0,0,.44-.7,5.58,5.58,0,0,0,.59-2c.06-.41.11-.79.47-1,.8-.35,1.36.59,3.6,4.67a113.83,113.83,0,0,0,6.48,10.72l2,2.87a132.49,132.49,0,0,1,10.74,16.81,3.61,3.61,0,0,1,.5,1.76c-.07,1.3-1.24,2.25-3.31,2.68A47.55,47.55,0,0,1,1488.61,242.56Zm-13.58-3a46.77,46.77,0,0,0,23.11,1c.73-.15,2.45-.63,2.51-1.75a2.71,2.71,0,0,0-.4-1.26,130,130,0,0,0-10.66-16.68l-2-2.87a114.24,114.24,0,0,1-6.54-10.82c-.84-1.54-1.71-3.12-2.23-3.84a6.06,6.06,0,0,1-.67,2.08c-.63,1.2-1.22,1.71-1.76,1.55s-.49-.58-.52-.9a3.6,3.6,0,0,0-.17-.8,3,3,0,0,0-.66-1,4.22,4.22,0,0,1,0,2.39c-.27.75-.64,1-2.68,2.28l-1.52,1-2.09,1.36c-.36.25-.66.45-1.25.82-1.08.69-1.8,1.18-2.63,1.8-1.55,1.15-1.78,1.5-1.8,1.67s.12.64,1.87,2.6a13,13,0,0,0,1.83,1.87c1.19.51,3,0,5.14-1.45h0a14.46,14.46,0,0,0,1.48-1.21,3.24,3.24,0,0,1,2.35-1.19,3,3,0,0,1,2.44,1.19,6,6,0,0,1,.79,2.47,87.17,87.17,0,0,1,1,10.69c.06,2.33-.13,5.59-2.57,7a8.09,8.09,0,0,1-.84.4,4.14,4.14,0,0,0-1,.54,1.19,1.19,0,0,0-.45.78A.53.53,0,0,0,1475,239.54Z"/><path class="cls-39" d="M1472.49,232.5h-7a2,2,0,0,1-2-2v-7a2,2,0,0,1,2-2h7a2,2,0,0,1,2,2v7A2,2,0,0,1,1472.49,232.5Zm-7-10a1,1,0,0,0-1,1v7a1,1,0,0,0,1,1h7a1,1,0,0,0,1-1v-7a1,1,0,0,0-1-1Z"/><rect class="cls-39" x="1468" y="217" width="2" height="5"/><path class="cls-39" d="M1470.5,222.5h-3v-6h3Zm-2-1h1v-4h-1Z"/><rect class="cls-39" x="1464" y="223.5" width="10" height="1"/></g><path class="cls-5" d="M1094.33,464.91l-.44-.89a105.48,105.48,0,0,1,29.94-9.53l.15,1A104.9,104.9,0,0,0,1094.33,464.91Z"/><rect class="cls-5" x="1520.31" y="430.44" width="1" height="19.89" transform="translate(1000.83 1935.85) rotate(-86.98)"/><path class="cls-5" d="M981,520.24l-1.86-.74A59.34,59.34,0,0,1,1006.69,489l.92,1.78A57.27,57.27,0,0,0,981,520.24Z"/><path class="cls-5" d="M929,655.91c-1.45-1.12-1.51-3-1.38-4.73a475.28,475.28,0,0,1,7-52.21l2,.37a476.45,476.45,0,0,0-6.95,52c-.09,1.18-.09,2.46.61,3Z"/><path class="cls-5" d="M920.58,826.13l-2-.13c1.35-21.26,2-42.84,1.83-64.15h2C922.56,783.19,921.94,804.82,920.58,826.13Z"/><path class="cls-5" d="M915.49,1020.34a386.37,386.37,0,0,1-.68-69l2,.16a384.22,384.22,0,0,0,.67,68.59Z"/><rect class="cls-5" x="1637.55" y="438.67" width="33.32" height="1"/><path class="cls-40" d="M218.64,61a30.24,30.24,0,0,0-12.34,2.57c-1.88-9.31-12.58-16.45-25.51-16.45-9.9,0-18.48,4.18-22.82,10.32a43.93,43.93,0,0,0-19.05-4.1c-17,0-30.87,8.59-31.34,19.3-1.38-.1-2.79-.16-4.23-.16C86,72.43,72,80.35,72,90.13c0,9,11.87,16.4,27.24,17.54,3.3,4.34,10.32,7.33,18.45,7.33,9.72,0,17.85-4.28,19.93-10a61.35,61.35,0,0,0,7.41.44,60.19,60.19,0,0,0,11.53-1.09c3.94,6.2,14.84,10.66,27.67,10.66,15.53,0,28.23-6.53,29.18-14.79a30.93,30.93,0,0,0,5.23.44c13.83,0,25.05-8.89,25.05-19.85S232.47,61,218.64,61Z"/><path class="cls-40" d="M378.45,95.5A41.81,41.81,0,0,0,365,97.62C363,90,351.35,84.07,337.29,84.07c-10.76,0-20.09,3.44-24.81,8.49a61.1,61.1,0,0,0-20.72-3.37c-18.51,0-33.56,7.08-34.07,15.89-1.5-.08-3-.13-4.6-.13-18.83,0-34.09,6.52-34.09,14.57,0,7.4,12.91,13.51,29.62,14.44,3.59,3.57,11.23,6,20.07,6,10.56,0,19.4-3.52,21.67-8.24,2.58.23,5.28.36,8.05.36a85.41,85.41,0,0,0,12.54-.9c4.29,5.11,16.13,8.78,30.08,8.78,16.89,0,30.7-5.38,31.74-12.17a45.59,45.59,0,0,0,5.68.35c15,0,27.24-7.31,27.24-16.34S393.49,95.5,378.45,95.5Z"/></svg>