<svg xmlns="http://www.w3.org/2000/svg" viewBox="0 0 189.3 261.4"><defs><style>.cls-1{fill:#1d1d1b;}.cls-2{fill:#b4331a;}.cls-3{fill:#fbcea4;}.cls-4{fill:#a3897a;}.cls-5{fill:#868686;}.cls-6{fill:#fff;}.cls-7{fill:#683b11;}.cls-8{fill:#bd1622;}.cls-9{fill:#6f1512;}.cls-10{fill:#c94c3f;}.cls-11{fill:#fff190;}.cls-12{fill:#b17f49;}.cls-13{fill:#e20613;}.cls-14{fill:#ffec00;}.cls-15{fill:#009540;}.cls-16{fill:#009ee2;}.cls-17{fill:#7a6a58;}</style></defs><g id="Layer_2" data-name="Layer 2"><g id="Layer_1-2" data-name="Layer 1"><path class="cls-1" d="M99.92,246.7C74,246.7,53,222.25,53,192.19a62.36,62.36,0,0,1,2.61-17.92L20.47,158.22a7.85,7.85,0,0,1-3.86-10.37A7.12,7.12,0,0,1,19.55,144c3.46-2.14,7.28-.12,7.44,0L62,160c8.83-14,23-22.32,37.88-22.32a42.43,42.43,0,0,1,28,10.76l32.69-18.88a7.78,7.78,0,0,1,10.61,2.84h0A7.79,7.79,0,0,1,168.38,143L138.1,160.51a60.29,60.29,0,0,1,8.75,31.68C146.85,222.25,125.79,246.7,99.92,246.7ZM23.09,143.55a6.14,6.14,0,0,0-3.27.91A6.63,6.63,0,0,0,17.07,148a7.29,7.29,0,0,0-.2,5.63,7.21,7.21,0,0,0,3.81,4.1L56.19,174l-.06.21a61.79,61.79,0,0,0-2.65,18c0,29.78,20.83,54,46.44,54s46.43-24.23,46.43-54a59.76,59.76,0,0,0-8.81-31.64l-.14-.22,30.73-17.74a7.28,7.28,0,0,0,2.66-9.93h0a7.28,7.28,0,0,0-9.93-2.66l-33,19.06-.14-.12a42,42,0,0,0-27.8-10.75c-14.8,0-28.84,8.32-37.57,22.27l-.12.19-.2-.09L26.77,144.44A8.44,8.44,0,0,0,23.09,143.55Z"/><path class="cls-2" d="M77,153.62q3.3,10.49,6.61,21c-4.66,4.42-11,8.76-18,8.09-5.88-.55-8.36-4.24-11.17-3-5,2.31-3.95,17.26-.61,28,2,6.39,7.12,18.75,21.69,30.35a9.89,9.89,0,0,1,2,2.37c4.65,7.12.14,15.52,3,17.15,1.17.67,2.21-.59,5.88-1.5a23.39,23.39,0,0,1,9.64-.25l.93-9.2a41.81,41.81,0,0,0,7.14-.55c4.79-.5,9.81-1.1,13.71-3.9a16.76,16.76,0,0,1,1.3,2.12,18.4,18.4,0,0,1,2,7.19A22.31,22.31,0,0,1,136,248.05c-.11-3.73-.36-7.64-.79-11.7-.16-1.56-.34-3.09-.54-4.58,3.17-2.29,4.69-6.42,6.26-10a87.93,87.93,0,0,0,7.37-34.38,46.78,46.78,0,0,0-1.73-14.19,24.18,24.18,0,0,0-7.67-11.87c-4.39,2.47-8.39,5-13.11,6.77l-3.62-10.79c0-.06-2.4-7.14-2.42-7.21a20,20,0,0,0-4,1.54l-4.78,2.7a80.24,80.24,0,0,1,1,10.5,39.46,39.46,0,0,0-17,1.8,38,38,0,0,1-4.33-7.18c-.63-1.36-.73-1.78-1.08-2.35C88.37,155.16,85.3,153.25,77,153.62Z"/><path class="cls-3" d="M152.08,75.5c-2.26-7.76-7-13.19-10.68-12.13a4,4,0,0,0-2.3,1.94c-10-14.48-26.31-23.9-44.71-23.9-30.49,0-55.2,25.85-55.2,57.73a60.81,60.81,0,0,0,.62,8.7,4.42,4.42,0,0,0-3.71-.07c-3.37,1.74-3.11,9,.6,16.15s9.44,11.59,12.81,9.85a3.74,3.74,0,0,0,.49-.32c10.06,14.2,26.19,23.41,44.39,23.41,30.49,0,55.2-25.84,55.2-57.72a61.4,61.4,0,0,0-.49-7.6,2.57,2.57,0,0,0,.47-.08C153.21,90.4,154.33,83.25,152.08,75.5Z"/><path class="cls-4" d="M94.39,157.11A55,55,0,0,1,49.94,133.8a2,2,0,0,1-.32.2c-1.72.88-4,.31-6.55-1.61a25.38,25.38,0,0,1-6.6-8.35c-3.76-7.3-4-14.69-.49-16.49a4.46,4.46,0,0,1,3.53-.09,60.89,60.89,0,0,1-.57-8.32c0-32,24.87-58,55.45-58a54.91,54.91,0,0,1,44.71,23.7,4,4,0,0,1,2.23-1.73c1.86-.54,4,.46,6.11,2.83a25.12,25.12,0,0,1,4.88,9.47,25.24,25.24,0,0,1,1,10.6c-.49,3.12-1.78,5.13-3.64,5.67l-.26.06a60.41,60.41,0,0,1,.46,7.38C149.84,131.11,125,157.11,94.39,157.11Zm-44.34-24,.15.21a54.47,54.47,0,0,0,44.19,23.31c30.3,0,55-25.78,55-57.47a59.66,59.66,0,0,0-.49-7.56l0-.25.32,0,.36-.07c1.66-.48,2.83-2.35,3.29-5.27a24.7,24.7,0,0,0-.95-10.38,24.83,24.83,0,0,0-4.77-9.28c-1.95-2.21-3.94-3.17-5.6-2.68a3.81,3.81,0,0,0-2.15,1.82l-.2.34-.22-.32A54.43,54.43,0,0,0,94.39,41.66c-30.3,0-54.95,25.79-54.95,57.48a61.09,61.09,0,0,0,.62,8.66l.06.43-.4-.16a4.19,4.19,0,0,0-3.51-.08c-3.24,1.68-2.92,8.77.71,15.82A24.68,24.68,0,0,0,43.38,132c2.34,1.8,4.47,2.36,6,1.56a3.06,3.06,0,0,0,.46-.3Z"/><ellipse class="cls-5" cx="64.47" cy="9.84" rx="12.37" ry="3.87" transform="translate(14.99 52.33) rotate(-49.34)"/><path class="cls-1" d="M57.45,19.68a1.66,1.66,0,0,1-1.12-.36c-1.7-1.46.55-6.77,5.11-12.08S70.91-1.09,72.61.37s-.55,6.76-5.11,12.07h0C63.71,16.85,59.68,19.68,57.45,19.68ZM71.46.24c-2.11,0-6.13,2.86-9.83,7.16-4.4,5.12-6.71,10.38-5.14,11.73s6.42-1.73,10.82-6.85h0C71.7,7.16,74,1.9,72.44.56A1.41,1.41,0,0,0,71.46.24Z"/><ellipse class="cls-5" cx="46.17" cy="26.34" rx="12.37" ry="3.87" transform="translate(-6.12 35.89) rotate(-40.06)"/><path class="cls-1" d="M38.17,35a2,2,0,0,1-1.57-.58c-1.44-1.71,1.64-6.59,7-11.09a30,30,0,0,1,7.45-4.78c2.32-1,4-1,4.68-.21,1.44,1.72-1.63,6.59-7,11.1h0C44.61,32.87,40.5,35,38.17,35Zm16-17a8.23,8.23,0,0,0-3,.76,30.31,30.31,0,0,0-7.39,4.74c-5.17,4.34-8.29,9.16-7,10.74s6.61-.67,11.77-5h0c5.17-4.34,8.29-9.16,7-10.74A1.74,1.74,0,0,0,54.17,18Z"/><rect class="cls-1" x="56.76" y="18.11" width="1" height="9.86" transform="translate(-4.39 20.15) rotate(-19.24)"/><path class="cls-1" d="M112.41,102.08a6.71,6.71,0,0,1-3.33-1,1.11,1.11,0,0,1-.52-1.11.65.65,0,0,1,.63-.48l0,1a.36.36,0,0,0,.26-.14.35.35,0,0,0,.07-.22.18.18,0,0,0,.06.09c1.49.91,3.49,1.32,4.6.2a2.94,2.94,0,0,0,.73-1.51,4.72,4.72,0,0,0-6.62-5.21l-.42-.9a5.71,5.71,0,0,1,8,6.31,4,4,0,0,1-1,2A3.4,3.4,0,0,1,112.41,102.08Z"/><path class="cls-1" d="M62.91,98l-.84-.54c1.71-2.67,4.92-3.84,7.79-4.73,4.45-1.38,9-2.6,13.57-3.62l.22,1c-4.52,1-9.07,2.23-13.5,3.6C67.45,94.47,64.44,95.57,62.91,98Z"/><path class="cls-1" d="M112.89,76.71c-.1-1.47,1-2.65,2-3.51a42.88,42.88,0,0,1,14.77-8.57l.32,1a42,42,0,0,0-14.43,8.36c-.8.72-1.71,1.67-1.64,2.7Z"/><ellipse class="cls-6" cx="125.94" cy="78.82" rx="8.4" ry="6.91" transform="translate(-21.83 94.24) rotate(-38)"/><path class="cls-1" d="M124.47,86.82a6.87,6.87,0,0,1-5.54-2.53c-2.52-3.22-1.42-8.29,2.45-11.31a9.85,9.85,0,0,1,6-2.17h.21A6.8,6.8,0,0,1,133,73.34c2.51,3.22,1.41,8.29-2.45,11.31h0A9.88,9.88,0,0,1,124.47,86.82Zm2.94-15a8.89,8.89,0,0,0-5.42,2c-3.43,2.68-4.45,7.12-2.28,9.91s6.74,2.86,10.17.18h0c3.43-2.68,4.46-7.12,2.28-9.91a5.83,5.83,0,0,0-4.56-2.14Z"/><ellipse class="cls-6" cx="80.14" cy="99.74" rx="9.09" ry="6.98"/><path class="cls-1" d="M80.14,107.22c-5.29,0-9.59-3.35-9.59-7.48s4.3-7.47,9.59-7.47,9.59,3.35,9.59,7.47S85.43,107.22,80.14,107.22Zm0-14c-4.73,0-8.59,2.9-8.59,6.47s3.86,6.48,8.59,6.48,8.59-2.91,8.59-6.48S84.88,93.27,80.14,93.27Z"/><ellipse class="cls-1" cx="84.44" cy="99.14" rx="4.79" ry="5.6"/><ellipse class="cls-1" cx="129.8" cy="76.71" rx="4.37" ry="5.05" transform="translate(-18.03 47.04) rotate(-19.24)"/><path class="cls-7" d="M129.62,93a.25.25,0,0,0,0-.5.25.25,0,0,0,0,.5Z"/><path class="cls-7" d="M130.17,90.89a.25.25,0,0,0,0-.5.25.25,0,0,0,0,.5Z"/><path class="cls-7" d="M130.58,89.25a.25.25,0,0,0,0-.5.25.25,0,0,0,0,.5Z"/><path class="cls-7" d="M135.8,92.13a.25.25,0,0,0,0-.5.25.25,0,0,0,0,.5Z"/><path class="cls-7" d="M133.33,90.35a.25.25,0,0,0,0-.5.25.25,0,0,0,0,.5Z"/><path class="cls-7" d="M134.15,87.19a.25.25,0,0,0,0-.5.25.25,0,0,0,0,.5Z"/><path class="cls-7" d="M131.68,86.23a.25.25,0,0,0,0-.5.25.25,0,0,0,0,.5Z"/><path class="cls-7" d="M128.52,90.76a.25.25,0,0,0,0-.5.25.25,0,0,0,0,.5Z"/><path class="cls-7" d="M125.23,92.27a.25.25,0,0,0,0-.5.25.25,0,0,0,0,.5Z"/><path class="cls-7" d="M124.41,90.48a.25.25,0,0,0,0-.5.25.25,0,0,0,0,.5Z"/><path class="cls-7" d="M125.37,94.88a.25.25,0,0,0,0-.5.25.25,0,0,0,0,.5Z"/><path class="cls-7" d="M130.17,92.82a.25.25,0,0,0,0-.5.25.25,0,0,0,0,.5Z"/><path class="cls-7" d="M134.7,93.91a.25.25,0,0,0,0-.5.25.25,0,0,0,0,.5Z"/><path class="cls-7" d="M137.72,93a.25.25,0,0,0,0-.5.25.25,0,0,0,0,.5Z"/><path class="cls-7" d="M134.84,90.21a.25.25,0,0,0,0-.5.25.25,0,0,0,0,.5Z"/><path class="cls-7" d="M137.58,88a.25.25,0,0,0,0-.5.25.25,0,0,0,0,.5Z"/><path class="cls-7" d="M137.17,86.36a.25.25,0,0,0,0-.5.25.25,0,0,0,0,.5Z"/><path class="cls-7" d="M131.41,95.7a.25.25,0,0,0,0-.5.25.25,0,0,0,0,.5Z"/><path class="cls-7" d="M80.48,112.17a.25.25,0,0,0,0-.5.25.25,0,0,0,0,.5Z"/><path class="cls-7" d="M84.19,112h.27a.12.12,0,0,0,.1,0,.18.18,0,0,0,.08-.05.22.22,0,0,0,0-.08.3.3,0,0,0,0-.1v-.06a.24.24,0,0,0-.06-.11.25.25,0,0,0-.18-.08h-.27a.17.17,0,0,0-.1,0,.21.21,0,0,0-.13.13.1.1,0,0,0,0,.09v.07A.41.41,0,0,0,84,112a.24.24,0,0,0,.18.07Z"/><path class="cls-7" d="M87,111l.14-.27a.29.29,0,0,0,0-.1.38.38,0,0,0,0-.1.2.2,0,0,0,0-.08.23.23,0,0,0-.07-.07.27.27,0,0,0-.2,0,.2.2,0,0,0-.14.11l-.14.28a.16.16,0,0,0,0,.09.17.17,0,0,0,0,.1.41.41,0,0,0,0,.09.24.24,0,0,0,.26.08A.21.21,0,0,0,87,111Z"/><path class="cls-7" d="M86.24,109a.25.25,0,0,0,0-.5.25.25,0,0,0,0,.5Z"/><path class="cls-7" d="M79.24,110a.25.25,0,0,0,0-.5.25.25,0,0,0,0,.5Z"/><path class="cls-7" d="M76,110.94a.25.25,0,0,0,0-.5.25.25,0,0,0,0,.5Z"/><path class="cls-7" d="M75.26,115.05a.25.25,0,0,0,0-.5.25.25,0,0,0,0,.5Z"/><path class="cls-7" d="M79.24,114.64a.25.25,0,0,0,0-.5.25.25,0,0,0,0,.5Z"/><path class="cls-7" d="M89.26,113.54a.25.25,0,0,0,0-.5.25.25,0,0,0,0,.5Z"/><path class="cls-7" d="M89.13,111.76a.25.25,0,0,0,0-.5.25.25,0,0,0,0,.5Z"/><path class="cls-7" d="M86,114.64a.25.25,0,0,0,0-.5.25.25,0,0,0,0,.5Z"/><path class="cls-7" d="M85,116.56a.25.25,0,0,0,0-.5.25.25,0,0,0,0,.5Z"/><path class="cls-7" d="M90.23,117a.25.25,0,0,0,0-.5.25.25,0,0,0,0,.5Z"/><path class="cls-7" d="M84.32,110.52a.25.25,0,0,0,0-.5.25.25,0,0,0,0,.5Z"/><path class="cls-7" d="M80.48,111.9a.25.25,0,0,0,0-.5.25.25,0,0,0,0,.5Z"/><path class="cls-7" d="M83,115.47a.25.25,0,0,0,0-.5.25.25,0,0,0,0,.5Z"/><path class="cls-7" d="M77.73,115.47a.25.25,0,0,0,0-.5.25.25,0,0,0,0,.5Z"/><path class="cls-7" d="M77.87,112a.25.25,0,0,0,0-.5.25.25,0,0,0,0,.5Z"/><path class="cls-7" d="M83.5,116.56a.25.25,0,0,0,0-.5.25.25,0,0,0,0,.5Z"/><path class="cls-7" d="M83.36,113.82a.25.25,0,0,0,0-.5.25.25,0,0,0,0,.5Z"/><path class="cls-7" d="M87.34,113.41a.25.25,0,0,0,0-.5.25.25,0,0,0,0,.5Z"/><path class="cls-7" d="M88.85,111.49a.25.25,0,0,0,0-.5.25.25,0,0,0,0,.5Z"/><path class="cls-7" d="M92.28,114.64a.25.25,0,0,0,0-.5.25.25,0,0,0,0,.5Z"/><path class="cls-7" d="M83.09,118.62a.25.25,0,0,0,0-.5.25.25,0,0,0,0,.5Z"/><path class="cls-7" d="M77,114.08l-.14-.14-.08,0a.15.15,0,0,0-.09,0,.16.16,0,0,0-.1,0l-.08,0,0,0a.28.28,0,0,0,0,.13v.06a.3.3,0,0,0,.07.11l.14.14a.14.14,0,0,0,.08,0,.16.16,0,0,0,.09,0,.17.17,0,0,0,.1,0,.14.14,0,0,0,.08,0l0-.05a.27.27,0,0,0,0-.12v-.07a.24.24,0,0,0-.06-.11Z"/><path class="cls-7" d="M73.07,110.52a.25.25,0,0,0,0-.5.25.25,0,0,0,0,.5Z"/><path class="cls-8" d="M111.91,134.87c-10.22,0-19.71-7.72-22-10.94-.44-.64-.61-1.11-.51-1.4s.55-.33.69-.33a16.38,16.38,0,0,1,3.29.73,44.16,44.16,0,0,0,11.94,2,22.94,22.94,0,0,0,10.09-2.21c7.7-3.75,11.22-11.41,13.11-15.52.91-2,1.41-3.06,2-3.06h0l.12,0c.67.25,1,2.28,1.08,4.1.3,6.47-1.85,20-12.16,24.9A17.62,17.62,0,0,1,111.91,134.87Z"/><path class="cls-1" d="M130.53,104.27l.1,0c1.91.7,2.54,22.29-11.09,28.77a17.53,17.53,0,0,1-7.63,1.68c-11.77,0-23-10.52-22.34-12.17.07-.17.26-.25.57-.25,1.89,0,8,2.74,15.23,2.74a22.92,22.92,0,0,0,10.14-2.22c11.07-5.38,13.45-18.57,15-18.57m0-.25h0c-.63,0-1.11,1-2.07,3.14-1.88,4.1-5.39,11.72-13.06,15.46a22.77,22.77,0,0,1-10,2.19,44,44,0,0,1-11.9-2,16.12,16.12,0,0,0-3.33-.74c-.43,0-.7.14-.8.41s0,.84.52,1.53c2.25,3.23,11.79,11,22,11a17.88,17.88,0,0,0,7.74-1.7c10.37-4.94,12.53-18.53,12.22-25-.05-1.16-.27-3.89-1.16-4.21a.39.39,0,0,0-.18,0Z"/><path class="cls-9" d="M130.37,106a29.4,29.4,0,0,1-.69,11.4c-1.23,5-4.05,11.61-10.57,14.72a16.63,16.63,0,0,1-7.2,1.58c-9.82,0-18.91-7.46-21-10.29.58.12,1.34.34,2.17.57a45.45,45.45,0,0,0,12.24,2A23.94,23.94,0,0,0,116,123.74c8.07-3.93,11.7-11.82,13.64-16.06.26-.56.54-1.17.78-1.64m.16-1.77c-1.57,0-4,13.19-15,18.57a22.92,22.92,0,0,1-10.14,2.22c-7.19,0-13.34-2.74-15.23-2.74-.31,0-.5.08-.57.25-.61,1.65,10.57,12.17,22.34,12.17a17.53,17.53,0,0,0,7.63-1.68c13.63-6.48,13-28.07,11.09-28.77l-.1,0Z"/><ellipse class="cls-10" cx="117.31" cy="128.32" rx="7.21" ry="3.07" transform="translate(-41.92 58.5) rotate(-23.89)"/><rect class="cls-6" x="117.97" y="121.2" width="2.66" height="2.86" rx="0.61" transform="translate(-39.44 58.82) rotate(-23.89)"/><path class="cls-1" d="M119,124.38a.7.7,0,0,1-.65-.42l-.67-1.5a.7.7,0,0,1,0-.55.74.74,0,0,1,.37-.39l1.32-.58a.71.71,0,0,1,.94.36l.66,1.5a.71.71,0,0,1-.36.94l-1.32.58A.71.71,0,0,1,119,124.38Zm.65-3.3a.52.52,0,0,0-.21,0l-1.32.58a.55.55,0,0,0-.27.29.58.58,0,0,0,0,.39l.67,1.5a.5.5,0,0,0,.28.27.52.52,0,0,0,.39,0l1.32-.58a.52.52,0,0,0,.26-.68l-.67-1.5A.5.5,0,0,0,119.63,121.08Z"/><rect class="cls-6" x="123.14" y="125.61" width="2.66" height="2.86" rx="0.63" transform="translate(-53.05 116.16) rotate(-42.08)"/><path class="cls-1" d="M124.49,128.84a.71.71,0,0,1-.54-.24l-1.08-1.19a.73.73,0,0,1,0-1l1-.94a.75.75,0,0,1,.53-.19.74.74,0,0,1,.5.24l1.08,1.19a.73.73,0,0,1,0,1l-1,.94A.72.72,0,0,1,124.49,128.84Zm0-3.39a.52.52,0,0,0-.35.14l-1,.94a.51.51,0,0,0,0,.74l1.07,1.2a.55.55,0,0,0,.75,0l1-.95a.51.51,0,0,0,0-.74l-1.07-1.2a.58.58,0,0,0-.37-.17Z"/><rect class="cls-6" x="115.61" y="122.78" width="2.66" height="2.86" rx="0.56" transform="translate(-40.29 58) rotate(-23.89)"/><path class="cls-1" d="M116.59,126a.69.69,0,0,1-.24,0,.63.63,0,0,1-.36-.34l-.71-1.61a.66.66,0,0,1,0-.5.65.65,0,0,1,.35-.36l1.41-.63a.66.66,0,0,1,.87.34l.71,1.6a.65.65,0,0,1-.34.86l-1.41.63A.66.66,0,0,1,116.59,126Zm.71-3.34a.63.63,0,0,0-.19,0l-1.41.63a.44.44,0,0,0-.24.26.45.45,0,0,0,0,.34l.71,1.61a.47.47,0,0,0,.26.24.45.45,0,0,0,.34,0l1.42-.63a.46.46,0,0,0,.24-.6l-.71-1.6A.47.47,0,0,0,117.3,122.65Z"/><rect class="cls-6" x="115.36" y="130.57" width="2.66" height="2.86" rx="0.63" transform="translate(-20.83 21.86) rotate(-9.83)"/><path class="cls-1" d="M116.14,133.64a.73.73,0,0,1-.42-.14.75.75,0,0,1-.3-.47l-.27-1.58a.74.74,0,0,1,.12-.54.71.71,0,0,1,.48-.3l1.38-.24a.74.74,0,0,1,.54.12.71.71,0,0,1,.3.47l.27,1.58a.74.74,0,0,1-.59.85l-1.38.24Zm1.11-3.08h-.09l-1.38.24a.56.56,0,0,0-.35.21.52.52,0,0,0-.08.4l.27,1.58a.49.49,0,0,0,.22.34.54.54,0,0,0,.39.09l1.38-.24A.51.51,0,0,0,118,133a.53.53,0,0,0,.09-.39l-.28-1.58a.49.49,0,0,0-.22-.34A.47.47,0,0,0,117.25,130.56Z"/><ellipse class="cls-1" cx="91.25" cy="257.76" rx="12.41" ry="3.64"/><ellipse class="cls-1" cx="131.65" cy="253.12" rx="11.89" ry="5.11" transform="translate(-21.5 12.4) rotate(-4.99)"/><path class="cls-3" d="M23.58,144.32c-.41-.49-1.45-.91-3.54-1.73-.8-.32-1.43-.57-1.94-.75-.08-.19-.17-.38-.26-.57a8.82,8.82,0,0,0-1.24-1.78,5,5,0,0,0,.74-3c-.1-2.14-1.27-3.83-2.62-3.77s-2.38,1.84-2.29,4a3.41,3.41,0,0,0,.05.46,5.42,5.42,0,0,0-3.33.52h0a10.57,10.57,0,0,0-1.89-2.1c-2.06-1.76-4.31-2.52-5-1.68s.33,2.87,2.31,4.62c-2.12-.38-3.95.08-4.17,1.08s1,2,2.85,2.55c-1.72.13-3,.75-3.06,1.58-.07,1,1.78,2,4.14,2.16a8.47,8.47,0,0,0,1.91-.08,5.53,5.53,0,0,0-1.1.34c-1.54.63-2.53,1.75-2.22,2.51s1.81.85,3.34.22A5,5,0,0,0,7.72,148a7,7,0,0,0,5.59,3,10.63,10.63,0,0,1,1.62,1c2.4,1.86,2.34,3.35,3.53,3.46C21.4,155.76,25.83,147.05,23.58,144.32Zm-17,1.48h0l-.32,0Z"/><path class="cls-4" d="M18.6,155.62h-.15c-.66-.06-1-.51-1.41-1.13a9.57,9.57,0,0,0-2.19-2.35,9.2,9.2,0,0,0-1.57-1h0a7.11,7.11,0,0,1-5.53-3,5.28,5.28,0,0,1-1.46.87c-1.62.67-3.16.55-3.5-.29s.65-2,2.26-2.66l-.75,0C1.8,145.91-.07,144.9,0,143.78c.06-.8,1.07-1.42,2.63-1.64C1,141.5,0,140.51.22,139.62s1.85-1.5,3.9-1.24c-1.85-1.74-2.73-3.68-2-4.51.39-.45,1.15-.51,2.15-.17a9.47,9.47,0,0,1,3.06,1.84,10.23,10.23,0,0,1,1.85,2,5.51,5.51,0,0,1,3.17-.51l0-.31a5.39,5.39,0,0,1,.62-2.84,2.23,2.23,0,0,1,1.79-1.27h.07c1.39,0,2.59,1.72,2.68,3.89a5.21,5.21,0,0,1-.7,2.95A8.78,8.78,0,0,1,18,141.22c.09.18.18.37.24.52.5.18,1.08.41,1.9.73,2.1.83,3.16,1.25,3.58,1.77,1.28,1.55.49,4.82-.85,7.37C21.82,153.49,20.14,155.62,18.6,155.62Zm-5.26-4.74h0a10.26,10.26,0,0,1,1.64,1,10.06,10.06,0,0,1,2.25,2.41c.42.61.68,1,1.22,1,1.17.1,2.84-1.44,4.12-3.87s2.09-5.64.89-7.09h0c-.39-.47-1.42-.88-3.48-1.69-.85-.34-1.44-.58-1.95-.76H18l0-.05a4.44,4.44,0,0,0-.26-.56,7.59,7.59,0,0,0-1.21-1.75l-.07-.08.06-.08a4.85,4.85,0,0,0,.71-2.88c-.09-2-1.17-3.65-2.43-3.65h-.06A2,2,0,0,0,13.14,134a5.14,5.14,0,0,0-.59,2.71l0,.32,0,.29-.16,0a5.24,5.24,0,0,0-3.26.5l-.1,0L9,137.8a10.22,10.22,0,0,0-1.87-2.07,9.37,9.37,0,0,0-3-1.8c-.88-.29-1.57-.26-1.88.1-.65.76.38,2.76,2.3,4.45l.34.29-.44-.08c-2.06-.37-3.83.07-4,1s1,1.84,2.75,2.4l.62.2-.64.05c-1.69.13-2.9.73-2.95,1.46-.06,1,1.78,1.88,4,2a9.15,9.15,0,0,0,1.89-.08l0,.25a5.24,5.24,0,0,0-1.07.32c-1.45.6-2.43,1.67-2.15,2.35s1.74.75,3.18.15a5.07,5.07,0,0,0,1.48-.91l.1-.09.09.11a6.91,6.91,0,0,0,5.41,3h.1ZM6.26,146l0-.25.11,0,.2,0,.12,0,.06.25-.14,0-.2,0h0Z"/><path class="cls-3" d="M163.74,129c.44-.5,1.57-.91,3.83-1.73.87-.32,1.55-.57,2.11-.75.09-.19.18-.38.29-.57a8.15,8.15,0,0,1,1.34-1.78,4.61,4.61,0,0,1-.8-3c.1-2.14,1.37-3.83,2.84-3.77s2.58,1.84,2.48,4a3.41,3.41,0,0,1-.05.46,6.4,6.4,0,0,1,3.61.51l0,0a10.86,10.86,0,0,1,2.05-2.1c2.23-1.77,4.68-2.52,5.46-1.68s-.35,2.87-2.51,4.62c2.3-.38,4.29.08,4.52,1.08s-1.12,2-3.08,2.55c1.86.13,3.26.75,3.32,1.58.07,1-1.94,2-4.49,2.16a10,10,0,0,1-2.08-.08,6.4,6.4,0,0,1,1.2.34c1.66.63,2.74,1.75,2.4,2.51s-2,.85-3.62.22a5.72,5.72,0,0,1-1.65-.94,7.86,7.86,0,0,1-6.06,3,10.57,10.57,0,0,0-1.76,1c-2.61,1.86-2.54,3.35-3.83,3.46C166.1,140.42,161.29,131.71,163.74,129Zm18.46,1.48h0l.34,0Z"/><path class="cls-4" d="M169.14,140.28c-1.78,0-3.81-2.44-5-4.77s-1.84-5.15-.52-6.62h0c.46-.51,1.6-.93,3.88-1.76.8-.29,1.49-.55,2.06-.74.08-.16.17-.34.27-.52a8.33,8.33,0,0,1,1.28-1.73,4.93,4.93,0,0,1-.76-3c.1-2.17,1.4-3.89,2.9-3.89h.08a2.22,2.22,0,0,1,1.56.78,4.68,4.68,0,0,1,1,3.33l0,.31a6.36,6.36,0,0,1,3.45.51,11.34,11.34,0,0,1,2-2c2.32-1.83,4.79-2.57,5.63-1.66a1.08,1.08,0,0,1,.27.88c-.07,1-1,2.38-2.45,3.63,2.21-.27,4,.24,4.23,1.24s-.85,1.88-2.61,2.52c1.69.22,2.78.84,2.84,1.63a1.12,1.12,0,0,1-.32.82c-.68.78-2.36,1.36-4.28,1.48l-.83,0a4.21,4.21,0,0,1,2.43,1.89.93.93,0,0,1,0,.78c-.37.82-2,1-3.78.28a6.2,6.2,0,0,1-1.59-.87,7.9,7.9,0,0,1-6,3h0a10.68,10.68,0,0,0-1.72,1,10.33,10.33,0,0,0-2.37,2.35c-.47.62-.82,1.07-1.52,1.13Zm-5.31-11.22h0c-1,1.13-.79,3.62.56,6.34,1.17,2.34,3.15,4.63,4.75,4.63h.14c.59-.05.87-.42,1.34-1a10.06,10.06,0,0,1,2.43-2.4,11,11,0,0,1,1.78-1H175a7.69,7.69,0,0,0,5.89-3l.08-.1.1.08a5.34,5.34,0,0,0,1.61.92c1.57.6,3.16.53,3.46-.16a.7.7,0,0,0,0-.58,4.1,4.1,0,0,0-2.31-1.76,7,7,0,0,0-1.17-.32l0-.25a10.76,10.76,0,0,0,2.05.08c1.83-.11,3.48-.67,4.11-1.39a.85.85,0,0,0,.26-.64c-.05-.73-1.37-1.33-3.2-1.47l-.7,0,.67-.19c1.9-.55,3.19-1.58,3-2.4s-2.14-1.36-4.37-1l-.47.08.37-.3c1.57-1.27,2.62-2.74,2.69-3.74a.86.86,0,0,0-.2-.69c-.73-.78-3.15,0-5.29,1.69a11,11,0,0,0-2,2.07l-.06.09-.09,0a6.28,6.28,0,0,0-3.57-.52l-.16,0,0-.29a3.11,3.11,0,0,0,0-.32,4.43,4.43,0,0,0-1-3.16,2,2,0,0,0-1.38-.69c-1.39,0-2.62,1.58-2.72,3.65a4.64,4.64,0,0,0,.78,2.88l.06.08-.08.08a8,8,0,0,0-1.31,1.75,4.87,4.87,0,0,0-.28.56l0,0h-.05c-.57.19-1.28.45-2.11.75C165.38,128.18,164.25,128.59,163.83,129.06Zm18.69,1.58-.08,0h0l-.21,0-.14,0,0-.18,0-.08.1,0,.22,0,.11,0Z"/><path class="cls-11" d="M34.15,75.8a20.48,20.48,0,0,0-3.5,18.77,21.07,21.07,0,0,0,8.1,10.76c8.43,6.12,18.14,4.36,20.13,4A114.12,114.12,0,0,0,57.58,97c-.59-3.69-1.33-7.11-2.13-10.23a17.53,17.53,0,0,0,7.28-7.56,80.41,80.41,0,0,0,31.75-.31c9.25-2,17.26-6.57,33.29-15.8,5.46-3.14,10.46-6.34,10.76-11,.25-3.75-2.64-6.86-3.95-8.28a18.73,18.73,0,0,0-9.17-5.21c-3.39-.91-9.76-1.9-26.79,3.08A183.57,183.57,0,0,0,68.41,53.9c-4.56,2.35-7.5,4.17-8.17,4.59-6.4,4-7.61,5.68-13.42,9.56C37.76,74.1,36.91,72.49,34.15,75.8Z"/><path class="cls-12" d="M53.27,110.09a24.75,24.75,0,0,1-14.67-4.55,21.35,21.35,0,0,1-8.19-10.9,20.63,20.63,0,0,1,3.55-19,9.41,9.41,0,0,1,4.14-3,53.82,53.82,0,0,0,8.58-4.85c2.56-1.71,4.23-3,5.84-4.25a80.88,80.88,0,0,1,7.59-5.32c1-.65,4-2.42,8.19-4.6a185.78,185.78,0,0,1,30.25-12.2c16.3-4.76,23-4.15,26.92-3.08a19.22,19.22,0,0,1,9.29,5.28c1.28,1.38,4.28,4.61,4,8.46-.31,4.73-5.33,8-10.88,11.19-16,9.22-24.08,13.85-33.36,15.83a80.37,80.37,0,0,1-31.67.34,17.62,17.62,0,0,1-7.13,7.4c.84,3.32,1.55,6.7,2.09,10.07a115.34,115.34,0,0,1,1.3,12.32l0,.21-.22,0A28.52,28.52,0,0,1,53.27,110.09Zm66.06-71.95C115,38.14,108.71,39,98.7,42A184.31,184.31,0,0,0,68.53,54.12c-4.21,2.17-7.11,3.92-8.16,4.58A78.63,78.63,0,0,0,52.83,64c-1.62,1.25-3.3,2.54-5.87,4.27a54.94,54.94,0,0,1-8.65,4.88,9,9,0,0,0-4,2.82h0A20.15,20.15,0,0,0,30.89,94.5a20.83,20.83,0,0,0,8,10.63c7.59,5.5,16.18,4.65,19.73,4a112.9,112.9,0,0,0-1.29-12c-.55-3.41-1.26-6.85-2.12-10.2l0-.18.15-.1A17.13,17.13,0,0,0,62.5,79.1l.09-.17.19,0a79.71,79.71,0,0,0,31.65-.31c9.21-2,17.23-6.58,33.21-15.77,5.44-3.13,10.35-6.31,10.64-10.79.24-3.64-2.55-6.64-3.89-8.08a18.67,18.67,0,0,0-9-5.15A22.43,22.43,0,0,0,119.33,38.14Z"/><path class="cls-13" d="M45.94,39.51A41.37,41.37,0,0,0,40,47.34a36.33,36.33,0,0,0-4.79,12.83,56.57,56.57,0,0,0-.54,7c-.14,3.1-.11,5.71-.05,7.59A14,14,0,0,0,37.83,73a69.94,69.94,0,0,1,9-4.92,116.76,116.76,0,0,1-1.34-15.14A115.17,115.17,0,0,1,45.94,39.51Z"/><path class="cls-1" d="M34.41,75.14v-.33c-.08-2.5-.06-5.06.05-7.61A58.63,58.63,0,0,1,35,60.13a36.62,36.62,0,0,1,4.83-12.92,41.07,41.07,0,0,1,5.94-7.87l.49-.51-.06.71A116.82,116.82,0,0,0,47.06,68l0,.19-.17.08a68.15,68.15,0,0,0-9,4.9l-.66.44A10.46,10.46,0,0,1,34.72,75ZM45.62,40.21a41.1,41.1,0,0,0-5.37,7.25,36,36,0,0,0-4.76,12.75,55.38,55.38,0,0,0-.54,7c-.11,2.42-.13,4.85-.06,7.23A11.6,11.6,0,0,0,37,73.2l.67-.44a69.66,69.66,0,0,1,8.84-4.86,117.8,117.8,0,0,1-.92-27.69Z"/><path class="cls-14" d="M58.88,27.69c.77,2,1.55,4.06,2.34,6.09q4,10.22,8.06,20c-1,.45-2.29,1.07-3.83,1.87-.93.48-4.05,2.1-8.49,4.94-2.8,1.79-6.33,4.2-10.32,7.29C46.34,64.71,46.12,62,46,60c-1-13.95-.55-10.22-.52-16a22.2,22.2,0,0,1,.27-3.67,10.3,10.3,0,0,1,2-4S50,32.94,56.07,29l.07,0A12.74,12.74,0,0,1,58.88,27.69Z"/><path class="cls-1" d="M46.43,68.37l0-.45c-.25-2.66-.47-5.32-.67-7.92C45,49.94,45,49.08,45.11,47.19c0-.71.08-1.59.09-3.2a20.57,20.57,0,0,1,.28-3.71,10.31,10.31,0,0,1,2-4.09c.1-.14,2.4-3.48,8.46-7.39l.07-.05a13.47,13.47,0,0,1,2.79-1.3l.23-.07.08.22c.77,2,1.55,4.06,2.34,6.09,2.6,6.69,5.31,13.42,8.06,20l.1.23-.22.1c-1.28.58-2.57,1.21-3.83,1.86-1.76.91-4.67,2.51-8.47,4.93-3.48,2.23-7,4.68-10.3,7.28ZM56.24,29.2c-6,3.87-8.32,7.24-8.34,7.27A9.91,9.91,0,0,0,46,40.38,20.46,20.46,0,0,0,45.7,44c0,1.62-.05,2.5-.09,3.22-.09,1.86-.14,2.72.61,12.74.18,2.45.39,5,.62,7.46,3.26-2.51,6.61-4.87,10-7,3.82-2.44,6.74-4,8.51-5,1.2-.62,2.42-1.22,3.63-1.78-2.72-6.51-5.4-13.17-8-19.79Q59.83,30.93,58.73,28a13.16,13.16,0,0,0-2.46,1.18Z"/><path class="cls-15" d="M58.88,27.27a32,32,0,0,1,12.89,1.62A29.52,29.52,0,0,1,85.25,38a27.8,27.8,0,0,1,4,6.51c-3.12,1.19-6.46,2.6-10,4.28s-6.71,3.43-9.59,5.14c-3.23-7-6.22-14.08-8.86-21.33C60.18,30.8,59.49,29.08,58.88,27.27Z"/><path class="cls-1" d="M69.57,54.29,69.46,54C66,46.41,63.05,39.42,60.6,32.68l-.71-1.89c-.42-1.11-.85-2.27-1.25-3.44l-.1-.31.32,0a32.15,32.15,0,0,1,13,1.64,29.51,29.51,0,0,1,13.59,9.18,28.32,28.32,0,0,1,4,6.57l.1.24-.24.09C86,46,82.63,47.45,79.39,49s-6.47,3.3-9.58,5.14ZM59.22,27.49c.36,1.07.76,2.11,1.14,3.13.24.62.47,1.25.71,1.89,2.42,6.65,5.27,13.55,8.73,21.07,3-1.8,6.19-3.48,9.37-5s6.45-2.94,9.73-4.19a27.88,27.88,0,0,0-3.84-6.21,29.12,29.12,0,0,0-13.38-9A31.74,31.74,0,0,0,59.22,27.49Z"/><path class="cls-16" d="M61.05,27.3a39.53,39.53,0,0,1,10.81-3.4,30.47,30.47,0,0,1,4.43-.42,34.78,34.78,0,0,1,8.55,1.07,22,22,0,0,1,4.83,1.58,26.37,26.37,0,0,1,3.47,2.15A60.85,60.85,0,0,1,98.05,32,33.43,33.43,0,0,1,104.88,40a21.77,21.77,0,0,0-5.76,1.31l-6.41,2.05-3.17,1a31.77,31.77,0,0,0-3.5-5,36,36,0,0,0-6.52-5.89C76.2,31.12,72,28.11,66,27.38A23.27,23.27,0,0,0,61.05,27.3Z"/><path class="cls-1" d="M89.42,44.7l-.1-.18a32.38,32.38,0,0,0-3.47-5,35.7,35.7,0,0,0-6.48-5.84C76,31.3,71.9,28.35,66,27.62a23.6,23.6,0,0,0-4.9-.07l-1.4.13,1.27-.6a40.13,40.13,0,0,1,10.89-3.43,34.81,34.81,0,0,1,4.46-.43,34.48,34.48,0,0,1,8.61,1.09,22.78,22.78,0,0,1,4.88,1.59,27.75,27.75,0,0,1,3.5,2.18c1.65,1.15,3.37,2.34,4.94,3.68a34,34,0,0,1,6.88,8.13l.22.36-.42,0a21.65,21.65,0,0,0-5.56,1.25ZM63.17,27a22.64,22.64,0,0,1,2.86.17c6.06.74,10.23,3.73,13.59,6.13a37.38,37.38,0,0,1,6.61,6,31.77,31.77,0,0,1,3.42,4.89L99.19,41a23.15,23.15,0,0,1,5.26-1.24,33.13,33.13,0,0,0-6.56-7.66A60.26,60.26,0,0,0,93,28.49a27.06,27.06,0,0,0-3.44-2.14,22.44,22.44,0,0,0-4.78-1.56,34.84,34.84,0,0,0-8.48-1.07,33.45,33.45,0,0,0-4.4.42A39.41,39.41,0,0,0,62.38,27Z"/><path class="cls-1" d="M131.23,102.12a7.18,7.18,0,0,1-4-1.19l.28-.42a6.93,6.93,0,0,0,8.49-.73l.35.35A7.28,7.28,0,0,1,131.23,102.12Z"/><path class="cls-1" d="M81.94,123.69l0-.5a12.63,12.63,0,0,0,8.92-4.92l.4.3A13.14,13.14,0,0,1,81.94,123.69Z"/><path class="cls-17" d="M148.42,82l-.2-.16c.61-.73,1.85-4.39,1.26-4.88-1.22-1-1.56-2.71-1.86-4.21l0-.2c-.3-1.46-.82-3.23-2.25-3.93a2.55,2.55,0,0,0-1.09-.28,1.57,1.57,0,0,0-1.72,1.19l-.25,0a1.8,1.8,0,0,1,1.9-1.41h.08a3.12,3.12,0,0,1,1.2.3c1.52.76,2.07,2.6,2.38,4.11l0,.2c.3,1.53.62,3.11,1.77,4.07C150.44,77.44,148.94,81.37,148.42,82Z"/><path class="cls-17" d="M44.36,127l.06-.27c-1-.07-4.54-1.81-4.35-2.64.37-1.7-.48-3.23-1.22-4.58l-.1-.17c-.72-1.32-1.45-3-.69-4.68a3.57,3.57,0,0,1,.76-1.06c.66-.64,1.72-1,2.28-.46l.2-.21c-.66-.6-1.84-.25-2.59.43a.46.46,0,0,0-.07.07,4.07,4.07,0,0,0-.83,1.15c-.81,1.75-.05,3.54.7,4.91l.1.18c.75,1.37,1.54,2.79,1.19,4.4C39.55,125.17,43.48,126.92,44.36,127Z"/></g></g></svg>