<svg id="Layer_1" data-name="Layer 1" xmlns="http://www.w3.org/2000/svg" xmlns:xlink="http://www.w3.org/1999/xlink" viewBox="0 0 1920 1080"><defs><style>.cls-1{fill:#535c50;}.cls-2{fill:#1d1d1b;}.cls-3{fill:url(#radial-gradient);}.cls-4{fill:#454542;}.cls-5{fill:url(#radial-gradient-2);}.cls-6{fill:#2f4c33;}.cls-7{fill:url(#New_Gradient_Swatch_1);}.cls-8{fill:url(#New_Gradient_Swatch_1-2);}.cls-9{fill:url(#radial-gradient-3);}.cls-10{fill:#a3473a;}.cls-11{fill:#101911;}.cls-12{fill:#9d723d;}.cls-13{fill:url(#radial-gradient-4);}.cls-14{fill:url(#radial-gradient-5);}.cls-15{fill:#b46e19;}.cls-16{fill:url(#radial-gradient-6);}.cls-17{fill:url(#New_Gradient_Swatch_1-3);}.cls-18{fill:url(#New_Gradient_Swatch_1-4);}.cls-19{fill:#7f6a4f;}.cls-20{fill:#6e7b8e;}.cls-21{fill:#5690cc;}.cls-22{fill:url(#radial-gradient-7);}.cls-23{fill:url(#radial-gradient-8);}.cls-24{fill:url(#New_Gradient_Swatch_1-5);}.cls-25{fill:url(#New_Gradient_Swatch_1-6);}.cls-26{fill:#2a4867;}.cls-27{fill:url(#radial-gradient-9);}.cls-28{fill:#7c3840;}.cls-29{fill:#141b2e;}.cls-30{fill:url(#radial-gradient-10);}.cls-31{fill:#fff;}.cls-32{fill:url(#radial-gradient-11);}.cls-33{fill:#636362;}.cls-34{fill:#5d6061;}.cls-35{fill:url(#radial-gradient-12);}.cls-36{fill:url(#linear-gradient);}.cls-37{fill:url(#New_Gradient_Swatch_1-7);}.cls-38{fill:url(#linear-gradient-2);}.cls-39{fill:#004f86;}.cls-40{fill:#3e6542;}.cls-41{fill:url(#radial-gradient-13);}.cls-42{fill:#6f6f6e;}.cls-43{fill:url(#radial-gradient-14);}.cls-44{fill:url(#radial-gradient-15);}.cls-45,.cls-46{stroke:#1d1d1b;stroke-width:2px;}.cls-45,.cls-46,.cls-49{stroke-miterlimit:10;}.cls-45{fill:url(#linear-gradient-3);}.cls-46{fill:#9c9b9b;}.cls-47{fill:#1d1e1c;}.cls-48{fill:#b3341b;}.cls-49{fill:none;stroke:#1d1e1c;}.cls-50{fill:#facea3;}.cls-51{fill:#a1877a;}.cls-52{fill:#848585;}.cls-53{fill:#683b13;}.cls-54{fill:#fff18f;}.cls-55{fill:#b07f48;}.cls-56{fill:#e10b17;}.cls-57{fill:#fdea14;}.cls-58{fill:#009540;}.cls-59{fill:#149bd7;}.cls-60{fill:#7a6a58;}.cls-61{fill:#3c3c3b;}.cls-62{opacity:0.59;}.cls-63{fill:#5db9e6;}</style><radialGradient id="radial-gradient" cx="1610.03" cy="620.16" r="31.9" gradientUnits="userSpaceOnUse"><stop offset="0.11" stop-color="#fff"/><stop offset="0.19" stop-color="#f0f0f0"/><stop offset="0.34" stop-color="#c8c8c8"/><stop offset="0.54" stop-color="#898989"/><stop offset="0.55" stop-color="#868686"/><stop offset="0.72" stop-color="#656564"/><stop offset="0.9" stop-color="#474746"/><stop offset="1" stop-color="#3c3c3b"/></radialGradient><radialGradient id="radial-gradient-2" cx="1341.05" cy="613.97" r="31.9" xlink:href="#radial-gradient"/><linearGradient id="New_Gradient_Swatch_1" x1="1352.51" y1="456.86" x2="1495.01" y2="456.86" gradientUnits="userSpaceOnUse"><stop offset="0" stop-color="#fff"/><stop offset="0.13" stop-color="#f8fbfe"/><stop offset="0.33" stop-color="#e4f2fa"/><stop offset="0.56" stop-color="#c4e1f5"/><stop offset="0.81" stop-color="#97cbed"/><stop offset="1" stop-color="#73b9e7"/></linearGradient><linearGradient id="New_Gradient_Swatch_1-2" x1="1196.33" y1="455.78" x2="1321.24" y2="455.78" xlink:href="#New_Gradient_Swatch_1"/><radialGradient id="radial-gradient-3" cx="2023.51" cy="-2623.05" r="2.08" gradientTransform="matrix(5.89, 5.68, -5.89, 5.68, -25635.13, 3929.17)" gradientUnits="userSpaceOnUse"><stop offset="0.21" stop-color="#f5f5f5"/><stop offset="0.24" stop-color="#f5f0e6"/><stop offset="0.31" stop-color="#f6e2be"/><stop offset="0.39" stop-color="#f7cb7e"/><stop offset="0.49" stop-color="#f8b133"/><stop offset="0.51" stop-color="#f8ba4d" stop-opacity="0.99"/><stop offset="0.57" stop-color="#f7cf88" stop-opacity="0.98"/><stop offset="0.63" stop-color="#f6dfb7" stop-opacity="0.97"/><stop offset="0.68" stop-color="#f5ebd9" stop-opacity="0.96"/><stop offset="0.72" stop-color="#f5f2ee" stop-opacity="0.95"/><stop offset="0.75" stop-color="#f5f5f5" stop-opacity="0.95"/><stop offset="0.75" stop-color="#f5f5ea" stop-opacity="0.95"/><stop offset="0.79" stop-color="#f8f2ac" stop-opacity="0.95"/><stop offset="0.83" stop-color="#faf078" stop-opacity="0.95"/><stop offset="0.87" stop-color="#fcef4d" stop-opacity="0.95"/><stop offset="0.9" stop-color="#fdee2b" stop-opacity="0.95"/><stop offset="0.94" stop-color="#feed13" stop-opacity="0.95"/><stop offset="0.97" stop-color="#ffec05" stop-opacity="0.95"/><stop offset="1" stop-color="#ffec00" stop-opacity="0.95"/></radialGradient><radialGradient id="radial-gradient-4" cx="89.67" cy="714.06" r="31.9" gradientTransform="matrix(-1, 0, 0, 1, 584.71, 0)" xlink:href="#radial-gradient"/><radialGradient id="radial-gradient-5" cx="455.81" cy="712.82" r="31.9" gradientTransform="matrix(-1, 0, 0, 1, 584.71, 0)" xlink:href="#radial-gradient"/><radialGradient id="radial-gradient-6" cx="1904.06" cy="-2719.6" r="2.08" gradientTransform="matrix(-7.52, -4.53, -7.52, 4.53, -6048.28, 21538.84)" xlink:href="#radial-gradient-3"/><linearGradient id="New_Gradient_Swatch_1-3" x1="196.44" y1="535.75" x2="282.59" y2="535.75" gradientTransform="matrix(-1, 0, 0, 1, 584.71, 0)" xlink:href="#New_Gradient_Swatch_1"/><linearGradient id="New_Gradient_Swatch_1-4" x1="112.61" y1="538.45" x2="181.87" y2="538.45" gradientTransform="matrix(-1, 0, 0, 1, 584.71, 0)" xlink:href="#New_Gradient_Swatch_1"/><radialGradient id="radial-gradient-7" cx="1597.25" cy="751.66" r="31.9" xlink:href="#radial-gradient"/><radialGradient id="radial-gradient-8" cx="1278.71" cy="754.35" r="31.9" xlink:href="#radial-gradient"/><linearGradient id="New_Gradient_Swatch_1-5" x1="1309.46" y1="604.74" x2="1403.51" y2="604.74" xlink:href="#New_Gradient_Swatch_1"/><linearGradient id="New_Gradient_Swatch_1-6" x1="1429.47" y1="604.74" x2="1521.54" y2="604.74" xlink:href="#New_Gradient_Swatch_1"/><radialGradient id="radial-gradient-9" cx="1848.75" cy="-2784.98" r="2.08" gradientTransform="matrix(5.67, 6.01, -5.67, 6.01, -24582.16, 6292.83)" xlink:href="#radial-gradient-3"/><radialGradient id="radial-gradient-10" cx="1697.56" cy="917.82" r="29.27" gradientUnits="userSpaceOnUse"><stop offset="0.11" stop-color="#161412" stop-opacity="0"/><stop offset="0.25" stop-color="#272624" stop-opacity="0.17"/><stop offset="0.54" stop-color="#555553" stop-opacity="0.63"/><stop offset="0.55" stop-color="#575756" stop-opacity="0.65"/><stop offset="1" stop-color="#3c3c3b" stop-opacity="0.95"/></radialGradient><radialGradient id="radial-gradient-11" cx="1286.23" cy="922.56" r="27.86" xlink:href="#radial-gradient-10"/><radialGradient id="radial-gradient-12" cx="1781.13" cy="827.97" r="16.29" gradientTransform="translate(1107.14 -1016.94) rotate(45)" xlink:href="#radial-gradient-3"/><linearGradient id="linear-gradient" x1="1464.15" y1="746.17" x2="1566.22" y2="746.17" gradientUnits="userSpaceOnUse"><stop offset="0" stop-color="#fff"/><stop offset="1" stop-color="#73b9e7"/></linearGradient><linearGradient id="New_Gradient_Swatch_1-7" x1="1347.45" y1="746.17" x2="1439.27" y2="746.17" xlink:href="#New_Gradient_Swatch_1"/><linearGradient id="linear-gradient-2" x1="1804.32" y1="728.31" x2="1828.71" y2="728.31" gradientUnits="userSpaceOnUse"><stop offset="0" stop-color="#b1b1b1"/><stop offset="1" stop-color="#575756"/></linearGradient><radialGradient id="radial-gradient-13" cx="2445.78" cy="-2630.49" r="2.77" gradientTransform="matrix(3.88, 5.69, -3.88, 5.69, -19041.16, 1957.26)" xlink:href="#radial-gradient-3"/><radialGradient id="radial-gradient-14" cx="4566.17" cy="1002.38" r="36.53" gradientTransform="translate(-4040)" gradientUnits="userSpaceOnUse"><stop offset="0.1" stop-color="#575756" stop-opacity="0"/><stop offset="0.2" stop-color="#636362" stop-opacity="0.09"/><stop offset="0.38" stop-color="#828281" stop-opacity="0.31"/><stop offset="0.61" stop-color="#b1b1b1" stop-opacity="0.65"/><stop offset="0.72" stop-color="#a8a7a7" stop-opacity="0.78"/><stop offset="0.87" stop-color="#9f9e9e" stop-opacity="0.91"/><stop offset="1" stop-color="#9c9b9b" stop-opacity="0.95"/></radialGradient><radialGradient id="radial-gradient-15" cx="4038.29" cy="1002.52" r="36.53" xlink:href="#radial-gradient-14"/><linearGradient id="linear-gradient-3" x1="4121.15" y1="818.99" x2="4290.85" y2="818.99" gradientTransform="translate(-4040)" gradientUnits="userSpaceOnUse"><stop offset="0" stop-color="#c6c6c5"/><stop offset="0.13" stop-color="#c0c5c6"/><stop offset="0.31" stop-color="#aec1c9"/><stop offset="0.52" stop-color="#91bbcf"/><stop offset="0.75" stop-color="#68b3d6"/><stop offset="1" stop-color="#35a8e0"/></linearGradient></defs><g id="Mørkegrønbil"><path class="cls-1" d="M1547.62,633c-10.76-24.33-8-50.34,6.9-65.82,15.3-15.93,37.58-14.67,48.35-14.07,27.23,1.54,55.71,17.21,69.44,44.4a80.26,80.26,0,0,1,8.31,39.22Z"/><path class="cls-2" d="M1610,590.37a30.32,30.32,0,1,1-30.32,30.32A30.32,30.32,0,0,1,1610,590.37m0-24.22a54.54,54.54,0,1,0,54.54,54.54A54.6,54.6,0,0,0,1610,566.15Z"/><circle class="cls-3" cx="1610.03" cy="620.16" r="31.9"/><path class="cls-4" d="M1626.2,597.76c-7,.45-12.45,13.17-8.67,18.17s17.26,3.42,19.73-3.26C1639.47,606.67,1632.46,597.36,1626.2,597.76Z"/><path class="cls-2" d="M1625.29,619.3c-3.59,0-6.63-1.12-8.13-3.09-1.86-2.47-1.77-6.9.25-11.3,1.61-3.51,4.75-7.35,8.76-7.61h0c3.06-.19,6.55,1.81,9.11,5.24s3.48,7.38,2.41,10.29c-1.4,3.78-5.92,5.72-9.69,6.27A18.13,18.13,0,0,1,1625.29,619.3Zm1.31-21.09h-.37c-3.6.23-6.49,3.81-8,7.08-1.84,4-2,8.19-.34,10.35s5.63,3.18,10,2.54c3.51-.51,7.71-2.28,9-5.68,1-2.62.09-6.23-2.29-9.42S1629.26,598.21,1626.6,598.21Z"/><path class="cls-4" d="M1633.91,636.29c-.46-7.43-14.25-13.32-19.6-9.19-5.15,4-3.66,18.14,3.51,20.85C1624.38,650.43,1634.31,642.84,1633.91,636.29Z"/><path class="cls-2" d="M1620.56,648.88a8.11,8.11,0,0,1-2.9-.5c-4-1.52-6.07-6.27-6.65-10.2-.74-5,.44-9.46,3-11.45s7.38-1.93,12.13.22c3.8,1.72,7.94,5.08,8.21,9.32h0c.2,3.22-2,6.91-5.64,9.62A14.2,14.2,0,0,1,1620.56,648.88Zm-1.5-22.68a7.31,7.31,0,0,0-4.47,1.26c-2.28,1.76-3.36,6-2.68,10.58.55,3.68,2.44,8.11,6.08,9.48,2.84,1.08,6.75.17,10.19-2.37s5.45-5.95,5.27-8.83h0c-.15-2.51-2.25-6.07-7.67-8.53A16.7,16.7,0,0,0,1619.06,626.2Z"/><path class="cls-4" d="M1583.12,626.66c3.05-6.68,14.55-7.7,18.27-3.64,4.65,5.09-1.38,19.71-7.86,20.15C1588,643.55,1579.85,633.81,1583.12,626.66Z"/><path class="cls-2" d="M1593.22,643.64c-2.81,0-6.24-2.28-8.67-5.79-2.66-3.84-3.35-8.1-1.85-11.38h0c1.44-3.14,4.89-5.43,9.22-6.11,4.06-.64,7.92.28,9.81,2.35,2.7,2.95,1.86,8.48.32,12.31s-4.66,8.35-8.49,8.61Zm1.19-22.56a14.38,14.38,0,0,0-2.34.19c-4,.63-7.22,2.72-8.53,5.58h0c-1.37,3-.71,6.91,1.77,10.48,2.31,3.34,5.68,5.56,8.19,5.38,2.76-.19,5.85-3.41,7.7-8s1.83-9.18-.15-11.35C1599.74,621.9,1597.23,621.08,1594.41,621.08Z"/><path class="cls-4" d="M1588.27,604c-.09,7.55,14.2,14.53,19.62,10.62,5-3.62,4.28-18-3.17-21C1598.15,590.85,1588.35,597.75,1588.27,604Z"/><path class="cls-2" d="M1603.76,616.17a17.67,17.67,0,0,1-8-2.2c-3.9-2-8-5.71-8-10,0-3.08,2.33-6.5,6-8.91s7.94-3.21,11.11-1.91c3.47,1.43,5.91,5.36,6.52,10.52.58,4.93-.73,9.47-3.27,11.3A7.37,7.37,0,0,1,1603.76,616.17Zm-2.27-22.76a13.31,13.31,0,0,0-7.19,2.4c-3.35,2.21-5.53,5.41-5.57,8.15h0c0,3.21,2.9,6.82,7.49,9.2s9,2.74,11.4,1.05,3.42-5.92,2.89-10.45c-.58-4.83-2.8-8.48-6-9.78A8.13,8.13,0,0,0,1601.49,593.41Z"/><path class="cls-1" d="M1286.54,635.5c-16.94-27.11-16.5-57.6-1-74.55,14.56-15.94,37.62-14.66,48.35-14.07,23.23,1.29,58.51,13.2,69.45,44.4,6.16,17.6,2,34-.59,41.68Z"/><path class="cls-2" d="M1341.05,584.18a30.32,30.32,0,1,1-30.32,30.32,30.31,30.31,0,0,1,30.32-30.32m0-24.23a54.55,54.55,0,1,0,54.54,54.55A54.6,54.6,0,0,0,1341.05,560Z"/><circle class="cls-5" cx="1341.05" cy="613.97" r="31.9"/><path class="cls-4" d="M1357.22,591.57c-7,.45-12.45,13.17-8.67,18.17s17.26,3.42,19.73-3.26C1370.5,600.48,1363.48,591.17,1357.22,591.57Z"/><path class="cls-2" d="M1356.32,613.11c-3.6,0-6.64-1.12-8.13-3.09-1.87-2.47-1.77-6.91.24-11.3,1.61-3.51,4.76-7.35,8.76-7.61h0c3.06-.2,6.55,1.81,9.11,5.24s3.48,7.38,2.41,10.29c-1.4,3.77-5.92,5.71-9.69,6.27A18,18,0,0,1,1356.32,613.11Zm1.3-21.1-.37,0h0c-3.6.23-6.49,3.8-8,7.07-1.84,4-2,8.19-.34,10.36s5.63,3.18,10,2.54c3.5-.52,7.7-2.28,9-5.68,1-2.62.09-6.23-2.28-9.42C1363.3,593.86,1360.28,592,1357.62,592Z"/><path class="cls-4" d="M1364.93,630.1c-.46-7.43-14.25-13.33-19.6-9.19-5.15,4-3.66,18.14,3.51,20.85C1355.4,644.24,1365.33,636.65,1364.93,630.1Z"/><path class="cls-2" d="M1351.59,642.69a8.12,8.12,0,0,1-2.91-.5c-4-1.52-6.07-6.27-6.65-10.21-.74-5,.45-9.45,3-11.44s7.38-1.94,12.13.22c3.8,1.72,8,5.07,8.21,9.31h0c.2,3.23-2,6.92-5.64,9.63A14.17,14.17,0,0,1,1351.59,642.69ZM1350.08,620a7.31,7.31,0,0,0-4.47,1.26c-2.28,1.76-3.35,6-2.67,10.58.54,3.68,2.43,8.1,6.07,9.48,2.84,1.08,6.75.17,10.19-2.37s5.45-6,5.27-8.83h0c-.15-2.51-2.25-6.08-7.67-8.53A16.53,16.53,0,0,0,1350.08,620Z"/><path class="cls-4" d="M1314.14,620.47c3.06-6.68,14.55-7.71,18.27-3.64,4.65,5.09-1.38,19.71-7.86,20.15C1319,637.36,1310.88,627.61,1314.14,620.47Z"/><path class="cls-2" d="M1324.24,637.45c-2.8,0-6.24-2.28-8.67-5.79-2.65-3.84-3.35-8.1-1.85-11.38h0c1.44-3.15,4.89-5.43,9.23-6.11,4.06-.64,7.91.28,9.8,2.35,2.7,3,1.86,8.48.32,12.31s-4.66,8.35-8.49,8.61Zm1.19-22.56a15.57,15.57,0,0,0-2.34.18c-4,.64-7.22,2.73-8.53,5.59h0c-1.37,3-.7,6.9,1.77,10.48,2.31,3.34,5.68,5.56,8.19,5.38,2.76-.19,5.86-3.41,7.7-8s1.84-9.18-.15-11.35C1330.76,615.71,1328.25,614.89,1325.43,614.89Z"/><path class="cls-4" d="M1319.29,597.77c-.09,7.55,14.2,14.53,19.62,10.62,5-3.63,4.28-18-3.17-21C1329.17,584.66,1319.37,591.56,1319.29,597.77Z"/><path class="cls-2" d="M1334.78,610a17.83,17.83,0,0,1-8-2.2c-3.9-2-8-5.72-8-10,0-3.08,2.33-6.5,6-8.91,3.79-2.5,7.94-3.21,11.11-1.91,3.47,1.43,5.91,5.36,6.52,10.52.58,4.93-.73,9.47-3.26,11.3A7.42,7.42,0,0,1,1334.78,610Zm-2.27-22.76a13.34,13.34,0,0,0-7.19,2.4c-3.35,2.21-5.53,5.41-5.57,8.15h0c0,3.2,2.9,6.81,7.49,9.2s9,2.74,11.4,1,3.42-5.92,2.89-10.45c-.57-4.83-2.8-8.48-6-9.78A7.93,7.93,0,0,0,1332.51,587.22Z"/><path class="cls-6" d="M1138.92,570.6c-4.7-45.6,6.37-115.51,54.72-148.9,17.92-12.37,60.73-12.49,146.35-12.72,68.55-.19,89.59,3.84,110.72,14,37.45,18,35.77,36.29,66.18,57.26,77.72,53.62,164.41-12,222.7,33.09,18.92,14.62,40.63,45.47,39.46,119.63l-100.54,3.82c-.08-8.56-1.47-31.2-17.82-49.64-23.52-26.53-71.64-37.12-96.72-12.72-20.91,20.34-14.82,54.31-14,58.54H1401.08c.52-2.64,6.81-37.45-17.82-61.09-20.17-19.36-55.74-26.11-80.17-6.36-19.6,15.84-26.62,44.37-16.55,70l-131.08-6.36A179.55,179.55,0,0,1,1138.92,570.6Z"/><path d="M1678,637.29v-.51c-.11-11.08-2.54-32.22-17.69-49.3-13.44-15.15-35.69-25.45-56.71-26.22-11.16-.42-27,1.6-39.29,13.52-20.12,19.57-15.07,51.82-13.85,58.08l.11.6H1400.47l.12-.6c.3-1.5,7-37-17.67-60.63-25-24-60.06-22.06-79.52-6.33s-26.26,44.33-16.39,69.42l.28.72-132.15-6.42-.13-.27a179.8,179.8,0,0,1-16.59-58.7h0c-5.33-51.78,9.59-118,54.94-149.36,18-12.46,61-12.58,146.62-12.81,57.31-.17,85.38,1.76,111,14,21.39,10.28,30,20.62,39.19,31.56,6.88,8.23,14,16.74,27.05,25.74,40.54,28,82.84,23.45,123.75,19.09,36.54-3.89,71-7.57,99,14,27.24,21,40.57,61.43,39.65,120v.48l-.48,0Zm-77.08-77.08c.9,0,1.8,0,2.72,0,21.6.8,43.6,11,57.42,26.55,15.13,17.07,17.76,38.1,17.93,49.45l99.55-3.78c.85-58-12.36-98-39.26-118.75-27.62-21.34-61.93-17.68-98.26-13.81-41.09,4.38-83.58,8.91-124.43-19.27-13.16-9.08-20.32-17.64-27.24-25.91-9.09-10.86-17.66-21.12-38.87-31.31-25.38-12.21-53.37-14.11-110.49-13.95-85.42.23-128.28.35-146.07,12.63-45,31.09-59.82,96.95-54.51,148.44a178.68,178.68,0,0,0,16.37,58.11l130,6.31c-9.62-25.32-2.7-54,17-69.85,11.45-9.25,26.39-13.37,42.06-11.59a68.08,68.08,0,0,1,38.78,18c23.6,22.65,18.94,55.92,18.07,61h147.69c-1.39-7.58-5.67-39,14.25-58.4C1573,565,1585.82,560.21,1600.93,560.21Z"/><path class="cls-7" d="M1352.51,426.94c11.1-1.9,71.31-11.14,116,28.17a118.36,118.36,0,0,1,26.51,34l-127.59-2.48Z"/><path class="cls-8" d="M1268.8,424.15a132.43,132.43,0,0,1,39.94,2.56q6.24,30.62,12.5,61.21l-124.9-1.22c-.25-20.68,7.58-32.78,11.07-37.44C1223.22,428.2,1250.73,425.76,1268.8,424.15Z"/><ellipse class="cls-9" cx="1731.42" cy="522.87" rx="15.47" ry="18.38" transform="translate(28.1 1131.08) rotate(-36.45)"/><ellipse class="cls-10" cx="1145.19" cy="522.87" rx="9.34" ry="18.11"/><line class="cls-11" x1="1341.21" y1="493.95" x2="1348.61" y2="546.58"/><rect class="cls-11" x="1343.41" y="493.69" width="3" height="53.15" transform="translate(-59.31 192.2) rotate(-8)"/><path class="cls-11" d="M1375.64,509.5c-5.81,0-10.35-2.8-10.35-6.38s4.54-6.38,10.35-6.38,10.36,2.8,10.36,6.38S1381.45,509.5,1375.64,509.5Zm0-10.39c-4.17,0-7.69,1.83-7.69,4s3.52,4,7.69,4,7.69-1.84,7.69-4S1379.81,499.11,1375.64,499.11Z"/><path class="cls-11" d="M1202.26,509.5c-6,0-10.74-3.14-10.74-7.14s4.71-7.14,10.74-7.14,10.74,3.13,10.74,7.14S1208.28,509.5,1202.26,509.5Zm0-12c-4.55,0-8.38,2.24-8.38,4.9s3.83,4.9,8.38,4.9,8.38-2.25,8.38-4.9S1206.8,497.46,1202.26,497.46Z"/></g><g id="rudolf"><path class="cls-12" d="M557.88,720.77c8.85-22,6.13-45.27-7.33-59.73C535.83,645.22,514.2,646.35,502.2,647c-26.41,1.38-62.87,15.78-69.45,44.4-2.42,10.52-.12,20,2,26Z"/><path class="cls-2" d="M495,684.27a30.32,30.32,0,1,1-30.31,30.32A30.32,30.32,0,0,1,495,684.27m0-24.22a54.54,54.54,0,1,0,54.54,54.54A54.6,54.6,0,0,0,495,660.05Z"/><circle class="cls-13" cx="495.04" cy="714.06" r="31.9"/><path class="cls-4" d="M478.86,691.66c7.05.45,12.45,13.17,8.68,18.17s-17.26,3.42-19.73-3.26C465.59,700.57,472.61,691.26,478.86,691.66Z"/><path class="cls-2" d="M477.07,713c-3.77-.55-8.29-2.49-9.69-6.27-1.08-2.91-.15-6.85,2.41-10.29s6-5.43,9.1-5.24h0c4,.26,7.16,4.1,8.77,7.61,2,4.4,2.11,8.83.24,11.3-1.49,2-4.54,3.09-8.13,3.09A18,18,0,0,1,477.07,713Zm-6.55-16c-2.37,3.19-3.25,6.8-2.28,9.42,1.26,3.4,5.45,5.17,9,5.68,4.33.64,8.34-.38,10-2.54s1.5-6.33-.35-10.35c-1.49-3.27-4.38-6.85-8-7.08h-.36C475.8,692.11,472.79,694,470.52,697Z"/><path class="cls-4" d="M471.16,730.19c.46-7.43,14.25-13.32,19.6-9.19,5.15,4,3.66,18.14-3.52,20.85C480.69,744.33,470.75,736.74,471.16,730.19Z"/><path class="cls-2" d="M476.34,739.79c-3.68-2.71-5.84-6.4-5.64-9.62h0c.26-4.24,4.41-7.6,8.21-9.32,4.75-2.15,9.51-2.24,12.13-.22s3.76,6.48,3,11.45c-.59,3.93-2.64,8.68-6.65,10.2a8.2,8.2,0,0,1-2.91.5A14.15,14.15,0,0,1,476.34,739.79Zm2.94-18.1c-5.41,2.46-7.51,6-7.66,8.53h0c-.18,2.88,1.89,6.34,5.26,8.83s7.35,3.45,10.2,2.37c3.64-1.37,5.52-5.8,6.07-9.48.68-4.57-.39-8.82-2.67-10.58A7.31,7.31,0,0,0,486,720.1,16.61,16.61,0,0,0,479.28,721.69Z"/><path class="cls-4" d="M522,720.56c-3.06-6.68-14.55-7.7-18.27-3.64-4.65,5.09,1.38,19.71,7.86,20.15C517.06,737.45,525.21,727.71,522,720.56Z"/><path class="cls-2" d="M511.51,737.53c-3.83-.26-7-4.8-8.5-8.61s-2.37-9.36.33-12.31c1.89-2.07,5.74-3,9.8-2.35,4.34.68,7.79,3,9.22,6.11h0c1.5,3.28.81,7.54-1.85,11.38-2.42,3.51-5.86,5.79-8.66,5.79Zm-7.5-20.3c-2,2.17-2,6.63-.15,11.35s4.95,7.84,7.71,8c2.51.18,5.88-2,8.19-5.38,2.47-3.57,3.13-7.49,1.77-10.48h0c-1.31-2.86-4.5-5-8.53-5.58a14.47,14.47,0,0,0-2.34-.19C507.84,715,505.32,715.8,504,717.23Z"/><path class="cls-4" d="M516.79,697.86c.1,7.55-14.19,14.53-19.61,10.62-5-3.62-4.28-18,3.17-21C506.92,684.75,516.71,691.65,516.79,697.86Z"/><path class="cls-2" d="M496.91,708.85c-2.53-1.83-3.84-6.37-3.26-11.3.61-5.16,3.05-9.09,6.52-10.52,3.17-1.3,7.32-.59,11.1,1.91s5.94,5.83,6,8.91c.06,4.31-4.08,8-8,10a17.7,17.7,0,0,1-8,2.2A7.42,7.42,0,0,1,496.91,708.85Zm3.61-21c-3.16,1.3-5.39,5-6,9.78-.54,4.53.65,8.83,2.89,10.45s6.93,1.27,11.4-1.05,7.53-6,7.48-9.2h0c0-2.74-2.22-5.94-5.56-8.15a13.34,13.34,0,0,0-7.2-2.4A8.07,8.07,0,0,0,500.52,687.88Z"/><path class="cls-12" d="M193.25,715.64c7.13-20.62,3.95-42.12-8.85-55.84-14.83-15.92-36.39-14.73-48.34-14.07-24.43,1.35-61.17,14.18-69.45,44.39-3.66,13.34-.55,25.63,2.22,33.12Z"/><path class="cls-2" d="M128.9,683a30.32,30.32,0,1,1-30.32,30.31A30.31,30.31,0,0,1,128.9,683m0-24.23a54.54,54.54,0,1,0,54.54,54.54A54.61,54.61,0,0,0,128.9,658.8Z"/><circle class="cls-14" cx="128.9" cy="712.82" r="31.9"/><path class="cls-4" d="M112.72,690.42c7,.45,12.45,13.17,8.67,18.17s-17.26,3.41-19.72-3.27C99.45,699.33,106.46,690,112.72,690.42Z"/><path class="cls-2" d="M110.92,711.76c-3.76-.56-8.29-2.5-9.69-6.28-1.07-2.9-.15-6.85,2.41-10.28s6-5.44,9.11-5.24h0c4,.26,7.16,4.1,8.76,7.61,2,4.39,2.11,8.83.25,11.29-1.5,2-4.54,3.1-8.13,3.1A19.56,19.56,0,0,1,110.92,711.76Zm-6.54-16c-2.38,3.19-3.25,6.8-2.28,9.42,1.25,3.4,5.45,5.16,9,5.68,4.33.64,8.33-.38,10-2.54s1.5-6.33-.35-10.36c-1.5-3.27-4.38-6.84-8-7.08h-.36C109.66,690.86,106.65,692.7,104.38,695.75Z"/><path class="cls-4" d="M105,729c.46-7.44,14.25-13.33,19.6-9.2,5.15,4,3.66,18.14-3.51,20.86C114.55,743.09,104.61,735.5,105,729Z"/><path class="cls-2" d="M110.2,738.55c-3.68-2.71-5.84-6.4-5.64-9.63h0c.26-4.24,4.41-7.59,8.2-9.31,4.75-2.16,9.51-2.24,12.13-.22s3.76,6.48,3,11.44c-.59,3.94-2.65,8.69-6.66,10.21a8.33,8.33,0,0,1-2.9.5A14.15,14.15,0,0,1,110.2,738.55Zm2.94-18.11c-5.42,2.46-7.51,6-7.67,8.54h0c-.18,2.87,1.89,6.34,5.27,8.83s7.35,3.45,10.2,2.37c3.64-1.38,5.52-5.8,6.07-9.48.68-4.57-.4-8.82-2.68-10.58a7.31,7.31,0,0,0-4.47-1.26A16.71,16.71,0,0,0,113.14,720.44Z"/><path class="cls-4" d="M155.8,719.32c-3.05-6.68-14.55-7.71-18.27-3.64-4.65,5.08,1.38,19.7,7.86,20.15C150.91,736.2,159.07,726.46,155.8,719.32Z"/><path class="cls-2" d="M145.36,736.29c-3.83-.27-7-4.8-8.49-8.61s-2.37-9.36.32-12.31c1.9-2.07,5.75-3,9.81-2.35,4.33.68,7.78,3,9.22,6.11h0c1.5,3.28.81,7.54-1.85,11.38-2.43,3.51-5.86,5.79-8.67,5.79ZM137.87,716c-2,2.17-2,6.62-.15,11.35s4.94,7.84,7.7,8c2.52.17,5.88-2,8.19-5.38,2.48-3.58,3.14-7.5,1.77-10.48h0c-1.31-2.87-4.49-5-8.52-5.59a15.67,15.67,0,0,0-2.34-.18C141.7,713.74,139.18,714.56,137.87,716Z"/><path class="cls-4" d="M150.65,696.61c.1,7.56-14.2,14.54-19.61,10.63-5-3.63-4.29-18,3.16-21C140.77,683.51,150.57,690.41,150.65,696.61Z"/><path class="cls-2" d="M130.77,707.61c-2.54-1.83-3.85-6.37-3.26-11.3.61-5.16,3-9.1,6.52-10.52,3.16-1.31,7.32-.59,11.1,1.91s5.94,5.82,6,8.91c0,4.3-4.09,8-8,10a17.85,17.85,0,0,1-8,2.19A7.48,7.48,0,0,1,130.77,707.61Zm3.61-21c-3.16,1.29-5.39,5-6,9.77-.54,4.54.65,8.84,2.89,10.46s6.92,1.27,11.39-1,7.53-6,7.49-9.2h0c0-2.74-2.22-5.94-5.57-8.15a13.33,13.33,0,0,0-7.19-2.41A7.85,7.85,0,0,0,134.38,686.64Z"/><path class="cls-15" d="M556.12,719.11l84.34,0c-3.85-63.13-23.14-88.38-41.54-99.26-27.06-16-48.79,1.3-77-16.26-35.1-21.83-20-59.11-52.21-91.59-36.58-36.9-115.21-48.45-157.5-9.41-25.59,23.62-29.28,57.84-29.95,71.9l-190,.85c-32.39,27.44-45.14,56.18-50.5,71.9-2,5.72-20.32,61.1,0,74.47,7.55,5,18.28,2.72,27.39-.86-2.32-23.4,7.39-46,25.68-58.2,25.2-16.84,58.29-8.4,77,9.41,16.16,15.37,19,35.22,19.69,41.94l243.94,1.72c-.35-3.22-3-32.2,18-50.5,21.3-18.6,52.5-13.55,71.71-1.44C553.76,681.79,556,715.61,556.12,719.11Z"/><path d="M41.43,722.1c-8.68-5.72-11.57-19.38-8.57-40.6a203,203,0,0,1,8.38-34.45c9.16-26.87,26.67-51.81,50.65-72.12l.13-.12L281.75,574c.91-17.48,6.06-49.58,30.09-71.77,19.55-18,49.17-26.76,81.28-23.9C423.25,481,452,493.43,470,511.62c15.25,15.39,19.87,31.56,24.33,47.2,4.83,16.9,9.39,32.87,27.79,44.31,14.32,8.91,27.15,8.78,39.55,8.64,11.87-.13,24.14-.26,37.48,7.62,24.58,14.53,38.64,48.06,41.78,99.66l0,.53-85.34,0,0-.48c-.18-3.75-2.57-37.2-30.77-55-27.75-17.48-56.31-11.53-71.11,1.39-20.58,18-18.15,46.84-17.81,50.07l.06.56-244.5-1.72H191l0-.45c-.94-9.5-4.73-27.55-19.53-41.62-18.09-17.2-51-26.33-76.42-9.36-18,12.05-27.79,34.17-25.45,57.73l0,.38-.35.14q-9.6,3.78-16.89,3.77A19.51,19.51,0,0,1,41.43,722.1ZM94.5,662.2c25.82-17.25,59.28-8,77.66,9.47,14.8,14.08,18.76,32.05,19.79,41.81l242.94,1.7c-.47-5.2-1.88-32.83,18.19-50.37,9.84-8.59,22.63-12.85,37-12.36a73.11,73.11,0,0,1,35.33,10.87c27.67,17.43,30.86,49.73,31.21,55.29l83.33,0c-3.19-50.94-17.07-84-41.26-98.33-13.1-7.74-24.69-7.62-37-7.48-12.55.14-25.52.28-40.09-8.79-18.72-11.64-23.33-27.79-28.22-44.89-4.43-15.51-9-31.56-24.08-46.76-17.87-18-46.39-30.39-76.29-33-31.83-2.83-61.17,5.79-80.51,23.64-24,22.15-29,54.34-29.79,71.55l0,.48-190.31.85C68.63,596,51.27,620.73,42.18,647.37c-2.11,6.19-20,60.84-.2,73.89,6.06,4,15,3.72,26.58-.77C66.33,696.71,76.25,674.4,94.5,662.2Z"/><ellipse class="cls-16" cx="82.61" cy="603.07" rx="24.32" ry="11.89" transform="translate(-480.97 373.08) rotate(-60)"/><ellipse class="cls-10" cx="619.86" cy="654.99" rx="9.34" ry="18.11"/><path class="cls-17" d="M388.27,500.19,388.15,572l-86-.41c.18-4.72,1.75-33.26,26-54.13C353.62,495.55,383.84,499.53,388.27,500.19Z"/><path class="cls-18" d="M402.84,501.1c6.4.32,27.24,2.16,45.32,18.46,24,21.68,24,51.59,23.92,56.24l-68.4-2.52Z"/><rect class="cls-19" x="356.99" y="633.69" width="75.81" height="3" transform="translate(-243.8 1024.4) rotate(-89.49)"/><path class="cls-19" d="M357.49,597.6a3.75,3.75,0,0,1,3.74-3.74h16.45a3.74,3.74,0,1,1,0,7.47H361.23A3.74,3.74,0,0,1,357.49,597.6Zm3.74-.74a.75.75,0,0,0-.74.74.74.74,0,0,0,.74.73h16.45a.74.74,0,0,0,.74-.73.75.75,0,0,0-.74-.74Z"/><path class="cls-19" d="M453.58,597.6a3.75,3.75,0,0,1,3.74-3.74h13.61a3.74,3.74,0,0,1,0,7.47H457.32A3.74,3.74,0,0,1,453.58,597.6Zm3.74-.74a.75.75,0,0,0-.74.74.74.74,0,0,0,.74.73h13.61a.73.73,0,0,0,.73-.73.74.74,0,0,0-.73-.74Z"/></g><g id="firkantet_bil" data-name="firkantet bil"><path class="cls-20" d="M1538.42,772.8c-14.81-27.37-12.88-57.33,3.32-74.16,15.24-15.83,37.89-14.6,48.35-14.07,22.66,1.17,59.67,12.64,69.45,44.4,6.13,19.9-1.38,38.22-5,45.75Z"/><path class="cls-20" d="M1222.53,774.74c-14.56-27.63-12.34-57.74,4.14-74.62,15.38-15.76,37.89-14.6,48.35-14.07,23.44,1.21,62,13.24,69.45,44.4,4.58,19.07-4.65,36.24-9.06,43.3Z"/><path class="cls-21" d="M1155.16,775.71V658.6L1260.56,641l39.75-92.78,210.07-6.76q20.49,46.85,41,93.68a267.44,267.44,0,0,1,77.38-4.6c31,2.71,55.59,4.85,72.9,20.22,26.81,23.81,29.18,73.09,11.66,123l-58.82,1c7.19-23.87,1.38-49.23-15.3-65.37-22.94-22.21-62.5-23.15-85.69-.82-16.37,15.76-22.09,40.7-15.08,64.27l-205.65,1c9.58-26.52-.74-56-24-70.15-22.39-13.61-51.21-9.63-69.68,7.69-17,15.92-22.89,40.9-14.88,63.42Z"/><path d="M1154.66,776.22v-118l.42-.07,105.12-17.52L1300,547.77h.32L1510.7,541l41,93.62a267.86,267.86,0,0,1,77.13-4.53c31.15,2.72,55.76,4.86,73.19,20.34,13,11.52,20.79,29.51,22.62,52,1.76,21.6-2,46.31-10.82,71.46l-.11.33-59.86,1,.2-.66c7.22-24,1.41-48.81-15.16-64.86-10.91-10.56-26.37-16.75-42.42-17-16.41-.22-31.53,5.51-42.59,16.15-16.26,15.66-22,40.09-14.94,63.76l.19.64-207,1,.24-.67c9.45-26.17-.55-55.42-23.79-69.55-21.76-13.23-50.17-10.1-69.08,7.63-16.91,15.84-22.7,40.53-14.75,62.88l.23.66Zm1-117.19V775.2l67.85-1c-7.74-22.56-1.8-47.33,15.23-63.29,19.24-18,48.14-21.22,70.29-7.76,23.44,14.26,33.65,43.63,24.45,70.07l204.28-1c-6.87-23.83-1-48.35,15.39-64.13,11.25-10.83,26.62-16.64,43.3-16.43,16.3.23,32,6.51,43.09,17.25,16.7,16.16,22.65,41.1,15.62,65.22l57.79-1c8.71-24.91,12.39-49.36,10.65-70.71-1.81-22.27-9.52-40-22.28-51.38-17.19-15.26-41.65-17.39-72.61-20.09a266.47,266.47,0,0,0-77.24,4.59l-.4.09-41-93.75-209.41,6.74-39.74,92.74Z"/><path class="cls-2" d="M1597.25,721.87a30.32,30.32,0,1,1-30.31,30.32,30.31,30.31,0,0,1,30.31-30.32m0-24.22a54.54,54.54,0,1,0,54.54,54.54,54.6,54.6,0,0,0-54.54-54.54Z"/><circle class="cls-22" cx="1597.25" cy="751.66" r="31.9"/><path class="cls-4" d="M1613.43,729.26c-7,.45-12.45,13.17-8.67,18.17s17.25,3.42,19.72-3.26C1626.7,738.17,1619.69,728.86,1613.43,729.26Z"/><path class="cls-2" d="M1612.52,750.8c-3.59,0-6.64-1.12-8.13-3.09-1.87-2.47-1.77-6.9.24-11.3,1.61-3.51,4.76-7.35,8.77-7.61h0c3-.19,6.55,1.81,9.1,5.24s3.49,7.38,2.41,10.29c-1.39,3.77-5.92,5.71-9.69,6.27A18,18,0,0,1,1612.52,750.8Zm1.3-21.09h-.36c-3.61.23-6.49,3.81-8,7.08-1.85,4-2,8.18-.35,10.35s5.64,3.18,10,2.54c3.51-.51,7.7-2.28,9-5.68,1-2.62.09-6.23-2.28-9.42S1616.49,729.71,1613.82,729.71Z"/><path class="cls-4" d="M1621.13,767.79c-.46-7.43-14.24-13.32-19.6-9.19-5.15,4-3.66,18.14,3.52,20.85C1611.6,781.93,1621.54,774.34,1621.13,767.79Z"/><path class="cls-2" d="M1607.79,780.38a8.11,8.11,0,0,1-2.9-.5c-4-1.52-6.07-6.27-6.66-10.2-.74-5,.45-9.46,3-11.45s7.39-1.93,12.14.22c3.79,1.72,7.94,5.07,8.2,9.31h0c.2,3.23-2,6.92-5.64,9.63A14.15,14.15,0,0,1,1607.79,780.38Zm-1.51-22.68a7.31,7.31,0,0,0-4.47,1.26c-2.28,1.76-3.35,6-2.67,10.58.55,3.68,2.43,8.1,6.07,9.48,2.85,1.08,6.75.17,10.2-2.37s5.44-5.95,5.27-8.83h0c-.16-2.51-2.26-6.08-7.67-8.53A16.57,16.57,0,0,0,1606.28,757.7Z"/><path class="cls-4" d="M1570.35,758.16c3.05-6.68,14.54-7.71,18.27-3.64,4.64,5.09-1.38,19.71-7.87,20.15C1575.24,775.05,1567.08,765.3,1570.35,758.16Z"/><path class="cls-2" d="M1580.44,775.14c-2.8,0-6.24-2.28-8.66-5.79-2.66-3.84-3.35-8.1-1.85-11.38h0c1.44-3.14,4.88-5.43,9.22-6.11,4.06-.64,7.91.28,9.8,2.35,2.7,2.95,1.86,8.48.33,12.31s-4.66,8.35-8.49,8.61Zm1.19-22.56a14.47,14.47,0,0,0-2.34.19c-4,.63-7.22,2.72-8.53,5.58h0c-1.36,3-.7,6.91,1.77,10.48,2.31,3.34,5.68,5.56,8.19,5.38,2.76-.19,5.86-3.41,7.71-8s1.83-9.18-.15-11.35C1587,753.4,1584.45,752.58,1581.63,752.58Z"/><path class="cls-4" d="M1575.5,735.46c-.1,7.55,14.2,14.53,19.61,10.62,5-3.63,4.29-18-3.16-21C1585.37,722.35,1575.58,729.25,1575.5,735.46Z"/><path class="cls-2" d="M1591,747.67a17.84,17.84,0,0,1-8-2.2c-3.89-2-8-5.71-8-10,0-3.08,2.33-6.5,6-8.91s7.93-3.21,11.1-1.91c3.47,1.43,5.91,5.36,6.52,10.52.59,4.93-.73,9.47-3.26,11.3A7.41,7.41,0,0,1,1591,747.67Zm-2.27-22.76a13.34,13.34,0,0,0-7.2,2.4c-3.34,2.21-5.53,5.41-5.56,8.15h0c0,3.21,2.89,6.82,7.48,9.2s9.06,2.74,11.4,1.05,3.43-5.92,2.89-10.45c-.57-4.83-2.8-8.48-6-9.78A7.85,7.85,0,0,0,1588.72,724.91Z"/><path class="cls-2" d="M1278.71,724.56a30.32,30.32,0,1,1-30.31,30.32,30.32,30.32,0,0,1,30.31-30.32m0-24.22a54.54,54.54,0,1,0,54.54,54.54,54.6,54.6,0,0,0-54.54-54.54Z"/><circle class="cls-23" cx="1278.71" cy="754.35" r="31.9"/><path class="cls-4" d="M1294.89,732c-7.05.45-12.45,13.17-8.67,18.17s17.25,3.42,19.72-3.26C1308.16,740.86,1301.15,731.55,1294.89,732Z"/><path class="cls-2" d="M1294,753.49c-3.59,0-6.64-1.12-8.13-3.09-1.86-2.47-1.77-6.9.24-11.3,1.61-3.51,4.76-7.35,8.77-7.61h0c3.06-.19,6.55,1.81,9.11,5.24s3.48,7.38,2.4,10.29c-1.39,3.77-5.92,5.71-9.69,6.27A18,18,0,0,1,1294,753.49Zm1.3-21.09h-.36c-3.61.23-6.49,3.81-8,7.08-1.85,4-2,8.18-.35,10.35s5.64,3.18,10,2.54c3.51-.51,7.71-2.28,9-5.68,1-2.62.1-6.23-2.28-9.42C1301,734.24,1298,732.4,1295.28,732.4Z"/><path class="cls-4" d="M1302.6,770.48c-.46-7.43-14.25-13.32-19.6-9.19-5.15,4-3.66,18.14,3.51,20.85C1293.06,784.62,1303,777,1302.6,770.48Z"/><path class="cls-2" d="M1289.25,783.07a8.11,8.11,0,0,1-2.9-.5c-4-1.52-6.07-6.27-6.66-10.2-.74-5,.45-9.46,3-11.45s7.39-1.93,12.14.22c3.79,1.72,7.94,5.07,8.2,9.31h0c.2,3.23-2,6.92-5.64,9.63A14.15,14.15,0,0,1,1289.25,783.07Zm-1.5-22.68a7.27,7.27,0,0,0-4.47,1.26c-2.28,1.76-3.36,6-2.68,10.58.55,3.68,2.43,8.1,6.07,9.48,2.85,1.08,6.76.17,10.2-2.37s5.44-6,5.27-8.83h0c-.16-2.51-2.25-6.07-7.67-8.53A16.57,16.57,0,0,0,1287.75,760.39Z"/><path class="cls-4" d="M1251.81,760.85c3-6.68,14.55-7.71,18.27-3.64,4.65,5.09-1.38,19.71-7.86,20.15C1256.7,777.74,1248.54,768,1251.81,760.85Z"/><path class="cls-2" d="M1261.91,777.83c-2.81,0-6.25-2.28-8.67-5.79-2.66-3.84-3.35-8.1-1.85-11.38h0c1.44-3.14,4.88-5.43,9.22-6.11,4.06-.64,7.91.28,9.81,2.35,2.69,3,1.86,8.48.32,12.31s-4.66,8.35-8.49,8.61Zm1.18-22.56a14.47,14.47,0,0,0-2.34.19c-4,.63-7.22,2.72-8.53,5.58h0c-1.36,3-.7,6.91,1.77,10.48,2.31,3.34,5.68,5.56,8.19,5.38,2.76-.19,5.86-3.41,7.71-8s1.83-9.18-.15-11.35C1268.43,756.09,1265.91,755.27,1263.09,755.27Z"/><path class="cls-4" d="M1257,738.15c-.1,7.55,14.2,14.53,19.61,10.62,5-3.63,4.29-18-3.16-21C1266.84,725,1257,731.94,1257,738.15Z"/><path class="cls-2" d="M1272.45,750.36a17.87,17.87,0,0,1-8-2.2c-3.89-2-8-5.71-8-10,0-3.08,2.33-6.5,6-8.91s7.93-3.21,11.1-1.91c3.47,1.43,5.91,5.36,6.52,10.52.59,4.93-.72,9.47-3.26,11.3A7.41,7.41,0,0,1,1272.45,750.36Zm-2.27-22.76a13.34,13.34,0,0,0-7.2,2.4c-3.34,2.21-5.53,5.41-5.56,8.15h0c0,3.21,2.9,6.82,7.49,9.2s9,2.74,11.39,1,3.43-5.92,2.89-10.45c-.57-4.83-2.8-8.48-6-9.78A7.85,7.85,0,0,0,1270.18,727.6Z"/><path class="cls-24" d="M1323,572.2l-13.53,65.42h94V571.85Z"/><polygon class="cls-25" points="1429.47 571.85 1429.47 637.62 1521.54 637.62 1492.41 571.85 1429.47 571.85"/><rect class="cls-26" x="1415.81" y="658.6" width="3" height="94.38" transform="translate(-6.25 12.68) rotate(-0.51)"/><path class="cls-26" d="M1442.3,664.33c-5.32,0-11-1.55-11-5s5.73-5,11-5,11,1.55,11,5S1447.62,664.33,1442.3,664.33Zm-8-5c.38.6,3.09,2,8,2s7.65-1.35,8-2c-.38-.61-3.09-2-8-2S1434.65,658.77,1434.27,659.38Z"/><path class="cls-26" d="M1319.63,664.33c-5.81,0-11.67-1.53-11.67-5s5.86-5,11.67-5,11.67,1.53,11.67,5S1325.44,664.33,1319.63,664.33Zm-8.63-5c.51.62,3.45,2,8.63,2s8.12-1.33,8.63-2c-.51-.63-3.45-2-8.63-2S1311.51,658.75,1311,659.38Z"/><ellipse class="cls-27" cx="1700.17" cy="662.83" rx="14.9" ry="19.45" transform="translate(-122.29 755.28) rotate(-24.2)"/><ellipse class="cls-10" cx="1160.24" cy="676.71" rx="9.34" ry="18.11"/></g><g id="rosa"><path class="cls-28" d="M1234.9,937.68l-86.14-2.53c-7.93-75.25,9-102.66,25.33-114,28.93-20.09,61.75,6.2,103.29-15.09,35.79-18.33,28-46.33,61.39-78.65,51.47-49.8,151.14-61.83,207.74-22.8,38.18,26.32,24.55,53.66,63,78.45,57.92,37.39,113.58-7,165,22.89,25,14.5,52.74,48.81,58.61,138.58l-80.84,1.74c10.43-24.19,5.38-51.91-12.41-69.55-20.93-20.77-53.51-21.62-76.84-7.43a65,65,0,0,0-29.13,70.47l-295.15-7.14c3.64-19.86-2.48-39.89-16.82-51.8-21-17.47-53.63-12.39-71.88,5.75C1230.17,906.33,1234.38,934.59,1234.9,937.68Z"/><path class="cls-29" d="M1749.59,948.08l1.09-2.52c10-23.32,5.22-50.49-12-67.6-19-18.9-50.45-21.91-74.68-7.18a62.9,62.9,0,0,0-28.34,68.57l.53,2.22-299.5-7.24.37-2c3.61-19.63-2.61-38.84-16.21-50.13-20.8-17.28-52.73-11-69.51,5.64-19.11,19-15.19,46.51-14.67,49.58l.35,2.12-89.83-2.65-.16-1.53c-6.35-60.29,2.42-99.2,26.09-115.64,14.64-10.17,30.29-8.87,46.85-7.5,17.61,1.45,35.82,2.95,56.64-7.71,19.27-9.87,25.61-22.72,33-37.6,6-12.23,12.87-26.09,28-40.74,53-51.27,153.07-62.23,210-23,19.31,13.32,25.68,27,31.83,40.15,6.24,13.39,12.14,26,31.09,38.27,30,19.33,59.53,16.4,88.14,13.56,26.72-2.65,52-5.16,76.84,9.29,34.72,20.16,54.74,67.26,59.49,140l.12,1.84ZM1697.2,858c16.34,0,32.3,6,43.93,17.49,17.65,17.52,23,44.93,13.81,69l76.32-1.65c-4.89-70.43-24.27-116-57.62-135.32-23.89-13.88-48.58-11.43-74.72-8.83-29.21,2.9-59.41,5.9-90.4-14.11-19.81-12.78-26.2-26.49-32.38-39.74-6-12.77-12.11-26-30.63-38.74-55.66-38.38-153.62-27.6-205.52,22.62-14.7,14.23-21.39,27.8-27.3,39.77-7.61,15.44-14.19,28.77-34.5,39.18-21.71,11.13-41.27,9.51-58.54,8.08-16.61-1.37-31-2.56-44.55,6.89-22.33,15.51-30.66,52.8-24.75,110.84l82.52,2.43c-.89-7.77-2.06-32.65,16-50.55,22.87-22.72,56.35-20.73,74.26-5.86,14.1,11.72,20.81,31.28,17.76,51.45l290.87,7a66.36,66.36,0,0,1,30.43-70.17A67.56,67.56,0,0,1,1697.2,858Z"/><path class="cls-2" d="M1286.23,896.55A26.47,26.47,0,1,1,1259.76,923a26.47,26.47,0,0,1,26.47-26.47m0-21.15A47.63,47.63,0,1,0,1333.85,923a47.68,47.68,0,0,0-47.62-47.62Z"/><path class="cls-2" d="M1697.53,889.3a28.48,28.48,0,1,1-28.48,28.48,28.48,28.48,0,0,1,28.48-28.48m0-24.68a53.16,53.16,0,1,0,53.16,53.16,53.22,53.22,0,0,0-53.16-53.16Z"/><circle class="cls-30" cx="1697.56" cy="917.82" r="29.27"/><circle class="cls-31" cx="1286.23" cy="923.02" r="25.91"/><path class="cls-4" d="M1711.65,897.76c-6.15.39-10.87,11.5-7.57,15.86s15.07,3,17.22-2.85C1723.24,905.54,1717.12,897.41,1711.65,897.76Z"/><path class="cls-2" d="M1710.86,916.57c-3.14,0-5.8-1-7.1-2.71-1.63-2.15-1.55-6,.21-9.86,1.41-3.06,4.15-6.42,7.66-6.64h0c2.66-.17,5.71,1.58,7.95,4.57s3,6.44,2.1,9c-1.22,3.3-5.17,5-8.46,5.48A16.13,16.13,0,0,1,1710.86,916.57Zm1.13-18.42h-.31c-3.15.2-5.67,3.32-7,6.18-1.61,3.51-1.73,7.15-.3,9s4.92,2.78,8.7,2.22c3.07-.45,6.73-2,7.83-5,.84-2.29.08-5.44-2-8.23S1714.32,898.15,1712,898.15Z"/><path class="cls-4" d="M1718.38,931.4c-.4-6.49-12.44-11.63-17.11-8-4.5,3.48-3.2,15.84,3.06,18.21C1710.06,943.75,1718.73,937.12,1718.38,931.4Z"/><path class="cls-2" d="M1706.73,942.4a7.29,7.29,0,0,1-2.54-.44c-3.5-1.33-5.3-5.47-5.81-8.91-.64-4.34.39-8.26,2.64-10s6.45-1.69,10.59.19c3.32,1.5,6.94,4.43,7.17,8.13h0c.17,2.82-1.71,6-4.93,8.41A12.34,12.34,0,0,1,1706.73,942.4Zm-1.32-19.81a6.4,6.4,0,0,0-3.9,1.1c-2,1.54-2.93,5.25-2.34,9.24.48,3.21,2.13,7.08,5.31,8.28,2.48.94,5.89.15,8.9-2.07s4.76-5.2,4.6-7.71h0c-.14-2.2-2-5.31-6.7-7.45A14.52,14.52,0,0,0,1705.41,922.59Z"/><path class="cls-4" d="M1674,923c2.67-5.83,12.7-6.73,16-3.17,4.06,4.44-1.2,17.2-6.86,17.59C1678.3,937.74,1671.18,929.23,1674,923Z"/><path class="cls-2" d="M1682.85,937.82c-2.45,0-5.45-2-7.57-5.05-2.32-3.36-2.92-7.08-1.61-9.94h0c1.25-2.75,4.26-4.74,8-5.34,3.54-.56,6.91.25,8.56,2.06,2.35,2.57,1.62,7.4.28,10.75s-4.07,7.28-7.41,7.51Zm1-19.7a13.06,13.06,0,0,0-2.05.16c-3.52.56-6.3,2.38-7.44,4.88h0c-1.2,2.61-.62,6,1.54,9.15,2,2.92,5,4.85,7.15,4.7,2.41-.16,5.12-3,6.73-7s1.6-8-.13-9.91C1688.54,918.84,1686.35,918.12,1683.89,918.12Z"/><path class="cls-4" d="M1678.53,903.17c-.09,6.6,12.4,12.69,17.13,9.27,4.38-3.16,3.74-15.68-2.77-18.36C1687.15,891.73,1678.6,897.75,1678.53,903.17Z"/><path class="cls-2" d="M1692.05,913.83a15.64,15.64,0,0,1-7-1.91c-3.4-1.77-7-5-7-8.76,0-2.69,2-5.67,5.22-7.78s6.93-2.8,9.69-1.67c3,1.25,5.17,4.68,5.7,9.19.51,4.3-.64,8.27-2.85,9.87A6.5,6.5,0,0,1,1692.05,913.83Zm-2-19.87a11.63,11.63,0,0,0-6.28,2.09c-2.92,1.93-4.83,4.73-4.86,7.12h0c0,2.8,2.53,6,6.54,8s7.9,2.4,10,.92,3-5.16,2.52-9.13c-.49-4.21-2.44-7.4-5.2-8.54A7.08,7.08,0,0,0,1690.07,894Z"/><circle class="cls-32" cx="1286.23" cy="922.56" r="27.86"/><path class="cls-4" d="M1300.35,903c-6.15.4-10.87,11.5-7.57,15.87s15.07,3,17.23-2.85C1311.94,910.78,1305.82,902.65,1300.35,903Z"/><path class="cls-2" d="M1299.56,921.82c-3.14,0-5.79-1-7.1-2.71-1.63-2.15-1.54-6,.21-9.86,1.41-3.06,4.16-6.42,7.66-6.65h0c2.67-.17,5.72,1.59,8,4.58s3,6.44,2.1,9c-1.22,3.3-5.17,5-8.46,5.48A16,16,0,0,1,1299.56,921.82Zm1.14-18.43h-.32c-3.15.21-5.67,3.33-7,6.18-1.61,3.52-1.73,7.15-.3,9s4.92,2.77,8.7,2.22c3.07-.46,6.73-2,7.83-5,.85-2.29.08-5.44-2-8.22S1303,903.39,1300.7,903.39Z"/><path class="cls-4" d="M1307.08,936.65c-.4-6.49-12.44-11.64-17.11-8-4.5,3.47-3.2,15.84,3.07,18.21C1298.76,949,1307.44,942.37,1307.08,936.65Z"/><path class="cls-2" d="M1295.43,947.64a7.19,7.19,0,0,1-2.53-.43c-3.51-1.33-5.3-5.48-5.82-8.91-.64-4.34.4-8.26,2.64-10s6.45-1.69,10.6.19c3.31,1.51,6.93,4.43,7.16,8.14h0c.18,2.81-1.71,6-4.92,8.4A12.39,12.39,0,0,1,1295.43,947.64Zm-1.31-19.8a6.34,6.34,0,0,0-3.91,1.1c-2,1.54-2.93,5.25-2.33,9.24.48,3.21,2.12,7.07,5.3,8.28,2.48.94,5.9.14,8.9-2.07s4.76-5.2,4.6-7.71h0c-.13-2.2-2-5.31-6.69-7.46A14.57,14.57,0,0,0,1294.12,927.84Z"/><path class="cls-4" d="M1262.73,928.24c2.67-5.83,12.71-6.73,16-3.18,4.06,4.44-1.21,17.21-6.87,17.6C1267,943,1259.88,934.48,1262.73,928.24Z"/><path class="cls-2" d="M1271.55,943.07c-2.45,0-5.45-2-7.57-5.06-2.32-3.35-2.92-7.07-1.61-9.94h0c1.25-2.74,4.26-4.74,8.05-5.33,3.55-.56,6.91.25,8.56,2,2.36,2.58,1.63,7.4.29,10.75s-4.07,7.29-7.42,7.52Zm1-19.7a12.93,12.93,0,0,0-2,.16c-3.52.55-6.31,2.38-7.45,4.88h0c-1.19,2.6-.62,6,1.54,9.15,2,2.92,5,4.85,7.16,4.7,2.41-.17,5.11-3,6.72-7s1.6-8-.13-9.9C1277.25,924.08,1275.05,923.37,1272.59,923.37Z"/><path class="cls-4" d="M1267.23,908.42c-.08,6.59,12.4,12.69,17.13,9.27,4.38-3.16,3.74-15.69-2.76-18.36C1275.86,897,1267.3,903,1267.23,908.42Z"/><path class="cls-2" d="M1280.76,919.08a15.53,15.53,0,0,1-7-1.92c-3.4-1.76-7-5-7-8.75,0-2.69,2-5.67,5.22-7.78s6.93-2.81,9.7-1.67c3,1.25,5.16,4.68,5.69,9.19.51,4.3-.63,8.27-2.85,9.87A6.49,6.49,0,0,1,1280.76,919.08Zm-2-19.88a11.68,11.68,0,0,0-6.29,2.1c-2.92,1.93-4.83,4.73-4.86,7.12h0c0,2.8,2.53,6,6.54,8s7.91,2.4,9.95.92,3-5.17,2.53-9.13c-.5-4.21-2.45-7.4-5.21-8.54A7,7,0,0,0,1278.78,899.2Z"/><rect class="cls-33" x="1448.84" y="813.84" width="2.64" height="98.37" transform="translate(-4.26 7.19) rotate(-0.28)"/><path class="cls-34" d="M1474.51,817.76c-2.18,0-9.31-.28-9.31-3.92s7.13-3.93,9.31-3.93,9.31.29,9.31,3.93S1476.7,817.76,1474.51,817.76Zm-4.19-3.92a22.15,22.15,0,0,0,8.38,0,22.15,22.15,0,0,0-8.38,0Z"/><path class="cls-34" d="M1346.9,815.6c-2.19,0-9.31-.28-9.31-3.92s7.12-3.93,9.31-3.93,9.31.28,9.31,3.93S1349.08,815.6,1346.9,815.6Zm-4.19-3.92a22.15,22.15,0,0,0,8.38,0A26.18,26.18,0,0,0,1342.71,811.68Z"/><ellipse class="cls-35" cx="1781.13" cy="827.97" rx="14.53" ry="17.89" transform="translate(-63.78 1501.96) rotate(-45)"/><path class="cls-36" d="M1464.15,705a123.06,123.06,0,0,1,57.2,21.74c29.61,21,41.12,49.16,44.87,59.82l-101.13.71Z"/><path class="cls-37" d="M1439.27,705.34A117.09,117.09,0,0,0,1347.45,787l90.84-.32Q1438.79,746,1439.27,705.34Z"/><ellipse class="cls-10" cx="1164.3" cy="847.08" rx="20.36" ry="10.51" transform="matrix(0.5, -0.87, 0.87, 0.5, -151.44, 1431.86)"/></g><g id="UI"><rect class="cls-38" x="1804.32" y="370.05" width="24.39" height="716.51" rx="12"/><rect class="cls-39" x="1728.88" y="265.24" width="180.7" height="187.77" rx="12"/><path class="cls-31" d="M1897.58,454.51h-156.7a13.51,13.51,0,0,1-13.5-13.5V277.24a13.51,13.51,0,0,1,13.5-13.5h156.7a13.52,13.52,0,0,1,13.5,13.5V441A13.51,13.51,0,0,1,1897.58,454.51Zm-156.7-187.77a10.51,10.51,0,0,0-10.5,10.5V441a10.51,10.51,0,0,0,10.5,10.5h156.7a10.51,10.51,0,0,0,10.5-10.5V277.24a10.51,10.51,0,0,0-10.5-10.5Z"/><path class="cls-31" d="M1866.31,338.86a40.6,40.6,0,0,1-2.51,14,31.28,31.28,0,0,1-7.18,11.52,44,44,0,0,1-14.25,9.55q-7.86,3.23-19.56,3.23h-17.15V412H1778.1V305.12h45.36a71.86,71.86,0,0,1,17.19,1.76,40.26,40.26,0,0,1,12.38,5.28A28.26,28.26,0,0,1,1862.9,323,34.23,34.23,0,0,1,1866.31,338.86Zm-28.49.61a12.57,12.57,0,0,0-2.45-7.77,13.19,13.19,0,0,0-5.67-4.55,25.78,25.78,0,0,0-8.39-1.89q-4.1-.18-10.91-.18h-4.74V357h7.89a64.76,64.76,0,0,0,11.6-.86,16.42,16.42,0,0,0,7.64-3.44,13.23,13.23,0,0,0,3.84-5.48A22.35,22.35,0,0,0,1837.82,339.47Z"/><rect class="cls-39" x="1728.63" y="460.54" width="180.7" height="61.81" rx="12"/><path class="cls-31" d="M1897.33,523.85h-156.7a13.52,13.52,0,0,1-13.5-13.5V472.54a13.51,13.51,0,0,1,13.5-13.5h156.7a13.51,13.51,0,0,1,13.5,13.5v37.81A13.52,13.52,0,0,1,1897.33,523.85ZM1740.63,462a10.51,10.51,0,0,0-10.5,10.5v37.81a10.51,10.51,0,0,0,10.5,10.5h156.7a10.51,10.51,0,0,0,10.5-10.5V472.54a10.51,10.51,0,0,0-10.5-10.5Z"/><rect class="cls-39" x="1729.93" y="529.87" width="180.7" height="61.81" rx="12"/><path class="cls-31" d="M1898.63,593.18h-156.7a13.51,13.51,0,0,1-13.5-13.5V541.87a13.51,13.51,0,0,1,13.5-13.5h156.7a13.51,13.51,0,0,1,13.5,13.5v37.81A13.52,13.52,0,0,1,1898.63,593.18Zm-156.7-61.81a10.51,10.51,0,0,0-10.5,10.5v37.81a10.51,10.51,0,0,0,10.5,10.5h156.7a10.51,10.51,0,0,0,10.5-10.5V541.87a10.51,10.51,0,0,0-10.5-10.5Z"/><path class="cls-31" d="M1756,488.16a4.88,4.88,0,0,1-.31,1.72,3.82,3.82,0,0,1-.87,1.41,5.51,5.51,0,0,1-1.75,1.16,6.19,6.19,0,0,1-2.39.4h-2.1v4.26h-3.38V484h5.56a9,9,0,0,1,2.1.21,5.09,5.09,0,0,1,1.52.65,3.56,3.56,0,0,1,1.21,1.32A4.32,4.32,0,0,1,1756,488.16Zm-3.49.07a1.54,1.54,0,0,0-.3-1,1.59,1.59,0,0,0-.69-.56,3.25,3.25,0,0,0-1-.23l-1.33,0h-.58v3.91h1a7.91,7.91,0,0,0,1.42-.1,2,2,0,0,0,.94-.43,1.67,1.67,0,0,0,.47-.67A2.89,2.89,0,0,0,1752.51,488.23Z"/><path class="cls-31" d="M1768.31,492.18a5.18,5.18,0,0,1-1.42,3.84,6.37,6.37,0,0,1-8,0,5.92,5.92,0,0,1,0-7.69,6.4,6.4,0,0,1,8,0A5.19,5.19,0,0,1,1768.31,492.18Zm-3.9,2.4a2.53,2.53,0,0,0,.47-.91,5.61,5.61,0,0,0,.15-1.47,5.51,5.51,0,0,0-.16-1.46,2.42,2.42,0,0,0-.44-.94,1.53,1.53,0,0,0-.68-.51,2.34,2.34,0,0,0-.85-.15,2.55,2.55,0,0,0-.81.12,1.64,1.64,0,0,0-.68.5,2.36,2.36,0,0,0-.46.94,5.34,5.34,0,0,0-.17,1.5,5.76,5.76,0,0,0,.14,1.4,2.52,2.52,0,0,0,.44,1,1.85,1.85,0,0,0,.68.5,2.44,2.44,0,0,0,.89.15,2.25,2.25,0,0,0,.82-.14A1.51,1.51,0,0,0,1764.41,494.58Z"/><path class="cls-31" d="M1773.84,485.84h-3.35v-2.4h3.35Zm-.09,11.27h-3.18v-9.87h3.18Z"/><path class="cls-31" d="M1786.64,497.11h-3.17v-4.89a11.71,11.71,0,0,0-.06-1.19,2.5,2.5,0,0,0-.21-.88,1.08,1.08,0,0,0-.52-.47,2.36,2.36,0,0,0-.94-.15,2.74,2.74,0,0,0-.88.14,4.49,4.49,0,0,0-1,.45v7h-3.17v-9.87h3.17v1.09a8.18,8.18,0,0,1,1.62-1,4.2,4.2,0,0,1,1.72-.35,3.31,3.31,0,0,1,2.5.93,3.87,3.87,0,0,1,.9,2.79Z"/><path class="cls-31" d="M1795.86,497a9.93,9.93,0,0,1-2.48.28,4.21,4.21,0,0,1-2.74-.75,3.14,3.14,0,0,1-.91-2.56v-4.61h-1.3v-2.15h1.3v-2.82h3.18v2.82h2.95v2.15h-2.95v3.5c0,.35,0,.65,0,.91a1.67,1.67,0,0,0,.14.69.93.93,0,0,0,.43.49,1.85,1.85,0,0,0,.91.18,3.31,3.31,0,0,0,1.2-.3h.26Z"/><path class="cls-31" d="M1801.52,490.7h-3.29v-3.46h3.29Zm0,6.41h-3.29v-3.45h3.29Z"/><path class="cls-31" d="M1757.61,567h-9.44V553.91h3.38v10.55h6.06Z"/><path class="cls-31" d="M1762.73,555.72h-3.35v-2.4h3.35Zm-.09,11.27h-3.17v-9.87h3.17Z"/><path class="cls-31" d="M1775.56,557.12l-3.81,9.87h-3.58l-3.78-9.87h3.34l2.29,6.8,2.26-6.8Z"/><path class="cls-31" d="M1781.09,560.58h-3.29v-3.46h3.29Zm0,6.41h-3.29v-3.45h3.29Z"/></g><g id="Bil_med_dreng" data-name="Bil med dreng"><path class="cls-40" d="M-176,1044.77c-26.63-101.5-10.16-142.8,10.48-161.58,37.86-34.47,90.59,8.14,172.69-25.08,63.77-25.8,56.63-61.29,128.39-91.1,49.8-20.68,93-20.11,142-19.46,66.33.87,125.36,1.48,170.68,40.69,35.79,31,23.5,50.88,56.08,73.36,57.36,39.58,117.82-6.67,163.21,23.85,23,15.45,45.59,52.94,36.39,153.19Z"/><path class="cls-2" d="M-176.47,1045.37l-.12-.45c-12.06-46-16.27-83.67-12.5-112,2.92-21.93,10.71-38.8,23.16-50.14,18.85-17.16,41-15.43,69-13.25,62.36,4.86,85.37-4.45,103.87-11.93,31-12.53,45-27.19,59.84-42.71,15.55-16.25,31.64-33.06,68.54-48.39C185.24,745.73,228,746.3,277.58,747h.87c33,.43,64.21.84,92.82,6,32.08,5.82,56.67,16.88,77.37,34.8,17.84,15.42,23.9,28.34,29.25,39.74,5.62,12,10.48,22.33,26.78,33.58,30.34,20.93,61.2,17.75,91.05,14.67,26.09-2.69,50.73-5.23,72.15,9.17,13.86,9.32,24.13,24.5,30.51,45.12,8.24,26.66,10.31,63.21,6.15,108.62l0,.54Zm54.42-176c-16.44,0-30.55,2.89-43.07,14.29C-177.36,894.77-185,911.39-187.9,933c-3.73,28.12.42,65.51,12.35,111.13L703.38,1038c4.09-45,2-81.21-6.15-107.62-6.3-20.35-16.4-35.31-30-44.47-21.06-14.16-45.5-11.65-71.37-9-30.06,3.1-61.15,6.31-91.85-14.87-16.57-11.44-21.73-22.43-27.19-34.06-5.29-11.29-11.3-24.09-28.94-39.35-20.54-17.77-44.94-28.74-76.8-34.52-28.52-5.17-59.66-5.58-92.63-6l-.87,0c-49.41-.65-92.09-1.21-141.78,19.43-36.67,15.23-52.67,31.94-68.14,48.11-14.94,15.62-29.06,30.37-60.25,43-41.77,16.9-76.5,14.19-104.41,12C-105.94,870-114.26,869.34-122,869.34Z"/><rect class="cls-2" x="266.12" y="883.85" width="1.2" height="140.8" transform="translate(-17.32 5.01) rotate(-1.04)"/><ellipse class="cls-40" cx="295.56" cy="890.96" rx="12.83" ry="5.09"/><path class="cls-2" d="M295.56,896.27c-7.32,0-13.05-2.33-13.05-5.31s5.73-5.32,13.05-5.32S308.61,888,308.61,891,302.88,896.27,295.56,896.27Zm0-10.18c-6.95,0-12.6,2.18-12.6,4.87s5.65,4.87,12.6,4.87,12.6-2.19,12.6-4.87S302.51,886.09,295.56,886.09Z"/><ellipse class="cls-40" cx="93.98" cy="888.81" rx="12.83" ry="5.09"/><path class="cls-2" d="M94,894.2c-7.36,0-13.12-2.37-13.12-5.39s5.76-5.39,13.12-5.39,13.13,2.36,13.13,5.39S101.34,894.2,94,894.2ZM94,884c-6.79,0-12.53,2.19-12.53,4.79S87.19,893.6,94,893.6s12.53-2.2,12.53-4.79S100.77,884,94,884Z"/><ellipse class="cls-41" cx="674.16" cy="905.62" rx="13.55" ry="24.47" transform="translate(-442.91 741.96) rotate(-45)"/><g id="hjul"><path class="cls-42" d="M610.42,1037.46c10.55-37.09,3.19-76-21.32-99.24-42.36-40.16-125.18-22.57-149.38,25.84-15.08,30.18-3,63.51,1,73.4"/><path class="cls-2" d="M439.92,1037.8a117.48,117.48,0,0,1-7.73-29.32c-2.06-16.7.21-31.78,6.73-44.82,5.94-11.89,15.76-22.53,28.4-30.79a111.36,111.36,0,0,1,41.34-16,108.52,108.52,0,0,1,43.43.95c14.81,3.5,27.47,10.16,37.63,19.79,12,11.39,20.33,26.92,24.07,44.9,3.64,17.57,2.78,36.67-2.51,55.25l-1.72-.5c5.2-18.29,6.06-37.1,2.47-54.38-3.66-17.62-11.8-32.82-23.55-44-19.09-18.1-48.81-25.68-79.51-20.28s-57,23-68.44,45.87c-5.86,11.72-13.51,36.75,1.06,72.66Z"/><circle class="cls-43" cx="526.17" cy="1002.38" r="36.53"/><path class="cls-4" d="M546.65,972.12c-9.2.59-16.25,17.2-11.32,23.72s22.53,4.46,25.75-4.26C564,983.75,554.82,971.6,546.65,972.12Z"/><path class="cls-2" d="M545.47,1000.25c-4.7,0-8.67-1.47-10.62-4-2.43-3.22-2.31-9,.32-14.74,2.1-4.58,6.21-9.6,11.44-9.94h0c4-.25,8.55,2.37,11.89,6.85s4.55,9.63,3.14,13.42c-1.82,4.93-7.73,7.47-12.65,8.19A23.78,23.78,0,0,1,545.47,1000.25Zm1.69-27.55-.47,0h0c-4.71.3-8.48,5-10.43,9.24-2.41,5.26-2.59,10.69-.45,13.52s7.36,4.15,13,3.32c4.58-.68,10.06-3,11.7-7.42,1.26-3.42.12-8.13-3-12.3C554.58,975.11,550.64,972.7,547.16,972.7Z"/><path class="cls-4" d="M556.71,1022.43c-.6-9.71-18.6-17.4-25.59-12-6.72,5.19-4.78,23.68,4.59,27.23C544.27,1040.88,557.24,1031,556.71,1022.43Z"/><path class="cls-2" d="M539.29,1038.86a10.66,10.66,0,0,1-3.79-.65c-5.24-2-7.92-8.18-8.69-13.32-1-6.48.59-12.35,4-14.94s9.63-2.53,15.83.28c5,2.25,10.38,6.62,10.72,12.16h0c.26,4.21-2.56,9-7.37,12.57A18.49,18.49,0,0,1,539.29,1038.86Zm-2-29.61a9.51,9.51,0,0,0-5.83,1.65c-3,2.29-4.38,7.85-3.49,13.81.71,4.8,3.17,10.58,7.92,12.38,3.72,1.4,8.82.22,13.31-3.09s7.11-7.78,6.88-11.53c-.2-3.29-2.94-7.94-10-11.15A21.82,21.82,0,0,0,537.32,1009.25Z"/><path class="cls-4" d="M490.41,1009.85c4-8.72,19-10.06,23.85-4.75,6.07,6.64-1.8,25.73-10.27,26.31C496.79,1031.9,486.14,1019.18,490.41,1009.85Z"/><path class="cls-2" d="M503.59,1032c-3.66,0-8.15-3-11.31-7.55-3.48-5-4.38-10.58-2.42-14.87h0c1.88-4.1,6.38-7.08,12-8,5.3-.84,10.33.37,12.8,3.07,3.52,3.85,2.43,11.06.42,16.07S509,1031.66,504,1032ZM491,1010.1h0c-1.78,3.9-.92,9,2.31,13.68,3,4.36,7.41,7.25,10.69,7,3.61-.25,7.65-4.46,10.06-10.49s2.39-12-.2-14.81c-2.17-2.38-6.88-3.46-11.73-2.7C496.82,1003.64,492.66,1006.36,491,1010.1Z"/><path class="cls-4" d="M497.13,980.21c-.12,9.87,18.54,19,25.61,13.87,6.55-4.73,5.59-23.45-4.13-27.45C510,963.11,497.24,972.11,497.13,980.21Z"/><path class="cls-2" d="M517.35,996.15a23.33,23.33,0,0,1-10.4-2.86c-5.08-2.64-10.49-7.47-10.42-13.08h0c.05-4,3.05-8.49,7.81-11.63,4.94-3.27,10.36-4.2,14.49-2.5,4.54,1.86,7.72,7,8.52,13.73.76,6.44-1,12.37-4.26,14.76A9.75,9.75,0,0,1,517.35,996.15Zm-19.62-15.93c-.05,4.18,3.78,8.9,9.78,12,5.83,3,11.81,3.58,14.88,1.37s4.47-7.73,3.77-13.65c-.75-6.3-3.66-11.07-7.78-12.76-3.77-1.55-8.77-.66-13.38,2.39-4.37,2.88-7.22,7.06-7.27,10.64Z"/><path class="cls-2" d="M526.17,965.75A36.22,36.22,0,1,1,490,1002a36.22,36.22,0,0,1,36.22-36.22m0-41.93A78.06,78.06,0,1,0,556.6,930a77.63,77.63,0,0,0-30.43-6.16Z"/></g><g id="hjul-2" data-name="hjul"><path class="cls-42" d="M82.54,1037.6c10.55-37.09,3.19-76-21.32-99.24C18.86,898.2-64,915.79-88.16,964.2c-15.08,30.18-3,63.51,1,73.4"/><path class="cls-2" d="M-88,1037.94a117.48,117.48,0,0,1-7.73-29.32c-2.06-16.7.21-31.78,6.73-44.82C-83,951.91-73.2,941.27-60.56,933a111.36,111.36,0,0,1,41.34-16,108.69,108.69,0,0,1,43.43.95c14.81,3.5,27.47,10.16,37.63,19.79,12,11.4,20.34,26.92,24.07,44.9,3.64,17.57,2.78,36.67-2.51,55.25l-1.72-.5c5.2-18.29,6-37.1,2.47-54.38-3.66-17.62-11.8-32.82-23.55-44-19.09-18.1-48.82-25.68-79.51-20.28s-57,23-68.44,45.87c-5.86,11.72-13.51,36.75,1.06,72.66Z"/><circle class="cls-44" cx="-1.71" cy="1002.52" r="36.53"/><path class="cls-4" d="M18.77,972.26c-9.2.59-16.25,17.2-11.32,23.72s22.53,4.46,25.75-4.26C36.1,983.89,26.94,971.74,18.77,972.26Z"/><path class="cls-2" d="M17.59,1000.39c-4.7,0-8.67-1.47-10.62-4-2.43-3.23-2.31-9,.32-14.75,2.1-4.58,6.21-9.6,11.44-9.94h0c4-.25,8.55,2.37,11.89,6.85s4.55,9.63,3.14,13.42c-1.82,4.93-7.73,7.47-12.65,8.19A23.78,23.78,0,0,1,17.59,1000.39Zm1.69-27.55-.47,0h0c-4.71.3-8.48,5-10.43,9.24-2.41,5.26-2.59,10.69-.45,13.52s7.36,4.15,13,3.32c4.58-.68,10.06-3,11.7-7.42,1.26-3.42.12-8.13-3-12.3C26.7,975.25,22.76,972.84,19.28,972.84Z"/><path class="cls-4" d="M28.83,1022.57c-.6-9.71-18.6-17.4-25.59-12-6.72,5.19-4.78,23.68,4.59,27.23C16.39,1041,29.36,1031.12,28.83,1022.57Z"/><path class="cls-2" d="M11.41,1039a10.66,10.66,0,0,1-3.79-.65c-5.24-2-7.92-8.18-8.69-13.32-1-6.48.59-12.35,4-14.94s9.63-2.53,15.84.28c5,2.25,10.37,6.63,10.71,12.16h0c.26,4.21-2.56,9-7.36,12.57A18.54,18.54,0,0,1,11.41,1039Zm-2-29.6A9.5,9.5,0,0,0,3.61,1011c-3,2.29-4.38,7.85-3.49,13.81.71,4.81,3.17,10.58,7.92,12.38,3.72,1.4,8.82.22,13.31-3.09s7.11-7.78,6.88-11.53h0c-.2-3.29-2.94-7.94-10-11.15A21.79,21.79,0,0,0,9.44,1009.4Z"/><path class="cls-2" d="M-1.71,965.89a36.22,36.22,0,0,1,36.22,36.22,36.22,36.22,0,0,1-36.22,36.22,36.22,36.22,0,0,1-36.22-36.22A36.22,36.22,0,0,1-1.71,965.89m0-41.93a77.63,77.63,0,0,0-30.43,6.16A77.58,77.58,0,0,0-57,946.85,77.79,77.79,0,0,0-73.7,971.68a77.63,77.63,0,0,0-6.16,30.43,77.63,77.63,0,0,0,6.16,30.43A78,78,0,0,0-57,1057.37a77.9,77.9,0,0,0,24.83,16.73,77.63,77.63,0,0,0,30.43,6.16,77.63,77.63,0,0,0,30.43-6.16,77.9,77.9,0,0,0,24.83-16.73,77.85,77.85,0,0,0,16.73-24.83,77.63,77.63,0,0,0,6.16-30.43,77.63,77.63,0,0,0-6.16-30.43,77.63,77.63,0,0,0-16.73-24.83,77.58,77.58,0,0,0-24.83-16.73A77.63,77.63,0,0,0-1.71,924Z"/></g><path class="cls-45" d="M81.15,864.92c5.19-13.65,15.15-34.77,33.74-52.66,23.31-22.45,48.06-28.15,72.52-33.79a213.45,213.45,0,0,1,61.56-5q.94,45,1.88,90Z"/><path class="cls-46" d="M277,773q.3,44.87.62,89.71l171.52,1.77c-7-32.46-20.58-49.78-28.41-57.93-4.6-4.8-19.49-18.69-81.56-28.05A503.16,503.16,0,0,0,277,773Z"/><g id="dreng"><path class="cls-31" d="M416.26,830.53l-2.79-1.83a4.36,4.36,0,0,0-6,1.24l-10.78,16.37c-5-6.78-11.46-16.52-21.41-25.07-1.72-1.47-4.44-3.83-6.64-2.55-1.62.95-2.46,3.55-2.62,5.54-.48.19-1,.38-1.66.57-14.17,4.37-22.93-5.2-28.54-1.42a7,7,0,0,0-2,2.19l-.37.15q-8.88,19-17.77,37.95l6.42.06a14.41,14.41,0,0,0,7.14.08,17.23,17.23,0,0,0,9.39-7,22.24,22.24,0,0,0,5.73,4.92c6,3.54,12.37,3.26,15.72,2.84,9.38.81,18.3-2.71,22.45-9.57a17.11,17.11,0,0,0,2.08-5.27l6.24,8.65a7.08,7.08,0,0,0,3.69,4.29,5.83,5.83,0,0,0,6.86-1.63l16.13-24.48A4.37,4.37,0,0,0,416.26,830.53Z"/><path class="cls-47" d="M356.28,865a23.51,23.51,0,0,1-12-3.1,22.21,22.21,0,0,1-5.64-4.81,17.11,17.11,0,0,1-9.37,6.89,14.69,14.69,0,0,1-7.21-.07l-6.61-.06,17.89-38.21.05,0,.26-.12.07,0a7.23,7.23,0,0,1,2-2.2c2.54-1.71,5.66-.75,9.62.45,4.95,1.51,11.1,3.38,19,1,.52-.16,1-.33,1.56-.53.19-2.12,1.09-4.64,2.68-5.56,2.29-1.34,5,1,6.79,2.53,8.67,7.46,14.62,15.68,19.39,22.28.68.93,1.32,1.82,1.94,2.66l10.66-16.18a4.53,4.53,0,0,1,6.24-1.29l2.79,1.84a4.51,4.51,0,0,1,1.28,6.24L401.5,861.13a6,6,0,0,1-2.84,1.93,6.18,6.18,0,0,1-4.21-.24,7.21,7.21,0,0,1-3.77-4.36l-6-8.37a17.26,17.26,0,0,1-2,5c-4.05,6.69-12.92,10.47-22.59,9.64A30.36,30.36,0,0,1,356.28,865Zm-17.69-8.4.13.15a22,22,0,0,0,5.68,4.89c5.51,3.26,11.54,3.33,15.63,2.82,9.59.83,18.35-2.9,22.35-9.49a17,17,0,0,0,2.05-5.24l.07-.32,6.46,9a7.07,7.07,0,0,0,3.61,4.19,5.92,5.92,0,0,0,4,.22,5.72,5.72,0,0,0,2.69-1.82l16.11-24.47a4.2,4.2,0,0,0-1.2-5.82l-2.78-1.84a4.23,4.23,0,0,0-5.83,1.2l-10.89,16.55-.13-.17-2.07-2.85c-4.77-6.59-10.7-14.79-19.32-22.2-1.75-1.5-4.36-3.75-6.47-2.53-1.52.89-2.37,3.37-2.54,5.43v.09l-.08,0c-.57.22-1.12.41-1.67.58-7.95,2.44-14.15.55-19.14-1-3.88-1.19-6.94-2.12-9.36-.49a7.06,7.06,0,0,0-2,2.14l0,.05-.16.06-.2.08-17.64,37.69,6.18.06a14.37,14.37,0,0,0,7.1.08c3.48-.89,6.7-3.29,9.31-6.93Z"/><path class="cls-48" d="M347.13,829.22a29.31,29.31,0,0,1-2.81,4.76,28,28,0,0,1-2.78,3.29c-1.83,1.9-5,8.45-10.57,26.8q8.07.21,16.27.34c2.94.05,9.6.16,16.53.19,5.81,0,13.61,0,23.06-.14-.55-4.88-1.29-8.91-1.93-11.89-1.53-7.2-2.7-9.41-3.28-10.41a23.07,23.07,0,0,0-6.35-7,25.12,25.12,0,0,0-.17-4.14,25.55,25.55,0,0,0-2.38-8,27.85,27.85,0,0,1-3.23,2.29,26.23,26.23,0,0,1-3.6,1.84,11.49,11.49,0,0,1,1.69,4,11,11,0,0,1,.24,2.76c-2.05.19-4.16.37-6.32.51q-3.6.23-7,.33c-.17-.61-.33-1.23-.49-1.87-.23-1-.44-1.86-.62-2.75A22,22,0,0,1,347.13,829.22Z"/><path class="cls-47" d="M368.67,864.77l-4.9,0c-7,0-13.67-.14-16.53-.19-5.38-.09-10.85-.2-16.27-.34h-.2l.06-.19c4.72-15.43,8.29-24.46,10.6-26.85l.06-.06a29.19,29.19,0,0,0,2.71-3.22,29.52,29.52,0,0,0,2.79-4.73l.06-.11.41.1a20.74,20.74,0,0,0,5.93.79h.13l0,.13c.19.91.39,1.83.62,2.74.14.59.3,1.18.45,1.76,2.28-.07,4.59-.19,6.88-.33,2.06-.14,4.14-.3,6.19-.5a11.23,11.23,0,0,0-1.92-6.54l-.1-.15.17-.07a28.86,28.86,0,0,0,3.59-1.83,28.43,28.43,0,0,0,3.21-2.29l.14-.12.09.17a26,26,0,0,1,2.39,8.07,25.36,25.36,0,0,1,.18,4.09,23.29,23.29,0,0,1,6.32,7c.47.81,1.7,2.94,3.3,10.46.83,3.88,1.48,7.89,1.93,11.9l0,.16h-.17C380.69,864.71,374.6,864.77,368.67,864.77Zm-37.5-.85c5.36.14,10.76.25,16.08.34,2.85,0,9.54.16,16.52.19,7.4,0,15.1,0,22.89-.14-.45-3.95-1.09-7.89-1.9-11.71-1.6-7.48-2.81-9.58-3.27-10.37a23,23,0,0,0-6.3-7l-.07,0v-.08A24.74,24.74,0,0,0,375,831a25.49,25.49,0,0,0-2.28-7.8,26.68,26.68,0,0,1-3.1,2.19,28.25,28.25,0,0,1-3.46,1.78,11.55,11.55,0,0,1,1.62,3.91,11.37,11.37,0,0,1,.24,2.79V834l-.13,0c-2.09.2-4.22.37-6.33.51-2.33.15-4.68.26-7,.33h-.12l0-.11c-.17-.62-.34-1.25-.49-1.88-.22-.87-.42-1.75-.6-2.63a21.12,21.12,0,0,1-5.88-.8l-.18,0a30,30,0,0,1-2.77,4.66,28,28,0,0,1-2.74,3.26l-.05.06C339.38,839.72,335.85,848.65,331.17,863.92Z"/><path class="cls-49" d="M276.8,772.74q.31,45.27.62,90.53l173.1,1.79c-7.1-32.76-20.77-50.24-28.67-58.47-4.65-4.84-19.67-18.85-82.31-28.3A510,510,0,0,0,276.8,772.74Z"/><path class="cls-50" d="M387.7,779.54c-1.41-4.83-4.39-8.21-6.66-7.55a2.54,2.54,0,0,0-1.43,1.2,33.9,33.9,0,0,0-27.86-14.88c-19,0-34.4,16.1-34.4,36a38.74,38.74,0,0,0,.39,5.42,2.71,2.71,0,0,0-2.31,0c-2.1,1.08-1.94,5.58.37,10.06s5.88,7.22,8,6.14a2.11,2.11,0,0,0,.31-.21,33.87,33.87,0,0,0,27.66,14.6c19,0,34.4-16.11,34.4-36a37,37,0,0,0-.31-4.74,1.35,1.35,0,0,0,.29,0C388.4,788.83,389.1,784.38,387.7,779.54Z"/><path class="cls-51" d="M351.75,830.4a34.26,34.26,0,0,1-27.7-14.53,1,1,0,0,1-.2.13c-1.07.55-2.52.19-4.08-1a16,16,0,0,1-4.11-5.21c-2.34-4.54-2.48-9.15-.3-10.27a2.75,2.75,0,0,1,2.19-.06,39,39,0,0,1-.35-5.18c0-19.92,15.5-36.13,34.55-36.13a34.21,34.21,0,0,1,27.86,14.76,2.56,2.56,0,0,1,1.39-1.07c1.16-.34,2.51.29,3.81,1.76a17.34,17.34,0,0,1,3.64,12.51c-.31,1.94-1.11,3.19-2.27,3.53l-.16,0a38.21,38.21,0,0,1,.28,4.6C386.3,814.2,370.8,830.4,351.75,830.4Zm-27.63-15,.1.13a33.92,33.92,0,0,0,27.53,14.53c18.88,0,34.24-16.07,34.24-35.81a38.36,38.36,0,0,0-.3-4.72l0-.15.2,0,.22,0c1-.3,1.76-1.47,2.05-3.28a17,17,0,0,0-3.56-12.25c-1.22-1.38-2.46-2-3.49-1.67a2.33,2.33,0,0,0-1.34,1.13l-.13.21-.13-.2a33.94,33.94,0,0,0-27.74-14.82c-18.88,0-34.24,16.07-34.24,35.82a37.52,37.52,0,0,0,.39,5.4l0,.26-.25-.1a2.66,2.66,0,0,0-2.19-.05c-2,1.05-1.83,5.47.44,9.86a15.54,15.54,0,0,0,4,5.1c1.46,1.12,2.79,1.46,3.75,1a2.43,2.43,0,0,0,.29-.19Z"/><ellipse class="cls-52" cx="333.1" cy="738.63" rx="7.71" ry="2.41" transform="translate(-444.24 510) rotate(-49.34)"/><path class="cls-47" d="M328.73,744.77a1.07,1.07,0,0,1-.7-.23c-1.06-.91.34-4.22,3.19-7.53s5.9-5.19,7-4.28-.34,4.21-3.19,7.52h0C332.63,743,330.12,744.77,328.73,744.77Zm8.73-12.12c-1.31,0-3.82,1.78-6.12,4.46-2.74,3.19-4.18,6.47-3.21,7.31s4-1.08,6.74-4.27h0c2.74-3.19,4.18-6.47,3.21-7.3A.91.91,0,0,0,337.46,732.65Z"/><ellipse class="cls-52" cx="321.7" cy="748.91" rx="7.71" ry="2.41" transform="translate(-406.48 382.7) rotate(-40.06)"/><path class="cls-47" d="M316.72,754.29a1.21,1.21,0,0,1-1-.37c-.89-1.06,1-4.1,4.36-6.91a19,19,0,0,1,4.65-3c1.44-.6,2.47-.65,2.91-.13.9,1.07-1,4.11-4.36,6.92h0C320.73,753,318.17,754.29,316.72,754.29Zm10-10.59a5.07,5.07,0,0,0-1.88.48,18.78,18.78,0,0,0-4.61,3c-3.22,2.71-5.16,5.71-4.34,6.69s4.12-.41,7.34-3.12h0c3.22-2.71,5.17-5.71,4.34-6.7A1.07,1.07,0,0,0,326.69,743.7Z"/><rect class="cls-47" x="328.3" y="743.78" width="0.62" height="6.14" transform="translate(-227.71 149.96) rotate(-19.24)"/><path class="cls-47" d="M363,796.11a4.11,4.11,0,0,1-2.08-.63.7.7,0,0,1-.32-.7.4.4,0,0,1,.39-.29v.62a.21.21,0,0,0,.17-.09.21.21,0,0,0,0-.13.11.11,0,0,0,0,.06c.93.56,2.17.82,2.86.12a1.85,1.85,0,0,0,.46-.94,2.94,2.94,0,0,0-4.12-3.25l-.27-.56a3.56,3.56,0,0,1,5,3.93,2.54,2.54,0,0,1-.62,1.26A2.17,2.17,0,0,1,363,796.11Z"/><path class="cls-47" d="M335.4,788.85l-.37-.5c1.6-1.16,3.73-1.11,5.6-1,2.9.21,5.82.55,8.7,1l-.1.62c-2.85-.44-5.76-.78-8.65-1C338.82,787.87,336.83,787.82,335.4,788.85Z"/><path class="cls-47" d="M362.56,783.45a2.87,2.87,0,0,1,.65-2.42,26.83,26.83,0,0,1,7.62-7.43l.34.52a26.25,26.25,0,0,0-7.44,7.26,2.35,2.35,0,0,0-.58,1.88Z"/><ellipse class="cls-31" cx="371.41" cy="781.61" rx="5.23" ry="4.3" transform="translate(-402.46 394.33) rotate(-38)"/><path class="cls-47" d="M370.49,786.6A4.28,4.28,0,0,1,367,785c-1.57-2-.88-5.16,1.53-7a6.18,6.18,0,0,1,3.75-1.35h.14a4.28,4.28,0,0,1,3.32,1.58c1.57,2,.88,5.17-1.53,7h0A6.17,6.17,0,0,1,370.49,786.6Zm1.83-9.35a5.52,5.52,0,0,0-3.37,1.22c-2.14,1.67-2.77,4.44-1.42,6.17s4.2,1.79,6.34.12h0c2.14-1.67,2.77-4.44,1.42-6.18a3.63,3.63,0,0,0-2.85-1.33Z"/><ellipse class="cls-31" cx="342.87" cy="794.65" rx="5.66" ry="4.35"/><path class="cls-47" d="M342.87,799.31c-3.29,0-6-2.09-6-4.66s2.68-4.66,6-4.66,6,2.09,6,4.66S346.17,799.31,342.87,799.31Zm0-8.69c-2.95,0-5.35,1.81-5.35,4s2.4,4,5.35,4,5.35-1.81,5.35-4S345.82,790.62,342.87,790.62Z"/><ellipse class="cls-47" cx="345.55" cy="794.28" rx="2.99" ry="3.49"/><ellipse class="cls-47" cx="373.81" cy="780.3" rx="2.73" ry="3.15" transform="translate(-236.2 166.71) rotate(-19.24)"/><path class="cls-53" d="M373.7,790.42a.16.16,0,1,0,0-.31.16.16,0,0,0,0,.31Z"/><path class="cls-53" d="M374.05,789.14a.16.16,0,0,0,0-.31.16.16,0,0,0,0,.31Z"/><path class="cls-53" d="M374.3,788.11a.16.16,0,0,0,0-.31.16.16,0,0,0,0,.31Z"/><path class="cls-53" d="M377.55,789.91a.16.16,0,0,0,0-.31.16.16,0,0,0,0,.31Z"/><path class="cls-53" d="M376,788.8a.16.16,0,0,0,0-.31.16.16,0,0,0,0,.31Z"/><path class="cls-53" d="M376.53,786.83a.16.16,0,0,0,0-.31.16.16,0,0,0,0,.31Z"/><path class="cls-53" d="M375,786.23a.16.16,0,0,0,0-.31.16.16,0,0,0,0,.31Z"/><path class="cls-53" d="M373,789.05a.16.16,0,0,0,0-.31.16.16,0,0,0,0,.31Z"/><path class="cls-53" d="M371,790a.16.16,0,0,0,0-.31.16.16,0,0,0,0,.31Z"/><path class="cls-53" d="M370.45,788.88a.16.16,0,0,0,0-.31.16.16,0,0,0,0,.31Z"/><path class="cls-53" d="M371.05,791.62a.16.16,0,0,0,0-.31.16.16,0,0,0,0,.31Z"/><path class="cls-53" d="M374.05,790.34a.16.16,0,0,0,0-.32.16.16,0,0,0,0,.32Z"/><path class="cls-53" d="M376.87,791a.16.16,0,0,0,0-.31.16.16,0,0,0,0,.31Z"/><path class="cls-53" d="M378.75,790.42a.16.16,0,0,0,0-.31.16.16,0,0,0,0,.31Z"/><path class="cls-53" d="M377,788.71a.16.16,0,0,0,0-.31.16.16,0,1,0,0,.31Z"/><path class="cls-53" d="M378.67,787.34a.16.16,0,0,0,0-.31.16.16,0,0,0,0,.31Z"/><path class="cls-53" d="M378.41,786.32a.16.16,0,0,0,0-.32.16.16,0,0,0,0,.32Z"/><path class="cls-53" d="M374.82,792.13a.16.16,0,0,0,0-.31.16.16,0,0,0,0,.31Z"/><path class="cls-53" d="M343.08,802.4a.16.16,0,0,0,0-.31.16.16,0,0,0,0,.31Z"/><path class="cls-53" d="M345.39,802.31h.23l.05,0,0,0s0,0,0-.06v0s0,0,0-.06a.14.14,0,0,0-.11,0h-.23l-.05,0,0,.05s0,0,0,.06v0a.25.25,0,0,0,0,.07.21.21,0,0,0,.11,0Z"/><path class="cls-53" d="M347.15,801.64l.09-.18s0,0,0-.05a.2.2,0,0,0,0-.07s0,0,0-.05l0,0a.13.13,0,0,0-.12,0,.13.13,0,0,0-.09.07l-.09.17a.14.14,0,0,0,0,.06.13.13,0,0,0,0,.06.08.08,0,0,0,0,0l.05,0a.16.16,0,0,0,.12,0,.16.16,0,0,0,.09-.07Z"/><path class="cls-53" d="M346.67,800.43a.16.16,0,1,0,0-.31.16.16,0,0,0,0,.31Z"/><path class="cls-53" d="M342.31,801a.16.16,0,0,0,0-.31.16.16,0,0,0,0,.31Z"/><path class="cls-53" d="M340.26,801.63a.16.16,0,0,0,0-.31.16.16,0,0,0,0,.31Z"/><path class="cls-53" d="M339.83,804.19a.16.16,0,0,0,0-.31.16.16,0,0,0,0,.31Z"/><path class="cls-53" d="M342.31,803.94a.16.16,0,0,0,0-.31.16.16,0,0,0,0,.31Z"/><path class="cls-53" d="M348.56,803.25a.16.16,0,0,0,0-.31.16.16,0,0,0,0,.31Z"/><path class="cls-53" d="M348.47,802.14a.16.16,0,0,0,0-.31.16.16,0,0,0,0,.31Z"/><path class="cls-53" d="M346.5,803.94a.16.16,0,0,0,0-.31.16.16,0,0,0,0,.31Z"/><path class="cls-53" d="M345.9,805.13a.16.16,0,1,0,0-.31.16.16,0,0,0,0,.31Z"/><path class="cls-53" d="M349.16,805.39a.16.16,0,0,0,0-.31.16.16,0,1,0,0,.31Z"/><path class="cls-53" d="M345.48,801.37a.16.16,0,0,0,0-.31.16.16,0,0,0,0,.31Z"/><path class="cls-53" d="M343.08,802.23a.16.16,0,0,0,0-.32.16.16,0,0,0,0,.32Z"/><path class="cls-53" d="M344.62,804.45a.16.16,0,0,0,0-.31.16.16,0,0,0,0,.31Z"/><path class="cls-53" d="M341.37,804.45a.16.16,0,0,0,0-.31.16.16,0,0,0,0,.31Z"/><path class="cls-53" d="M341.46,802.31a.16.16,0,0,0,0-.31.16.16,0,0,0,0,.31Z"/><path class="cls-53" d="M345,805.13a.16.16,0,0,0,0-.31.16.16,0,0,0,0,.31Z"/><path class="cls-53" d="M344.88,803.42a.16.16,0,0,0,0-.31.16.16,0,0,0,0,.31Z"/><path class="cls-53" d="M347.36,803.17a.16.16,0,0,0,0-.31.16.16,0,0,0,0,.31Z"/><path class="cls-53" d="M348.3,802a.16.16,0,0,0,0-.31.16.16,0,0,0,0,.31Z"/><path class="cls-53" d="M350.44,803.94a.16.16,0,0,0,0-.31.16.16,0,0,0,0,.31Z"/><path class="cls-53" d="M344.71,806.42a.16.16,0,0,0,0-.31.16.16,0,0,0,0,.31Z"/><path class="cls-53" d="M340.88,803.59l-.08-.09s0,0-.05,0l-.06,0-.06,0a.05.05,0,0,0-.05,0l0,0a.24.24,0,0,0,0,.08v0a.1.1,0,0,0,0,.07l.08.09,0,0h.12l.05,0,0,0a.19.19,0,0,0,0-.07v-.05a.08.08,0,0,0,0-.06Z"/><path class="cls-53" d="M338.46,801.37a.16.16,0,0,0,0-.31.16.16,0,0,0,0,.31Z"/><path class="cls-54" d="M314.21,779.73a12.78,12.78,0,0,0-2.18,11.7,13.23,13.23,0,0,0,5.05,6.71c5.25,3.81,11.31,2.71,12.55,2.46a72.52,72.52,0,0,0-.82-7.66c-.37-2.3-.83-4.43-1.32-6.37a11,11,0,0,0,4.53-4.71,50.33,50.33,0,0,0,19.79-.19c5.76-1.23,10.75-4.1,20.74-9.85,3.4-2,6.52-4,6.71-6.85.15-2.33-1.65-4.27-2.47-5.15a11.55,11.55,0,0,0-5.71-3.25c-2.11-.56-6.08-1.18-16.69,1.92a114.38,114.38,0,0,0-18.83,7.59c-2.84,1.47-4.67,2.6-5.09,2.86-4,2.48-4.74,3.54-8.36,6C316.46,778.67,315.94,777.67,314.21,779.73Z"/><path class="cls-55" d="M326.13,801.1a15.4,15.4,0,0,1-9.14-2.84,13.22,13.22,0,0,1-5.1-6.78,12.84,12.84,0,0,1,2.21-11.85,5.9,5.9,0,0,1,2.57-1.84,33,33,0,0,0,5.35-3c1.6-1.06,2.64-1.87,3.64-2.64a49.62,49.62,0,0,1,4.73-3.32c.66-.41,2.47-1.51,5.1-2.86a115.23,115.23,0,0,1,18.86-7.61c10.15-3,14.29-2.58,16.77-1.92a12,12,0,0,1,5.79,3.29c.79.86,2.66,2.87,2.5,5.27-.19,2.95-3.32,5-6.78,7-10,5.74-15,8.63-20.79,9.86a50,50,0,0,1-19.73.21,10.93,10.93,0,0,1-4.44,4.61c.52,2.07,1,4.18,1.3,6.28a73,73,0,0,1,.81,7.67v.14l-.13,0A18,18,0,0,1,326.13,801.1Zm41.16-44.84c-2.67,0-6.62.56-12.86,2.38a115.78,115.78,0,0,0-18.8,7.58c-2.62,1.36-4.42,2.45-5.08,2.86a50.5,50.5,0,0,0-4.7,3.29c-1,.78-2.05,1.59-3.66,2.66a34.2,34.2,0,0,1-5.39,3.05,5.61,5.61,0,0,0-2.47,1.75h0a12.58,12.58,0,0,0-2.15,11.55,13,13,0,0,0,5,6.63,16,16,0,0,0,12.29,2.46,69.59,69.59,0,0,0-.8-7.5c-.34-2.13-.79-4.27-1.32-6.36l0-.11.1-.06a10.74,10.74,0,0,0,4.47-4.65l.05-.11.12,0a49.63,49.63,0,0,0,19.73-.2c5.73-1.22,10.73-4.09,20.69-9.82,3.39-2,6.45-3.94,6.63-6.73.15-2.26-1.59-4.13-2.42-5a11.69,11.69,0,0,0-5.64-3.21A14,14,0,0,0,367.29,756.26Z"/><path class="cls-56" d="M321.56,757.12a25.38,25.38,0,0,0-3.68,4.88,22.81,22.81,0,0,0-3,8,37.63,37.63,0,0,0-.34,4.39c-.08,1.93-.06,3.56,0,4.73a8.76,8.76,0,0,0,2-1.14,44.07,44.07,0,0,1,5.6-3.07,72.17,72.17,0,0,1-.55-17.78Z"/><path class="cls-47" d="M314.37,779.32v-.21c-.05-1.55,0-3.15,0-4.74a35.24,35.24,0,0,1,.34-4.4,22.8,22.8,0,0,1,3-8.05,26.29,26.29,0,0,1,3.71-4.91l.3-.32,0,.45a73.2,73.2,0,0,0,.55,17.74l0,.12-.11,0a44.46,44.46,0,0,0-5.58,3.06l-.4.27a6.7,6.7,0,0,1-1.62.89Zm7-21.76a25.44,25.44,0,0,0-3.35,4.52,22.48,22.48,0,0,0-3,7.94,34.38,34.38,0,0,0-.34,4.37c-.06,1.51-.08,3,0,4.5a7.49,7.49,0,0,0,1.34-.77l.41-.28a43.41,43.41,0,0,1,5.51-3,73,73,0,0,1-.81-9.34A74.72,74.72,0,0,1,321.36,757.56Z"/><path class="cls-57" d="M329.62,749.75c.48,1.27,1,2.53,1.46,3.8q2.48,6.36,5,12.47c-.61.28-1.43.67-2.39,1.16-.59.3-2.52,1.31-5.29,3.08-1.75,1.12-3.95,2.62-6.44,4.55-.18-2-.32-3.66-.41-4.93-.65-8.7-.34-6.37-.32-10a13.68,13.68,0,0,1,.16-2.28,6.51,6.51,0,0,1,1.23-2.49,19,19,0,0,1,5.22-4.57l0,0A8.25,8.25,0,0,1,329.62,749.75Z"/><path class="cls-47" d="M321.86,775.1l0-.28c-.16-1.65-.29-3.31-.42-4.93-.46-6.27-.44-6.81-.38-8,0-.45.06-1,.06-2a13.48,13.48,0,0,1,.17-2.31,6.44,6.44,0,0,1,1.25-2.55,19.2,19.2,0,0,1,5.27-4.61l0,0a8.65,8.65,0,0,1,1.73-.8l.15-.05,0,.14c.48,1.26,1,2.53,1.46,3.79,1.61,4.17,3.3,8.37,5,12.47l.06.14-.14.06c-.8.37-1.6.76-2.38,1.16-1.1.57-2.91,1.56-5.28,3.07-2.17,1.39-4.33,2.92-6.42,4.54ZM328,750.69a19,19,0,0,0-5.2,4.54,6.06,6.06,0,0,0-1.2,2.43,12.75,12.75,0,0,0-.17,2.26c0,1,0,1.56-.05,2-.06,1.17-.09,1.7.37,8,.12,1.52.25,3.08.39,4.64,2-1.56,4.12-3,6.22-4.38,2.38-1.52,4.2-2.52,5.3-3.09.75-.38,1.51-.75,2.26-1.1-1.69-4.06-3.36-8.21-5-12.33-.48-1.23-.95-2.44-1.41-3.66a8.61,8.61,0,0,0-1.54.73Z"/><path class="cls-58" d="M329.62,749.49a19.92,19.92,0,0,1,8,1,18.36,18.36,0,0,1,8.41,5.68,17.89,17.89,0,0,1,2.48,4.05c-2,.74-4,1.62-6.2,2.67s-4.18,2.14-6,3.21c-2-4.37-3.87-8.78-5.52-13.3C330.43,751.69,330,750.62,329.62,749.49Z"/><path class="cls-47" d="M336.29,766.33l-.08-.16c-2.18-4.75-4-9.11-5.52-13.3-.14-.4-.29-.79-.44-1.18-.26-.7-.53-1.42-.78-2.15l-.06-.19h.2a19.87,19.87,0,0,1,8.09,1,18.42,18.42,0,0,1,8.48,5.72,17.8,17.8,0,0,1,2.5,4.09l.06.15-.15.06c-2.09.79-4.17,1.69-6.19,2.66s-4,2.06-6,3.2Zm-6.46-16.7c.23.66.48,1.32.72,2,.14.39.29.78.44,1.18,1.5,4.14,3.28,8.44,5.44,13.13,1.89-1.12,3.86-2.17,5.84-3.13s4-1.83,6.06-2.61a17.25,17.25,0,0,0-2.39-3.87,18.17,18.17,0,0,0-8.34-5.63A19.77,19.77,0,0,0,329.83,749.63Z"/><path class="cls-59" d="M331,749.51a25.12,25.12,0,0,1,6.74-2.12,20,20,0,0,1,2.76-.26,21.33,21.33,0,0,1,5.33.67,14.32,14.32,0,0,1,3,1,17.24,17.24,0,0,1,2.16,1.34,38.07,38.07,0,0,1,3.06,2.29,21,21,0,0,1,4.26,5,13.53,13.53,0,0,0-3.59.81l-4,1.28-2,.64a20.38,20.38,0,0,0-2.18-3.13,22,22,0,0,0-4.07-3.67,17.68,17.68,0,0,0-8.42-3.81A14.85,14.85,0,0,0,331,749.51Z"/><path class="cls-47" d="M348.65,760.35l-.06-.11a20.21,20.21,0,0,0-2.16-3.1,22.52,22.52,0,0,0-4-3.64c-2.09-1.5-4.65-3.33-8.35-3.79a14.81,14.81,0,0,0-3.05,0l-.87.08.79-.38a24.8,24.8,0,0,1,6.78-2.13,20.64,20.64,0,0,1,2.78-.27,21.41,21.41,0,0,1,5.36.68,14.27,14.27,0,0,1,3.05,1,17.33,17.33,0,0,1,2.18,1.36,36.62,36.62,0,0,1,3.08,2.29,21.1,21.1,0,0,1,4.28,5.07l.14.22-.26,0a12.85,12.85,0,0,0-3.46.77ZM332.3,749.3a15.05,15.05,0,0,1,1.78.1,17.92,17.92,0,0,1,8.47,3.82,22.71,22.71,0,0,1,4.12,3.72,20.21,20.21,0,0,1,2.13,3l5.94-1.9a14.25,14.25,0,0,1,3.28-.78,20.54,20.54,0,0,0-4.09-4.77,36.63,36.63,0,0,0-3.05-2.28,17.39,17.39,0,0,0-2.14-1.33,13.65,13.65,0,0,0-3-1,21.77,21.77,0,0,0-5.28-.67,21.16,21.16,0,0,0-2.74.26,24.18,24.18,0,0,0-5.94,1.77Z"/><path class="cls-60" d="M385.42,783.6l-.13-.1c.38-.45,1.16-2.73.79-3a4.38,4.38,0,0,1-1.16-2.62l0-.12a3.33,3.33,0,0,0-1.41-2.46,1.75,1.75,0,0,0-.68-.17,1,1,0,0,0-1.07.74h-.16a1.13,1.13,0,0,1,1.19-.89h.05a1.88,1.88,0,0,1,.74.19,3.44,3.44,0,0,1,1.49,2.56l0,.13a4.18,4.18,0,0,0,1.11,2.53C386.68,780.76,385.74,783.2,385.42,783.6Z"/><path class="cls-60" d="M320.58,811.62l0-.16c-.62-.05-2.82-1.13-2.71-1.65a4.09,4.09,0,0,0-.76-2.85l-.06-.11a3.22,3.22,0,0,1-.43-2.91,2,2,0,0,1,.47-.66c.41-.41,1.08-.6,1.42-.29l.13-.13c-.42-.38-1.15-.16-1.62.27l0,0a2.5,2.5,0,0,0-.52.72,3.37,3.37,0,0,0,.44,3.05l.06.11a4,4,0,0,1,.74,2.75C317.58,810.5,320,811.58,320.58,811.62Z"/><path class="cls-50" d="M422.24,829c1.22-.93,1.87-2,1.56-2.62s-1.17-.75-2.33-.59c1-1,1.54-2,1.16-2.7-.55-1-2.71-.72-4.83.5a9.53,9.53,0,0,0-1.12.76,5.61,5.61,0,0,0-2.73-.71A5.7,5.7,0,0,0,412,824a6.61,6.61,0,0,0-.54-.8c-1.37-1.74-3.34-2.47-4.4-1.64s-.81,2.93.56,4.67a5.91,5.91,0,0,0,1.06,1.06,5.56,5.56,0,0,0-.38,2,5.64,5.64,0,0,0,9.78,3.83,11.06,11.06,0,0,0,1.78-.45c2.38-.8,4.08-2.14,3.79-3C423.53,829.28,423,829.06,422.24,829Z"/><path class="cls-51" d="M414,835.08a5.79,5.79,0,0,1-5.79-5.79,5.69,5.69,0,0,1,.35-1.95,6.44,6.44,0,0,1-1-1c-1.42-1.8-1.66-4-.53-4.88s3.19-.14,4.61,1.66a7,7,0,0,1,.49.72,5.82,5.82,0,0,1,4.59.36,9.65,9.65,0,0,1,1.05-.71c2.23-1.28,4.44-1.48,5-.44.37.63,0,1.6-.89,2.58,1.07-.08,1.8.18,2.06.72s-.19,1.63-1.31,2.57c.65.1,1.06.35,1.18.72s-.17,1.08-.94,1.69a9.92,9.92,0,0,1-2.95,1.5,11.86,11.86,0,0,1-1.75.45A5.79,5.79,0,0,1,414,835.08Zm-5.8-13.72a1.57,1.57,0,0,0-1,.32c-1,.78-.73,2.78.58,4.45a6,6,0,0,0,1,1l.09.07,0,.1A5.48,5.48,0,0,0,418,833l0,0h.05a11.67,11.67,0,0,0,1.76-.45,9.49,9.49,0,0,0,2.85-1.46c.66-.51,1-1,.85-1.35s-.57-.51-1.29-.56l-.4,0,.32-.25c1.19-.9,1.78-1.86,1.51-2.44s-1-.66-2.17-.5L421,826l.34-.33c1-1,1.47-2,1.14-2.51-.49-.86-2.62-.61-4.63.55a11.1,11.1,0,0,0-1.1.74l-.08.07-.08,0a5.48,5.48,0,0,0-4.55-.34l-.12,0-.06-.11a6.77,6.77,0,0,0-.52-.79A4.56,4.56,0,0,0,408.15,821.36Z"/><path class="cls-47" d="M421.52,835.21l-4.75,1.6a1.79,1.79,0,0,1-1.56-.11c-1.45-1,.57-4.59-.6-8.4a9.05,9.05,0,0,0-2.37-3.79c-2.7-2.07-3.88-4.57-3.15-6a2.33,2.33,0,0,1,1.18-1l4.75-1.59a2.06,2.06,0,0,1,2.6,1.28l5.19,15.46Z"/><rect class="cls-47" x="408.26" y="813.05" width="29.1" height="7.53" rx="2.44" transform="translate(-261.94 202.75) rotate(-20.75)"/><path class="cls-47" d="M420.36,825.45l-.16-.57a23,23,0,0,0,3.16-1.17c.48-.22.93-.46,1-.83a1.27,1.27,0,0,0-.15-.71,3.89,3.89,0,0,0-1.16-1.51l.38-.47a4.59,4.59,0,0,1,1.33,1.74A1.86,1.86,0,0,1,425,823c-.16.69-.88,1-1.35,1.23A22.58,22.58,0,0,1,420.36,825.45Z"/><path class="cls-47" d="M422.12,823.45c-1.54-.43-1.83-.77-1.9-1a3.77,3.77,0,0,0-.14-.45,2.07,2.07,0,0,0-.11-.27l.55-.24c0,.06.07.17.12.31a3,3,0,0,1,.15.48s.15.26,1.49.63Z"/><rect class="cls-61" x="407.88" y="812.85" width="29.43" height="5.84" rx="1.44" transform="translate(-261.58 202.6) rotate(-20.75)"/><ellipse class="cls-47" cx="436.26" cy="811.72" rx="1.05" ry="1.38" transform="translate(-210.51 155.29) rotate(-16.32)"/><path class="cls-47" d="M360.29,814a18.26,18.26,0,0,1-3.73-.37l.13-.59a17.32,17.32,0,0,0,13.76-2.93,16.89,16.89,0,0,0,6.32-10.53l.59.1a17.52,17.52,0,0,1-6.54,10.91A17.3,17.3,0,0,1,360.29,814Z"/></g></g><g class="cls-62"><path class="cls-63" d="M278.14,838.23a165.77,165.77,0,0,1,102.37,26.13l-102.19-.91Z"/><path class="cls-2" d="M381.44,864.64l-103.39-.92L277.87,838l.25,0a165.93,165.93,0,0,1,102.54,26.17Zm-102.85-1.46,101,.9a165.36,165.36,0,0,0-101.15-25.59Z"/></g></svg>