<svg xmlns="http://www.w3.org/2000/svg" viewBox="0 0 388.37 127.41"><defs><style>.cls-1{fill:#fff;}.cls-2,.cls-3{fill:#1d1d1b;}.cls-3{font-size:64px;font-family:ChangaOne, Changa One;}</style></defs><g id="Layer_2" data-name="Layer 2"><g id="Layer_1-2" data-name="Layer 1"><path class="cls-1" d="M387.2,63.46c0,19.93-12.19,34.36-15.71,38.54-24.67,29.25-71.88,21.51-177.3,22.46-105.18.94-147.87,9.45-174.47-19C15.6,101,.84,85.19,1.18,63.46,1.51,42.05,16.3,26.88,20.91,22.15,48.76-6.43,90.85,2.55,194.19,2.47S342.93-6.68,369.12,22.15C373.22,26.67,387.22,42.07,387.2,63.46Z"/><path class="cls-2" d="M96.63,127.41c-38.57,0-61.37-3.7-77.81-21.32C6.11,92.47-.22,78.12,0,63.45c.33-21.79,15.14-37,20-42C42.18-1.27,73.21-.62,135,.67c17.2.36,36.71.76,59.16.75,22.19,0,41.72-.45,59-.83C317-.83,349.1-1.54,370,21.49c12.18,13.42,18.35,27.54,18.34,42,0,13.46-5.37,26.64-15.94,39.17-20.1,23.83-54.08,23.54-121.81,23-16.59-.14-35.39-.3-56.42-.11s-39.85.69-56.33,1.13C122.38,127,108.73,127.41,96.63,127.41ZM99.75,2.24c-38.56,0-61.11,3.3-78,20.6C17.06,27.69,2.67,42.45,2.35,63.48c-.22,14.16,5.93,28.05,18.27,41.27,20.87,22.36,51.06,21.56,117.18,19.79,16.49-.44,35.17-.94,56.38-1.13,21-.19,39.86,0,56.47.11,66.92.56,100.51.84,119.9-22.15C380.81,89.21,386,76.45,386,63.46h0c0-13.94-6-27.62-17.82-40.65C348,.58,316.33,1.28,253.2,2.68c-17.24.38-36.79.81-59,.83-22.5,0-42-.39-59.22-.75C121.91,2.49,110.24,2.24,99.75,2.24Z"/><text class="cls-3" transform="translate(50.07 81.33)">PRØV IGEN</text></g></g></svg>