<svg xmlns="http://www.w3.org/2000/svg" viewBox="0 0 171.06 194.83"><defs><style>.cls-1{fill:#fbcea4;}.cls-2{fill:#a3897a;}.cls-13,.cls-3{fill:#bd1622;}.cls-4{fill:#1d1d1b;}.cls-5{fill:#6f1512;}.cls-6{fill:#fbc263;}.cls-7{fill:#c99d66;}.cls-8{fill:#c02663;}.cls-9{fill:#fbc163;}.cls-10{fill:#fff;}.cls-11{fill:#c94c3f;}.cls-12{fill:#7a6a58;}.cls-13{opacity:0.3;}</style></defs><g id="Layer_2" data-name="Layer 2"><g id="Layer_1-2" data-name="Layer 1"><path class="cls-1" d="M140.68,122c.15-.68-1-1.5-2.47-1.84l-.27,0a5,5,0,0,0-.41-1h0c1.51-.52,2.55-1.49,2.32-2.17s-1.65-.8-3.16-.28a6,6,0,0,0-1.14.53,6,6,0,0,0-1.28-.58,5.55,5.55,0,0,0-1-.22,4.71,4.71,0,0,0-1.49-1.34L102.52,98.77c-6.25-9-15.35-14.64-25.49-14.64-9.34,0-17.8,4.8-24,12.58a5.25,5.25,0,0,0-.85.5l-27,19.8a4.8,4.8,0,0,0-1.3,1.44l-.22,0a7.62,7.62,0,0,0-1.4.58,6.32,6.32,0,0,0-1.23-.52c-1.65-.52-3.19-.4-3.44.28s.88,1.64,2.53,2.16h0a4.22,4.22,0,0,0-.46,1l-.28,0c-1.65.33-2.85,1.15-2.68,1.83s1.07.83,2.28.76c-1.21.61-2,1.4-1.72,1.89s1.75.52,3.3-.11a3,3,0,0,0,.36-.16l.19.15c-1,.63-1.53,1.46-1.22,2s1.63.47,2.86-.18a4.69,4.69,0,0,0,1-.74l.21,0-.13.12c-.89.92-1.29,1.93-.9,2.25s1.44-.16,2.33-1.08a4.19,4.19,0,0,0,1-1.46l.32-.06a6.42,6.42,0,0,0,2.84-1.66,4.63,4.63,0,0,0,1.45-.7L44.4,115a55.1,55.1,0,0,0-1.51,12.89c0,24.14,15.28,43.7,34.14,43.7s34.15-19.56,34.15-43.7a54.67,54.67,0,0,0-1.65-13.41l18,9.12a4.5,4.5,0,0,0,1.75.48,5.93,5.93,0,0,0,2.25,1.32l.3.07a4.2,4.2,0,0,0,.88,1.45c.82.93,1.78,1.41,2.15,1.09s0-1.34-.83-2.26l-.11-.12.19,0a4.09,4.09,0,0,0,1,.75c1.13.65,2.31.73,2.63.18s-.21-1.32-1.12-2l.17-.15.33.17c1.43.62,2.79.67,3,.1s-.47-1.28-1.58-1.89C139.68,122.82,140.56,122.54,140.68,122Z"/><path class="cls-2" d="M77,171.79c-19,0-34.39-19.71-34.39-43.95A55.18,55.18,0,0,1,44,115.55L31.05,125a4.53,4.53,0,0,1-1.46.72,6.72,6.72,0,0,1-2.9,1.68l-.21,0a4.41,4.41,0,0,1-1,1.41c-.88.92-2.08,1.59-2.66,1.11a.69.69,0,0,1-.25-.52,2.16,2.16,0,0,1,.38-1.16l-.08,0c-1.39.74-2.76.78-3.19.1-.28-.45-.07-1.08.51-1.68-1.35.46-2.81.54-3.16-.18-.24-.51.17-1.16,1.05-1.77-.9-.09-1.51-.42-1.63-.93a.93.93,0,0,1,.15-.71,4.29,4.29,0,0,1,2.73-1.42l.14,0a6.28,6.28,0,0,1,.27-.59,4.22,4.22,0,0,1-2.35-1.66.89.89,0,0,1-.06-.74c.35-.94,2.19-.92,3.75-.43a7.33,7.33,0,0,1,1.15.48,6.87,6.87,0,0,1,1.33-.54l.13,0A5.18,5.18,0,0,1,25,116.81l27-19.8a4.75,4.75,0,0,1,.85-.5C59.38,88.36,68,83.88,77,83.88c9.79,0,19.14,5.36,25.67,14.7L132,114.89a4.74,4.74,0,0,1,1.51,1.32,6.2,6.2,0,0,1,.92.21,6.13,6.13,0,0,1,1.2.53,5.6,5.6,0,0,1,1.06-.47c1.69-.59,3.19-.4,3.48.43s-.68,1.79-2.24,2.39a4.35,4.35,0,0,1,.25.59l.13,0c1.7.37,2.85,1.29,2.66,2.13-.11.5-.68.84-1.52.94.73.54,1.23,1.21,1,1.75-.32.73-1.65.65-2.9.21.53.59.72,1.21.46,1.65-.4.7-1.67.66-3-.09l0,0a3.31,3.31,0,0,1,.22.48c.2.53.16,1-.1,1.17-.55.49-1.67-.18-2.49-1.1a4.71,4.71,0,0,1-.89-1.41l-.18,0a6.07,6.07,0,0,1-2.29-1.32,4.69,4.69,0,0,1-1.76-.5l-17.55-8.87a55.26,55.26,0,0,1,1.52,12.94C111.43,152.08,96,171.79,77,171.79ZM44.8,114.35l-.16.66a54.72,54.72,0,0,0-1.5,12.83c0,24,15.2,43.45,33.89,43.45s33.9-19.49,33.9-43.45a54.6,54.6,0,0,0-1.64-13.35l-.13-.53,18.53,9.37a4.27,4.27,0,0,0,1.66.45h.09l.06.06a5.57,5.57,0,0,0,2.16,1.26l.14,0a.35.35,0,0,1,.14,0l.14,0,0,.13a4,4,0,0,0,.83,1.37c.85,1,1.63,1.2,1.79,1.06s.09-.28,0-.63a4.1,4.1,0,0,0-.8-1.27l-.46-.49.5,0,.14,0,.13,0,.13.09a3.94,3.94,0,0,0,.9.7c1.08.62,2.07.64,2.28.27s-.17-1-1.05-1.62l-.27-.19.26-.21.16-.14.13-.12.22.12.25.12c1.44.63,2.57.56,2.71.23s-.4-1-1.47-1.57l-1-.54,1.11.07c1.12.08,1.77-.23,1.84-.56h0c.11-.46-.85-1.22-2.27-1.53l-.16,0-.25,0-.05-.15a4.08,4.08,0,0,0-.39-.9l-.15-.26.28-.1c1.51-.52,2.36-1.39,2.2-1.86s-1.41-.61-2.84-.12a5.17,5.17,0,0,0-1.09.51l-.13.08-.13-.08a5.65,5.65,0,0,0-1.22-.56,5.19,5.19,0,0,0-.94-.21l-.1,0-.07-.08a4.4,4.4,0,0,0-1.42-1.27L102.32,98.91C95.89,89.68,86.67,84.38,77,84.38c-9,0-17.39,4.43-23.77,12.49l-.09.07a3.85,3.85,0,0,0-.81.48l-27,19.79a4.64,4.64,0,0,0-1.24,1.37l-.05.08-.1,0-.12,0h-.09a6.87,6.87,0,0,0-1.35.56l-.12.07-.12-.07a6.85,6.85,0,0,0-1.18-.5c-1.58-.5-3-.35-3.13.13a.39.39,0,0,0,0,.34,4,4,0,0,0,2.33,1.49l.31.1-.15.28a4.49,4.49,0,0,0-.44.91l-.05.14-.24,0a.86.86,0,0,0-.17,0,3.93,3.93,0,0,0-2.41,1.2.42.42,0,0,0-.08.32c.08.33.81.63,2,.57l1.19-.07-1.07.54c-1.24.63-1.73,1.31-1.61,1.56s1.4.41,3-.23l.28-.12.21-.1.12.1.18.14.29.21-.3.2c-1,.61-1.33,1.31-1.14,1.61s1.33.36,2.52-.27a4.51,4.51,0,0,0,1-.7l.08-.08.86.09-.51.5a2.93,2.93,0,0,0-1,1.72.27.27,0,0,0,.06.16c.22.18,1.11-.14,2-1.06a3.88,3.88,0,0,0,.91-1.37l0-.13.14,0,.16,0,.15,0a6.21,6.21,0,0,0,2.73-1.59l.11-.07a4.59,4.59,0,0,0,1.37-.66Z"/><rect class="cls-1" x="88.18" y="161.64" width="11.83" height="30.55" rx="5.92" transform="translate(-22.96 14.27) rotate(-7.74)"/><path class="cls-2" d="M95.35,192.36A6.18,6.18,0,0,1,89.24,187l-2.52-18.54A6.17,6.17,0,0,1,99,166.82l2.52,18.54a6.19,6.19,0,0,1-5.29,6.94A5.9,5.9,0,0,1,95.35,192.36ZM92.84,162a5,5,0,0,0-.77.05,5.69,5.69,0,0,0-4.85,6.38L89.74,187A5.67,5.67,0,1,0,101,185.43l-2.52-18.55a5.69,5.69,0,0,0-5.61-4.9Z"/><rect class="cls-1" x="54.74" y="161.64" width="11.83" height="30.55" rx="5.92" transform="translate(24.1 -6.5) rotate(7.65)"/><path class="cls-2" d="M59.42,192.36a5.79,5.79,0,0,1-.83-.06,6.17,6.17,0,0,1-5.29-6.93l2.49-18.55A6.17,6.17,0,0,1,68,168.47L65.52,187a6.18,6.18,0,0,1-6.1,5.35ZM61.9,162a5.67,5.67,0,0,0-5.61,4.91l-2.5,18.55A5.67,5.67,0,0,0,65,187l2.49-18.55A5.66,5.66,0,0,0,62.66,162,4.93,4.93,0,0,0,61.9,162Z"/><path class="cls-1" d="M131.75,63c1.77-6.46.68-12.44-2.43-13.36a3.47,3.47,0,0,0-2.51.32A47.19,47.19,0,0,0,39.43,28.16a47.61,47.61,0,0,0-3.37,6.38,3.94,3.94,0,0,0-2.67-1.74c-3.21-.31-6.2,4.88-6.66,11.59s1.75,12.42,5,12.74a2.9,2.9,0,0,0,.51,0A47.09,47.09,0,0,0,54.12,93.74c22.13,13.87,51.42,7,65.43-15.32a48.11,48.11,0,0,0,3-5.55,2.43,2.43,0,0,0,.37.16C126,73.94,130,69.44,131.75,63Z"/><path class="cls-2" d="M54,93.91A47.59,47.59,0,0,1,32,57.34a1.16,1.16,0,0,1-.32,0c-1.64-.16-3.08-1.61-4.05-4.1a21.14,21.14,0,0,1-1.12-8.86c.48-6.82,3.57-12.1,6.89-11.77A3.93,3.93,0,0,1,36,34.14a48,48,0,0,1,3.24-6.09c14-22.4,43.54-29.3,65.73-15.38a47.54,47.54,0,0,1,22,36.95,3.49,3.49,0,0,1,2.38-.2c1.59.47,2.72,2.17,3.19,4.77A20.43,20.43,0,0,1,132,63a20.09,20.09,0,0,1-4,7.87c-1.72,2-3.55,2.78-5.14,2.32l-.21-.08a49.85,49.85,0,0,1-2.9,5.38C105.69,100.93,76.2,107.83,54,93.91Zm-21.62-37,0,.21A47.13,47.13,0,0,0,54.23,93.56c22,13.79,51.22,7,65.14-15.26a48.15,48.15,0,0,0,3-5.52l.09-.19.25.12.28.12c1.42.41,3.09-.37,4.71-2.2a19.74,19.74,0,0,0,3.87-7.71,20.24,20.24,0,0,0,.62-8.67c-.44-2.43-1.47-4-2.89-4.43a3.25,3.25,0,0,0-2.36.3l-.29.15,0-.33A47.12,47.12,0,0,0,104.75,13C82.76-.77,53.53,6.07,39.61,28.28a47.55,47.55,0,0,0-3.36,6.35l-.14.33-.22-.3A3.71,3.71,0,0,0,33.37,33c-3.09-.3-6,4.81-6.43,11.4A20.48,20.48,0,0,0,28,53.09c.9,2.32,2.21,3.68,3.68,3.83a3.41,3.41,0,0,0,.46,0Z"/><path class="cls-3" d="M65.44,82c-6-4.64-8-13.44-7.85-16.33,0-.58.15-.93.34-1s.47,0,.55.12a11.73,11.73,0,0,1,1.59,1.92,32.93,32.93,0,0,0,6.05,6.58A16.89,16.89,0,0,0,73,76.52c6.2,1.31,11.72-1.56,14.68-3.1,1.43-.74,2.21-1.15,2.53-.9h0l.06.07c.27.44-.46,1.78-1.23,2.88-2.76,3.91-10.14,10.82-18.38,9A13,13,0,0,1,65.44,82Z"/><path class="cls-4" d="M90.17,72.59l0,.06C91,73.92,81.6,86.8,70.71,84.4a13,13,0,0,1-5.21-2.48C58.63,76.59,56.88,65.38,58,64.7c.12-.07.26,0,.45.11,1.1.86,3.45,5.24,7.64,8.5A16.82,16.82,0,0,0,73,76.61c8.9,1.88,16.26-4.73,17.18-4m.11-.15h0c-.37-.28-1.12.11-2.63.89-3,1.54-8.46,4.4-14.62,3.1a16.59,16.59,0,0,1-6.85-3.27,32.18,32.18,0,0,1-6-6.56,13,13,0,0,0-1.61-1.94.57.57,0,0,0-.66-.12c-.22.14-.35.51-.38,1.13-.15,2.9,1.9,11.75,7.88,16.4a13.23,13.23,0,0,0,5.29,2.51c8.28,1.82,15.7-5.12,18.47-9,.5-.7,1.6-2.39,1.23-3a.31.31,0,0,0-.09-.11Z"/><path class="cls-5" d="M89.28,73.55a21.89,21.89,0,0,1-5.58,6.34c-3,2.36-7.62,4.94-12.83,3.79A12.35,12.35,0,0,1,66,81.34c-5.73-4.45-7.65-12.93-7.56-15.5.28.33.63.8,1,1.31a33.12,33.12,0,0,0,6.21,6.74,17.86,17.86,0,0,0,7.23,3.45c6.49,1.36,12.18-1.6,15.24-3.19.4-.21.84-.43,1.2-.6m.89-1c-.92-.71-8.28,5.9-17.18,4a16.82,16.82,0,0,1-6.92-3.3c-4.19-3.26-6.54-7.64-7.64-8.5-.19-.14-.33-.18-.45-.11-1.1.68.65,11.89,7.52,17.22a13,13,0,0,0,5.21,2.48C81.6,86.8,91,73.92,90.22,72.65l0-.06Z"/><path class="cls-6" d="M111.65,13.66C102,6.58,87.4,1.91,80,4.83,73.64,2.08,60.7,6.1,52.12,12.26,44,18.09,34.77,29.44,37.82,34.87c3.86,6.88,28.11,5.67,39.43-7.92.54-.66,1.07-1.37,1.59-2.11a37.56,37.56,0,0,0,4,6c13,15.88,40.86,17.29,45.29,9.26C131.58,33.73,121,20.47,111.65,13.66Z"/><path class="cls-7" d="M114.7,45c-10.63,0-24.2-4.57-32-14.1a38,38,0,0,1-3.87-5.82c-.49.71-1,1.37-1.47,2C69.85,36,56.27,39.85,46.73,39c-4.52-.41-7.81-1.88-9-4C34.62,29.42,44,18,52.05,12.16S73.4,1.89,80,4.7c3.52-1.37,8.84-1.12,15,.68a55.89,55.89,0,0,1,16.73,8.18c9.26,6.76,20,20.15,16.46,26.58-1.39,2.52-5.18,4.25-10.4,4.72C116.79,45,115.76,45,114.7,45ZM78.85,24.6l.1.18a36.22,36.22,0,0,0,3.94,6c8.52,10.42,24,14.87,34.87,13.87,5.14-.47,8.86-2.14,10.21-4.59,3.48-6.31-7.2-19.55-16.39-26.26A55.84,55.84,0,0,0,94.93,5.62C88.79,3.82,83.5,3.58,80,5L80,5l0,0C73.45,2.13,60.35,6.51,52.2,12.36S34.91,29.42,37.93,34.81c1.17,2.08,4.38,3.51,8.82,3.92,9.48.87,23-2.93,30.4-11.86.52-.62,1-1.33,1.59-2.1Z"/><rect class="cls-8" x="111.69" y="11.86" width="7.97" height="5.13" rx="2.56" transform="translate(44.08 -77.57) rotate(45)"/><rect class="cls-8" x="46.29" y="9.33" width="7.56" height="4.58" rx="2.29" transform="matrix(0.8, -0.61, 0.61, 0.8, 3.19, 32.71)"/><path class="cls-9" d="M114.72,10.82c2.76-5.14,8.86-8.09,14.68-7.7,7.45.5,12.39,5.92,14.66,8.55,2.69,3.14,2.88,4.81,4.59,7.26,2.78,4,8.57,8.56,22.13,9.94a33,33,0,0,1-7.1,5.09c-6.5,3.43-18.47,6.86-26.16,1.44-3.63-2.57-2.84-4.65-8.25-11.09a56,56,0,0,0-11-10Z"/><path class="cls-7" d="M147.51,38.35a17.26,17.26,0,0,1-10.07-2.85,11.24,11.24,0,0,1-3.64-4.39,38.94,38.94,0,0,0-4.62-6.72,55.78,55.78,0,0,0-11-10l-3.61-3.54,0-.08c2.67-5,8.75-8.18,14.8-7.77,7,.47,11.76,5.13,14.74,8.59a21.06,21.06,0,0,1,3.06,4.64,22.79,22.79,0,0,0,1.54,2.63c3.81,5.46,11.23,8.78,22,9.88l.27,0-.2.19a32.41,32.41,0,0,1-7.13,5.11A37.14,37.14,0,0,1,147.51,38.35ZM114.88,10.8l3.46,3.4a56.07,56.07,0,0,1,11,10A39.27,39.27,0,0,1,134,31a10.9,10.9,0,0,0,3.57,4.3c7.87,5.56,20.07,1.71,26-1.44A32.19,32.19,0,0,0,170.49,29c-10.74-1.13-18.12-4.48-21.94-9.95A22,22,0,0,1,147,16.34a21.11,21.11,0,0,0-3-4.58c-3-3.43-7.68-8-14.57-8.51q-.51,0-1,0C122.8,3.22,117.37,6.23,114.88,10.8Z"/><path class="cls-9" d="M50.76,8.47C49,3.73,44,.5,39,.16,32.48-.28,27.59,3.81,25.33,5.8c-2.69,2.38-3,3.8-4.81,5.7-2.85,3.1-8.38,6.35-20.25,6a28,28,0,0,0,5.55,5.2c5.21,3.69,15.15,8,22.42,4.26,3.44-1.78,3-3.66,8.4-8.57A48.54,48.54,0,0,1,47.31,11Z"/><path class="cls-7" d="M21.86,28.5c-6.15,0-12.57-3.22-16.11-5.73A28.43,28.43,0,0,1,.17,17.55L0,17.34H.27c9.46.3,16.25-1.69,20.16-5.93a18.37,18.37,0,0,0,1.63-2.08,18.55,18.55,0,0,1,3.18-3.63C27.14,4,32.17-.43,39,0c5.28.36,10.17,3.81,11.91,8.39l0,.09-.08.06-3.44,2.57a48.36,48.36,0,0,0-10.67,7.31A34.4,34.4,0,0,0,32,23.68,9.7,9.7,0,0,1,28.3,27,13.87,13.87,0,0,1,21.86,28.5ZM.54,17.6a27.9,27.9,0,0,0,5.35,5c4.78,3.4,14.86,8.11,22.3,4.25a9.46,9.46,0,0,0,3.57-3.28,34,34,0,0,1,4.8-5.26,48.23,48.23,0,0,1,10.7-7.34l3.35-2.5C48.88,4,44.1.63,39,.28l-1,0C31.8.25,27.2,4.32,25.41,5.9a17.8,17.8,0,0,0-3.14,3.58,20.1,20.1,0,0,1-1.65,2.11C16.69,15.84,9.93,17.86.54,17.6Z"/><ellipse class="cls-10" cx="94.09" cy="51.69" rx="4.93" ry="6.54" transform="translate(19.88 129.27) rotate(-75.05)"/><path class="cls-4" d="M95,57.25a8.83,8.83,0,0,1-2.3-.31,8.23,8.23,0,0,1-4.36-2.76,4.63,4.63,0,0,1,2-7.51,8.21,8.21,0,0,1,5.16-.22c3.75,1,6.17,4.17,5.4,7.06h0C100.28,55.81,97.84,57.25,95,57.25ZM93.18,47.14a6.54,6.54,0,0,0-2.47.46,3.63,3.63,0,0,0-1.59,6A7.24,7.24,0,0,0,93,56c3.22.86,6.35-.37,7-2.73s-1.47-5-4.69-5.84A8.21,8.21,0,0,0,93.18,47.14Z"/><ellipse class="cls-10" cx="62.94" cy="47.9" rx="5.14" ry="6.82" transform="translate(7.08 103.89) rotate(-82.35)"/><path class="cls-4" d="M63.45,53.58a9.15,9.15,0,0,1-1.27-.09c-4-.54-6.92-3.48-6.5-6.57s4-5.15,8-4.62,6.92,3.49,6.5,6.57h0C69.82,51.63,66.92,53.58,63.45,53.58Zm-1-10.36c-3,0-5.45,1.58-5.75,3.83-.34,2.54,2.19,5,5.65,5.45s6.54-1.22,6.88-3.76-2.19-5-5.64-5.45A8.94,8.94,0,0,0,62.42,43.22Z"/><path class="cls-4" d="M77.05,62.07A2.64,2.64,0,0,1,74.62,61a2.47,2.47,0,0,1,.52-3,6.16,6.16,0,0,1,2.46-1.29l.32,1a5.34,5.34,0,0,0-2.07,1,1.49,1.49,0,0,0-.39,1.72c.39.61,1.4.64,2.17.57a1.72,1.72,0,0,0,1.07-.45.19.19,0,0,0,0-.17l1-.19a1.18,1.18,0,0,1-.22,1,2.58,2.58,0,0,1-1.76.84C77.5,62.05,77.27,62.07,77.05,62.07Z"/><ellipse class="cls-11" cx="70.82" cy="80.69" rx="2.46" ry="5.78" transform="translate(-25.41 128.29) rotate(-75.05)"/><rect class="cls-10" x="71.83" y="77.65" width="2.66" height="2.86" rx="0.61" transform="translate(25.94 -17.75) rotate(16.77)"/><path class="cls-4" d="M71.77,80.2a.7.7,0,0,1-.22-.74L72,77.89a.73.73,0,0,1,.89-.48l1.38.42a.7.7,0,0,1,.47.88l-.47,1.58a.72.72,0,0,1-.89.47L72,80.35A.61.61,0,0,1,71.77,80.2Zm2.65-2.08a.69.69,0,0,0-.19-.1l-1.38-.42a.53.53,0,0,0-.39,0,.48.48,0,0,0-.24.3l-.48,1.58a.53.53,0,0,0,0,.39.45.45,0,0,0,.3.24l1.38.42a.51.51,0,0,0,.64-.34l.47-1.57A.53.53,0,0,0,74.42,78.12Z"/><rect class="cls-10" x="69" y="76.8" width="2.66" height="2.86" rx="0.56" transform="translate(25.57 -16.97) rotate(16.77)"/><path class="cls-4" d="M68.91,79.35a.7.7,0,0,1-.15-.19.67.67,0,0,1-.05-.5L69.22,77a.65.65,0,0,1,.31-.38.61.61,0,0,1,.51,0l1.48.44a.67.67,0,0,1,.44.82l-.51,1.68a.66.66,0,0,1-.81.44l-1.49-.45A.7.7,0,0,1,68.91,79.35Zm2.72-2.08a.56.56,0,0,0-.17-.09L70,76.74a.43.43,0,0,0-.35,0,.42.42,0,0,0-.22.27l-.51,1.68a.47.47,0,0,0,0,.35.49.49,0,0,0,.27.22l1.48.45a.46.46,0,0,0,.57-.31l.51-1.68A.48.48,0,0,0,71.63,77.27Z"/><ellipse class="cls-4" cx="59.75" cy="47.9" rx="3.8" ry="4.58"/><ellipse class="cls-4" cx="91.39" cy="51.15" rx="3.8" ry="4.58"/><path class="cls-8" d="M79.89,101a14.91,14.91,0,0,0,5.77-.53,24.45,24.45,0,0,0,26.19,19.63,78.13,78.13,0,0,0,11.33,35.66c-8.12,7.27-22,17-39.76,17.85-7.52.39-13.85-.89-19.54-2A119.24,119.24,0,0,1,30.26,159.3a63.8,63.8,0,0,0,9.24-18.2,63.82,63.82,0,0,0,3-21.36,22.83,22.83,0,0,0,15-7.64,22.57,22.57,0,0,0,5.33-13.54c2,.4,3.9.8,5.87,1.32-.14.32-1.46,3.62.07,5.33.7.79,2.23.89,5.27,1.08,2.21.15,3.33.21,4.07-.25C80,104.8,79.91,101.55,79.89,101Z"/><path class="cls-4" d="M103.63,50.24a14.9,14.9,0,0,0-13.15-6.53l-.07-1a15.77,15.77,0,0,1,14,7Z"/><path class="cls-4" d="M53.57,42.59l-.51-.86a19.63,19.63,0,0,1,14.85-2.09l-.25,1A18.67,18.67,0,0,0,53.57,42.59Z"/><path class="cls-12" d="M124.82,67.5l-.07-.24c.92-.25,4.06-2.5,3.86-3.25-.4-1.53.31-3.11.93-4.51l.08-.18c.61-1.36,1.21-3.1.46-4.51a2.74,2.74,0,0,0-.73-.86,1.57,1.57,0,0,0-2.09,0l-.19-.16a1.79,1.79,0,0,1,2.37,0l.06,0a2.79,2.79,0,0,1,.8.94c.8,1.49.18,3.31-.45,4.72l-.08.19c-.64,1.42-1.29,2.89-.92,4.34C129.12,65,125.62,67.28,124.82,67.5Z"/><path class="cls-12" d="M29.71,50.63l.15-.16c-.47-.73-1.44-4.38-1-4.88.95-1,1.21-2.71,1.45-4.21l0-.19c.23-1.47.64-3.24,1.75-3.94A1.82,1.82,0,0,1,33,37a1.29,1.29,0,0,1,1.34,1.19l.2,0A1.52,1.52,0,0,0,33,36.72H33A1.91,1.91,0,0,0,32,37c-1.19.75-1.62,2.59-1.86,4.11l0,.19c-.24,1.53-.49,3.11-1.38,4.07C28.13,46.06,29.3,50,29.71,50.63Z"/><ellipse class="cls-4" cx="55.08" cy="191.19" rx="10.48" ry="3.64"/><ellipse class="cls-4" cx="91.91" cy="190.07" rx="10.48" ry="3.64" transform="translate(-24.75 14.1) rotate(-7.74)"/><ellipse class="cls-13" cx="103.55" cy="61.27" rx="5.37" ry="1.86"/><ellipse class="cls-13" cx="52.13" cy="54.74" rx="1.86" ry="5.37" transform="translate(-14.21 90.98) rotate(-75.05)"/></g></g></svg>