<svg id="Layer_1" data-name="Layer 1" xmlns="http://www.w3.org/2000/svg" xmlns:xlink="http://www.w3.org/1999/xlink" viewBox="0 0 1920 1080"><defs><style>.cls-1{fill:url(#linear-gradient);}.cls-2{fill:#4d4d4d;}.cls-10,.cls-3{fill:#1d1d1b;}.cls-4{fill:url(#radial-gradient);}.cls-5{fill:#454542;}.cls-6{fill:url(#radial-gradient-2);}.cls-7{fill:url(#linear-gradient-2);}.cls-8{fill:#004f86;}.cls-43,.cls-44,.cls-9{fill:#fff;}.cls-10{font-size:75.26px;}.cls-10,.cls-44{font-family:ChangaOne, Changa One;}.cls-11{fill:#fbcea4;}.cls-12{fill:#a3897a;}.cls-13,.cls-21{fill:#bd1622;}.cls-14{fill:#6f1512;}.cls-15{fill:#fbc263;}.cls-16{fill:#c99d66;}.cls-17{fill:#c02663;}.cls-18{fill:#fbc163;}.cls-19{fill:#c94c3f;}.cls-20{fill:#7a6a58;}.cls-21{opacity:0.3;}.cls-22{fill:#6b5777;}.cls-23{fill:#b1b1b1;}.cls-24{opacity:0.2;}.cls-25{fill:#009ee2;}.cls-26{fill:#868686;}.cls-27{fill:#d4b184;}.cls-28{fill:#29235c;}.cls-29{fill:#362c3c;}.cls-30{fill:#6eb649;}.cls-31{fill:#b5341a;}.cls-32,.cls-42{fill:#1d1e1c;}.cls-33{fill:#131b2e;}.cls-34{fill:#c9b99e;}.cls-35{fill:#a1877a;}.cls-36{fill:#fae91c;}.cls-37{fill:#d7e6f7;}.cls-38{fill:#141b2e;}.cls-39{fill:#5382a7;}.cls-40,.cls-41,.cls-42{stroke:#1d1e1c;stroke-width:0.25px;}.cls-40,.cls-41,.cls-42,.cls-43{stroke-miterlimit:10;}.cls-40,.cls-41{opacity:0.27;}.cls-40{fill:url(#radial-gradient-3);}.cls-41{fill:url(#radial-gradient-4);}.cls-43{stroke:#62140e;stroke-width:0.75px;}.cls-44{font-size:25.09px;}.cls-45{fill:#b4331a;}.cls-46{letter-spacing:-0.01em;}.cls-47{letter-spacing:0em;}.cls-48{letter-spacing:-0.01em;}.cls-49{letter-spacing:0em;}</style><linearGradient id="linear-gradient" x1="960" y1="1080" x2="960" gradientUnits="userSpaceOnUse"><stop offset="0" stop-color="#d7e6f7"/><stop offset="0.03" stop-color="#c8d7e7"/><stop offset="0.1" stop-color="#aab9c6"/><stop offset="0.18" stop-color="#919fa9"/><stop offset="0.26" stop-color="#7c8a92"/><stop offset="0.36" stop-color="#6c7a80"/><stop offset="0.48" stop-color="#606e73"/><stop offset="0.64" stop-color="#5a686c"/><stop offset="1" stop-color="#58666a"/></linearGradient><radialGradient id="radial-gradient" cx="347.78" cy="821" r="43.53" gradientUnits="userSpaceOnUse"><stop offset="0.11" stop-color="#fff"/><stop offset="0.19" stop-color="#f0f0f0"/><stop offset="0.34" stop-color="#c8c8c8"/><stop offset="0.54" stop-color="#898989"/><stop offset="0.55" stop-color="#868686"/><stop offset="0.72" stop-color="#656564"/><stop offset="0.9" stop-color="#474746"/><stop offset="1" stop-color="#3c3c3b"/></radialGradient><radialGradient id="radial-gradient-2" cx="455.44" cy="863.86" r="43.53" xlink:href="#radial-gradient"/><linearGradient id="linear-gradient-2" x1="1519.15" y1="602.16" x2="1546.47" y2="602.16" gradientUnits="userSpaceOnUse"><stop offset="0" stop-color="#b1b1b1"/><stop offset="1" stop-color="#575756"/></linearGradient><radialGradient id="radial-gradient-3" cx="564.64" cy="-389.76" r="2.69" gradientTransform="translate(16.26 991.66) scale(1.27 1.36)" gradientUnits="userSpaceOnUse"><stop offset="0" stop-color="#fff"/><stop offset="0.64" stop-color="#7d7d7d"/><stop offset="1"/></radialGradient><radialGradient id="radial-gradient-4" cx="385.36" cy="102.4" r="2.69" gradientTransform="matrix(0, 1.97, -1.49, 0, 873.56, -296.71)" xlink:href="#radial-gradient-3"/></defs><rect class="cls-1" width="1920" height="1080"/><rect class="cls-2" x="372.18" y="205.24" width="1197.85" height="701.36" rx="12"/><path class="cls-3" d="M347.78,780.36a41.37,41.37,0,1,1-41.37,41.36,41.36,41.36,0,0,1,41.37-41.36m0-33.06a74.43,74.43,0,1,0,74.42,74.42,74.51,74.51,0,0,0-74.42-74.42Z"/><circle class="cls-4" cx="347.78" cy="821" r="43.53"/><path class="cls-5" d="M369.85,790.43c-9.61.62-17,18-11.83,24.8s23.55,4.66,26.92-4.45C388,802.59,378.39,789.89,369.85,790.43Z"/><path class="cls-3" d="M368.61,819.83c-4.9,0-9.05-1.53-11.09-4.22-2.55-3.37-2.42-9.42.33-15.41,2.2-4.79,6.49-10,12-10.39h0c4.17-.27,8.94,2.47,12.43,7.15S387,807,385.52,811c-1.9,5.16-8.07,7.81-13.22,8.57A26.08,26.08,0,0,1,368.61,819.83ZM370.39,791l-.5,0h0c-4.92.32-8.86,5.2-10.9,9.66-2.52,5.49-2.71,11.17-.47,14.13s7.69,4.34,13.6,3.47c4.79-.71,10.51-3.12,12.23-7.76,1.32-3.57.13-8.5-3.12-12.85C378.14,793.56,374,791,370.39,791Z"/><path class="cls-5" d="M380.37,843c-.63-10.15-19.44-18.19-26.75-12.55-7,5.42-5,24.75,4.8,28.45C367.36,862.31,380.92,852,380.37,843Z"/><path class="cls-3" d="M362.16,860.19a11.13,11.13,0,0,1-4-.68c-5.48-2.07-8.28-8.55-9.08-13.92-1-6.78.61-12.91,4.12-15.62s10.07-2.64,16.56.3C375,832.62,380.64,837.19,381,843h0c.27,4.4-2.67,9.43-7.69,13.13A19.36,19.36,0,0,1,362.16,860.19Zm-2.05-30.94A10,10,0,0,0,354,831c-3.12,2.41-4.58,8.21-3.65,14.44.74,5,3.31,11.06,8.28,12.94,3.88,1.47,9.22.23,13.91-3.23s7.44-8.13,7.19-12.05h0c-.21-3.44-3.07-8.3-10.46-11.65A22.68,22.68,0,0,0,360.11,829.25Z"/><path class="cls-5" d="M311.06,829.87c4.17-9.11,19.86-10.51,24.93-5,6.35,6.94-1.88,26.89-10.72,27.49C317.74,852.92,306.61,839.62,311.06,829.87Z"/><path class="cls-3" d="M324.85,853c-3.83,0-8.52-3.11-11.83-7.89-3.63-5.25-4.57-11.06-2.53-15.54h0c2-4.29,6.67-7.41,12.59-8.34,5.54-.87,10.79.39,13.38,3.22,3.68,4,2.53,11.56.44,16.79s-6.36,11.39-11.59,11.75Zm1.61-30.78a20.54,20.54,0,0,0-3.19.25c-5.5.87-9.85,3.72-11.64,7.62h0c-1.86,4.08-1,9.42,2.42,14.3,3.15,4.56,7.75,7.58,11.17,7.35,3.77-.26,8-4.66,10.52-11,2.58-6.45,2.5-12.53-.21-15.49C333.74,823.38,330.31,822.26,326.46,822.26Z"/><path class="cls-5" d="M318.09,798.89c-.13,10.31,19.38,19.84,26.77,14.5,6.85-4.95,5.84-24.52-4.32-28.69C331.57,781,318.2,790.42,318.09,798.89Z"/><path class="cls-3" d="M339.23,815.55a24.31,24.31,0,0,1-10.87-3c-5.31-2.76-11-7.8-10.89-13.68,0-4.2,3.18-8.86,8.16-12.15,5.16-3.41,10.83-4.39,15.15-2.61,4.74,1.94,8.06,7.31,8.9,14.35.79,6.73-1,12.93-4.46,15.43A10.13,10.13,0,0,1,339.23,815.55Zm-3.1-31a18.2,18.2,0,0,0-9.81,3.27c-4.57,3-7.55,7.39-7.6,11.13h0c-.06,4.37,3.95,9.3,10.22,12.55,6.1,3.17,12.35,3.74,15.55,1.43s4.68-8.07,3.94-14.26c-.78-6.58-3.82-11.57-8.13-13.34A10.79,10.79,0,0,0,336.13,784.5Z"/><path class="cls-3" d="M455.44,823.21a41.37,41.37,0,1,1-41.37,41.37,41.37,41.37,0,0,1,41.37-41.37m0-33.06a74.43,74.43,0,1,0,74.42,74.43,74.52,74.52,0,0,0-74.42-74.43Z"/><circle class="cls-6" cx="455.44" cy="863.86" r="43.53"/><path class="cls-5" d="M477.51,833.29c-9.61.62-17,18-11.83,24.79s23.55,4.67,26.92-4.45C495.62,845.45,486.05,832.74,477.51,833.29Z"/><path class="cls-3" d="M476.27,862.69c-4.9,0-9-1.53-11.09-4.23-2.55-3.37-2.42-9.42.33-15.41,2.2-4.79,6.49-10,12-10.39h0c4.17-.26,8.94,2.48,12.43,7.16s4.75,10.06,3.28,14c-1.9,5.16-8.08,7.8-13.22,8.56A24.72,24.72,0,0,1,476.27,862.69Zm1.78-28.79h-.5c-4.92.32-8.86,5.2-10.9,9.66-2.52,5.5-2.71,11.18-.47,14.14s7.69,4.33,13.6,3.46c4.79-.7,10.51-3.11,12.23-7.75,1.32-3.58.13-8.5-3.12-12.85C485.8,836.41,481.69,833.9,478.05,833.9Z"/><path class="cls-5" d="M488,885.87c-.63-10.15-19.44-18.18-26.75-12.55-7,5.43-5,24.76,4.8,28.46C475,905.16,488.58,894.81,488,885.87Z"/><path class="cls-3" d="M469.82,903.05a11.13,11.13,0,0,1-4-.68c-5.48-2.08-8.28-8.56-9.08-13.93-1-6.77.61-12.9,4.12-15.61s10.07-2.65,16.56.29c5.17,2.35,10.84,6.93,11.19,12.71h0c.27,4.41-2.67,9.44-7.69,13.14A19.36,19.36,0,0,1,469.82,903.05Zm-2.05-30.95a9.92,9.92,0,0,0-6.1,1.72c-3.12,2.4-4.58,8.2-3.65,14.44.74,5,3.31,11,8.28,12.93,3.88,1.47,9.22.24,13.91-3.23s7.44-8.13,7.19-12.05h0c-.21-3.43-3.07-8.29-10.46-11.65A22.85,22.85,0,0,0,467.77,872.1Z"/><path class="cls-5" d="M418.72,872.73c4.17-9.12,19.86-10.52,24.93-5,6.35,6.94-1.88,26.89-10.72,27.5C425.4,895.77,414.27,882.48,418.72,872.73Z"/><path class="cls-3" d="M432.5,895.9c-3.82,0-8.51-3.11-11.82-7.9-3.63-5.24-4.57-11-2.53-15.53h0c2-4.29,6.67-7.41,12.59-8.34,5.54-.87,10.79.39,13.38,3.21,3.68,4,2.53,11.56.44,16.8S438.2,895.52,433,895.88Zm1.62-30.79a20.57,20.57,0,0,0-3.19.26c-5.5.86-9.85,3.71-11.64,7.62h0c-1.86,4.07-1,9.42,2.42,14.3,3.15,4.56,7.75,7.58,11.17,7.34,3.77-.26,8-4.66,10.52-11s2.5-12.52-.21-15.48C441.4,866.23,438,865.11,434.12,865.11Z"/><path class="cls-5" d="M425.75,841.75c-.13,10.31,19.38,19.83,26.77,14.49,6.85-4.94,5.84-24.51-4.32-28.69C439.23,823.87,425.86,833.28,425.75,841.75Z"/><path class="cls-3" d="M446.89,858.41a24.31,24.31,0,0,1-10.87-3c-5.31-2.76-11-7.81-10.89-13.68.05-4.21,3.18-8.87,8.16-12.16,5.16-3.41,10.83-4.38,15.15-2.61,4.74,1.95,8.06,7.32,8.9,14.36.79,6.72-1,12.92-4.46,15.42A10.14,10.14,0,0,1,446.89,858.41Zm-3.1-31.06a18.14,18.14,0,0,0-9.81,3.28c-4.57,3-7.55,7.38-7.6,11.12h0c-.06,4.38,3.95,9.3,10.22,12.55,6.1,3.17,12.35,3.75,15.55,1.44s4.68-8.08,3.94-14.27c-.78-6.58-3.82-11.57-8.13-13.34A11,11,0,0,0,443.79,827.35Z"/><g id="skilt"><rect class="cls-7" x="1519.15" y="295.64" width="27.32" height="613.05" rx="2.13"/><rect class="cls-8" x="1434.65" y="178.24" width="202.4" height="210.32" rx="2.25"/><path class="cls-9" d="M1623.61,390.24H1448.09A15.13,15.13,0,0,1,1433,375.12V191.68a15.13,15.13,0,0,1,15.12-15.12h175.52a15.13,15.13,0,0,1,15.12,15.12V375.12A15.13,15.13,0,0,1,1623.61,390.24ZM1448.09,179.92a11.77,11.77,0,0,0-11.76,11.76V375.12a11.77,11.77,0,0,0,11.76,11.76h175.52a11.78,11.78,0,0,0,11.76-11.76V191.68a11.77,11.77,0,0,0-11.76-11.76Z"/><path class="cls-9" d="M1588.59,260.7a45.18,45.18,0,0,1-2.82,15.71,34.87,34.87,0,0,1-8,12.91,49.21,49.21,0,0,1-16,10.69q-8.79,3.62-21.9,3.62h-19.22v39h-30.87V222.91h50.81a80.39,80.39,0,0,1,19.25,2,45.15,45.15,0,0,1,13.87,5.91,31.78,31.78,0,0,1,11.06,12.14Q1588.58,250.33,1588.59,260.7Zm-31.92.68a14.1,14.1,0,0,0-2.73-8.7,14.85,14.85,0,0,0-6.36-5.09,28.43,28.43,0,0,0-9.4-2.13q-4.59-.19-12.22-.2h-5.31V281h8.84a71.34,71.34,0,0,0,13-1,18.32,18.32,0,0,0,8.56-3.85,14.78,14.78,0,0,0,4.3-6.13A25,25,0,0,0,1556.67,261.38Z"/></g><path class="cls-9" d="M1164.35,308.72c0,19.93-12.19,34.36-15.71,38.54-24.67,29.25-71.88,21.51-177.3,22.46-105.18.94-147.88,9.45-174.47-19-4.13-4.42-18.88-20.23-18.55-42,.34-21.41,15.13-36.58,19.73-41.31,27.85-28.58,69.94-19.6,173.29-19.68s148.73-9.15,174.92,19.68C1150.37,271.93,1164.36,287.33,1164.35,308.72Z"/><path class="cls-3" d="M873.78,372.67c-38.58,0-61.37-3.7-77.81-21.32-12.71-13.62-19-28-18.82-42.64.34-21.79,15.15-37,20-42,22.16-22.74,53.18-22.09,115-20.8,17.21.36,36.72.76,59.16.75,22.2,0,41.73-.45,59-.83,63.9-1.42,96-2.13,116.88,20.9,12.19,13.42,18.36,27.54,18.35,42,0,13.46-5.38,26.64-16,39.17-20.1,23.83-54.08,23.55-121.8,23-16.59-.14-35.39-.3-56.42-.11-21.19.19-39.86.69-56.33,1.13C899.53,372.3,885.88,372.67,873.78,372.67ZM876.9,247.5c-38.56,0-61.11,3.3-78,20.6-4.73,4.85-19.12,19.62-19.44,40.64-.22,14.16,5.92,28.05,18.27,41.27,20.87,22.36,51.05,21.56,117.18,19.79,16.48-.44,35.17-.94,56.37-1.13,21-.19,39.87,0,56.47.11,66.92.56,100.52.84,119.91-22.15,10.26-12.16,15.47-24.92,15.48-37.91h0c0-13.94-6-27.62-17.82-40.65-20.2-22.23-51.88-21.53-115-20.13-17.24.38-36.79.81-59,.83-22.5,0-42-.39-59.22-.75C899.06,247.75,887.38,247.5,876.9,247.5Z"/><text class="cls-10" transform="translate(847.22 329.59)">REGLER</text><rect class="cls-9" x="969.1" y="446.69" width="4" height="206.96"/><rect class="cls-9" x="971.1" y="444.69" width="344.93" height="4"/><rect class="cls-9" x="608.41" y="444.69" width="362.7" height="4"/><rect class="cls-9" x="972.15" y="649.56" width="343.88" height="4"/><rect class="cls-9" x="608.41" y="649.56" width="363.74" height="4"/><rect class="cls-9" x="969.1" y="410.11" width="4" height="36.58"/><path class="cls-11" d="M1199.48,550.51c.08-.34-.48-.77-1.25-1l-.13,0a3,3,0,0,0-.21-.49h0c.78-.26,1.32-.75,1.21-1.09s-.84-.42-1.62-.17a3.08,3.08,0,0,0-.58.26,3.54,3.54,0,0,0-.65-.31,3,3,0,0,0-.5-.11,2.23,2.23,0,0,0-.76-.7l-14.87-8.58c-3.13-4.64-7.75-7.61-12.93-7.68-4.79-.07-9.15,2.32-12.36,6.26a2,2,0,0,0-.45.25l-14,9.92a2.48,2.48,0,0,0-.68.73l-.11,0a3.29,3.29,0,0,0-.72.29,3.22,3.22,0,0,0-.62-.28c-.84-.28-1.63-.23-1.77.12s.44.84,1.28,1.12h0a1.83,1.83,0,0,0-.25.48l-.14,0c-.84.16-1.46.57-1.39.92s.55.43,1.17.4c-.63.31-1,.71-.9,1s.89.28,1.69,0l.19-.08.1.08c-.52.31-.8.73-.64,1s.82.25,1.46-.07a2.47,2.47,0,0,0,.54-.38l.1,0-.06.06c-.47.47-.68,1-.48,1.15s.74-.07,1.2-.54a2.19,2.19,0,0,0,.51-.74.9.9,0,0,0,.16,0,3.3,3.3,0,0,0,1.47-.82,2.64,2.64,0,0,0,.74-.35l7-5a28.71,28.71,0,0,0-.87,6.59c-.18,12.35,7.5,22.48,17.15,22.62s17.62-9.76,17.8-22.11a28,28,0,0,0-.74-6.87l9.17,4.8a2.45,2.45,0,0,0,.89.26,3,3,0,0,0,1.14.69l.15,0a2.19,2.19,0,0,0,.45.75c.41.48.89.73,1.08.57s0-.68-.4-1.16l-.06-.06h.1a2.37,2.37,0,0,0,.48.38c.57.35,1.18.4,1.34.12s-.1-.68-.56-1l.09-.08.17.09c.73.33,1.43.36,1.56.08s-.23-.66-.8-1C1199,550.93,1199.42,550.79,1199.48,550.51Z"/><path class="cls-12" d="M1166.53,575.52c-9.7-.14-17.45-10.35-17.27-22.76a29.09,29.09,0,0,1,.79-6.27l-6.69,4.75a2.49,2.49,0,0,1-.75.36,3.47,3.47,0,0,1-1.5.84l-.11,0a2.42,2.42,0,0,1-.51.71c-.45.46-1.07.8-1.37.55a.4.4,0,0,1-.12-.27,1.15,1.15,0,0,1,.2-.59l0,0c-.72.37-1.42.38-1.63,0s0-.55.27-.85c-.7.22-1.44.26-1.62-.12s.1-.59.56-.89c-.47-.06-.77-.23-.83-.49a.46.46,0,0,1,.08-.37,2.25,2.25,0,0,1,1.41-.7h.07a2.92,2.92,0,0,1,.14-.31,2.14,2.14,0,0,1-1.19-.86.46.46,0,0,1,0-.38c.18-.48,1.12-.46,1.92-.19a3.76,3.76,0,0,1,.58.25,3.88,3.88,0,0,1,.69-.26l.07,0a2.56,2.56,0,0,1,.68-.71l14-9.93a2.65,2.65,0,0,1,.44-.25c3.37-4.12,7.79-6.35,12.44-6.28,5,.07,9.75,2.88,13,7.71l14.85,8.57a2.49,2.49,0,0,1,.76.69,3.23,3.23,0,0,1,.47.11,3.34,3.34,0,0,1,.61.29,2.61,2.61,0,0,1,.54-.24c.88-.29,1.64-.18,1.78.25s-.36.91-1.16,1.21a1.34,1.34,0,0,1,.12.3h.07c.87.21,1.45.68,1.35,1.11-.06.26-.36.43-.79.47.37.29.62.63.49.91s-.85.32-1.48.08c.26.31.36.63.22.85s-.86.32-1.51-.07h0c0,.09.08.17.11.25a.55.55,0,0,1-.06.6c-.29.25-.86-.11-1.27-.59a2.5,2.5,0,0,1-.45-.72l-.09,0a3.06,3.06,0,0,1-1.16-.69,2.3,2.3,0,0,1-.89-.27l-8.92-4.67a28.71,28.71,0,0,1,.68,6.63C1184.29,565.69,1176.24,575.66,1166.53,575.52Zm-16.06-29.64-.08.34a27.42,27.42,0,0,0-.87,6.55c-.18,12.26,7.45,22.35,17,22.49s17.49-9.72,17.67-22a27.85,27.85,0,0,0-.73-6.84l-.07-.27,9.41,4.93a2.3,2.3,0,0,0,.85.24h0l0,0a2.85,2.85,0,0,0,1.09.66l.07,0,.08,0h.07l0,.07a2,2,0,0,0,.41.71c.43.49.83.63.91.55s0-.14,0-.32a2.25,2.25,0,0,0-.41-.65l-.23-.26.26,0h.14l.06.05a1.84,1.84,0,0,0,.46.36c.54.33,1,.35,1.16.16s-.08-.52-.52-.84l-.14-.1.13-.1.09-.07.06-.06.12.06.12.06c.74.34,1.31.31,1.39.14s-.2-.5-.74-.81l-.5-.29.57,0c.57,0,.91-.11.95-.27h0c.05-.24-.43-.64-1.16-.81h-.08l-.12,0,0-.07a2.43,2.43,0,0,0-.19-.47l-.08-.13.15-.05c.78-.25,1.22-.69,1.14-.93s-.72-.33-1.46-.09a4,4,0,0,0-.56.25l-.07,0-.06,0a2.85,2.85,0,0,0-.62-.29,3.37,3.37,0,0,0-.48-.12h0l0,0a2.26,2.26,0,0,0-.72-.66L1180,538.41c-3.23-4.77-7.9-7.55-12.84-7.63-4.58-.06-8.93,2.14-12.26,6.22l0,0a2.86,2.86,0,0,0-.42.24l-14,9.93a2.26,2.26,0,0,0-.65.69l0,0h0l-.07,0h0a3.79,3.79,0,0,0-.7.28l-.06,0-.06,0a3.24,3.24,0,0,0-.6-.27c-.81-.27-1.51-.2-1.61,0a.24.24,0,0,0,0,.18,2.08,2.08,0,0,0,1.18.78l.16,0-.08.15a2.47,2.47,0,0,0-.23.46l0,.07-.13,0h-.09a2,2,0,0,0-1.24.6.2.2,0,0,0,0,.16c0,.17.41.33,1,.31l.61,0-.55.27c-.64.31-.89.66-.83.79s.71.21,1.53-.1l.14-.06.11,0,.06,0,.09.07.15.12-.16.1c-.49.3-.69.66-.59.81s.68.2,1.29-.12a2.41,2.41,0,0,0,.51-.35l0,0,.44,0-.26.25a1.54,1.54,0,0,0-.52.88.22.22,0,0,0,0,.08c.11.09.57-.07,1-.53a2.11,2.11,0,0,0,.48-.69l0-.07h.07l.08,0h.08a3.26,3.26,0,0,0,1.41-.79l0,0a2.12,2.12,0,0,0,.71-.33Z"/><rect class="cls-11" x="1172.2" y="570.45" width="6.06" height="15.64" rx="2.9" transform="translate(-60.9 145.2) rotate(-6.89)"/><path class="cls-12" d="M1175.75,586.18a3.15,3.15,0,0,1-3.08-2.78l-1.15-9.51a3.16,3.16,0,0,1,5.08-2.86,3.18,3.18,0,0,1,1.19,2.11l1.15,9.51a3.16,3.16,0,0,1-2.76,3.51A3,3,0,0,1,1175.75,586.18Zm-1-15.57-.39,0a2.9,2.9,0,0,0-2.54,3.22l1.15,9.51a2.9,2.9,0,0,0,5.76-.69l-1.15-9.51a2.93,2.93,0,0,0-2.83-2.56Z"/><rect class="cls-11" x="1155.09" y="570.2" width="6.06" height="15.64" rx="2.9" transform="translate(98.13 -164.79) rotate(8.5)"/><path class="cls-12" d="M1157.37,585.91a3,3,0,0,1-.43,0,3.16,3.16,0,0,1-2.65-3.59l1.41-9.47a3.16,3.16,0,0,1,6.25.93l-1.42,9.47a3.17,3.17,0,0,1-3.16,2.69Zm1.5-15.53a2.9,2.9,0,0,0-2.91,2.47l-1.42,9.48a2.91,2.91,0,0,0,.54,2.15,2.88,2.88,0,0,0,1.9,1.14,2.82,2.82,0,0,0,2.15-.54,2.87,2.87,0,0,0,1.15-1.9l1.41-9.47a2.91,2.91,0,0,0-2.44-3.3Z"/><path class="cls-11" d="M1195.36,520.25c1-3.3.44-6.37-1.14-6.86a1.79,1.79,0,0,0-1.29.14,24.16,24.16,0,0,0-44.56-11.8,25,25,0,0,0-1.77,3.24,2,2,0,0,0-1.35-.91c-1.64-.18-3.21,2.45-3.5,5.88s.81,6.37,2.45,6.56h.25A24.16,24.16,0,0,0,1189,528.05a25.07,25.07,0,0,0,1.57-2.81l.19.08C1192.34,525.81,1194.4,523.54,1195.36,520.25Z"/><path class="cls-12" d="M1155.34,535.49a24.35,24.35,0,0,1-11-18.88h-.16c-.84-.09-1.56-.85-2-2.13a10.72,10.72,0,0,1-.51-4.54c.3-3.49,1.92-6.17,3.62-6a2,2,0,0,1,1.31.8,26.61,26.61,0,0,1,1.71-3.09,24.27,24.27,0,0,1,44.75,11.7,1.79,1.79,0,0,1,1.22-.08c.81.25,1.37,1.13,1.6,2.46a10.66,10.66,0,0,1-.39,4.53,10.37,10.37,0,0,1-2.09,4c-.89,1-1.83,1.39-2.64,1.14l-.11,0a25.43,25.43,0,0,1-1.53,2.73A24.46,24.46,0,0,1,1155.34,535.49Zm-10.78-19.11v.12A24.05,24.05,0,0,0,1188.91,528a25.74,25.74,0,0,0,1.56-2.8l0-.09.13.06.15.06c.72.22,1.58-.16,2.42-1.09a10.16,10.16,0,0,0,2-3.92,10.34,10.34,0,0,0,.38-4.43c-.21-1.25-.72-2.06-1.44-2.29a1.64,1.64,0,0,0-1.21.14l-.15.07v-.16a24,24,0,0,0-44.36-11.75,25.26,25.26,0,0,0-1.76,3.23l-.08.17-.11-.16a1.89,1.89,0,0,0-1.27-.86c-1.58-.18-3.1,2.41-3.38,5.78a10.47,10.47,0,0,0,.49,4.45c.45,1.2,1.11,1.9,1.86,2h.35Z"/><path class="cls-13" d="M1161.28,529.48a11.89,11.89,0,0,1-3.89-8.42c0-.29.08-.47.18-.53s.24,0,.28.06a6.45,6.45,0,0,1,.8,1,16.75,16.75,0,0,0,3,3.41,8.58,8.58,0,0,0,3.5,1.73c3.17.72,6-.71,7.54-1.48.74-.36,1.14-.57,1.3-.44h0l0,0c.14.23-.24.91-.65,1.47-1.44,2-5.27,5.46-9.47,4.47A6.67,6.67,0,0,1,1161.28,529.48Z"/><path class="cls-3" d="M1174,524.85l0,0c.4.66-4.52,7.18-10.07,5.87a6.66,6.66,0,0,1-2.65-1.31c-3.48-2.78-4.29-8.53-3.72-8.87.06,0,.14,0,.23.06.56.45,1.73,2.71,3.85,4.41a8.59,8.59,0,0,0,3.51,1.74c4.54,1,8.36-2.3,8.82-1.93m.06-.07h0c-.18-.15-.57,0-1.35.43-1.52.77-4.36,2.19-7.51,1.48a8.69,8.69,0,0,1-3.48-1.73,16.38,16.38,0,0,1-3-3.4,5.9,5.9,0,0,0-.81-1c-.13-.11-.24-.13-.34-.07s-.18.25-.2.57a11.92,11.92,0,0,0,3.91,8.45,6.66,6.66,0,0,0,2.69,1.33c4.22,1,8.07-2.5,9.52-4.49.26-.36.84-1.22.65-1.52a.12.12,0,0,0,0-.05Z"/><path class="cls-14" d="M1173.54,525.33a11.06,11.06,0,0,1-2.9,3.21c-1.54,1.18-3.94,2.47-6.6,1.84a6.26,6.26,0,0,1-2.49-1.23,11.57,11.57,0,0,1-3.75-8c.14.18.31.42.5.69a17.06,17.06,0,0,0,3.13,3.49,9,9,0,0,0,3.67,1.82c3.31.75,6.25-.72,7.82-1.52l.62-.3m.46-.48c-.46-.37-4.28,3-8.82,1.93a8.59,8.59,0,0,1-3.51-1.74c-2.12-1.7-3.29-4-3.85-4.41-.09-.07-.17-.1-.23-.06-.57.34.24,6.09,3.72,8.87a6.66,6.66,0,0,0,2.65,1.31c5.55,1.31,10.47-5.21,10.07-5.87l0,0Z"/><path class="cls-15" d="M1185.44,494.85c-4.9-3.69-12.32-6.19-16.13-4.75-3.23-1.46-9.88.5-14.32,3.59-4.2,2.92-9,8.66-7.49,11.46,1.92,3.55,14.34,3.11,20.24-3.76.28-.33.56-.69.83-1.06a19.22,19.22,0,0,0,2,3.09c6.54,8.22,20.79,9.16,23.11,5.08C1195.49,505.28,1190.17,498.41,1185.44,494.85Z"/><path class="cls-16" d="M1186.77,510.91c-5.44-.08-12.36-2.51-16.28-7.45a19.91,19.91,0,0,1-1.93-3c-.26.36-.52.69-.77,1-3.91,4.55-10.88,6.4-15.76,5.88-2.31-.25-4-1-4.59-2.14-1.54-2.84,3.34-8.64,7.51-11.54s11-5.1,14.36-3.61c1.81-.67,4.53-.51,7.67.46a28.87,28.87,0,0,1,8.5,4.31c4.69,3.53,10.09,10.47,8.23,13.73-.73,1.28-2.69,2.13-5.36,2.34C1187.84,510.91,1187.31,510.92,1186.77,510.91Zm-18.19-10.7,0,.09a19.12,19.12,0,0,0,2,3.08c4.29,5.4,12.17,7.79,17.75,7.36,2.63-.2,4.55-1,5.26-2.27,1.83-3.21-3.54-10.06-8.19-13.57a28.84,28.84,0,0,0-8.46-4.29c-3.13-1-5.84-1.12-7.62-.45h0c-3.3-1.49-10,.65-14.25,3.58s-9,8.6-7.47,11.38c.58,1.08,2.21,1.83,4.48,2.07,4.84.52,11.77-1.32,15.65-5.84a12.22,12.22,0,0,0,.82-1.06Z"/><rect class="cls-17" x="1185.46" y="493.96" width="4.08" height="2.62" rx="1.26" transform="translate(715.59 -701.7) rotate(45.84)"/><rect class="cls-17" x="1152.01" y="492.17" width="3.87" height="2.34" rx="1.12" transform="translate(-67.38 782.02) rotate(-36.45)"/><path class="cls-18" d="M1187,493.43a8,8,0,0,1,7.57-3.83c3.8.31,6.29,3.12,7.43,4.48,1.36,1.63,1.44,2.49,2.3,3.75,1.39,2.06,4.32,4.44,11.25,5.25a16.66,16.66,0,0,1-3.68,2.56c-3.34,1.7-9.5,3.37-13.39.53-1.84-1.34-1.42-2.39-4.14-5.73a28.6,28.6,0,0,0-5.57-5.21Z"/><path class="cls-16" d="M1203.61,507.76a8.78,8.78,0,0,1-5.13-1.54,5.64,5.64,0,0,1-1.83-2.27,19.74,19.74,0,0,0-2.32-3.47,28.28,28.28,0,0,0-5.55-5.2l-1.82-1.84,0-.05a8.12,8.12,0,0,1,7.63-3.86c3.57.29,6,2.72,7.48,4.51a10.79,10.79,0,0,1,1.53,2.4,14.15,14.15,0,0,0,.77,1.36c1.91,2.82,5.68,4.57,11.2,5.22l.14,0-.1.09a16.58,16.58,0,0,1-3.69,2.56A18.94,18.94,0,0,1,1203.61,507.76Zm-16.5-14.35,1.75,1.77a28.47,28.47,0,0,1,5.57,5.22,19.9,19.9,0,0,1,2.33,3.49,5.6,5.6,0,0,0,1.79,2.23c4,2.9,10.26,1,13.33-.54a16.58,16.58,0,0,0,3.56-2.45c-5.49-.66-9.24-2.43-11.16-5.26a11.6,11.6,0,0,1-.77-1.38,11,11,0,0,0-1.52-2.37c-1.48-1.77-3.87-4.17-7.39-4.46l-.52,0A8,8,0,0,0,1187.11,493.41Z"/><path class="cls-18" d="M1154.32,491.74a7,7,0,0,0-6-4.34c-3.32-.27-5.85,1.78-7,2.78a23.64,23.64,0,0,0-2.51,2.88c-1.48,1.56-4.34,3.19-10.41,2.9a14.3,14.3,0,0,0,2.8,2.71c2.64,1.93,7.7,4.22,11.45,2.34,1.77-.88,1.55-1.84,4.36-4.32a24.87,24.87,0,0,1,5.52-3.66Z"/><path class="cls-16" d="M1139.38,501.77a15.57,15.57,0,0,1-8.2-3,14.52,14.52,0,0,1-2.82-2.72l-.08-.11h.14c4.83.23,8.32-.74,10.36-2.88a10.6,10.6,0,0,0,.85-1,9.6,9.6,0,0,1,1.65-1.84c1-.84,3.59-3.08,7.07-2.8a7.1,7.1,0,0,1,6,4.39l0,0,0,0-1.78,1.29a25.34,25.34,0,0,0-5.52,3.66,18.6,18.6,0,0,0-2.48,2.64,4.86,4.86,0,0,1-1.89,1.69A7.05,7.05,0,0,1,1139.38,501.77ZM1128.55,496a14.27,14.27,0,0,0,2.7,2.57c2.42,1.78,7.55,4.26,11.38,2.35a4.82,4.82,0,0,0,1.85-1.66,17.34,17.34,0,0,1,2.5-2.65,24.78,24.78,0,0,1,5.53-3.68l1.73-1.25a7,7,0,0,0-5.9-4.26l-.48,0c-3.18-.05-5.57,2-6.49,2.79a9.48,9.48,0,0,0-1.64,1.81,9.6,9.6,0,0,1-.86,1.07C1136.83,495.25,1133.36,496.24,1128.55,496Z"/><ellipse class="cls-9" cx="1176.17" cy="514.19" rx="2.52" ry="3.35" transform="translate(361.27 1506.01) rotate(-74.21)"/><path class="cls-3" d="M1176.59,517a4.36,4.36,0,0,1-1.17-.17,4.21,4.21,0,0,1-2.22-1.45,2.49,2.49,0,0,1-.49-2.2,2.45,2.45,0,0,1,1.58-1.62,4.16,4.16,0,0,1,2.64-.08c1.91.54,3.12,2.18,2.71,3.66h0A2.93,2.93,0,0,1,1176.59,517Zm-.85-5.18a3.32,3.32,0,0,0-1.27.21,2,2,0,0,0-1.27,1.28,2,2,0,0,0,.41,1.76,3.73,3.73,0,0,0,1.94,1.27c1.64.46,3.26-.14,3.6-1.34s-.72-2.56-2.36-3A3.86,3.86,0,0,0,1175.74,511.85Z"/><ellipse class="cls-9" cx="1160.25" cy="512.01" rx="2.63" ry="3.49" transform="translate(482.42 1583.87) rotate(-81.5)"/><path class="cls-3" d="M1160.47,514.92a4.76,4.76,0,0,1-.64-.06c-2-.3-3.52-1.83-3.28-3.41s2.09-2.6,4.13-2.3,3.52,1.84,3.28,3.41h0C1163.75,514,1162.25,514.94,1160.47,514.92Zm-.45-5.31c-1.52,0-2.79.77-3,1.92-.19,1.3,1.09,2.57,2.85,2.83s3.36-.58,3.56-1.87-1.09-2.57-2.85-2.83A4,4,0,0,0,1160,509.61Z"/><path class="cls-3" d="M1167.37,519.37a1.37,1.37,0,0,1-1.24-.57,1.25,1.25,0,0,1,.3-1.51,3.14,3.14,0,0,1,1.26-.64l.16.49a2.74,2.74,0,0,0-1.07.52.76.76,0,0,0-.21.87c.19.32.71.35,1.11.31a.82.82,0,0,0,.54-.22.1.1,0,0,0,0-.08l.5-.09a.63.63,0,0,1-.12.49,1.31,1.31,0,0,1-.91.41Z"/><ellipse class="cls-19" cx="1164.04" cy="528.85" rx="1.26" ry="2.96" transform="translate(338.34 1505.01) rotate(-74.21)"/><rect class="cls-9" x="1164.57" y="527.31" width="1.36" height="1.47" rx="0.61" transform="translate(214.46 -327.9) rotate(17.62)"/><path class="cls-3" d="M1164.53,528.61a.39.39,0,0,1-.11-.39l.26-.8a.37.37,0,0,1,.18-.21.39.39,0,0,1,.28,0l.7.22a.37.37,0,0,1,.24.46l-.26.8a.35.35,0,0,1-.46.23l-.7-.22A.33.33,0,0,1,1164.53,528.61Zm1.37-1.05-.09,0-.7-.23a.27.27,0,0,0-.2,0,.23.23,0,0,0-.13.16l-.26.8a.28.28,0,0,0,0,.2.26.26,0,0,0,.15.12l.71.23a.26.26,0,0,0,.32-.17l.26-.8A.26.26,0,0,0,1165.9,527.56Z"/><rect class="cls-9" x="1163.13" y="526.86" width="1.36" height="1.47" rx="0.56" transform="translate(214.26 -327.49) rotate(17.62)"/><path class="cls-3" d="M1163.08,528.15a.39.39,0,0,1-.08-.1.31.31,0,0,1,0-.25l.27-.86a.45.45,0,0,1,.16-.2.39.39,0,0,1,.26,0l.76.24a.35.35,0,0,1,.22.42l-.27.86a.35.35,0,0,1-.43.22l-.75-.24A.35.35,0,0,1,1163.08,528.15Zm1.4-1-.08-.05-.76-.24a.23.23,0,0,0-.18,0,.21.21,0,0,0-.11.13l-.27.86a.2.2,0,0,0,0,.17.24.24,0,0,0,.14.12l.75.24a.24.24,0,0,0,.3-.15l.27-.86A.22.22,0,0,0,1164.48,527.11Z"/><ellipse class="cls-3" cx="1158.62" cy="511.98" rx="2.34" ry="1.95" transform="translate(629.64 1662.95) rotate(-89.16)"/><ellipse class="cls-3" cx="1174.79" cy="513.89" rx="2.34" ry="1.95" transform="translate(643.67 1680.99) rotate(-89.16)"/><path class="cls-17" d="M1168.53,539.31a7.44,7.44,0,0,0,3-.23,12.51,12.51,0,0,0,13.25,10.25,40.39,40.39,0,0,0,1.68,9.6,39.61,39.61,0,0,0,3.85,8.73c-4.21,3.66-11.36,8.51-20.48,8.84a38.4,38.4,0,0,1-10-1.19,60.89,60.89,0,0,1-17.12-6.54,32.57,32.57,0,0,0,6.56-20.15,11.34,11.34,0,0,0,10.54-10.69c1,.22,2,.44,3,.72-.07.17-.77,1.84,0,2.73.35.41,1.13.47,2.69.6,1.13.09,1.7.13,2.08-.1C1168.58,541.26,1168.54,539.6,1168.53,539.31Z"/><path class="cls-3" d="M1181.06,513.51a7.64,7.64,0,0,0-6.68-3.44l0-.51a8.06,8.06,0,0,1,7.13,3.68Z"/><path class="cls-3" d="M1155.5,509.22l-.25-.44a10.06,10.06,0,0,1,7.61-1l-.14.49A9.58,9.58,0,0,0,1155.5,509.22Z"/><path class="cls-20" d="M1191.78,522.51l0-.13c.47-.12,2.1-1.25,2-1.63a3.62,3.62,0,0,1,.51-2.3l0-.09a2.71,2.71,0,0,0,.26-2.31,1.27,1.27,0,0,0-.36-.44.81.81,0,0,0-1.07,0l-.1-.08a.94.94,0,0,1,1.22,0l0,0a1.6,1.6,0,0,1,.4.49,2.78,2.78,0,0,1-.27,2.41l0,.09a3.42,3.42,0,0,0-.5,2.22C1194,521.24,1192.19,522.4,1191.78,522.51Z"/><path class="cls-20" d="M1143.23,513.16l.08-.08c-.24-.38-.71-2.26-.47-2.51a4.07,4.07,0,0,0,.78-2.14v-.1a3,3,0,0,1,.93-2,.91.91,0,0,1,.44-.14.67.67,0,0,1,.68.62h.1a.78.78,0,0,0-.75-.74h0a1,1,0,0,0-.48.15,3.07,3.07,0,0,0-1,2.09l0,.1a3.89,3.89,0,0,1-.74,2.07C1142.46,510.81,1143,512.83,1143.23,513.16Z"/><ellipse class="cls-3" cx="1155.15" cy="585.28" rx="1.86" ry="5.36" transform="translate(552.93 1731.69) rotate(-89.16)"/><ellipse class="cls-3" cx="1174.01" cy="584.98" rx="5.36" ry="1.86" transform="translate(-61.71 145.1) rotate(-6.89)"/><ellipse class="cls-21" cx="1180.94" cy="519.16" rx="0.95" ry="2.75" transform="translate(644.46 1692.33) rotate(-89.16)"/><ellipse class="cls-21" cx="1154.67" cy="515.43" rx="0.95" ry="2.75" transform="translate(344.43 1486.22) rotate(-74.21)"/><rect class="cls-11" x="1235.05" y="574.18" width="8.06" height="11.06" rx="3.85"/><path class="cls-12" d="M1239.07,585.3a4.08,4.08,0,0,1-4.08-4.08v-3a4.08,4.08,0,0,1,8.16,0v3A4.08,4.08,0,0,1,1239.07,585.3Zm0-11.07a4,4,0,0,0-4,4v3a4,4,0,0,0,8,0v-3A4,4,0,0,0,1239.07,574.23Z"/><rect class="cls-11" x="1248.26" y="573.84" width="8.06" height="11.06" rx="3.85"/><path class="cls-12" d="M1252.29,585h0a4.08,4.08,0,0,1-4.08-4.08v-3a4.08,4.08,0,1,1,8.16,0v3A4.08,4.08,0,0,1,1252.29,585Zm0-11.07a4,4,0,0,0-4,4v3a4,4,0,0,0,4,4h0a4,4,0,0,0,4-4v-3A4,4,0,0,0,1252.29,573.89Z"/><path class="cls-22" d="M1232,509.94c8-5.34,20.51-3.82,27.74,2.44,1.84,1.59,4.82,4.77,8.81,26.09,3.23,17.28,4.85,25.93,2.27,30.21-8.1,13.48-39.76,14.94-49.45,1.4-4.05-5.64-2.58-14.44.35-32C1224.41,522.11,1225.87,514.05,1232,509.94Z"/><circle class="cls-23" cx="1267.25" cy="501.28" r="2.22"/><circle class="cls-23" cx="1265.45" cy="504.95" r="3.06"/><circle class="cls-23" cx="1261.71" cy="512" r="3.07"/><circle class="cls-23" cx="1264" cy="507.63" r="2.68"/><circle class="cls-23" cx="1225.65" cy="504.38" r="2.63"/><circle class="cls-23" cx="1227.54" cy="508.16" r="2.49"/><circle class="cls-23" cx="1224.67" cy="499.17" r="3.61"/><path class="cls-11" d="M1265.89,501.63c.48-2.6-.16-4.91-1.42-5.17a1.35,1.35,0,0,0-1,.2,18.76,18.76,0,0,0-35.24-5.77,18,18,0,0,0-1.11,2.62,1.58,1.58,0,0,0-1.12-.6c-1.27,0-2.27,2.11-2.22,4.77s1.12,4.82,2.4,4.84a.68.68,0,0,0,.2,0,18.77,18.77,0,0,0,35.22,5.58,18.07,18.07,0,0,0,1-2.27l.15.05C1264,506.12,1265.42,504.22,1265.89,501.63Z"/><path class="cls-12" d="M1236.29,516.26a18.94,18.94,0,0,1-10-13.66h-.13c-.65,0-1.27-.53-1.74-1.48a8.39,8.39,0,0,1-.75-3.44c0-2.7,1-4.87,2.31-4.85a1.6,1.6,0,0,1,1.08.52,21.11,21.11,0,0,1,1.07-2.5,18.85,18.85,0,0,1,35.38,5.68,1.33,1.33,0,0,1,.94-.15c.64.13,1.15.76,1.42,1.77a8.11,8.11,0,0,1,.07,3.49,8,8,0,0,1-1.29,3.22c-.62.83-1.31,1.21-2,1.08l-.09,0a17.73,17.73,0,0,1-1,2.21A18.88,18.88,0,0,1,1236.29,516.26Zm-9.82-13.85v.08a18.68,18.68,0,0,0,35.06,5.55,17.11,17.11,0,0,0,1-2.26l0-.08.1,0,.12,0c.57.11,1.21-.24,1.78-1a8.63,8.63,0,0,0,1.2-6.58c-.26-.94-.72-1.53-1.29-1.64a1.25,1.25,0,0,0-.92.19l-.11.06,0-.12a18.68,18.68,0,0,0-35.09-5.74,19.23,19.23,0,0,0-1.1,2.61l0,.13-.1-.11a1.49,1.49,0,0,0-1-.57c-1.23,0-2.2,2.08-2.15,4.69a8.17,8.17,0,0,0,.74,3.37c.43.89,1,1.38,1.58,1.39l.18,0Z"/><path class="cls-23" d="M1271.82,491.39a3.22,3.22,0,0,0-3.09-3.21,2.49,2.49,0,0,0,1.21-1.3,2.45,2.45,0,0,0-1.39-3.19,2.34,2.34,0,0,0-1.3-.13c0-.21,0-.41,0-.62a5.06,5.06,0,0,0-5.06-5.06,5,5,0,0,0-2.78.84,4,4,0,0,0,0-.6,3.83,3.83,0,0,0-7.15-1.92,3.79,3.79,0,0,0-2.66-1.08,3.87,3.87,0,0,0-2.13.64,2.33,2.33,0,0,0-4.62.44,1.64,1.64,0,0,0,0,.22,3.94,3.94,0,0,0-1.5-.3,3.55,3.55,0,0,0-3,1.56,3.7,3.7,0,0,0-6.71,1.88h0a3.42,3.42,0,0,0-3.39,2.93,2.32,2.32,0,0,0-.46,0,3.06,3.06,0,0,0-2.89,3.2,3.44,3.44,0,0,0,.47,1.73,3,3,0,0,0-.55,5.14,2.43,2.43,0,1,0,3,2.36,2.41,2.41,0,0,0-.76-1.76,3,3,0,0,0,2.66-3,3,3,0,0,0-.13-.85,2.66,2.66,0,0,0,5-1.28,2.58,2.58,0,0,0-.15-.88,3.05,3.05,0,0,0,4.47-2,2.89,2.89,0,0,0,4-2.25,3.53,3.53,0,0,0,6-.17,4,4,0,0,0,.78.08,3.84,3.84,0,0,0,.69-.07,2.81,2.81,0,0,0,2.71,2.06.77.77,0,0,1,1.44.36,1.48,1.48,0,0,0,0,.21,2.66,2.66,0,0,0,4.18,2.17,3.52,3.52,0,0,0-.06.66,3.37,3.37,0,0,0,.49,1.76,3.19,3.19,0,0,0,2.7,4.9,2.74,2.74,0,0,1,3.47,2.56,2.72,2.72,0,1,0,2.86-2.77h0v0a3.27,3.27,0,0,0,.44,0A3.23,3.23,0,0,0,1271.82,491.39Zm-42.55-2.94.08-.06a3,3,0,0,0,.07.32Z"/><circle class="cls-22" cx="1225.88" cy="500.91" r="0.61"/><circle class="cls-22" cx="1263.39" cy="504.34" r="0.61"/><rect class="cls-3" x="1230.9" y="490.55" width="0.42" height="7.48" transform="translate(398.11 1526.81) rotate(-72.98)"/><rect class="cls-3" x="1253.85" y="496.7" width="9.64" height="0.42" transform="translate(-24.44 67.04) rotate(-3.02)"/><path class="cls-3" d="M1241.67,498.63h-.17l-6-.76a1.33,1.33,0,0,1-1.15-1.48l.36-2.75a1.31,1.31,0,0,1,1.47-1.14l6,.76a1.34,1.34,0,0,1,1.14,1.48l-.35,2.75a1.35,1.35,0,0,1-.51.88A1.29,1.29,0,0,1,1241.67,498.63Zm-.12-.43a.9.9,0,0,0,1-.78l.35-2.74a.9.9,0,0,0-.78-1l-6-.76a.87.87,0,0,0-.66.18.93.93,0,0,0-.35.59l-.35,2.75a.91.91,0,0,0,.78,1Z"/><path class="cls-3" d="M1252.46,500l-.2,0-5.48-.7a1.56,1.56,0,0,1-1.35-1.75l.29-2.26a1.52,1.52,0,0,1,.59-1,1.56,1.56,0,0,1,1.16-.32l5.48.71a1.56,1.56,0,0,1,1,.59,1.59,1.59,0,0,1,.31,1.16l-.29,2.26A1.57,1.57,0,0,1,1252.46,500Zm-5.19-5.68a1.14,1.14,0,0,0-1.13,1l-.29,2.26a1.14,1.14,0,0,0,1,1.28l5.48.71a1.15,1.15,0,0,0,1.28-1l.29-2.27a1.11,1.11,0,0,0-.23-.84,1.08,1.08,0,0,0-.75-.43l-5.49-.71Z"/><rect class="cls-3" x="1244.03" y="494.94" width="0.42" height="2.61" transform="translate(596.76 1668.92) rotate(-82.84)"/><ellipse class="cls-9" cx="1238.2" cy="495.55" rx="3.2" ry="2.36"/><path class="cls-3" d="M1238.2,498.13c-1.89,0-3.42-1.16-3.42-2.58s1.53-2.57,3.42-2.57,3.41,1.16,3.41,2.57S1240.08,498.13,1238.2,498.13Zm0-4.73c-1.65,0-3,1-3,2.15s1.34,2.16,3,2.16,3-1,3-2.16S1239.84,493.4,1238.2,493.4Z"/><ellipse class="cls-9" cx="1249.15" cy="496.91" rx="3.13" ry="2.42"/><path class="cls-3" d="M1249.15,499.54c-1.84,0-3.34-1.18-3.34-2.63s1.5-2.63,3.34-2.63,3.35,1.18,3.35,2.63S1251,499.54,1249.15,499.54Zm0-4.84c-1.61,0-2.92,1-2.92,2.21s1.31,2.2,2.92,2.2,2.93-1,2.93-2.2S1250.77,494.7,1249.15,494.7Z"/><circle class="cls-3" cx="1236.77" cy="495.55" r="1.43"/><circle class="cls-3" cx="1247.73" cy="496.91" r="1.42"/><g class="cls-24"><rect class="cls-25" x="1245.75" y="494.41" width="8.23" height="4.99" rx="2.39" transform="translate(73.41 -155.03) rotate(7.31)"/><path class="cls-3" d="M1252.46,500l-.2,0-5.48-.7a1.56,1.56,0,0,1-1.35-1.75l.29-2.26a1.52,1.52,0,0,1,.59-1,1.56,1.56,0,0,1,1.16-.32l5.48.71a1.56,1.56,0,0,1,1,.59,1.59,1.59,0,0,1,.31,1.16l-.29,2.26A1.57,1.57,0,0,1,1252.46,500Zm-5.19-5.68a1.14,1.14,0,0,0-1.13,1l-.29,2.26a1.14,1.14,0,0,0,1,1.28l5.48.71a1.15,1.15,0,0,0,1.28-1l.29-2.27a1.11,1.11,0,0,0-.23-.84,1.08,1.08,0,0,0-.75-.43l-5.49-.71Z"/></g><g class="cls-24"><rect class="cls-25" x="1234.75" y="493.06" width="8.23" height="4.99" rx="2.39" transform="translate(73.14 -153.64) rotate(7.31)"/><path class="cls-3" d="M1241.67,498.63h-.17l-6-.77a1.32,1.32,0,0,1-1.15-1.48l.36-2.74a1.3,1.3,0,0,1,.5-.88,1.27,1.27,0,0,1,1-.26l6,.76a1.3,1.3,0,0,1,.87.5,1.33,1.33,0,0,1,.27,1l-.35,2.75a1.35,1.35,0,0,1-1.31,1.15Zm-.12-.43a.9.9,0,0,0,1-.78l.35-2.74a.9.9,0,0,0-.78-1l-6-.77a.91.91,0,0,0-.66.18,1,1,0,0,0-.35.6l-.35,2.75a.9.9,0,0,0,.78,1Z"/></g><path class="cls-26" d="M1254.86,494.44l-.45-1.23v0l-.05,0-.83.5-.24-.62-.62.46-.34-.75-.81.72-.53-.88a2.6,2.6,0,0,0-.3.36l-.15.22-.18-.21a1.56,1.56,0,0,1-.23-.34l-.48.62-.63-1a2.15,2.15,0,0,1-.32.41l-.19.19-.14-.22a2.4,2.4,0,0,1-.16-.27,1.37,1.37,0,0,1-.26.28l-.21.18-.56-1.23.38-.18.32.69a1,1,0,0,0,.13-.33l.17-.85.24.83a1.76,1.76,0,0,0,.16.4,2.65,2.65,0,0,0,.24-.4l.16-.35.7,1.09.6-.77.11.4a1.22,1.22,0,0,0,.14.33,2.67,2.67,0,0,1,.38-.37l.19-.14.52.85.85-.75.37.79.64-.49.26.68.4-.24a.4.4,0,0,1,.67.21l.15.42.08-.13.36.23Z"/><path class="cls-26" d="M1242,492.56l-.16-.84-.13.13-.2.18-.13-.24a1,1,0,0,0-.14-.22l-.54.53-.31-.61a.91.91,0,0,1-.17.17.58.58,0,0,1-.78-.1.51.51,0,0,1-.07-.15l-.2.16-.18.12-.36-.54-.25.16a.43.43,0,0,1-.29.09.43.43,0,0,1-.29-.24l-.12-.21a2.92,2.92,0,0,1-.37.24l-.25.16-.06-.29a1.4,1.4,0,0,0-.09-.29l-.36.35-.14-.19-.07-.08-.25.41-.19-.22a.83.83,0,0,1-.08-.12l-.18.2-.16-.18a.81.81,0,0,1-.2-.39l.37-.08.59-.68-.07.54.24-.4.15.42a.61.61,0,0,0,0,.12l.42-.4.13.23a1.84,1.84,0,0,1,.17.38,2.75,2.75,0,0,0,.26-.22l.2-.18.38.67h0l.58-.39.34.52a1.81,1.81,0,0,0,.24-.24l.2-.22.14.26a.67.67,0,0,1,.08.29.47.47,0,0,0,0,.14s.12,0,.19,0a1,1,0,0,0,.24-.35l.19-.39.41.83.43-.42.14.14a1.51,1.51,0,0,1,.21.23,1.08,1.08,0,0,0,.18-.24l.28-.45.07.33,0-.05.23.24a3.88,3.88,0,0,1,.47.6l-.36.22a2.48,2.48,0,0,0-.19-.26Z"/><path class="cls-3" d="M1243.57,500a5.21,5.21,0,0,0-2.42.16,2.53,2.53,0,0,0-1.54,1.59,2.64,2.64,0,0,0,.75,2.34,2,2,0,0,0,1,.71,5.13,5.13,0,0,0,1.29.17,2.68,2.68,0,0,0,2.4-1.21.63.63,0,0,0-1.08-.63l-.07.11s0,0,0,0a1.62,1.62,0,0,1-.19.18c.06,0-.12.07-.14.08l-.12.06h0a2.62,2.62,0,0,1-1.08.1,3.83,3.83,0,0,1-.56-.09.6.6,0,0,1-.36-.19,2.65,2.65,0,0,1-.57-.81,1.09,1.09,0,0,1-.08-.39c0-.07,0-.08,0,0s0-.08,0-.12,0-.08,0-.12,0,0,0,0a1.16,1.16,0,0,1,.54-.53,1.37,1.37,0,0,1,.38-.15,2.43,2.43,0,0,1,.53-.08,8.86,8.86,0,0,1,1.26.06.62.62,0,0,0,.62-.62.63.63,0,0,0-.62-.63Z"/><path class="cls-13" d="M1241.25,507.58c-2.48-.52-3.74-1.38-4.08-.93s.42,1.56,1,2.22a5.42,5.42,0,0,0,5.3,1.4c1.34-.4,2.73-1.43,2.57-2S1244.23,508.21,1241.25,507.58Z"/><path class="cls-3" d="M1242.08,510.52a5.46,5.46,0,0,1-3.9-1.62c-.63-.65-1.4-1.83-1.06-2.28.22-.29.71-.12,1.59.18a20.75,20.75,0,0,0,2.55.73,18.39,18.39,0,0,0,3.42.37c.88,0,1.37,0,1.46.37.18.62-1.3,1.66-2.6,2.05A5.15,5.15,0,0,1,1242.08,510.52Zm-4.6-3.94a.31.31,0,0,0-.27.1c-.3.38.43,1.51,1,2.15a5.36,5.36,0,0,0,5.26,1.39c1.33-.4,2.68-1.42,2.53-1.92-.07-.26-.56-.28-1.36-.3a17.81,17.81,0,0,1-3.44-.37h0a20.47,20.47,0,0,1-2.56-.73A4.66,4.66,0,0,0,1237.48,506.58Z"/><path class="cls-3" d="M1243.27,509.21a9.06,9.06,0,0,1-1.49-.16,8.08,8.08,0,0,1-2.74-.89,7.6,7.6,0,0,1-1.91-1.48l.07-.07a7.84,7.84,0,0,0,1.89,1.46,8,8,0,0,0,2.7.87,6.05,6.05,0,0,0,2.52.05,5.21,5.21,0,0,0,1.75-.75l.06.09a5.44,5.44,0,0,1-1.79.76A4.53,4.53,0,0,1,1243.27,509.21Z"/><path class="cls-27" d="M1248.08,509.3l-.38-.18a1.57,1.57,0,0,0-.58-1.92l.22-.36A2,2,0,0,1,1248.08,509.3Z"/><path class="cls-27" d="M1234.9,506.83a1.86,1.86,0,0,1,.47-1.39,1.8,1.8,0,0,1,1.34-.58v.42h0a1.39,1.39,0,0,0-1.39,1.51Z"/><path class="cls-27" d="M1249.58,489.61a2.18,2.18,0,0,0-1.95-.68c-.23,0-.45,0-.68.07a5,5,0,0,1-1.77,0,4.5,4.5,0,0,1-1.09-.43c-.2-.09-.4-.19-.61-.27a1.66,1.66,0,0,0-1.53,0l-.25-.33a2,2,0,0,1,1.93-.1,6.18,6.18,0,0,1,.64.28,4.52,4.52,0,0,0,1,.4,4.65,4.65,0,0,0,1.62,0c.23,0,.47-.06.7-.07a2.44,2.44,0,0,1,2.33.87Z"/><path class="cls-27" d="M1250.77,487.77a2.34,2.34,0,0,0-2-.55l-.43,0a4.45,4.45,0,0,1-2-.1,4,4,0,0,1-.51-.24l-.31-.15a3.07,3.07,0,0,0-1.89-.19l-.09-.41a3.48,3.48,0,0,1,2.16.22l.32.16.46.21a4,4,0,0,0,1.84.08l.44,0a2.76,2.76,0,0,1,2.39.69Z"/><polygon class="cls-28" points="1239.81 541.05 1248.87 541.05 1250.78 547.52 1237.29 547.52 1239.81 541.05"/><path class="cls-28" d="M1251.06,547.74H1237l2.68-6.91H1249Zm-13.46-.43h12.9l-1.79-6H1240Z"/><path class="cls-28" d="M1243.93,542.32c-1.23,0-2.66-.39-3.08-1.47a3.61,3.61,0,0,1,.06-2.05,4.87,4.87,0,0,1,.88-2.39,3.34,3.34,0,0,1,5.11.59,4.56,4.56,0,0,1,.34,1.58,5.09,5.09,0,0,1,0,2.15c-.41,1.14-2,1.57-3.21,1.59Zm.1-6a2.1,2.1,0,0,0-1.6.64,4.19,4.19,0,0,0-.69,2,3.26,3.26,0,0,0-.11,1.58h0c.22.57,1.2,1,2.38.93s2.22-.45,2.42-1a4.84,4.84,0,0,0,0-1.78,4.59,4.59,0,0,0-.26-1.3,2.23,2.23,0,0,0-1.72-1Z"/><path class="cls-11" d="M1251.37,535.1a2.58,2.58,0,0,0-3.57-.53,3.11,3.11,0,0,0-.62.52,1.14,1.14,0,0,0-.51-.17c-.46,0-.86.15-.9.45s.33.57.79.62h0a1.87,1.87,0,0,0-.07.22,2.93,2.93,0,0,0-.51,0c-.62.06-1.11.29-1.09.51s.54.35,1.17.29l.32,0a.41.41,0,0,1,0,.11l-.2.06c-.62.21-1.06.54-1,.74s.62.19,1.24,0l.16-.06a.79.79,0,0,0,0,.09l-.09.06c-.55.34-.89.78-.77,1s.66.07,1.21-.28l.18-.11,0,0h0c-.59.37-1,.87-.79,1.12s.75.14,1.34-.23a2.42,2.42,0,0,0,.56-.46,3,3,0,0,0,2-.44A2.57,2.57,0,0,0,1251.37,535.1Z"/><path class="cls-12" d="M1246.72,539.86a.44.44,0,0,1-.38-.15c-.08-.14,0-.34.12-.57a2.53,2.53,0,0,1,.22-.26c-.41.19-.8.26-.93.07s.29-.73.8-1.05l0,0h0l-.11,0a2.91,2.91,0,0,1-.84.17c-.27,0-.43-.06-.47-.19s.46-.61,1-.8l.17-.05h0a1.36,1.36,0,0,1-.27,0,2.4,2.4,0,0,1-.82,0c-.25-.06-.39-.17-.4-.3,0-.29.56-.51,1.13-.57h.48a.56.56,0,0,1,0-.12c-.48-.06-.84-.36-.81-.68a.51.51,0,0,1,.32-.39,1.13,1.13,0,0,1,.64-.1,1.34,1.34,0,0,1,.49.15,2.92,2.92,0,0,1,.61-.49,2.42,2.42,0,1,1,2.54,4.06,3,3,0,0,1-2,.46,2.72,2.72,0,0,1-.55.44A2.15,2.15,0,0,1,1246.72,539.86Zm.47-1.4.12.09-.1.06a2.14,2.14,0,0,0-.66.59c-.14.19-.18.35-.12.45s.66.14,1.28-.25a2.41,2.41,0,0,0,.54-.44l0,0h0a2.92,2.92,0,0,0,2-.44,2.32,2.32,0,1,0-2.44-3.89,3.83,3.83,0,0,0-.62.51l0,0,0,0a1.24,1.24,0,0,0-.48-.16,1.13,1.13,0,0,0-.59.09.42.42,0,0,0-.25.31c0,.27.3.52.74.57h.1l0,.07a1.42,1.42,0,0,0-.07.22v0h0a2.8,2.8,0,0,0-.5,0c-.63.06-1,.29-1,.45s.13.16.32.21a2.51,2.51,0,0,0,.79,0l.32-.05h.06v.21h0l-.21.06c-.61.21-1,.52-1,.67s.16.11.35.11h0a2.63,2.63,0,0,0,.8-.16l.13,0,.07,0,0,0,0,.05,0,.08-.08.05-.05,0c-.56.35-.85.76-.76.9s.58.06,1.14-.29l.18-.12Z"/><path class="cls-22" d="M1249.69,532.27c2.06-2.95,5.13-1.2,9.66-3.93,3.71-2.24,4.27-5,6.11-4.65s3.75,4,3.17,6.81c-1.43,6.93-17.64,10.17-19.82,6.34C1248.08,535.56,1248.88,533.44,1249.69,532.27Z"/><path class="cls-29" d="M1253.57,538.68c-2.21,0-4.22-.46-4.94-1.74s.09-3.64.89-4.79h0c1.15-1.65,2.64-1.9,4.37-2.19a13.79,13.79,0,0,0,5.35-1.8,15.14,15.14,0,0,0,3.56-3.09c.93-1.05,1.61-1.8,2.7-1.59a3.71,3.71,0,0,1,2.19,1.74,7.49,7.49,0,0,1,1.15,5.33c-.88,4.23-7,7.05-12.24,7.88A19.16,19.16,0,0,1,1253.57,538.68Zm-3.7-6.29c-.71,1-1.58,3.11-.88,4.34s3.75,1.88,7.55,1.28c5.3-.83,11.09-3.7,11.88-7.55a7,7,0,0,0-1.08-5,3.31,3.31,0,0,0-1.92-1.55c-.85-.17-1.4.44-2.31,1.45a15.1,15.1,0,0,1-3.65,3.17,14.34,14.34,0,0,1-5.5,1.86c-1.7.28-3,.5-4.09,2Z"/><path class="cls-11" d="M1243.14,538c.11-.25-.38-.72-1.1-1.05h0a.43.43,0,0,1,0,0c.56.1,1,0,1.09-.26s-.38-.59-1-.73a2,2,0,0,0-.4,0l-.11-.18c.41-.1.7-.38.64-.65s-.44-.42-.87-.33a1.06,1.06,0,0,0-.45.22,2.87,2.87,0,0,0-.57-.39,2.39,2.39,0,1,0-2.18,4.16,3.29,3.29,0,0,0,1.43.38,3.24,3.24,0,0,0,.64.43c.69.37,1.36.45,1.5.19s-.16-.58-.64-.91c.71.3,1.37.32,1.51,0s-.08-.47-.39-.74C1242.7,538.15,1243.06,538.13,1243.14,538Z"/><path class="cls-12" d="M1241.39,539.85a2.61,2.61,0,0,1-1.15-.34,3.18,3.18,0,0,1-.63-.43,3.37,3.37,0,0,1-1.44-.39,3.23,3.23,0,0,1-1.49-1.57,2.18,2.18,0,0,1,0-1.9,2.7,2.7,0,0,1,3.69-.78,3.12,3.12,0,0,1,.55.37,1.35,1.35,0,0,1,.44-.2,1.19,1.19,0,0,1,.6,0,.5.5,0,0,1,.34.34c.06.28-.21.57-.62.69l.06.1a1.58,1.58,0,0,1,.38.05,2,2,0,0,1,.76.33c.2.15.29.31.26.46s-.45.38-1,.33c.6.3,1.12.74,1,1s-.36.22-.76.15c.24.24.34.48.25.66s-.63.31-1.25.12c.34.29.49.58.39.76A.46.46,0,0,1,1241.39,539.85Zm-2.54-5.69a2.24,2.24,0,0,0-2,1.11,2.08,2.08,0,0,0,0,1.81,3.11,3.11,0,0,0,1.44,1.52,3.37,3.37,0,0,0,1.41.38h0a3.67,3.67,0,0,0,.63.43c.72.38,1.33.41,1.43.21s-.17-.53-.62-.84l-.41-.29.46.2c.68.28,1.32.3,1.44,0s-.07-.41-.37-.67l-.18-.15.22.06c.43.11.77.1.83,0h0c.09-.19-.33-.63-1.06-1h0v-.18l.06,0c.53.09,1,0,1-.22s-.06-.24-.22-.36a2,2,0,0,0-.72-.3,2.57,2.57,0,0,0-.4-.06h0v0l-.1-.17,0-.07h.07c.38-.09.65-.35.6-.59a.39.39,0,0,0-.26-.26.9.9,0,0,0-.54,0,.94.94,0,0,0-.44.2l0,0,0,0a3.14,3.14,0,0,0-.57-.38A3.21,3.21,0,0,0,1238.85,534.16Z"/><path class="cls-22" d="M1239.15,532.28c-2-3-5-1.2-9.32-4-3.58-2.26-4.12-5.05-5.9-4.68s-3.62,4-3.06,6.86c1.38,7,17,10.25,19.13,6.38C1240.7,535.59,1239.93,533.46,1239.15,532.28Z"/><path class="cls-29" d="M1235.4,538.74a17.45,17.45,0,0,1-2.68-.22c-5.37-.82-11.23-3.82-12-8-.58-2.89,1.14-6.68,3.22-7.11,1.06-.22,1.72.54,2.62,1.6a14.39,14.39,0,0,0,3.44,3.11,12.82,12.82,0,0,0,5.15,1.81c1.67.29,3.12.55,4.22,2.21h0c.78,1.16,1.64,3.4.87,4.82C1239.57,538.12,1237.81,538.74,1235.4,538.74Zm-11.16-14.93-.27,0c-2,.41-3.36,4.23-2.89,6.62.79,4,6.48,6.85,11.71,7.64,3.54.54,6.29,0,7-1.32s-.16-3.35-.85-4.39c-1-1.51-2.3-1.74-3.94-2a13.41,13.41,0,0,1-5.31-1.87,14.78,14.78,0,0,1-3.53-3.2C1225.42,524.4,1224.91,523.81,1224.24,523.81Z"/><ellipse class="cls-3" cx="1237.3" cy="583.9" rx="5.8" ry="2.71"/><ellipse class="cls-3" cx="1250.97" cy="583.9" rx="5.8" ry="2.71" transform="translate(-52.06 127.85) rotate(-5.73)"/><path class="cls-30" d="M899.68,559.38a33.44,33.44,0,1,1,33.44-33.44A33.48,33.48,0,0,1,899.68,559.38Zm0-65.07a31.64,31.64,0,1,0,31.63,31.63A31.67,31.67,0,0,0,899.68,494.31Z"/><path class="cls-30" d="M899.68,547.44a21.5,21.5,0,1,1,21.49-21.5A21.52,21.52,0,0,1,899.68,547.44Zm0-41.19a19.69,19.69,0,1,0,19.69,19.69A19.72,19.72,0,0,0,899.68,506.25Z"/><rect class="cls-30" x="898.77" y="488.5" width="1.81" height="30.61"/><rect class="cls-30" x="906.5" y="525.04" width="30.61" height="1.81"/><rect class="cls-30" x="862.24" y="525.04" width="30.62" height="1.81"/><rect class="cls-30" x="898.77" y="532.77" width="1.81" height="30.61"/><path class="cls-30" d="M1055.42,567.74a33.44,33.44,0,1,1,33.44-33.43A33.47,33.47,0,0,1,1055.42,567.74Zm0-65.07a31.64,31.64,0,1,0,31.63,31.64A31.67,31.67,0,0,0,1055.42,502.67Z"/><path class="cls-30" d="M1055.42,555.8a21.5,21.5,0,1,1,21.49-21.49A21.52,21.52,0,0,1,1055.42,555.8Zm0-41.18a19.69,19.69,0,1,0,19.69,19.69A19.71,19.71,0,0,0,1055.42,514.62Z"/><rect class="cls-30" x="1054.52" y="496.86" width="1.81" height="30.61"/><rect class="cls-30" x="1062.25" y="533.4" width="30.61" height="1.81"/><rect class="cls-30" x="1017.98" y="533.4" width="30.62" height="1.81"/><rect class="cls-30" x="1054.52" y="541.13" width="1.81" height="30.61"/><rect class="cls-31" x="1047.41" y="482.97" width="14.63" height="99.91" transform="translate(-85.51 843.27) rotate(-42.03)"/><line class="cls-31" x1="1021.28" y1="495.82" x2="1088.17" y2="570.03"/><rect class="cls-31" x="1004.45" y="526.1" width="100.6" height="14.63" transform="translate(-68.25 902.06) rotate(-45)"/><line class="cls-31" x1="1019.18" y1="568.99" x2="1090.32" y2="497.85"/><path class="cls-32" d="M685.92,619.19c-1.09,1.65-3.21,1.63-12.15,1.63-12.58,0-14.17,0-14.65-1.1-1-2.39,4.11-7.39,9.32-9.67,1-.44,10-4.42,15.12.37C686,612.67,687.44,616.86,685.92,619.19Z"/><path class="cls-32" d="M741.05,620.38c1.36,2.13,5.88,2.12,14.85,1.68,5.23-.25,13-.86,14.29-3.81a.7.7,0,0,0,.06-.17c.7-2.54-6.27-7.7-13.17-9.07-1.3-.25-10.9-2.16-15,3.5C740.66,614.56,739.58,618.07,741.05,620.38Z"/><path class="cls-33" d="M762.1,577.78c-1.11-34.92-19-65.06-33.47-46.81a25.81,25.81,0,0,0-3.4,5.76,14.94,14.94,0,0,0-7.21-.05c-17.43,3.55-35.82,31.24-41.59,51-3.8,13.06-2.23,23,3,26.06,6,3.47,18.07-1.31,30.46-16.17a112.82,112.82,0,0,0,13.28-20A88.74,88.74,0,0,0,728,594.11c5.47,13.44,13.66,20.89,20.33,19.65C756,612.34,762.77,599,762.1,577.78Z"/><rect class="cls-34" x="649.97" y="539.04" width="4.59" height="15.08" rx="2.03" transform="translate(494.63 -289.69) rotate(39.36)"/><path class="cls-35" d="M649,553.49a1.64,1.64,0,0,1-1-.38l-1.3-1.07a1.66,1.66,0,0,1-.61-1.12,1.7,1.7,0,0,1,.37-1.23l7.73-9.41a1.66,1.66,0,0,1,1.13-.61,1.68,1.68,0,0,1,1.22.37l1.3,1.07a1.7,1.7,0,0,1,.61,1.13,1.67,1.67,0,0,1-.37,1.22l-7.73,9.42a1.61,1.61,0,0,1-1.13.6Zm6.51-13.38h-.16a1.22,1.22,0,0,0-.83.44L646.79,550a1.28,1.28,0,0,0-.27.9,1.2,1.2,0,0,0,.44.83l1.31,1.07a1.23,1.23,0,0,0,1.73-.17l7.73-9.42a1.26,1.26,0,0,0,.27-.9,1.24,1.24,0,0,0-.44-.83l-1.31-1.07A1.18,1.18,0,0,0,655.51,540.11Z"/><rect class="cls-34" x="652.95" y="542.33" width="6.45" height="16.66" rx="2.85" transform="translate(283.94 -220.86) rotate(24.24)"/><path class="cls-35" d="M654.59,559.12a2.35,2.35,0,0,1-.89-.2l-2.06-.93a2.31,2.31,0,0,1-1.16-3.06l5.12-11.37a2.32,2.32,0,0,1,3.06-1.16l2.06.93a2.32,2.32,0,0,1,1.16,3.06l-5.12,11.37A2.31,2.31,0,0,1,654.59,559.12Zm3.16-16.48a1.86,1.86,0,0,0-1.75,1.1l-5.12,11.37a1.88,1.88,0,0,0,.94,2.48l2.06.93a1.88,1.88,0,0,0,2.48-.94l5.12-11.37a1.88,1.88,0,0,0-.94-2.48l-2.06-.93A1.88,1.88,0,0,0,657.75,542.64Z"/><rect class="cls-34" x="661.49" y="544.22" width="5.77" height="14.44" rx="2.55" transform="translate(-84.83 122.29) rotate(-9.89)"/><path class="cls-35" d="M664.28,559a2.15,2.15,0,0,1-2.06-1.78l-1.82-10.43a2.15,2.15,0,0,1,1.75-2.48L664,544a2.15,2.15,0,0,1,2.49,1.75l1.81,10.42a2.15,2.15,0,0,1-1.74,2.49l-1.89.33A3.11,3.11,0,0,1,664.28,559Zm-.16-14.59-1.89.33a1.71,1.71,0,0,0-1.39,2l1.82,10.43a1.67,1.67,0,0,0,.7,1.1,1.73,1.73,0,0,0,1.27.29l1.89-.33a1.68,1.68,0,0,0,1.1-.71,1.64,1.64,0,0,0,.29-1.27l-1.82-10.43A1.7,1.7,0,0,0,664.12,544.38Z"/><rect class="cls-34" x="663.58" y="538.2" width="7.53" height="13.79" rx="3.33" transform="translate(-192.89 495.41) rotate(-35.94)"/><path class="cls-35" d="M669,551.89l-.45,0a3.25,3.25,0,0,1-2.14-1.32l-4.5-6.2a3.29,3.29,0,0,1,.73-4.58l1.14-.83a3.3,3.3,0,0,1,4.59.73l4.49,6.2a3.28,3.28,0,0,1-.73,4.59l-1.14.83A3.31,3.31,0,0,1,669,551.89Zm-3.23-13.15a2.83,2.83,0,0,0-1.73.53l-1.14.83a2.84,2.84,0,0,0-.63,4l4.49,6.21a2.86,2.86,0,0,0,1.86,1.13,2.82,2.82,0,0,0,2.11-.5l1.14-.83a2.85,2.85,0,0,0,.64-4l-4.5-6.2a2.82,2.82,0,0,0-1.85-1.14Z"/><rect class="cls-34" x="657.64" y="545.33" width="4.28" height="13.84" rx="1.89" transform="translate(13.69 -15.95) rotate(1.4)"/><path class="cls-35" d="M660.44,559.4l-1.66,0a1.52,1.52,0,0,1-1.49-1.56l.27-11.22a1.53,1.53,0,0,1,1.57-1.49l1.65,0a1.52,1.52,0,0,1,1.49,1.56L662,557.91A1.53,1.53,0,0,1,660.44,559.4Zm-1.32-13.87a1.09,1.09,0,0,0-1.12,1.06l-.27,11.22a1.08,1.08,0,0,0,1.06,1.11l1.66,0a1.08,1.08,0,0,0,1.11-1.06l.28-11.22a1.09,1.09,0,0,0-1.07-1.11Z"/><polygon class="cls-34" points="664.42 549.36 654.35 540.41 652.36 503.32 685.99 512.42 664.42 549.36"/><path class="cls-35" d="M664.48,549.7l-10.34-9.18v-.09l-2-37.4,34.2,9.25Zm-9.92-9.39,9.81,8.71,21.28-36.46-33.06-8.95Z"/><path class="cls-34" d="M792.12,449.43a1,1,0,0,1-.08-.11L778.83,431a3.4,3.4,0,0,0-4.75-.76l-9,6.52a3.4,3.4,0,0,0-.77,4.75l11.65,16.12-.39.33c-3.7,3.23-4,3.59-4.22,4-5.53,8.33,1.09,25.24,7.11,25.63,2.49.16,5.79-4.9,12.39-15,4.3-6.59,5-8.65,5.18-10.92C796.36,457.21,794.73,452,792.12,449.43Z"/><path class="cls-35" d="M778.5,487.79h-.09c-2.23-.14-4.71-2.52-6.61-6.37-4-8.09-3.16-15.83-.67-19.59.26-.38.46-.68,4.27-4l.23-.2-11.53-16a3.63,3.63,0,0,1,.82-5.06l9-6.52a3.63,3.63,0,0,1,5.06.81l13.21,18.3.06.08v0c2.61,2.56,4.3,7.88,3.93,12.38-.19,2.38-1,4.54-5.22,11C784.23,483.06,781.1,487.85,778.5,487.79Zm-2.36-58a3.24,3.24,0,0,0-1.94.6l-9,6.52a3.19,3.19,0,0,0-.72,4.45l11.76,16.29-.53.46c-3.77,3.28-4,3.59-4.19,3.91-2.43,3.66-3.25,11.22.69,19.16,1.83,3.7,4.17,6,6.25,6.13h.07c2.36.06,5.64-5,12.12-14.9,4.18-6.4,5-8.51,5.15-10.81.36-4.4-1.28-9.58-3.82-12.05l-.06-.09,0-.05-13.22-18.3A3.21,3.21,0,0,0,776.14,429.83Z"/><circle class="cls-34" cx="767.37" cy="429.95" r="11.17"/><rect class="cls-34" x="746.2" y="421.23" width="12.61" height="6.87" rx="3.03" transform="translate(245.17 -274.78) rotate(24.61)"/><path class="cls-35" d="M755.62,429.89a2.65,2.65,0,0,1-1-.23l-7.32-3.36a2.42,2.42,0,0,1-1.3-1.4,2.46,2.46,0,0,1,.07-1.9l1-2.11a2.51,2.51,0,0,1,3.31-1.23l7.33,3.36a2.49,2.49,0,0,1,1.23,3.3l-1,2.11A2.51,2.51,0,0,1,755.62,429.89Zm-6.25-10a2.17,2.17,0,0,0-.76.13,2,2,0,0,0-1.16,1.07l-1,2.11a2,2,0,0,0-.06,1.57,2,2,0,0,0,1.07,1.15l7.33,3.36a2.05,2.05,0,0,0,2.72-1l1-2.11a2.06,2.06,0,0,0-1-2.72l-7.32-3.36A2.09,2.09,0,0,0,749.37,419.87Z"/><rect class="cls-34" x="773.26" y="423.22" width="10.78" height="5.03" rx="2.22" transform="translate(1601.26 92.81) rotate(129.3)"/><path class="cls-35" d="M776.88,431a2,2,0,0,1-1.2-.45l-1.18-1a2,2,0,0,1-.28-2.78l4.61-5.63a1.92,1.92,0,0,1,1.33-.71,2,2,0,0,1,1.45.44l1.18,1a2,2,0,0,1,.71,1.33,2,2,0,0,1-.44,1.45l-4.6,5.62a2,2,0,0,1-1.33.72Zm-2.32-3.91h0a1.55,1.55,0,0,0,.22,2.16l1.18,1a1.54,1.54,0,0,0,2.16-.21l4.6-5.63a1.53,1.53,0,0,0,.34-1.12,1.51,1.51,0,0,0-.55-1l-1.18-1a1.54,1.54,0,0,0-1.13-.34,1.49,1.49,0,0,0-1,.55Z"/><rect class="cls-34" x="762.67" y="411.09" width="12.08" height="5.46" rx="2.41" transform="translate(227.17 1098.58) rotate(-79.96)"/><path class="cls-35" d="M768.47,420.11a2.33,2.33,0,0,1-.37,0l-1-.17a2.44,2.44,0,0,1-2-2.85l1.32-7.48a2.5,2.5,0,0,1,1-1.59,2.41,2.41,0,0,1,1.84-.4l1,.17a2.46,2.46,0,0,1,2,2.85L771,418.08a2.45,2.45,0,0,1-1,1.59A2.51,2.51,0,0,1,768.47,420.11Zm.46-12.13a2,2,0,0,0-1.2.36,2,2,0,0,0-.84,1.31l-1.32,7.47a2,2,0,0,0,1.64,2.35l1,.17a2.1,2.1,0,0,0,1.52-.33,2.06,2.06,0,0,0,.83-1.31l1.32-7.48a2,2,0,0,0-1.64-2.34l-1-.17A1.63,1.63,0,0,0,768.93,408Z"/><rect class="cls-34" x="767.4" y="413.21" width="11.93" height="5.37" rx="2.37" transform="translate(121.19 1003.87) rotate(-70.31)"/><path class="cls-35" d="M772.84,422.17a2,2,0,0,1-.58-.1l-2-.71a1.87,1.87,0,0,1-1-1,1.84,1.84,0,0,1-.07-1.42l2.91-8.14a1.84,1.84,0,0,1,1-1,1.8,1.8,0,0,1,1.42-.07l2,.7a1.85,1.85,0,0,1,1.12,2.38l-2.91,8.14A1.87,1.87,0,0,1,772.84,422.17Zm1-12.12a1.41,1.41,0,0,0-.64.13,1.39,1.39,0,0,0-.73.81l-2.92,8.14a1.44,1.44,0,0,0,.86,1.82l2,.7a1.42,1.42,0,0,0,1.82-.86l2.91-8.14a1.43,1.43,0,0,0-.86-1.82l-2-.7A1.32,1.32,0,0,0,773.87,410.05Z"/><rect class="cls-34" x="770.24" y="417.79" width="11.69" height="5.55" rx="2.45" transform="translate(-40.91 754.8) rotate(-50.7)"/><path class="cls-35" d="M774.29,426.49a1.63,1.63,0,0,1-1-.37l-2.1-1.72a1.59,1.59,0,0,1-.59-1.1,1.57,1.57,0,0,1,.36-1.2l5.6-6.85a1.66,1.66,0,0,1,1.11-.6,1.64,1.64,0,0,1,1.2.37l2.1,1.71a1.61,1.61,0,0,1,.59,1.11,1.58,1.58,0,0,1-.36,1.2l-5.6,6.85a1.63,1.63,0,0,1-1.11.59Zm3.58-11.41h-.15a1.2,1.2,0,0,0-.81.44l-5.6,6.84a1.22,1.22,0,0,0-.27.88,1.18,1.18,0,0,0,.44.81l2.1,1.72a1.21,1.21,0,0,0,.88.27,1.26,1.26,0,0,0,.81-.44l5.6-6.85a1.21,1.21,0,0,0,.27-.88,1.24,1.24,0,0,0-.44-.81l-2.1-1.71A1.22,1.22,0,0,0,777.87,415.08Z"/><rect class="cls-36" x="753.98" y="409.15" width="19.89" height="28.82" transform="translate(-105.94 344.06) rotate(-23.78)"/><path d="M760.61,440.82l0-.05-11.65-26.41,18.31-8.07,0,0,11.64,26.42Zm-11.52-26.41,11.57,26.27,18.11-8-11.58-26.27Z"/><ellipse class="cls-34" cx="661.57" cy="542.17" rx="10.19" ry="7.39" transform="translate(-70.91 983.86) rotate(-70.43)"/><path class="cls-37" d="M771,463.72c-4.08-1.16-7.86.32-14.64,3-5.76,2.25-11,4.32-15.55,8.82a29.28,29.28,0,0,0-2.2,2.47h-.38l-37.9.86h-.18a12.35,12.35,0,0,0-1.45-2.27c-5.75-7-19.49-6-28.25-2-10.86,4.87-22.73,18-18.41,30.56,3.67,10.64,17.41,16,27.74,13.82a21.75,21.75,0,0,0,3.49-1.09l-1.22,16.42c-.89,12,7.26,22.2,18.22,21.7l52.86-2.43c10.55-.48,16.31-11,13.21-22.57l-7-26c11.48-4,22.43-11.7,23.68-21.05C784.11,476.1,778.5,465.87,771,463.72Z"/><path class="cls-38" d="M699.13,556a16.37,16.37,0,0,1-11.44-5.08A21.56,21.56,0,0,1,682,534.24l1.22-16.33a21,21,0,0,1-3.42,1.06,26.67,26.67,0,0,1-16.4-2.08c-5.64-2.62-9.69-6.79-11.4-11.77a17.18,17.18,0,0,1-.48-9.4,24.9,24.9,0,0,1,4-8.79,37.68,37.68,0,0,1,14.91-12.44,37,37,0,0,1,15.28-3.1h0c7.42.18,11.18,2.9,13,5.16a12.37,12.37,0,0,1,1.44,2.25h.15l37.9-.86h.36a27.74,27.74,0,0,1,2.19-2.46c4.5-4.5,9.87-6.61,15.56-8.83,6.82-2.67,10.58-4.14,14.67-3,3.52,1,6.89,3.92,9.25,8A20.07,20.07,0,0,1,783.11,484c-.59,4.34-3.36,8.69-8,12.56A51.5,51.5,0,0,1,759.44,505l7,25.91c1.7,6.31.82,12.47-2.42,16.9a13.94,13.94,0,0,1-10.84,5.74L700.3,556C699.91,556,699.52,556,699.13,556Zm-15.77-38.27v.09l-1.23,16.42a21.45,21.45,0,0,0,5.64,16.6,16.27,16.27,0,0,0,12.53,5l52.86-2.42a13.85,13.85,0,0,0,10.76-5.7c3.21-4.4,4.09-10.53,2.39-16.8l-7-26,0,0a51.7,51.7,0,0,0,15.66-8.5c4.65-3.86,7.41-8.18,8-12.5a19.83,19.83,0,0,0-2.81-12.21c-2.34-4.06-5.69-7-9.18-8h0c-4-1.17-7.8.3-14.6,3-5.68,2.22-11,4.32-15.53,8.81a29.67,29.67,0,0,0-2.2,2.47v0h-.4l-37.91.86h-.22v0a12.12,12.12,0,0,0-1.44-2.26c-1.83-2.24-5.56-4.94-12.94-5.12h0a36.71,36.71,0,0,0-15.23,3.09A37.55,37.55,0,0,0,655.63,487c-3,4.29-6,10.91-3.51,18.1,1.71,4.94,5.74,9.1,11.35,11.7a26.52,26.52,0,0,0,16.33,2.07,21.78,21.78,0,0,0,3.48-1.08Z"/><polygon class="cls-38" points="693.08 478.88 668.93 478.19 670.69 471.06 694.49 471.51 693.08 478.88"/><polygon class="cls-38" points="769.54 468.12 747.24 478.15 742.21 472.55 764.39 462.98 769.54 468.12"/><rect class="cls-38" x="721.91" y="484.36" width="10.57" height="1.55" transform="translate(-120.92 273.33) rotate(-19.69)"/><rect class="cls-38" x="711.57" y="484.81" width="10.57" height="1.4" transform="translate(119.26 -140.97) rotate(12.24)"/><polygon class="cls-39" points="702.74 477.99 708.29 478.05 716.66 484.64 711.23 485.2 702.74 477.99"/><polygon class="cls-39" points="735.88 477.55 739.32 477 732.97 485.14 728.68 483.46 735.88 477.55"/><polygon class="cls-38" points="720.03 486.75 717.47 529.55 731.55 527.1 725.13 486.79 720.03 486.75"/><polygon class="cls-32" points="718.56 484.92 725.8 484.81 725.08 488.06 719.81 488.25 718.56 484.92"/><path class="cls-36" d="M683.09,476.15a1.27,1.27,0,0,1-.5-.1,1,1,0,0,1-.4-.27,1.4,1.4,0,0,1-.33-.51,1.69,1.69,0,0,1-.1-.71V474l-1.24,0,0-1,3.83.09,0,1.63a2.1,2.1,0,0,1-.08.61,1.19,1.19,0,0,1-.2.44,1,1,0,0,1-.39.35A1.28,1.28,0,0,1,683.09,476.15Zm0-1a.44.44,0,0,0,.28-.08.54.54,0,0,0,.17-.2.82.82,0,0,0,.07-.3c0-.1,0-.23,0-.39V474l-1.14,0v.29a2.49,2.49,0,0,0,0,.41.6.6,0,0,0,.12.28.38.38,0,0,0,.19.14A.78.78,0,0,0,683.1,475.13Z"/><path class="cls-32" d="M756.91,419.87c0,.14,0,.17,0,.09s0,0,0,.08l-.07.09c.08-.07.08-.07,0,0s-.06,0,0,0,.05,0-.07,0c.21,0-.13,0,0,0l.28,0c-.19,0,.16,0,.16,0,.18,0,.35.09.53.12a2.49,2.49,0,0,0,2.45-.66c.21-.23.37-.57.6-.78-.21.19,0,0,0,0s-.12.08,0,0-.13.07-.17,0a2,2,0,0,0,.26,0,2.62,2.62,0,0,0,1.18-.06,1.59,1.59,0,0,0,1.11-1.15,1.14,1.14,0,0,0-.73-1.37,1.11,1.11,0,0,0-1.37.74c0,.12,0,.1.08-.07a.38.38,0,0,1,.19-.22l.11,0c-.1,0-.11,0,0,0h-.13c-.11,0-.21,0-.32,0a2.09,2.09,0,0,0-1.32.26,3,3,0,0,0-.84.85l-.14.19-.06.08c.11-.13,0,0-.06.06s.16-.05,0,0,.08,0,0,0,.16,0,0,0c0,0-.35,0-.1,0l-.24-.06a5.28,5.28,0,0,0-1.36-.21,2,2,0,0,0-2,1.89,1.1,1.1,0,0,0,2.2.05Z"/><path class="cls-32" d="M763.06,424.12c-.1.28.1-.09-.08.14.11-.15-.1.07,0,0s-.2.06,0,0a.34.34,0,0,1-.2,0c-.1,0-.09,0,0,0s-.09-.05,0,0l.38.17a1.9,1.9,0,0,0,.67.13,2.58,2.58,0,0,0,2.06-1.34l.25-.36c-.15.2,0,0,.06,0s.21-.18.09-.09.07-.05.1-.05a.25.25,0,0,1-.18.05c-.1,0-.09,0,0,0s-.3-.06-.17,0a2.35,2.35,0,0,1,.4.18,2.22,2.22,0,0,0,2.42-1.13,1.1,1.1,0,0,0-.36-1.51,1.13,1.13,0,0,0-1.51.35c0,.05-.21.21,0,.06,0,.05-.11.1-.16.16s0,0,.06,0c-.09.05-.09.06,0,0s.08,0,0,0l.13,0c.08,0,.31.09.12,0a3.2,3.2,0,0,0-.39-.16,1.83,1.83,0,0,0-.87,0,3.24,3.24,0,0,0-1.85,1.56s-.17.21-.07.1l-.08.08-.12.11.09-.07s-.33.16,0,0c-.16.07.06,0,.12,0s.08,0,0,0l-.08,0c.33.1-.36-.16-.25-.11a1.06,1.06,0,0,0-.25-.09,2,2,0,0,0-2.39,1.31,1.1,1.1,0,1,0,2.1.64Z"/><path class="cls-32" d="M763.69,430.16l.06.15c0-.09,0-.09,0,0s0-.14,0,.11,0,.11,0,0l-.07.14a.26.26,0,0,0,.07-.11l-.07.09s0,0,0-.05-.22.13,0,0-.06,0-.07,0,.17,0,.21-.05-.26,0,0,0H764l.38,0a3.88,3.88,0,0,0,.76,0,2.51,2.51,0,0,0,1.82-.72l.26-.31a.63.63,0,0,0,.12-.1l-.11.08c.09,0,.09-.05,0,0s0,0,0,0c.22-.06,0,0,0,0h.15c-.16,0-.2,0-.11,0l.1,0a1.1,1.1,0,0,0,1.37-.73,1.12,1.12,0,0,0-.73-1.37,2.26,2.26,0,0,0-2.36.59c0,.06-.25.37-.33.37s.18-.14,0,0,0,0,.1,0a.45.45,0,0,1-.11,0s-.17.06-.19,0h0l-.47,0a3.07,3.07,0,0,0-2.36.49,1.9,1.9,0,0,0-.54,2.34,1.1,1.1,0,0,0,1.49.43,1.12,1.12,0,0,0,.43-1.49Z"/><polygon class="cls-38" points="748.09 507.39 738.98 509.59 737.7 496.45 746.61 494.4 748.09 507.39"/><path class="cls-34" d="M737.71,461A2.83,2.83,0,0,0,738,459c-.15-1.14-.71-2-1.25-1.94-.29,0-.52.34-.64.79a17,17,0,0,0-29.06,1.26c-.14-.66-.41-1.11-.72-1.11-.48,0-.9,1-.94,2.36a4.15,4.15,0,0,0,.38,2.05,15.33,15.33,0,0,0-.51,3.6c-.22,8.91,7.08,16.32,16.31,16.54s16.88-6.81,17.09-15.72A15.43,15.43,0,0,0,737.71,461Z"/><path class="cls-35" d="M721.6,482.79c-9.33-.23-16.74-7.75-16.52-16.77a15.42,15.42,0,0,1,.49-3.56,4.71,4.71,0,0,1-.36-2.08c0-1.3.45-2.6,1.17-2.58.31,0,.58.28.77.76a17.23,17.23,0,0,1,28.94-1.16,1,1,0,0,1,.67-.54c.69-.09,1.33.83,1.49,2.14a3.08,3.08,0,0,1-.3,2,15.66,15.66,0,0,1,1,5.86C738.7,475.87,730.93,483,721.6,482.79Zm-15.23-24.55c-.27,0-.69.85-.72,2.15a4.06,4.06,0,0,0,.35,1.93l0,.08,0,.09a15.36,15.36,0,0,0-.51,3.54c-.21,8.78,7,16.1,16.1,16.32s16.66-6.73,16.88-15.51a15.53,15.53,0,0,0-1-5.8l0-.12.08-.09a2.68,2.68,0,0,0,.28-1.78c-.14-1.06-.64-1.8-1-1.75-.19,0-.36.26-.46.63l-.13.47L736,458a16.78,16.78,0,0,0-28.68,1.24l-.28.54-.13-.59C706.73,458.49,706.49,458.24,706.37,458.24Z"/><path class="cls-38" d="M730.57,445.42a1.88,1.88,0,0,0-.54-.36.14.14,0,0,0-.13-.05,1.38,1.38,0,0,0-.49-.06l-13.62-1.48a5.13,5.13,0,0,0-2.75,1l-3.16,2.25c-.46.33-.63.62-.51.78h0a.82.82,0,0,0-.86,1l.56,5.36a1.11,1.11,0,0,0,1.05,1l13.33.06a.62.62,0,0,0,.35-.12l0,0c1.51-.53,2.76-1,3.71-1.41s1.54-.65,2.59-1.13a8.4,8.4,0,0,0,2-1C733.23,449.84,732.16,446.77,730.57,445.42Z"/><path class="cls-20" d="M726.65,464.67c.75,1.53,2.53,1.95,4.09,2a.5.5,0,0,0,.5-.5.51.51,0,0,0-.5-.5,5.61,5.61,0,0,1-2-.4,2.42,2.42,0,0,1-1.23-1.15.5.5,0,0,0-.68-.18.51.51,0,0,0-.18.69Z"/><path class="cls-20" d="M728.29,462.53a1.77,1.77,0,0,1,.74.59,4.88,4.88,0,0,1,.63.88,5.42,5.42,0,0,1,.64,2,.51.51,0,0,0,.5.5.51.51,0,0,0,.5-.5,6.59,6.59,0,0,0-.81-2.59,3.94,3.94,0,0,0-1.93-1.87.51.51,0,0,0-.62.35.52.52,0,0,0,.35.61Z"/><path class="cls-32" d="M713,458.82l.38.33a.27.27,0,0,0,.46-.11,8.15,8.15,0,0,0,.26-1.19l-.48.18.85.77a.28.28,0,0,0,.46-.11,6.6,6.6,0,0,1,.32-1l-.46.11.71.8a.28.28,0,0,0,.44,0,2.09,2.09,0,0,0,.42-1.36l-.54.06.34.86c.08.2.39.32.5.08a7.62,7.62,0,0,0,.51-1.3h-.53a7.84,7.84,0,0,0,.41,1.49.28.28,0,0,0,.53,0,3.92,3.92,0,0,0,.32-1.35l-.52.13a5.12,5.12,0,0,1,.35.92.28.28,0,0,0,.5.08,9.61,9.61,0,0,0,.56-1.11l-.5.05.35.85c.1.24.42.13.5-.06a2.67,2.67,0,0,1,.57-.83l-.45-.13.33,1a.27.27,0,0,0,.45.13l.72-.71h-.38a.62.62,0,0,1,.14.36.28.28,0,0,0,.5.08,3.32,3.32,0,0,0,.36-.67l-.5.06a1.74,1.74,0,0,1,.25.49.28.28,0,0,0,.46.13l.49-.55h-.38a2.83,2.83,0,0,1,.34.51.27.27,0,0,0,.47,0,2.07,2.07,0,0,1,.39-.45l-.43-.06a2.19,2.19,0,0,1,.23.71.27.27,0,0,0,.45.13,4.53,4.53,0,0,1,.6-.56l-.46-.14a3.55,3.55,0,0,1,0,1,.28.28,0,0,0,.47.21l.53-.58-.43-.07a1.31,1.31,0,0,1,.18.72c0,.22.31.4.47.21a1.92,1.92,0,0,1,.56-.5l-.37-.11a1.19,1.19,0,0,1,.08.79.28.28,0,0,0,.46.28l.59-.56-.43-.07a.59.59,0,0,1,0,.55c-.11.26.26.47.45.28l.36-.35-.47-.21,0,.76a.28.28,0,0,0,.47.2l.3-.31-.46-.2,0,.31a.29.29,0,0,0,.34.28h0c.29.19.58-.28.29-.47a.5.5,0,0,0-.43-.08l.34.28,0-.32a.28.28,0,0,0-.47-.21l-.3.32.46.2,0-.76a.27.27,0,0,0-.46-.2l-.36.35.45.28a1.17,1.17,0,0,0,0-1,.28.28,0,0,0-.43-.07l-.6.56.45.28a1.9,1.9,0,0,0-.13-1.22.28.28,0,0,0-.38-.1,2.48,2.48,0,0,0-.67.58l.46.2a1.65,1.65,0,0,0-.25-1,.28.28,0,0,0-.43-.07l-.53.58.46.21a4.24,4.24,0,0,0,0-1.18c0-.22-.32-.24-.46-.13a5.3,5.3,0,0,0-.6.56l.46.13A2.32,2.32,0,0,0,723,457a.28.28,0,0,0-.43-.06,2.53,2.53,0,0,0-.48.55l.48,0a3.34,3.34,0,0,0-.43-.63.28.28,0,0,0-.39,0l-.49.56.46.13a2.46,2.46,0,0,0-.31-.63.28.28,0,0,0-.5,0,3.16,3.16,0,0,1-.31.54l.5.08a1.27,1.27,0,0,0-.28-.61.27.27,0,0,0-.39,0l-.71.72.45.13-.33-1.05a.28.28,0,0,0-.46-.13,3.38,3.38,0,0,0-.71,1.08l.5-.06-.35-.85c-.1-.24-.42-.13-.5.06a9.11,9.11,0,0,1-.51,1l.5.08a5.91,5.91,0,0,0-.4-1.06.27.27,0,0,0-.51.13,3.53,3.53,0,0,1-.3,1.2h.53a8.32,8.32,0,0,1-.41-1.48c0-.28-.45-.27-.53,0a6.9,6.9,0,0,1-.45,1.17l.5.08-.33-.86c-.11-.27-.55-.28-.54.06a1.63,1.63,0,0,1-.35,1.08l.43,0-.71-.81a.28.28,0,0,0-.46.11,5.61,5.61,0,0,0-.32,1l.46-.11-.85-.77a.28.28,0,0,0-.47.18,7.7,7.7,0,0,1-.23,1.06l.46-.11-.38-.34c-.26-.23-.66.14-.4.38Z"/><path class="cls-32" d="M727.64,458.69a1,1,0,0,0,.9.58.28.28,0,0,0,.26-.2,4,4,0,0,0,0-1.46l-.5.2c.15.28.54.68.89.5s.13-.93.07-1.27l-.46.26a3.19,3.19,0,0,0,1,.72.28.28,0,0,0,.41-.3l-.22-1.36-.41.3.52.4a.27.27,0,0,0,.41-.15l.2-.81-.41.15.77.61a.28.28,0,0,0,.41-.15,7.14,7.14,0,0,0,.14-1l-.42.23a1.09,1.09,0,0,0,1.32.2.69.69,0,0,0,.14-1,.27.27,0,0,0-.47.18.59.59,0,0,1-.18.36l.46.13-.11-.47c-.07-.3-.56-.26-.54.05a.51.51,0,0,0,.75.43.76.76,0,0,0,.33-.45c.06-.19,0-.44.2-.57l-.46-.21a1.55,1.55,0,0,0,.14.85.27.27,0,0,0,.47,0,1,1,0,0,0,.17-.62L733,455l.44.33a.28.28,0,0,0,.28,0,.43.43,0,0,0,.25-.32c.06-.34-.46-.51-.53-.16h.29l-.44-.34a.28.28,0,0,0-.42.23.6.6,0,0,1-.09.34h.48a1,1,0,0,1-.08-.58c0-.26-.29-.33-.46-.2a.76.76,0,0,0-.28.47c0,.08,0,.18,0,.27a.83.83,0,0,1,0,.15s0,.08,0,.12l-.54.06.1.48a.29.29,0,0,0,.46.13,1.22,1.22,0,0,0,.35-.75l-.48.19c.1.11-.12.23-.2.23s-.42-.15-.57-.27-.41,0-.42.23a4.34,4.34,0,0,1-.12.87l.41-.16-.77-.6a.27.27,0,0,0-.41.15l-.2.81.41-.15-.52-.41c-.21-.16-.44.09-.41.31l.22,1.36.41-.3a2.93,2.93,0,0,1-.84-.64.28.28,0,0,0-.47.25l.08.43a2.55,2.55,0,0,1,.05.32l.16-.13c-.08,0-.21-.19-.24-.24a.28.28,0,0,0-.51.2,3.23,3.23,0,0,1,0,1.16l.27-.19a.45.45,0,0,1-.43-.3c-.15-.32-.63-.06-.48.27Z"/><ellipse class="cls-40" cx="732.14" cy="459.84" rx="3.81" ry="3.18" transform="translate(-132.42 454.74) rotate(-31.79)"/><path class="cls-38" d="M738.11,455.43c-6,1.38-15.83,1.41-16.17-.9-.23-1.52,3.71-3.67,7.13-4.16,5.64-.81,11.26,2.71,11,4.11C740,454.92,739.32,455.16,738.11,455.43Z"/><ellipse class="cls-41" cx="720.89" cy="461.14" rx="3.47" ry="5.91" transform="translate(54.23 997.71) rotate(-71.44)"/><path class="cls-36" d="M727.84,451.28l-1.07.26a.9.9,0,0,1-1.23-.87l0-1.56a1.59,1.59,0,0,1,1.33-1.45l1.11-.17a.9.9,0,0,1,1.09,1L729,449.9A1.63,1.63,0,0,1,727.84,451.28Z"/><ellipse class="cls-9" cx="721.94" cy="461.69" rx="2.16" ry="3.26" transform="translate(242.75 1172.13) rotate(-88.6)"/><path class="cls-32" d="M721.88,463.9c-1.82,0-3.28-1.07-3.25-2.29s1.54-2.18,3.36-2.13,3.29,1.07,3.26,2.29S723.71,464,721.88,463.9Zm.11-4.31c-1.77,0-3.23.86-3.26,2s1.39,2.14,3.16,2.18,3.22-.86,3.25-2S723.76,459.63,722,459.59Z"/><ellipse class="cls-9" cx="731.93" cy="459.84" rx="2.61" ry="2.15" transform="translate(-126.92 362.15) rotate(-25.65)"/><path class="cls-32" d="M731.49,462.14a2.8,2.8,0,0,1-.58-.08,2,2,0,0,1-1.35-2.82,3,3,0,0,1,1.42-1.39,3,3,0,0,1,2-.23,2,2,0,0,1,1.38,1.07h0a2,2,0,0,1,0,1.74,2.89,2.89,0,0,1-1.41,1.39A3.08,3.08,0,0,1,731.49,462.14Zm.88-4.49a2.91,2.91,0,0,0-1.34.3,2.88,2.88,0,0,0-1.37,1.34,1.84,1.84,0,0,0,1.28,2.66,2.94,2.94,0,0,0,3.26-1.56,1.93,1.93,0,0,0,0-1.66h0a1.91,1.91,0,0,0-1.31-1A3.31,3.31,0,0,0,732.37,457.65Z"/><circle class="cls-42" cx="723.64" cy="461.73" r="0.68"/><circle class="cls-42" cx="733.28" cy="459.13" r="0.68"/><path class="cls-20" d="M725.22,461.15c-.13.39-2,.08-3.34-.14s-2.6-.42-2.61-.76,1.53-.95,3-.76S725.35,460.77,725.22,461.15Z"/><path class="cls-20" d="M734.23,458.18c.11.45-1.42.85-2.48,1.13s-2.1.56-2.28.22.63-1.53,1.81-1.9S734.13,457.76,734.23,458.18Z"/><path class="cls-20" d="M738.4,472c-.08-6.37-11-6.51-18.83-3.1-4.84,2.12-7.78,5.41-8,8s2.28,5.12,7.16,5.59C726.76,483.24,738.48,478.67,738.4,472Z"/><path class="cls-43" d="M721.24,472.55c.22-.49,4.69,2.66,9.23,1,3.83-1.43,5.15-5.35,5.67-5.07s-.28,6.4-4.39,8.18C726.82,478.77,721,473.12,721.24,472.55Z"/><path class="cls-32" d="M721.24,472.74a11,11,0,0,0,8.66,2.63,5.2,5.2,0,0,0,3.82-2.21,21.63,21.63,0,0,0,2.46-4.87c0-.06-.08-.09-.1,0a23.61,23.61,0,0,1-2.26,4.56,5.54,5.54,0,0,1-1.62,1.72,5.88,5.88,0,0,1-2.32.72,10.89,10.89,0,0,1-8.56-2.59c-.05-.05-.13,0-.08.07Z"/><path class="cls-32" d="M730.4,473.77a2.3,2.3,0,0,1,.42,1.35.06.06,0,0,0,.11,0,2.38,2.38,0,0,0-.45-1.42c-.05-.05-.13,0-.08.07Z"/><path class="cls-32" d="M730.82,475.17a1.45,1.45,0,0,0,.2.34,1.34,1.34,0,0,1,.16.39,3,3,0,0,1,.1.85.06.06,0,0,0,.11,0,3.51,3.51,0,0,0-.09-.85,1.77,1.77,0,0,0-.15-.38,1.57,1.57,0,0,1-.22-.38.06.06,0,0,0-.11,0Z"/><path class="cls-32" d="M732.36,472.71a2,2,0,0,1,.68,1.18c0,.07.12,0,.1,0a2,2,0,0,0-.7-1.23c-.05-.05-.13,0-.08.08Z"/><path class="cls-32" d="M733.71,475.07l-.26-.65-.13-.31a.64.64,0,0,0-.15-.25.05.05,0,1,0-.07.08.56.56,0,0,1,.13.24l.13.32.25.62c0,.07.12,0,.1-.05Z"/><path class="cls-32" d="M734.05,471.15a.83.83,0,0,0,.19.27.76.76,0,0,1,.11.33.06.06,0,0,0,.11,0,.76.76,0,0,0-.11-.36,1.34,1.34,0,0,0-.11-.14.38.38,0,0,1-.09-.13c0-.07-.12,0-.1,0Z"/><path class="cls-32" d="M734.49,471.92a2.28,2.28,0,0,1,.51,1.24.06.06,0,0,0,.11,0,2.48,2.48,0,0,0-.52-1.29c0-.06-.14,0-.1.05Z"/><path class="cls-32" d="M727.94,474.15c-.08.4.08.8,0,1.2,0,.07.1.1.11,0,.08-.4-.09-.8,0-1.2,0-.06-.09-.1-.11,0Z"/><path class="cls-32" d="M727.92,475.47a5.56,5.56,0,0,1,0,.71,1,1,0,0,1-.2.57c-.05.05,0,.13.08.08a1,1,0,0,0,.22-.57,5.17,5.17,0,0,0,0-.79.06.06,0,0,0-.11,0Z"/><path class="cls-32" d="M725.43,473.93a1.57,1.57,0,0,1-.17.93c0,.07.06.12.09.06a1.72,1.72,0,0,0,.19-1c0-.07-.12,0-.11,0Z"/><path class="cls-32" d="M725.25,474.92a1.3,1.3,0,0,1-.39.63c-.05.05,0,.13.07.08a1.37,1.37,0,0,0,.42-.67.05.05,0,0,0,0-.07s-.07,0-.07,0Z"/><path class="cls-32" d="M720.4,473.32a2.12,2.12,0,0,1-.24-1,.73.73,0,0,1,.43-.64c.07,0,0-.13,0-.11a.84.84,0,0,0-.51.68,2,2,0,0,0,.25,1.1c0,.07.12,0,.09-.05Z"/><path class="cls-32" d="M718.93,471.39a1.94,1.94,0,0,1,1.21-.36c.07,0,.07-.1,0-.11a2.07,2.07,0,0,0-1.29.39c-.05,0,0,.12.08.08Z"/><path class="cls-32" d="M735.88,467.39a.53.53,0,0,1,.75.38.06.06,0,0,0,.07,0s0,0,0-.06a.63.63,0,0,0-.91-.45c-.07,0,0,.13,0,.09Z"/><path class="cls-32" d="M736.7,466.58a1.32,1.32,0,0,1,.94,1.13c0,.07.11.08.1,0a1.39,1.39,0,0,0-1-1.24.05.05,0,1,0,0,.1Z"/><text class="cls-44" transform="translate(1024.25 627.03)">= -1</text><text class="cls-44" transform="translate(826.7 627.03)">= +1 point</text><path class="cls-45" d="M1086,627.91c-8.9-7-13.91-14.31-12-18.59a5.9,5.9,0,0,1,4.94-3.37c2.76,0,5.57,2.57,6.74,6.63.67-4,3.12-6.78,5.84-7.08a6,6,0,0,1,5.55,3C1099.22,612.65,1094.59,620.29,1086,627.91Z"/><text class="cls-44" transform="translate(615.5 709.93)">Det er eftermiddag p parkeringspladsen og parkeringsvagterne<tspan x="0" y="30.1">str p lur! Srg </tspan><tspan class="cls-46" x="182.52" y="30.1">f</tspan><tspan class="cls-47" x="191.25" y="30.1">or at ingen vagter nr hen til bilen og at du ikke </tspan><tspan x="0" y="60.21">skyder de uskylige </tspan><tspan class="cls-46" x="217.16" y="60.21">f</tspan><tspan class="cls-47" x="225.89" y="60.21">orbipasserende. Skyd 8 vagter </tspan><tspan class="cls-48" x="576.58" y="60.21">f</tspan><tspan class="cls-49" x="585.31" y="60.21">or at vinde, du</tspan><tspan x="0" y="90.31">har 1 minut. Held og lykke!</tspan></text></svg>