<svg xmlns="http://www.w3.org/2000/svg" viewBox="0 0 82.92 82.92"><defs><style>.cls-1{fill:#6eb649;}</style></defs><g id="Layer_2" data-name="Layer 2"><g id="Layer_1-2" data-name="Layer 1"><path class="cls-1" d="M41.46,78.49a37,37,0,1,1,37-37A37.07,37.07,0,0,1,41.46,78.49Zm0-72.06a35,35,0,1,0,35,35A35.08,35.08,0,0,0,41.46,6.43Z"/><path class="cls-1" d="M41.46,65.26a23.8,23.8,0,1,1,23.8-23.8A23.82,23.82,0,0,1,41.46,65.26Zm0-45.6a21.8,21.8,0,1,0,21.8,21.8A21.83,21.83,0,0,0,41.46,19.66Z"/><rect class="cls-1" x="40.46" width="2" height="33.9"/><rect class="cls-1" x="49.02" y="40.46" width="33.9" height="2"/><rect class="cls-1" y="40.46" width="33.9" height="2"/><rect class="cls-1" x="40.46" y="49.02" width="2" height="33.9"/></g></g></svg>