<svg id="Layer_1" data-name="Layer 1" xmlns="http://www.w3.org/2000/svg" viewBox="0 0 152.48 152.48"><defs><style>.cls-1{fill:#fff;stroke:#1d1d1b;stroke-miterlimit:10;}.cls-2{fill:#1d1d1b;}</style></defs><circle class="cls-1" cx="76.24" cy="76.24" r="75.2"/><path class="cls-1" d="M76.24,152A75.74,75.74,0,1,1,152,76.24,75.83,75.83,0,0,1,76.24,152Zm0-150.4A74.66,74.66,0,1,0,150.9,76.24,74.74,74.74,0,0,0,76.24,1.58Z"/><rect class="cls-2" x="141.87" y="68.15" width="2.9" height="16.25" transform="translate(219.59 -67.05) rotate(90)"/><rect class="cls-2" x="74.79" y="135.73" width="2.9" height="16.25" transform="translate(152.48 287.71) rotate(180)"/><rect class="cls-2" x="74.79" y="135.73" width="2.9" height="16.25" transform="translate(152.48 287.71) rotate(180)"/><rect class="cls-2" x="74.79" y="1.58" width="2.9" height="16.25" transform="translate(152.48 19.4) rotate(180)"/><rect class="cls-2" x="8.25" y="68.15" width="2.9" height="16.25" transform="translate(85.97 66.57) rotate(90)"/><circle class="cls-2" cx="79.47" cy="77.05" r="4.35"/><path class="cls-2" d="M79.11,65.17a9.23,9.23,0,0,1,3.17.57c4.88,1.72,9.68,7,9.25,12.88a12,12,0,0,1-5.78,9.06h0c-4,2.41-8.38,1.73-20.34-1.7-7.29-2.08-14.66-4.39-21.94-6.85l-1.31-.45,1.3-.49C50,75.67,56.57,73.1,62.88,70.53l2.33-.94C72.38,66.66,76,65.17,79.11,65.17Zm6.12,21.66h0a11,11,0,0,0,5.3-8.29c.39-5.38-4.06-10.26-8.59-11.86-3.72-1.32-6.9,0-16.36,3.83l-2.32.95c-5.91,2.4-12,4.81-18.15,7.16,6.83,2.3,13.74,4.45,20.57,6.4C77.33,88.36,81.55,89,85.23,86.83Z"/><rect class="cls-2" x="93.78" y="9.85" width="10.9" height="1" transform="matrix(0.26, -0.96, 0.96, 0.26, 63.17, 103.38)"/><rect class="cls-2" x="114" y="20.99" width="10.9" height="1" transform="translate(24.08 96.55) rotate(-48.4)"/><rect class="cls-2" x="128.69" y="36.69" width="10.9" height="1" transform="translate(0.83 77.27) rotate(-32.23)"/><rect class="cls-2" x="137.87" y="56.36" width="10.9" height="1" transform="translate(-10.29 43.54) rotate(-16.68)"/><rect class="cls-2" x="141.54" y="93.5" width="1" height="10.9" transform="translate(9.31 210.08) rotate(-74.8)"/><rect class="cls-2" x="130.41" y="113.72" width="1" height="10.9" transform="translate(-45.12 137.98) rotate(-48.41)"/><rect class="cls-2" x="114.71" y="128.41" width="1" height="10.9" transform="translate(-53.63 82.05) rotate(-32.22)"/><rect class="cls-2" x="95.04" y="137.59" width="1" height="10.9" transform="translate(-37.09 33.51) rotate(-16.71)"/><rect class="cls-2" x="47.9" y="141.65" width="10.9" height="1" transform="matrix(0.26, -0.96, 0.96, 0.26, -97.82, 156.28)"/><rect class="cls-2" x="27.67" y="130.51" width="10.9" height="1" transform="translate(-86.84 68.81) rotate(-48.4)"/><rect class="cls-2" x="12.99" y="114.81" width="10.9" height="1" transform="translate(-58.66 27.6) rotate(-32.23)"/><rect class="cls-2" x="3.81" y="95.14" width="10.9" height="1" transform="translate(-27.07 6.68) rotate(-16.68)"/><rect class="cls-2" x="9.84" y="48.47" width="1" height="10.9" transform="translate(-44.4 49.76) rotate(-74.8)"/><rect class="cls-2" x="20.98" y="28.25" width="1" height="10.9" transform="translate(-17.98 27.4) rotate(-48.41)"/><rect class="cls-2" x="36.68" y="13.56" width="1" height="10.9" transform="matrix(0.85, -0.53, 0.53, 0.85, -4.41, 22.76)"/><rect class="cls-2" x="56.35" y="4.38" width="1" height="10.9" transform="translate(-0.43 16.76) rotate(-16.71)"/><path class="cls-2" d="M74.72,28.48a4.32,4.32,0,0,1-.33,1.69,3.49,3.49,0,0,1-.92,1.33,4.42,4.42,0,0,1-1.46.88,5.54,5.54,0,0,1-2,.31,6,6,0,0,1-1.91-.29,3.85,3.85,0,0,1-1.48-.87,4.31,4.31,0,0,1-1.09-1.73,7.69,7.69,0,0,1-.37-2.54,9.4,9.4,0,0,1,.35-2.72,5.53,5.53,0,0,1,1.15-2.1,4.94,4.94,0,0,1,2-1.36,7.71,7.71,0,0,1,2.91-.49,11.66,11.66,0,0,1,1.25.08c.45,0,.74.09.88.12v2.29h-.3a3.67,3.67,0,0,0-.71-.23,4.49,4.49,0,0,0-1.15-.13,3.39,3.39,0,0,0-2.33.73,3.12,3.12,0,0,0-1,2.05,6.35,6.35,0,0,1,1.27-.58A4.44,4.44,0,0,1,71,24.69a5.05,5.05,0,0,1,1.26.16,3.55,3.55,0,0,1,1.08.5,3.19,3.19,0,0,1,1,1.22A4.19,4.19,0,0,1,74.72,28.48Zm-3.55,1.76a2.23,2.23,0,0,0,.39-.63,2.89,2.89,0,0,0,.14-1,2.43,2.43,0,0,0-.16-.93,1.49,1.49,0,0,0-.46-.58,1.53,1.53,0,0,0-.66-.3,3.47,3.47,0,0,0-.79-.08,3.65,3.65,0,0,0-.72.07,5.67,5.67,0,0,0-.69.2v.26c0,.12,0,.27,0,.45a5.37,5.37,0,0,0,.19,1.58,2.36,2.36,0,0,0,.51.95,1.43,1.43,0,0,0,.52.36,1.87,1.87,0,0,0,.64.11,1.62,1.62,0,0,0,.57-.12A1.37,1.37,0,0,0,71.17,30.24Z"/><path class="cls-2" d="M86,26.62a11.62,11.62,0,0,1-.27,2.63,4.89,4.89,0,0,1-.83,1.9,3.58,3.58,0,0,1-1.48,1.15,6.57,6.57,0,0,1-4.46,0,3.54,3.54,0,0,1-1.5-1.16,5,5,0,0,1-.83-1.9,12,12,0,0,1-.26-2.61A11.41,11.41,0,0,1,76.68,24a5,5,0,0,1,.84-1.89A3.65,3.65,0,0,1,79,21a5.81,5.81,0,0,1,2.2-.38,5.74,5.74,0,0,1,2.25.39A3.72,3.72,0,0,1,85,22.14,5,5,0,0,1,85.78,24,11.75,11.75,0,0,1,86,26.62Zm-3,0a8,8,0,0,0-.41-3,1.43,1.43,0,0,0-1.38-.89,1.41,1.41,0,0,0-1.37.89,7.79,7.79,0,0,0-.42,3,7.45,7.45,0,0,0,.43,3,1.47,1.47,0,0,0,2.73,0A7.75,7.75,0,0,0,83,26.62Z"/><path class="cls-2" d="M121.72,80.79H114v-2h2.46V72.61H114v-1.9a7.44,7.44,0,0,0,1.08-.07,2.68,2.68,0,0,0,.86-.23,1.47,1.47,0,0,0,.61-.5,1.57,1.57,0,0,0,.24-.79h2.58v9.64h2.4Z"/><path class="cls-2" d="M133.58,76.85a4,4,0,0,1-.34,1.68,3.75,3.75,0,0,1-1,1.34,4.85,4.85,0,0,1-1.65.88,7.28,7.28,0,0,1-2.13.28,11.91,11.91,0,0,1-2.36-.22,10.14,10.14,0,0,1-1.58-.48V77.76h.33a8.52,8.52,0,0,0,1.53.7,5,5,0,0,0,1.63.28,6,6,0,0,0,1.07-.11,1.78,1.78,0,0,0,1.31-.9,1.72,1.72,0,0,0,.14-.78,1.33,1.33,0,0,0-.18-.7,1.54,1.54,0,0,0-.48-.47,2.74,2.74,0,0,0-1-.34,8.87,8.87,0,0,0-1.08-.08,7.37,7.37,0,0,0-1.35.12c-.43.08-.8.16-1.13.24H125V69.16h8.27v2.22h-5.45v1.9l.61,0h.66a7.36,7.36,0,0,1,1.71.18,4.83,4.83,0,0,1,1.3.52,2.94,2.94,0,0,1,1.11,1.13A3.55,3.55,0,0,1,133.58,76.85Z"/><path class="cls-2" d="M73.8,127.57a2.67,2.67,0,0,1,.65.81,2.71,2.71,0,0,1,.24,1.24,3.91,3.91,0,0,1-.35,1.63,3.35,3.35,0,0,1-1.06,1.29,4.92,4.92,0,0,1-1.64.8,7.93,7.93,0,0,1-2.28.28,12.58,12.58,0,0,1-2.64-.24,10,10,0,0,1-1.79-.54v-2.72h.33a7.68,7.68,0,0,0,1.7.75,6.08,6.08,0,0,0,1.82.32,7.88,7.88,0,0,0,1-.08,2.16,2.16,0,0,0,1-.35,1.56,1.56,0,0,0,.49-.5,1.63,1.63,0,0,0,.18-.85,1.21,1.21,0,0,0-.25-.83,1.3,1.3,0,0,0-.66-.42,3.35,3.35,0,0,0-1-.15H67.82v-2.21h.71c.43,0,.81,0,1.14,0a2.74,2.74,0,0,0,.85-.19,1.1,1.1,0,0,0,.73-1.19.88.88,0,0,0-.19-.6,1.44,1.44,0,0,0-.48-.36,2.41,2.41,0,0,0-.77-.2c-.29,0-.54,0-.75,0a6,6,0,0,0-1.7.27,7.83,7.83,0,0,0-1.76.78h-.31v-2.68a12.7,12.7,0,0,1,4.23-.79,8.92,8.92,0,0,1,2,.21,4.88,4.88,0,0,1,1.45.54,2.74,2.74,0,0,1,1,1,2.71,2.71,0,0,1,.33,1.36,2.86,2.86,0,0,1-.64,1.84,2.79,2.79,0,0,1-1.68,1v.12a5,5,0,0,1,.9.23A3,3,0,0,1,73.8,127.57Z"/><path class="cls-2" d="M87,127.17a12.45,12.45,0,0,1-.28,2.8,5.22,5.22,0,0,1-.88,2,3.83,3.83,0,0,1-1.58,1.22,7,7,0,0,1-4.74,0A3.64,3.64,0,0,1,78,132a5.13,5.13,0,0,1-.89-2,12.75,12.75,0,0,1-.27-2.77,12.21,12.21,0,0,1,.28-2.8,5.46,5.46,0,0,1,.9-2,3.72,3.72,0,0,1,1.59-1.22,6.08,6.08,0,0,1,2.34-.41,5.93,5.93,0,0,1,2.38.42,3.88,3.88,0,0,1,1.58,1.25,5.43,5.43,0,0,1,.88,2A12.56,12.56,0,0,1,87,127.17Zm-3.21,0a8.32,8.32,0,0,0-.44-3.19,1.6,1.6,0,0,0-2.92,0,8.36,8.36,0,0,0-.44,3.21,8.07,8.07,0,0,0,.45,3.17,1.56,1.56,0,0,0,2.9,0A8.15,8.15,0,0,0,83.8,127.17Z"/><path class="cls-2" d="M29.18,78.59H27.6V81.3H24.73V78.59H19.1v-2.2l5.44-6.75H27.6v6.82h1.58Zm-4.45-2.13V72.25l-3.39,4.21Z"/><path class="cls-2" d="M40.14,77.33A4,4,0,0,1,39.8,79a3.53,3.53,0,0,1-1,1.34,4.76,4.76,0,0,1-1.65.88,7.28,7.28,0,0,1-2.13.28,11.21,11.21,0,0,1-2.36-.22,9,9,0,0,1-1.57-.48V78.24h.32a8.62,8.62,0,0,0,1.54.7,4.9,4.9,0,0,0,1.63.28,5.88,5.88,0,0,0,1.06-.11,1.87,1.87,0,0,0,.91-.41,2,2,0,0,0,.41-.49,1.74,1.74,0,0,0,.13-.78,1.33,1.33,0,0,0-.18-.7,1.51,1.51,0,0,0-.47-.47,2.73,2.73,0,0,0-1-.34,8.6,8.6,0,0,0-1.08-.08A7.34,7.34,0,0,0,33,76c-.43.08-.81.16-1.13.24h-.35V69.64h8.28v2.22H34.35v1.9l.62,0h.65a6.83,6.83,0,0,1,1.71.19,4.59,4.59,0,0,1,1.31.51,3,3,0,0,1,1.1,1.13A3.58,3.58,0,0,1,40.14,77.33Z"/></svg>