<svg id="Layer_1" data-name="Layer 1" xmlns="http://www.w3.org/2000/svg" xmlns:xlink="http://www.w3.org/1999/xlink" viewBox="0 0 1920 1080"><defs><style>.cls-1{fill:#9d723d;}.cls-2{fill:#1d1d1b;}.cls-3{fill:url(#radial-gradient);}.cls-4{fill:#454542;}.cls-5{fill:url(#radial-gradient-2);}.cls-6{fill:#b46e19;}.cls-7{fill:url(#radial-gradient-3);}.cls-8{fill:#a3473a;}.cls-9{fill:url(#linear-gradient);}.cls-10{fill:url(#linear-gradient-2);}.cls-11{fill:#7f6a4f;}.cls-12{fill:#7c3840;}.cls-13{fill:#141b2e;}.cls-14{fill:url(#radial-gradient-4);}.cls-15{fill:#fff;}.cls-16{fill:url(#radial-gradient-5);}.cls-17{fill:#636362;}.cls-18{fill:#5d6061;}.cls-19{fill:url(#radial-gradient-6);}.cls-20{fill:url(#linear-gradient-3);}.cls-21{fill:url(#linear-gradient-4);}</style><radialGradient id="radial-gradient" cx="89.67" cy="365.94" r="31.9" gradientTransform="translate(584.71 1080) rotate(180)" gradientUnits="userSpaceOnUse"><stop offset="0.11" stop-color="#fff"/><stop offset="0.19" stop-color="#f0f0f0"/><stop offset="0.34" stop-color="#c8c8c8"/><stop offset="0.54" stop-color="#898989"/><stop offset="0.55" stop-color="#868686"/><stop offset="0.72" stop-color="#656564"/><stop offset="0.9" stop-color="#474746"/><stop offset="1" stop-color="#3c3c3b"/></radialGradient><radialGradient id="radial-gradient-2" cx="455.81" cy="367.18" r="31.9" gradientTransform="translate(-222.91 1180.6) rotate(-91.91)" xlink:href="#radial-gradient"/><radialGradient id="radial-gradient-3" cx="1904.06" cy="3799.6" r="2.08" gradientTransform="matrix(-7.52, -4.53, 7.52, -4.53, -14169.88, 26431.24)" gradientUnits="userSpaceOnUse"><stop offset="0.21" stop-color="#f5f5f5"/><stop offset="0.24" stop-color="#f5f0e6"/><stop offset="0.31" stop-color="#f6e2be"/><stop offset="0.39" stop-color="#f7cb7e"/><stop offset="0.49" stop-color="#f8b133"/><stop offset="0.51" stop-color="#f8ba4d" stop-opacity="0.99"/><stop offset="0.57" stop-color="#f7cf88" stop-opacity="0.98"/><stop offset="0.63" stop-color="#f6dfb7" stop-opacity="0.97"/><stop offset="0.68" stop-color="#f5ebd9" stop-opacity="0.96"/><stop offset="0.72" stop-color="#f5f2ee" stop-opacity="0.95"/><stop offset="0.75" stop-color="#f5f5f5" stop-opacity="0.95"/><stop offset="0.75" stop-color="#f5f5ea" stop-opacity="0.95"/><stop offset="0.79" stop-color="#f8f2ac" stop-opacity="0.95"/><stop offset="0.83" stop-color="#faf078" stop-opacity="0.95"/><stop offset="0.87" stop-color="#fcef4d" stop-opacity="0.95"/><stop offset="0.9" stop-color="#fdee2b" stop-opacity="0.95"/><stop offset="0.94" stop-color="#feed13" stop-opacity="0.95"/><stop offset="0.97" stop-color="#ffec05" stop-opacity="0.95"/><stop offset="1" stop-color="#ffec00" stop-opacity="0.95"/></radialGradient><linearGradient id="linear-gradient" x1="196.44" y1="544.26" x2="282.56" y2="544.26" gradientTransform="translate(584.71 1080) rotate(180)" gradientUnits="userSpaceOnUse"><stop offset="0" stop-color="#fff"/><stop offset="0.13" stop-color="#f8fbfe"/><stop offset="0.33" stop-color="#e4f2fa"/><stop offset="0.56" stop-color="#c4e1f5"/><stop offset="0.81" stop-color="#97cbed"/><stop offset="1" stop-color="#73b9e7"/></linearGradient><linearGradient id="linear-gradient-2" x1="112.62" y1="541.55" x2="181.87" y2="541.55" xlink:href="#linear-gradient"/><radialGradient id="radial-gradient-4" cx="1664.79" cy="175.18" r="29.27" gradientTransform="matrix(1, 0, 0, -1, 0, 1080)" gradientUnits="userSpaceOnUse"><stop offset="0.11" stop-color="#161412" stop-opacity="0"/><stop offset="0.25" stop-color="#272624" stop-opacity="0.17"/><stop offset="0.54" stop-color="#555553" stop-opacity="0.63"/><stop offset="0.55" stop-color="#575756" stop-opacity="0.65"/><stop offset="1" stop-color="#3c3c3b" stop-opacity="0.95"/></radialGradient><radialGradient id="radial-gradient-5" cx="1253.46" cy="170.44" r="27.86" xlink:href="#radial-gradient-4"/><radialGradient id="radial-gradient-6" cx="1748.36" cy="265.04" r="16.3" gradientTransform="matrix(0.71, 0.71, 0.71, -0.71, 324.67, -233.89)" xlink:href="#radial-gradient-3"/><linearGradient id="linear-gradient-3" x1="1431.38" y1="346.87" x2="1533.45" y2="346.87" gradientTransform="matrix(1, 0, 0, -1, 0, 1080)" gradientUnits="userSpaceOnUse"><stop offset="0" stop-color="#fff"/><stop offset="1" stop-color="#73b9e7"/></linearGradient><linearGradient id="linear-gradient-4" x1="1314.68" y1="346.83" x2="1406.5" y2="346.83" gradientTransform="matrix(1, 0, 0, -1, 0, 1080)" xlink:href="#linear-gradient"/></defs><g id="rudolf"><path class="cls-1" d="M557.88,720.77c8.85-22,6.13-45.27-7.33-59.73-14.72-15.82-36.35-14.69-48.35-14-26.41,1.38-62.87,15.78-69.45,44.4-2.42,10.52-.12,20,2,26Z"/><path class="cls-2" d="M495,684.27a30.32,30.32,0,1,1-30.31,30.33h0A30.32,30.32,0,0,1,495,684.27m0-24.22a54.54,54.54,0,1,0,54.54,54.54h0A54.59,54.59,0,0,0,495,660.05Z"/><circle class="cls-3" cx="495.04" cy="714.06" r="31.9"/><path class="cls-4" d="M478.86,691.66c7.05.45,12.45,13.17,8.68,18.17s-17.26,3.42-19.73-3.26C465.59,700.57,472.61,691.26,478.86,691.66Z"/><path class="cls-2" d="M477.07,713c-3.77-.55-8.29-2.49-9.69-6.27-1.08-2.91-.15-6.85,2.41-10.29s6-5.43,9.1-5.24h0c4,.26,7.16,4.1,8.77,7.61,2,4.4,2.11,8.83.24,11.3-1.49,2-4.54,3.09-8.13,3.09A18.76,18.76,0,0,1,477.07,713Zm-6.55-16c-2.37,3.19-3.25,6.8-2.28,9.42,1.26,3.4,5.45,5.17,9,5.68,4.33.64,8.34-.38,10-2.54s1.5-6.33-.35-10.35c-1.49-3.27-4.38-6.85-8-7.08h-.36c-2.73,0-5.74,1.87-8,4.87Z"/><path class="cls-4" d="M471.16,730.19c.46-7.43,14.25-13.32,19.6-9.19,5.15,4,3.66,18.14-3.52,20.85C480.69,744.33,470.75,736.74,471.16,730.19Z"/><path class="cls-2" d="M476.34,739.79c-3.68-2.71-5.84-6.4-5.64-9.62h0c.26-4.24,4.41-7.6,8.21-9.32,4.75-2.15,9.51-2.24,12.13-.22s3.76,6.48,3,11.45c-.59,3.93-2.64,8.68-6.65,10.2a8.25,8.25,0,0,1-2.91.5A14.17,14.17,0,0,1,476.34,739.79Zm2.94-18.1c-5.41,2.46-7.51,6-7.66,8.53h0c-.18,2.88,1.89,6.34,5.26,8.83s7.35,3.45,10.2,2.37c3.64-1.37,5.52-5.8,6.07-9.48.68-4.57-.39-8.82-2.67-10.58A7.29,7.29,0,0,0,486,720.1,16.61,16.61,0,0,0,479.28,721.69Z"/><path class="cls-4" d="M522,720.56c-3.06-6.68-14.55-7.7-18.27-3.64-4.65,5.09,1.38,19.71,7.86,20.15C517.06,737.45,525.21,727.71,522,720.56Z"/><path class="cls-2" d="M511.51,737.53c-3.83-.26-7-4.8-8.5-8.61s-2.37-9.36.33-12.31c1.89-2.07,5.74-3,9.8-2.35,4.34.68,7.79,3,9.22,6.11h0c1.5,3.28.81,7.54-1.85,11.38-2.42,3.51-5.86,5.79-8.66,5.79Zm-7.5-20.3c-2,2.17-2,6.63-.15,11.35s4.95,7.84,7.71,8c2.51.18,5.88-2,8.19-5.38,2.47-3.57,3.13-7.49,1.77-10.48h0c-1.31-2.86-4.5-5-8.53-5.58a14.12,14.12,0,0,0-2.34-.19c-2.82,0-5.34.85-6.66,2.28Z"/><path class="cls-4" d="M516.79,697.86c.1,7.55-14.19,14.53-19.61,10.62-5-3.62-4.28-18,3.17-21C506.92,684.75,516.71,691.65,516.79,697.86Z"/><path class="cls-2" d="M496.91,708.85c-2.53-1.83-3.84-6.37-3.26-11.3.61-5.16,3.05-9.09,6.52-10.52,3.17-1.3,7.32-.59,11.1,1.91s5.94,5.83,6,8.91c.06,4.31-4.08,8-8,10a17.67,17.67,0,0,1-8,2.2A7.47,7.47,0,0,1,496.91,708.85Zm3.61-21c-3.16,1.3-5.39,5-6,9.78-.54,4.53.65,8.83,2.89,10.45s6.93,1.27,11.4-1.05,7.53-6,7.48-9.2h0c0-2.74-2.22-5.94-5.56-8.15a13.39,13.39,0,0,0-7.2-2.4,8.2,8.2,0,0,0-3,.6Z"/><path class="cls-1" d="M193.25,715.64c7.13-20.62,3.95-42.12-8.85-55.84-14.83-15.92-36.39-14.73-48.34-14.07-24.43,1.35-61.17,14.18-69.45,44.39-3.66,13.34-.55,25.63,2.22,33.12Z"/><path class="cls-2" d="M128.9,683a30.32,30.32,0,1,1-30.32,30.32h0A30.31,30.31,0,0,1,128.89,683h0m0-24.23a54.54,54.54,0,1,0,54.54,54.54h0A54.62,54.62,0,0,0,128.9,658.8Z"/><circle class="cls-5" cx="128.9" cy="712.82" r="31.9" transform="matrix(0.03, -1, 1, 0.03, -587.81, 817.93)"/><path class="cls-4" d="M112.72,690.42c7,.45,12.45,13.17,8.67,18.17s-17.26,3.41-19.72-3.27C99.45,699.33,106.46,690,112.72,690.42Z"/><path class="cls-2" d="M110.92,711.76c-3.76-.56-8.29-2.5-9.69-6.28-1.07-2.9-.15-6.85,2.41-10.28s6-5.44,9.11-5.24h0c4,.26,7.16,4.1,8.76,7.61,2,4.39,2.11,8.83.25,11.29-1.5,2-4.54,3.1-8.13,3.1A18.9,18.9,0,0,1,110.92,711.76Zm-6.54-16c-2.38,3.19-3.25,6.8-2.28,9.42,1.25,3.4,5.45,5.16,9,5.68,4.33.64,8.33-.38,10-2.54s1.5-6.33-.35-10.36c-1.5-3.27-4.38-6.84-8-7.08h-.36c-2.73,0-5.74,1.82-8,4.87Z"/><path class="cls-4" d="M105,729c.46-7.44,14.25-13.33,19.6-9.2,5.15,4,3.66,18.14-3.51,20.86C114.55,743.09,104.61,735.5,105,729Z"/><path class="cls-2" d="M110.2,738.55c-3.68-2.71-5.84-6.4-5.64-9.63h0c.26-4.24,4.41-7.59,8.2-9.31,4.75-2.16,9.51-2.24,12.13-.22s3.76,6.48,3,11.44c-.59,3.94-2.65,8.69-6.66,10.21a8.2,8.2,0,0,1-2.9.5A14.14,14.14,0,0,1,110.2,738.55Zm2.94-18.11c-5.42,2.46-7.51,6-7.67,8.54h0c-.18,2.87,1.89,6.34,5.27,8.83s7.35,3.45,10.2,2.37c3.64-1.38,5.52-5.8,6.07-9.48.68-4.57-.4-8.82-2.68-10.58a7.31,7.31,0,0,0-4.47-1.26A16.64,16.64,0,0,0,113.14,720.44Z"/><path class="cls-4" d="M155.8,719.32c-3.05-6.68-14.55-7.71-18.27-3.64-4.65,5.08,1.38,19.7,7.86,20.15C150.91,736.2,159.07,726.46,155.8,719.32Z"/><path class="cls-2" d="M145.36,736.29c-3.83-.27-7-4.8-8.49-8.61s-2.37-9.36.32-12.31c1.9-2.07,5.75-3,9.81-2.35,4.33.68,7.78,3,9.22,6.11h0c1.5,3.28.81,7.54-1.85,11.38-2.43,3.51-5.86,5.79-8.67,5.79ZM137.87,716c-2,2.17-2,6.62-.15,11.35s4.94,7.84,7.7,8c2.52.17,5.88-2,8.19-5.38,2.48-3.58,3.14-7.5,1.77-10.48h0c-1.31-2.87-4.49-5-8.52-5.59a15.27,15.27,0,0,0-2.34-.18C141.7,713.74,139.18,714.56,137.87,716Z"/><path class="cls-4" d="M150.65,696.61c.1,7.56-14.2,14.54-19.61,10.63-5-3.63-4.29-18,3.16-21C140.77,683.51,150.57,690.41,150.65,696.61Z"/><path class="cls-2" d="M130.77,707.61c-2.54-1.83-3.85-6.37-3.26-11.3.61-5.16,3-9.1,6.52-10.52,3.16-1.31,7.32-.59,11.1,1.91s5.94,5.82,6,8.91c0,4.3-4.09,8-8,10a17.82,17.82,0,0,1-8,2.19A7.48,7.48,0,0,1,130.77,707.61Zm3.61-21c-3.16,1.29-5.39,5-6,9.77-.54,4.54.65,8.84,2.89,10.46s6.92,1.27,11.39-1,7.53-6,7.49-9.2h0c0-2.74-2.22-5.94-5.57-8.15a13.34,13.34,0,0,0-7.19-2.41,8,8,0,0,0-3,.56Z"/><path class="cls-6" d="M556.12,719.11h84.34c-3.85-63.13-23.14-88.38-41.54-99.26-27.06-16-48.79,1.3-77-16.26-35.1-21.83-20-59.11-52.21-91.59-36.58-36.9-115.21-48.45-157.5-9.41-25.59,23.62-29.28,57.84-29.95,71.9l-190,.85c-32.39,27.44-45.14,56.18-50.5,71.9-2,5.72-20.32,61.1,0,74.47,7.55,5,18.28,2.72,27.39-.86-2.32-23.4,7.39-46,25.68-58.2,25.2-16.84,58.29-8.4,77,9.41,16.16,15.37,19,35.22,19.69,41.94l243.94,1.72c-.35-3.22-3-32.2,18-50.5,21.3-18.6,52.5-13.55,71.71-1.44C553.76,681.79,556,715.61,556.12,719.11Z"/><path d="M41.43,722.1c-8.68-5.72-11.57-19.38-8.57-40.6a202.92,202.92,0,0,1,8.38-34.45c9.16-26.87,26.67-51.81,50.65-72.12l.13-.12L281.75,574c.91-17.48,6.06-49.58,30.09-71.77,19.55-18,49.17-26.76,81.28-23.9C423.25,481,452,493.43,470,511.62c15.25,15.39,19.87,31.56,24.33,47.2,4.83,16.9,9.39,32.87,27.79,44.31,14.32,8.91,27.15,8.78,39.55,8.64,11.87-.13,24.14-.26,37.48,7.62,24.58,14.53,38.64,48.06,41.78,99.66v.53H555.59v-.48c-.18-3.75-2.57-37.2-30.77-55-27.75-17.48-56.31-11.53-71.11,1.39-20.58,18-18.15,46.84-17.81,50.07l.06.56-244.5-1.72H191V714c-.94-9.5-4.73-27.55-19.53-41.62-18.09-17.2-51-26.33-76.42-9.36-18,12-27.79,34.17-25.45,57.73v.38l-.35.14Q59.65,725,52.36,725A19.49,19.49,0,0,1,41.43,722.1ZM94.5,662.2c25.82-17.25,59.28-8,77.66,9.47,14.8,14.08,18.76,32.05,19.79,41.81l242.94,1.7c-.47-5.2-1.88-32.83,18.19-50.37,9.84-8.59,22.63-12.85,37-12.36a73.14,73.14,0,0,1,35.33,10.87c27.67,17.43,30.86,49.73,31.21,55.29H640c-3.19-50.94-17.07-84-41.26-98.33-13.1-7.74-24.69-7.62-37-7.48-12.55.14-25.52.28-40.09-8.79-18.72-11.64-23.33-27.79-28.22-44.89-4.43-15.51-9-31.56-24.08-46.76-17.87-18-46.39-30.39-76.29-33-31.83-2.83-61.17,5.79-80.51,23.64-24,22.15-29,54.34-29.79,71.55V575l-190.31.85C68.63,596,51.27,620.73,42.18,647.37c-2.11,6.19-20,60.84-.2,73.89,6.06,4,15,3.72,26.58-.77C66.33,696.71,76.25,674.4,94.5,662.2Z"/><ellipse class="cls-7" cx="82.61" cy="603.07" rx="24.32" ry="11.89" transform="translate(-480.97 373.08) rotate(-60)"/><ellipse class="cls-8" cx="619.86" cy="654.99" rx="9.34" ry="18.11"/><path class="cls-9" d="M388.27,500.19,388.15,572l-86-.41c.18-4.72,1.75-33.26,26-54.13C353.62,495.55,383.84,499.53,388.27,500.19Z"/><path class="cls-10" d="M402.84,501.1c6.4.32,27.24,2.16,45.32,18.46,24,21.68,24,51.59,23.92,56.24l-68.4-2.52Z"/><rect class="cls-11" x="356.97" y="633.67" width="75.81" height="3" transform="matrix(0.01, -1, 1, 0.01, -243.78, 1024.39)"/><path class="cls-11" d="M357.49,597.6a3.76,3.76,0,0,1,3.74-3.74h16.45a3.74,3.74,0,1,1,.39,7.47H361.23A3.75,3.75,0,0,1,357.49,597.6Zm3.74-.74a.74.74,0,1,0,0,1.47h16.45a.74.74,0,1,0,0-1.47Z"/><path class="cls-11" d="M453.58,597.6a3.76,3.76,0,0,1,3.74-3.74h13.61a3.74,3.74,0,0,1,0,7.47H457.32A3.75,3.75,0,0,1,453.58,597.6Zm3.74-.74a.74.74,0,1,0,0,1.47h13.61a.73.73,0,0,0,.73-.73.75.75,0,0,0-.73-.74Z"/></g><g id="rosa"><path class="cls-12" d="M1202.13,924.68,1116,922.15c-7.93-75.25,9-102.66,25.33-114,28.93-20.09,61.75,6.2,103.29-15.09,35.79-18.33,28-46.33,61.39-78.65,51.47-49.8,151.14-61.83,207.74-22.8,38.18,26.32,24.55,53.66,63,78.45,57.92,37.39,113.58-7,165,22.89,25,14.5,52.74,48.81,58.61,138.58l-80.84,1.74c10.43-24.19,5.38-51.91-12.41-69.55-20.93-20.77-53.51-21.62-76.84-7.43a65,65,0,0,0-29.13,70.47L1306,919.62c3.64-19.86-2.48-39.89-16.82-51.8-21-17.47-53.63-12.39-71.88,5.75C1197.4,893.33,1201.61,921.59,1202.13,924.68Z"/><path class="cls-13" d="M1716.82,935.08l1.09-2.52c10-23.32,5.22-50.49-12-67.6-19-18.9-50.45-21.91-74.68-7.18a62.89,62.89,0,0,0-28.34,68.57l.53,2.22-299.5-7.24.37-2c3.61-19.63-2.61-38.84-16.21-50.13-20.8-17.28-52.73-11-69.51,5.64-19.11,19-15.19,46.51-14.67,49.58l.35,2.12-89.83-2.65-.16-1.53c-6.35-60.29,2.42-99.2,26.09-115.64,14.64-10.17,30.29-8.87,46.85-7.5,17.61,1.45,35.82,2.95,56.64-7.71,19.27-9.87,25.61-22.72,33-37.6,6-12.23,12.87-26.09,28-40.74,53-51.27,153.07-62.23,210-23,19.31,13.32,25.68,27,31.83,40.15,6.24,13.39,12.14,26,31.09,38.27,30,19.33,59.53,16.4,88.14,13.56,26.72-2.65,52-5.16,76.84,9.29,34.72,20.16,54.74,67.26,59.49,140l.12,1.84ZM1664.43,845c16.34,0,32.3,6,43.93,17.49,17.65,17.52,23,44.93,13.81,69l76.32-1.65c-4.89-70.43-24.27-116-57.62-135.32-23.89-13.88-48.58-11.43-74.72-8.83-29.21,2.9-59.41,5.9-90.4-14.11-19.81-12.78-26.2-26.49-32.38-39.74-6-12.77-12.11-26-30.63-38.74-55.66-38.38-153.62-27.6-205.52,22.62-14.7,14.23-21.39,27.8-27.3,39.77-7.61,15.44-14.19,28.77-34.5,39.18-21.71,11.13-41.27,9.51-58.54,8.08-16.61-1.37-31-2.56-44.55,6.89-22.33,15.51-30.66,52.8-24.75,110.84l82.52,2.43c-.89-7.77-2.06-32.65,16-50.55,22.87-22.72,56.35-20.73,74.26-5.86,14.1,11.72,20.81,31.28,17.76,51.45L1599,925a66.34,66.34,0,0,1,30.43-70.17A67.5,67.5,0,0,1,1664.43,845Z"/><path class="cls-2" d="M1253.46,883.55A26.47,26.47,0,1,1,1227,910v0a26.47,26.47,0,0,1,26.47-26.47m0-21.15A47.63,47.63,0,1,0,1301.08,910v0A47.68,47.68,0,0,0,1253.46,862.38Z"/><path class="cls-2" d="M1664.76,876.3a28.48,28.48,0,1,1-28.48,28.48h0a28.48,28.48,0,0,1,28.48-28.48m0-24.68a53.16,53.16,0,1,0,53.16,53.16A53.16,53.16,0,0,0,1664.76,851.62Z"/><circle class="cls-14" cx="1664.79" cy="904.82" r="29.27"/><circle class="cls-15" cx="1253.46" cy="910.02" r="25.91"/><path class="cls-4" d="M1678.88,884.76c-6.15.39-10.87,11.5-7.57,15.86s15.07,3,17.22-2.85C1690.47,892.54,1684.35,884.41,1678.88,884.76Z"/><path class="cls-2" d="M1678.09,903.57c-3.14,0-5.8-1-7.1-2.71-1.63-2.15-1.55-6,.21-9.86,1.41-3.06,4.15-6.42,7.66-6.64h0c2.66-.17,5.71,1.58,8,4.57s3,6.44,2.1,9c-1.22,3.3-5.17,5-8.46,5.48A17,17,0,0,1,1678.09,903.57Zm1.13-18.42h-.31c-3.15.2-5.67,3.32-7,6.18-1.61,3.51-1.73,7.15-.3,9s4.92,2.78,8.7,2.22c3.07-.45,6.73-2,7.83-5,.84-2.29.08-5.44-2-8.23s-4.59-4.17-6.91-4.17Z"/><path class="cls-4" d="M1685.61,918.4c-.4-6.49-12.44-11.63-17.11-8-4.5,3.48-3.2,15.84,3.06,18.21C1677.29,930.75,1686,924.12,1685.61,918.4Z"/><path class="cls-2" d="M1674,929.4a7.54,7.54,0,0,1-2.54-.44c-3.5-1.33-5.3-5.47-5.81-8.91-.64-4.34.39-8.26,2.64-10s6.45-1.69,10.59.19c3.32,1.5,6.94,4.43,7.17,8.13h0c.17,2.82-1.71,6-4.93,8.41A12.38,12.38,0,0,1,1674,929.4Zm-1.32-19.81a6.34,6.34,0,0,0-3.9,1.1c-2,1.54-2.93,5.25-2.34,9.24.48,3.21,2.13,7.08,5.31,8.28,2.48.94,5.89.15,8.9-2.07s4.76-5.2,4.6-7.71h0c-.14-2.2-2-5.31-6.7-7.45A14.41,14.41,0,0,0,1672.64,909.59Z"/><path class="cls-4" d="M1641.23,910c2.67-5.83,12.7-6.73,16-3.17,4.06,4.44-1.2,17.2-6.86,17.59C1645.53,924.74,1638.41,916.23,1641.23,910Z"/><path class="cls-2" d="M1650.08,924.82c-2.45,0-5.45-2-7.57-5.05-2.32-3.36-2.92-7.08-1.61-9.94h0c1.25-2.75,4.26-4.74,8-5.34,3.54-.56,6.91.25,8.56,2.06,2.35,2.57,1.62,7.4.28,10.75s-4.07,7.28-7.41,7.51Zm1-19.7a12.69,12.69,0,0,0-2,.16c-3.52.56-6.3,2.38-7.44,4.88h0c-1.2,2.61-.62,6,1.54,9.15,2,2.92,5,4.85,7.15,4.7,2.41-.16,5.12-3,6.73-7s1.6-8-.13-9.91c-1.11-1.26-3.3-2-5.76-2Z"/><path class="cls-4" d="M1645.76,890.17c-.09,6.6,12.4,12.69,17.13,9.27,4.38-3.16,3.74-15.68-2.77-18.36C1654.38,878.73,1645.83,884.75,1645.76,890.17Z"/><path class="cls-2" d="M1659.28,900.83a15.74,15.74,0,0,1-7-1.91c-3.4-1.77-7-5-7-8.76,0-2.69,2-5.67,5.22-7.78s6.93-2.8,9.69-1.67c3,1.25,5.17,4.68,5.7,9.19.51,4.3-.64,8.27-2.85,9.87A6.52,6.52,0,0,1,1659.28,900.83Zm-2-19.87a11.56,11.56,0,0,0-6.28,2.09c-2.92,1.93-4.83,4.73-4.86,7.12h0c0,2.8,2.53,6,6.54,8s7.9,2.4,10,.92,3-5.16,2.52-9.13c-.49-4.21-2.44-7.4-5.2-8.54a6.92,6.92,0,0,0-2.7-.42Z"/><circle class="cls-16" cx="1253.46" cy="909.56" r="27.86"/><path class="cls-4" d="M1267.58,890c-6.15.4-10.87,11.5-7.57,15.87s15.07,3,17.23-2.85C1279.17,897.78,1273.05,889.65,1267.58,890Z"/><path class="cls-2" d="M1266.79,908.82c-3.14,0-5.79-1-7.1-2.71-1.63-2.15-1.54-6,.21-9.86,1.41-3.06,4.16-6.42,7.66-6.65h0c2.67-.17,5.72,1.59,8,4.58s3,6.44,2.1,9c-1.22,3.3-5.17,5-8.46,5.48A17.74,17.74,0,0,1,1266.79,908.82Zm1.14-18.43h-.32c-3.15.21-5.67,3.33-7,6.18-1.61,3.52-1.73,7.15-.3,9s4.92,2.77,8.7,2.22c3.07-.46,6.73-2,7.83-5,.85-2.29.08-5.44-2-8.22s-4.61-4.18-6.91-4.18Z"/><path class="cls-4" d="M1274.31,923.65c-.4-6.49-12.44-11.64-17.11-8-4.5,3.47-3.2,15.84,3.07,18.21C1266,936,1274.67,929.37,1274.31,923.65Z"/><path class="cls-2" d="M1262.66,934.64a7.24,7.24,0,0,1-2.53-.43c-3.51-1.33-5.3-5.48-5.82-8.91-.64-4.34.4-8.26,2.64-10s6.45-1.69,10.6.19c3.31,1.51,6.93,4.43,7.16,8.14h0c.18,2.81-1.71,6-4.92,8.4A12.49,12.49,0,0,1,1262.66,934.64Zm-1.31-19.8a6.25,6.25,0,0,0-3.91,1.1c-2,1.54-2.93,5.25-2.33,9.24.48,3.21,2.12,7.07,5.3,8.28,2.48.94,5.9.14,8.9-2.07s4.76-5.2,4.6-7.71h0c-.13-2.2-2-5.31-6.69-7.46A14.39,14.39,0,0,0,1261.35,914.84Z"/><path class="cls-4" d="M1230,915.24c2.67-5.83,12.71-6.73,16-3.18,4.06,4.44-1.21,17.21-6.87,17.6C1234.23,930,1227.11,921.48,1230,915.24Z"/><path class="cls-2" d="M1238.78,930.07c-2.45,0-5.45-2-7.57-5.06-2.32-3.35-2.92-7.07-1.61-9.94h0c1.25-2.74,4.26-4.74,8.05-5.33,3.55-.56,6.91.25,8.56,2,2.36,2.58,1.63,7.4.29,10.75s-4.07,7.29-7.42,7.52Zm1-19.7a12.17,12.17,0,0,0-2,.16c-3.52.55-6.31,2.38-7.45,4.88h0c-1.19,2.6-.62,6,1.54,9.15,2,2.92,5,4.85,7.16,4.7,2.41-.17,5.11-3,6.72-7s1.6-8-.13-9.9c-1.14-1.28-3.34-2-5.8-2Z"/><path class="cls-4" d="M1234.46,895.42c-.08,6.59,12.4,12.69,17.13,9.27,4.38-3.16,3.74-15.69-2.76-18.36C1243.09,884,1234.53,890,1234.46,895.42Z"/><path class="cls-2" d="M1248,906.08a15.58,15.58,0,0,1-7-1.92c-3.4-1.76-7-5-7-8.75,0-2.69,2-5.67,5.22-7.78s6.93-2.81,9.7-1.67c3,1.25,5.16,4.68,5.69,9.19.51,4.3-.63,8.27-2.85,9.87A6.52,6.52,0,0,1,1248,906.08Zm-2-19.88a11.55,11.55,0,0,0-6.29,2.1c-2.92,1.93-4.83,4.73-4.86,7.12h0c0,2.8,2.53,6,6.54,8s7.91,2.4,9.95.92,3-5.17,2.53-9.13c-.5-4.21-2.45-7.4-5.21-8.54a6.85,6.85,0,0,0-2.64-.47Z"/><rect class="cls-17" x="1416.01" y="800.93" width="2.64" height="98.37" transform="translate(-4.14 6.94) rotate(-0.28)"/><path class="cls-18" d="M1441.74,804.76c-2.18,0-9.31-.28-9.31-3.92s7.13-3.93,9.31-3.93,9.31.29,9.31,3.93S1443.93,804.76,1441.74,804.76Zm-4.19-3.92a22.28,22.28,0,0,0,8.38,0A21.88,21.88,0,0,0,1437.55,800.84Z"/><path class="cls-18" d="M1314.13,802.6c-2.19,0-9.31-.28-9.31-3.92s7.12-3.93,9.31-3.93,9.31.28,9.31,3.93S1316.31,802.6,1314.13,802.6Zm-4.19-3.92a22.28,22.28,0,0,0,8.38,0,26.18,26.18,0,0,0-8.38,0Z"/><ellipse class="cls-19" cx="1748.36" cy="814.97" rx="14.53" ry="17.89" transform="translate(-64.19 1474.98) rotate(-45)"/><path class="cls-20" d="M1431.38,692a123,123,0,0,1,57.2,21.74c29.61,21,41.12,49.16,44.87,59.82l-101.13.71Z"/><path class="cls-21" d="M1406.5,692.34A117.06,117.06,0,0,0,1314.68,774l90.84-.32Q1406,733,1406.5,692.34Z"/><ellipse class="cls-8" cx="1134.9" cy="829.46" rx="20.43" ry="10.55" transform="translate(-149.75 1400.12) rotate(-60.11)"/></g></svg>